<svg width="70" height="70" viewBox="0 0 70 70" fill="none" xmlns="http://www.w3.org/2000/svg">
<mask id="mask0_1_2154" style="mask-type:alpha" maskUnits="userSpaceOnUse" x="0" y="0" width="70" height="70">
<rect width="70" height="70" fill="#D9D9D9"/>
</mask>
<g mask="url(#mask0_1_2154)">
<path d="M19.4487 37.9168C18.2779 37.9168 17.2828 38.3422 16.4633 39.1929C15.6438 40.0436 15.234 41.0765 15.234 42.2918C15.234 43.5071 15.6438 44.5401 16.4633 45.3908C17.2828 46.2415 18.2779 46.6668 19.4487 46.6668C20.6194 46.6668 21.6145 46.2415 22.4341 45.3908C23.2536 44.5401 23.6633 43.5071 23.6633 42.2918C23.6633 41.0765 23.2536 40.0436 22.4341 39.1929C21.6145 38.3422 20.6194 37.9168 19.4487 37.9168ZM44.7366 29.1668C48.483 29.1668 51.5269 30.2484 53.8684 32.4116C56.2099 34.5748 57.3806 37.3821 57.3806 40.8335V52.5002C57.3806 54.1043 56.8304 55.4776 55.7299 56.62C54.6294 57.7623 53.3064 58.3335 51.7611 58.3335L57.3806 64.1668H32.0926L37.7122 58.3335C36.1668 58.3335 34.8439 57.7623 33.7434 56.62C32.6429 55.4776 32.0926 54.1043 32.0926 52.5002V40.8335C32.0926 37.3821 33.2634 34.5748 35.6049 32.4116C37.9463 30.2484 40.9903 29.1668 44.7366 29.1668ZM44.7366 48.1252C44.1747 48.1252 43.683 48.3439 43.2615 48.7814C42.84 49.2189 42.6293 49.7293 42.6293 50.3127C42.6293 50.896 42.84 51.4064 43.2615 51.8439C43.683 52.2814 44.1747 52.5002 44.7366 52.5002C45.2986 52.5002 45.7903 52.2814 46.2118 51.8439C46.6332 51.4064 46.844 50.896 46.844 50.3127C46.844 49.7293 46.6332 49.2189 46.2118 48.7814C45.7903 48.3439 45.2986 48.1252 44.7366 48.1252ZM36.8693 37.9168C36.6819 38.3543 36.5415 38.8161 36.4478 39.3022C36.3541 39.7884 36.3073 40.2988 36.3073 40.8335V43.7502H53.1659V40.8335C53.1659 40.2988 53.1191 39.7884 53.0255 39.3022C52.9318 38.8161 52.7913 38.3543 52.604 37.9168H36.8693ZM29.2829 5.8335C37.3376 5.8335 43.0976 6.7328 46.563 8.53141C50.0284 10.33 51.7611 13.3196 51.7611 17.5002V24.5002C50.9181 24.2085 50.0284 23.9776 49.0918 23.8075C48.1552 23.6373 47.1718 23.5036 46.1415 23.4064V20.4168H12.4242V29.1668H30.6878C29.9385 29.9932 29.2946 30.8925 28.756 31.8647C28.2175 32.837 27.7609 33.8821 27.3863 35.0002H12.4242V43.7502C12.4242 45.3543 12.9745 46.7276 14.075 47.87C15.1755 49.0123 16.4984 49.5835 18.0438 49.5835H26.4731V55.4168H18.0438V58.3335C18.0438 59.1599 17.7745 59.8526 17.236 60.4116C16.6974 60.9706 16.0301 61.2502 15.234 61.2502H12.4242C11.6281 61.2502 10.9608 60.9706 10.4223 60.4116C9.88373 59.8526 9.61446 59.1599 9.61446 58.3335V52.3543C8.77153 51.3821 8.0925 50.3005 7.57738 49.1095C7.06225 47.9186 6.80469 46.6182 6.80469 45.2085V17.5002C6.80469 13.4654 8.60763 10.5123 12.2135 8.64079C15.8194 6.76926 21.5092 5.8335 29.2829 5.8335ZM13.6886 14.5835H45.1581C44.4557 13.7571 42.9454 13.0644 40.6273 12.5054C38.3093 11.9463 34.5746 11.6668 29.4234 11.6668C24.4126 11.6668 20.7482 11.9706 18.4301 12.5783C16.1121 13.1859 14.5316 13.8543 13.6886 14.5835Z" fill="#3F3C3C"/>
</g>
</svg>
