<svg width="70" height="70" viewBox="0 0 70 70" fill="none" xmlns="http://www.w3.org/2000/svg">
<mask id="mask0_1_2149" style="mask-type:alpha" maskUnits="userSpaceOnUse" x="0" y="0" width="70" height="70">
<rect width="70" height="70" fill="#D9D9D9"/>
</mask>
<g mask="url(#mask0_1_2149)">
<path d="M17.5 55.4168V58.3335C17.5 59.1599 17.2205 59.8526 16.6615 60.4116C16.1024 60.9707 15.4097 61.2502 14.5833 61.2502H11.6667C10.8403 61.2502 10.1476 60.9707 9.58854 60.4116C9.02951 59.8526 8.75 59.1599 8.75 58.3335V35.0002L14.875 17.5002C15.1667 16.6252 15.6892 15.9203 16.4427 15.3856C17.1962 14.8509 18.0347 14.5835 18.9583 14.5835H51.0417C51.9653 14.5835 52.8038 14.8509 53.5573 15.3856C54.3108 15.9203 54.8333 16.6252 55.125 17.5002L61.25 35.0002V58.3335C61.25 59.1599 60.9705 59.8526 60.4115 60.4116C59.8524 60.9707 59.1597 61.2502 58.3333 61.2502H55.4167C54.5903 61.2502 53.8976 60.9707 53.3385 60.4116C52.7795 59.8526 52.5 59.1599 52.5 58.3335V55.4168H17.5ZM16.9167 29.1668H53.0833L50.0208 20.4168H19.9792L16.9167 29.1668ZM21.875 46.6668C23.0903 46.6668 24.1233 46.2415 24.974 45.3908C25.8247 44.5401 26.25 43.5071 26.25 42.2918C26.25 41.0766 25.8247 40.0436 24.974 39.1929C24.1233 38.3422 23.0903 37.9168 21.875 37.9168C20.6597 37.9168 19.6267 38.3422 18.776 39.1929C17.9253 40.0436 17.5 41.0766 17.5 42.2918C17.5 43.5071 17.9253 44.5401 18.776 45.3908C19.6267 46.2415 20.6597 46.6668 21.875 46.6668ZM48.125 46.6668C49.3403 46.6668 50.3733 46.2415 51.224 45.3908C52.0747 44.5401 52.5 43.5071 52.5 42.2918C52.5 41.0766 52.0747 40.0436 51.224 39.1929C50.3733 38.3422 49.3403 37.9168 48.125 37.9168C46.9097 37.9168 45.8767 38.3422 45.026 39.1929C44.1753 40.0436 43.75 41.0766 43.75 42.2918C43.75 43.5071 44.1753 44.5401 45.026 45.3908C45.8767 46.2415 46.9097 46.6668 48.125 46.6668ZM14.5833 49.5835H55.4167V35.0002H14.5833V49.5835Z" fill="#3F3C3C"/>
</g>
</svg>
