<svg width="45" height="45" viewBox="0 0 45 45" fill="none" xmlns="http://www.w3.org/2000/svg">
<g clip-path="url(#clip0_37_1308)">
<mask id="mask0_37_1308" style="mask-type:luminance" maskUnits="userSpaceOnUse" x="-18" y="-8" width="81" height="61">
<path d="M-17.5015 -7.49707H62.5024V52.5029H-17.5015V-7.49707Z" fill="white"/>
</mask>
<g mask="url(#mask0_37_1308)">
<path fill-rule="evenodd" clip-rule="evenodd" d="M-17.5015 -7.49707H62.5142V52.5029H-17.5015V-7.49707Z" fill="white"/>
<path fill-rule="evenodd" clip-rule="evenodd" d="M-8.73535 10.7266L-0.412682 -1.75275L1.6672 -0.365643L-6.65547 12.1137L-8.73535 10.7266ZM-5.61552 12.8072L2.70715 0.327913L4.78703 1.71502L-3.53564 14.1943L-5.61552 12.8072ZM-2.49569 14.8879L5.82698 2.40858L7.90686 3.79569L-0.415808 16.275L-2.49569 14.8879Z" fill="#000001"/>
<path fill-rule="evenodd" clip-rule="evenodd" d="M37.022 41.2432L45.3446 28.7638L47.4245 30.151L39.1019 42.6303L37.022 41.2432ZM40.1418 43.3238L48.4645 30.8445L50.5444 32.2316L42.2217 44.7109L40.1418 43.3238ZM43.2616 45.4045L51.5843 32.9252L53.6642 34.3123L45.3415 46.7916L43.2616 45.4045Z" fill="#000001"/>
<path fill-rule="evenodd" clip-rule="evenodd" d="M40.1436 34.3101L50.543 41.2456Z" fill="black"/>
<path d="M40.1436 34.3101L50.543 41.2456" stroke="white" stroke-width="1.25"/>
<path fill-rule="evenodd" clip-rule="evenodd" d="M9.98535 14.1968C12.1927 10.8871 15.6243 8.58974 19.5255 7.81022C23.4266 7.0307 27.4776 7.83282 30.7873 10.0401C34.0971 12.2474 36.3944 15.6791 37.1739 19.5803C37.9534 23.4814 37.1513 27.5324 34.944 30.8421L9.98535 14.1968Z" fill="#CD2E3A"/>
<path fill-rule="evenodd" clip-rule="evenodd" d="M9.98527 14.197C7.77796 17.5067 6.97584 21.5577 7.75536 25.4588C8.53488 29.3599 10.8322 32.7916 14.1419 34.9989C17.4516 37.2062 21.5026 38.0084 25.4038 37.2288C29.3049 36.4493 32.7366 34.152 34.9439 30.8423C36.0476 29.1874 36.4486 27.1619 36.0589 25.2114C35.6691 23.2608 34.5204 21.545 32.8656 20.4413C31.2107 19.3376 29.1852 18.9366 27.2346 19.3263C25.2841 19.7161 23.5682 20.8648 22.4646 22.5196L9.98527 14.197Z" fill="#0047A0"/>
<path d="M22.4649 22.5195C24.7631 19.0735 23.8326 14.4168 20.3865 12.1185C16.9405 9.8203 12.2838 10.7508 9.98555 14.1969C7.68731 17.6429 8.61781 22.2996 12.0639 24.5979C15.5099 26.8961 20.1666 25.9656 22.4649 22.5195Z" fill="#CD2E3A"/>
<path fill-rule="evenodd" clip-rule="evenodd" d="M-0.37793 46.7964L-8.7006 34.3171L-6.62071 32.93L1.70196 45.4093L-0.37793 46.7964ZM2.7419 44.7157L-5.58077 32.2364L-3.50088 30.8493L4.82179 43.3286L2.7419 44.7157ZM5.86173 42.6351L-2.46094 30.1557L-0.381056 28.7686L7.94161 41.2479L5.86173 42.6351Z" fill="#000001"/>
<path fill-rule="evenodd" clip-rule="evenodd" d="M45.3794 16.2798L37.0567 3.80047L39.1366 2.41336L47.4593 14.8927L45.3794 16.2798ZM48.4992 14.1991L40.1766 1.7198L42.2564 0.33269L50.5791 12.812L48.4992 14.1991ZM51.6191 12.1185L43.2964 -0.360866L45.3763 -1.74798L53.6989 10.7313L51.6191 12.1185Z" fill="#000001"/>
<path fill-rule="evenodd" clip-rule="evenodd" d="M-1.93945 38.8228L1.18038 36.7421ZM40.1782 10.7337L43.818 8.3063ZM46.9379 6.22563L50.0577 4.14497Z" fill="black"/>
<path d="M-1.93945 38.8228L1.18038 36.7421M40.1782 10.7337L43.818 8.3063M46.9379 6.22563L50.0577 4.14497" stroke="white" stroke-width="1.25"/>
</g>
</g>
<defs>
<clipPath id="clip0_37_1308">
<rect width="80" height="60" fill="white" transform="translate(-17.5 -7.5)"/>
</clipPath>
</defs>
</svg>
