<svg width="180" height="180" viewBox="0 0 180 180" fill="none" xmlns="http://www.w3.org/2000/svg">
<path d="M140.4 4.06175C140.299 4.06591 140.248 4.12073 140.247 4.22619C140.213 13.138 140.128 24.0349 139.992 36.9169C139.988 37.3666 139.764 37.5775 139.321 37.5497C134.842 37.2694 130.511 37.0821 126.33 36.9877C126.262 36.9863 126.204 37.0106 126.155 37.0606C125.489 37.7614 122.53 40.8095 117.281 46.2048C117.124 46.3658 116.937 46.3977 116.72 46.3006C116.622 46.2564 116.542 46.1764 116.495 46.0752C116.448 45.9741 116.437 45.8583 116.463 45.749L118.54 37.0252C118.544 37.0081 118.544 36.9904 118.54 36.9733C118.537 36.9561 118.53 36.9401 118.52 36.9263C118.509 36.9125 118.496 36.9013 118.482 36.8936C118.467 36.8858 118.451 36.8817 118.434 36.8816L104.405 37.0044C104.055 37.0071 103.878 36.8219 103.874 36.4486C103.838 32.1356 103.867 27.5201 103.958 22.6021C104.06 17.1207 104.254 10.7602 104.539 3.52055C104.54 3.49059 104.53 3.46094 104.51 3.43717C104.49 3.4134 104.462 3.39715 104.431 3.39149L103.621 3.24994C103.527 3.23369 103.442 3.18523 103.381 3.11319C103.32 3.04115 103.286 2.95021 103.285 2.85653L103.291 0.483563C103.292 0.417891 103.304 0.352942 103.328 0.292655C103.352 0.232367 103.387 0.177997 103.43 0.132841C103.474 0.0876854 103.525 0.0526838 103.582 0.0299597C103.638 0.0072355 103.698 -0.00273813 103.758 0.000643379C107.201 0.18382 110.539 0.310101 113.772 0.379486C122.938 0.577927 132.018 0.636904 141.014 0.556417C141.075 0.555865 141.137 0.568343 141.194 0.593123C141.251 0.617903 141.303 0.654493 141.347 0.700772C141.391 0.747051 141.425 0.802097 141.449 0.862717C141.473 0.923336 141.485 0.988324 141.484 1.05391C141.479 1.78939 141.469 2.56789 141.453 3.38941C141.441 4.08465 140.886 4.04718 140.4 4.06175ZM104.79 1.42026C104.928 1.35643 105.096 1.32798 105.292 1.33492C114.976 1.64438 123.91 1.97118 132.092 2.31533C134.359 2.41108 137.389 2.45687 139.421 2.59009C139.892 2.62132 140.094 2.85653 140.376 3.22913C140.396 3.25536 140.422 3.27405 140.452 3.28271C140.482 3.29138 140.514 3.2896 140.545 3.27762C140.575 3.26564 140.601 3.24403 140.62 3.21566C140.64 3.18729 140.651 3.15351 140.653 3.11881L140.725 1.58262C140.727 1.54988 140.717 1.51757 140.698 1.49107C140.679 1.46457 140.652 1.44546 140.621 1.43691C140.478 1.39667 140.129 1.37863 139.574 1.38279C127.363 1.47161 115.567 1.30647 104.186 0.887384C104.106 0.884609 104.065 0.924158 104.064 1.00603L104.039 2.35071C104.037 2.43953 104.077 2.48255 104.158 2.47977C104.29 2.47422 104.394 2.45132 104.468 2.41108C104.524 2.38194 104.566 2.26953 104.594 2.07387C104.633 1.788 104.659 1.62009 104.672 1.57013C104.688 1.49936 104.727 1.4494 104.79 1.42026ZM119.85 2.67752C115.27 2.49157 110.694 2.32504 106.121 2.17795C105.879 2.16962 105.657 2.17656 105.453 2.19876C105.382 2.2057 105.345 2.24664 105.343 2.32157C104.905 13.5619 104.554 24.7295 104.643 36.0739C104.643 36.0884 104.646 36.1027 104.651 36.116C104.656 36.1293 104.664 36.1413 104.674 36.1513C104.683 36.1614 104.695 36.1693 104.707 36.1746C104.72 36.1799 104.733 36.1824 104.747 36.1822C109.23 36.0864 114.052 36.0413 119.213 36.0469C125.91 36.0538 132.522 36.271 139.049 36.6984C139.173 36.7067 139.236 36.6443 139.239 36.511C139.381 25.6454 139.457 15.6525 139.466 6.53255C139.468 5.86368 139.458 4.87911 139.439 3.57883C139.438 3.53204 139.42 3.48741 139.389 3.45412C139.358 3.42083 139.316 3.4014 139.272 3.39982C132.518 3.16946 126.044 2.92869 119.85 2.67752ZM117.522 44.5875C117.481 44.7526 117.519 44.7741 117.634 44.652C121.024 41.0814 123.477 38.5586 124.992 37.0835C125.086 36.9919 125.07 36.9461 124.941 36.9461L119.532 36.9253C119.5 36.9252 119.469 36.9364 119.444 36.9571C119.419 36.9778 119.401 37.0069 119.393 37.0398L117.522 44.5875Z" fill="black"/>
<path d="M116.632 13.2497C116.934 14.1392 117.187 14.9344 117.391 15.6352C117.502 16.0154 117.441 16.3006 117.206 16.4907C116.932 16.7155 116.457 16.4719 116.244 16.2971C115.498 15.6893 115.018 15.3035 114.804 15.1397C114.733 15.0856 114.645 15.0612 114.558 15.0711C114.471 15.0811 114.39 15.1248 114.331 15.1939C113.681 15.9626 113.14 16.5607 112.707 16.9882C112.378 17.3129 112.007 17.469 111.625 17.1235C111.338 16.8633 111.435 16.2159 111.476 15.964C111.545 15.545 111.674 14.8331 111.862 13.8284C111.879 13.7391 111.867 13.6463 111.828 13.5653C111.789 13.4843 111.725 13.42 111.646 13.3829C110.774 12.9694 110.162 12.6426 109.809 12.4025C109.563 12.2346 109.407 12.0695 109.34 11.9071C109.181 11.5095 109.515 11.1286 109.879 11.0328C110.666 10.8226 111.478 10.8226 112.299 10.8351C112.366 10.8365 112.407 10.8032 112.423 10.7352C112.631 9.85469 112.807 8.85346 113.182 7.98337C113.598 7.01962 114.408 7.61077 114.726 8.26438C114.957 8.74175 115.233 9.45642 115.555 10.4084C115.567 10.4427 115.589 10.4718 115.618 10.4908C115.647 10.5098 115.682 10.5174 115.716 10.5125C115.929 10.4819 116.591 10.3952 117.703 10.2523C118.262 10.1815 118.932 10.4458 118.77 11.1577C118.732 11.3201 118.476 11.6025 118.003 12.0049C117.478 12.4518 117.04 12.8056 116.687 13.0665C116.625 13.1123 116.607 13.1734 116.632 13.2497ZM112.813 11.7135L110.868 11.7884C110.579 11.7995 110.568 11.8675 110.834 11.9924L112.564 12.8022C112.663 12.8486 112.745 12.9284 112.796 13.0287C112.846 13.1289 112.863 13.2435 112.843 13.3538L112.364 15.9474C112.342 16.0695 112.378 16.0931 112.472 16.0182C112.524 15.9765 112.581 15.9162 112.643 15.8371C113.133 15.2112 113.655 14.602 114.21 14.0095C114.283 13.9312 114.383 13.8852 114.49 13.8798C114.597 13.8745 114.704 13.9102 114.792 13.9803L116.183 15.0856C116.34 15.2105 116.379 15.1696 116.3 14.9628L115.587 13.0977C115.556 13.0189 115.551 12.9318 115.571 12.8502C115.592 12.7685 115.637 12.6967 115.7 12.646L117.303 11.3513C117.411 11.2625 117.397 11.2188 117.259 11.2202C116.773 11.223 116.268 11.3 115.745 11.4512C115.283 11.5845 114.957 11.3853 114.769 10.8538C114.519 10.1503 114.268 9.46613 114.016 8.80142C113.925 8.56274 113.85 8.56482 113.79 8.80767L113.143 11.4346C113.124 11.5124 113.081 11.5816 113.022 11.6319C112.963 11.6822 112.889 11.7108 112.813 11.7135Z" fill="black"/>
<path d="M133.677 13.718C133.651 13.7378 133.632 13.766 133.623 13.7983C133.613 13.8307 133.614 13.8654 133.626 13.897C133.939 14.7921 134.296 15.6955 134.428 16.5614C134.454 16.7321 134.428 16.866 134.351 16.9631C134.137 17.2296 133.892 17.3336 133.579 17.1505C132.884 16.7467 132.259 16.1243 131.67 15.6289C131.653 15.6142 131.633 15.6033 131.612 15.5969C131.59 15.5904 131.568 15.5884 131.546 15.5912C131.524 15.5939 131.502 15.6012 131.483 15.6126C131.464 15.6241 131.447 15.6395 131.433 15.658C130.932 16.3296 130.315 16.9846 129.582 17.623C129.325 17.8478 129.054 17.9311 128.756 17.7416C128.513 17.5876 128.429 17.2566 128.505 16.7487C128.622 15.9619 128.775 15.1293 128.964 14.2509C128.974 14.2037 128.968 14.1542 128.948 14.1109C128.928 14.0676 128.894 14.0332 128.852 14.0136C128.286 13.7527 127.788 13.5078 127.359 13.2788C127.162 13.1733 126.98 13.0568 126.814 12.9291C126.324 12.5544 126.192 12.034 126.779 11.6406C126.979 11.506 127.303 11.4366 127.752 11.4325C128.277 11.4283 128.807 11.42 129.34 11.4075C129.386 11.4067 129.43 11.3899 129.466 11.3598C129.502 11.3297 129.527 11.2879 129.538 11.241C129.742 10.3861 129.94 9.64163 130.131 9.00745C130.325 8.35592 130.815 7.68983 131.466 8.35801C132.023 8.92835 132.382 10.3334 132.627 10.9808C132.642 11.0216 132.67 11.0559 132.705 11.0781C132.741 11.1004 132.783 11.1094 132.823 11.1036C133.795 10.9676 134.536 10.8954 135.046 10.8871C135.455 10.8801 135.714 11.0952 135.824 11.5324C135.84 11.5962 135.834 11.658 135.806 11.7176C135.667 12.0215 135.445 12.2991 135.142 12.5502C134.735 12.8888 134.247 13.2781 133.677 13.718ZM130.123 12.1631C130.1 12.1988 130.069 12.2279 130.033 12.2479C129.997 12.2679 129.957 12.2781 129.917 12.2776C129.051 12.272 128.349 12.3095 127.809 12.39C127.663 12.4122 127.659 12.4524 127.795 12.5107C128.455 12.798 128.973 13.0269 129.348 13.1976C129.78 13.3933 129.944 13.7367 129.84 14.228C129.629 15.2354 129.488 15.9168 129.419 16.2721C129.351 16.619 129.427 16.6592 129.646 16.3928L131.115 14.6131C131.159 14.5607 131.212 14.518 131.271 14.4873C131.33 14.4567 131.394 14.4387 131.46 14.4345C131.525 14.4302 131.591 14.4398 131.653 14.4625C131.715 14.4853 131.772 14.5209 131.821 14.5673C132.325 15.046 132.778 15.4179 133.182 15.683C133.372 15.8079 133.423 15.7607 133.335 15.5414L132.704 13.9595C132.649 13.8237 132.637 13.6726 132.668 13.5268C132.7 13.381 132.773 13.2478 132.878 13.1456C133.173 12.8611 133.628 12.519 134.245 12.1194C134.315 12.075 134.36 12.0195 134.383 11.9528C134.387 11.9398 134.388 11.9258 134.386 11.9121C134.384 11.8984 134.379 11.8855 134.371 11.8746C134.363 11.8636 134.352 11.8549 134.34 11.8493C134.328 11.8438 134.315 11.8414 134.302 11.8425L132.537 12.0403C132.42 12.0533 132.301 12.0247 132.199 11.9587C132.096 11.8928 132.015 11.7929 131.968 11.6739L131.109 9.50494C131.02 9.28152 130.945 9.28637 130.882 9.51951C130.499 10.9558 130.294 11.7211 130.268 11.8155C130.229 11.9556 130.18 12.0715 130.123 12.1631Z" fill="black"/>
<path d="M127.412 27.3813C126.682 28.3013 126.108 28.948 125.692 29.3213C125.529 29.4684 125.384 29.5676 125.257 29.619C124.702 29.8438 124.333 29.2318 124.422 28.6927C124.626 27.4632 124.781 26.5598 124.888 25.9825C124.896 25.9417 124.89 25.8995 124.873 25.8625C124.855 25.8255 124.826 25.7959 124.79 25.7785C123.952 25.3705 123.332 25.0534 122.931 24.8272C122.658 24.6718 122.451 24.4692 122.309 24.2194C122.271 24.1542 122.26 24.0841 122.274 24.0092C122.347 23.6289 122.562 23.4062 122.917 23.341C123.626 23.2106 124.414 23.1571 125.283 23.1807C125.318 23.1819 125.353 23.1695 125.381 23.1458C125.408 23.1221 125.427 23.0888 125.434 23.0517C125.597 22.1025 125.803 21.2359 126.051 20.4518C126.251 19.8218 126.618 19.6518 127.152 19.9418C127.752 20.2686 128.211 21.7965 128.552 22.7124C128.565 22.7474 128.589 22.7767 128.619 22.7956C128.65 22.8145 128.686 22.8219 128.721 22.8164C129.465 22.704 130.086 22.6194 130.586 22.5625C130.927 22.5229 131.339 22.5292 131.576 22.8289C131.898 23.2369 131.755 23.6116 131.406 23.9467C130.818 24.5101 130.231 24.975 129.642 25.3414C129.612 25.3602 129.588 25.39 129.576 25.4255C129.565 25.461 129.565 25.4998 129.578 25.535C129.956 26.5896 130.247 27.493 130.452 28.2451C130.471 28.3117 130.467 28.377 130.443 28.4408C130.231 28.9882 129.88 29.032 129.395 28.7197C129.168 28.574 128.87 28.3971 128.672 28.2222C128.226 27.8295 127.861 27.5402 127.577 27.3542C127.514 27.3126 127.46 27.3216 127.412 27.3813ZM127.862 26.3759L129.129 27.3938C129.288 27.5228 129.331 27.4861 129.256 27.2835C128.974 26.5272 128.76 25.8791 128.615 25.3393C128.589 25.2446 128.593 25.1436 128.626 25.0516C128.66 24.9596 128.72 24.8815 128.799 24.8293C129.455 24.3922 129.94 24.0432 130.254 23.7823C130.444 23.6255 130.418 23.5603 130.178 23.5866C129.668 23.6435 129.151 23.6963 128.628 23.7448C128.32 23.7719 128.164 23.7698 127.999 23.495C127.847 23.2411 127.762 23.0898 127.742 23.0413C127.52 22.4543 127.263 21.7923 126.971 21.0555C126.957 21.0166 126.927 20.9854 126.881 20.9618C126.872 20.9575 126.863 20.9552 126.854 20.9551C126.844 20.955 126.835 20.9571 126.826 20.9613C126.818 20.9655 126.81 20.9716 126.804 20.9792C126.798 20.9869 126.793 20.9958 126.791 21.0055C126.465 22.26 126.268 23.0787 126.2 23.4617C126.13 23.8572 125.879 24.0598 125.447 24.0695C124.587 24.089 124.072 24.098 123.902 24.0966C123.615 24.0966 123.605 24.1618 123.87 24.2923L125.604 25.1499C125.695 25.1946 125.768 25.2712 125.813 25.367C125.857 25.4627 125.869 25.5719 125.847 25.6765C125.636 26.6867 125.481 27.4958 125.385 28.1036C125.33 28.4463 125.403 28.481 125.604 28.2077C126.143 27.4763 126.64 26.8796 127.097 26.4175C127.197 26.3153 127.33 26.2549 127.47 26.2473C127.61 26.2397 127.749 26.2853 127.862 26.3759Z" fill="black"/>
<path d="M115.032 22.7985L109.168 22.8093C108.947 22.8097 108.768 23.0002 108.769 23.2347L108.769 23.268C108.769 23.5025 108.949 23.6923 109.17 23.6919L115.034 23.681C115.255 23.6806 115.433 23.4902 115.433 23.2557L115.433 23.2223C115.433 22.9878 115.253 22.798 115.032 22.7985Z" fill="black"/>
<path d="M92.7654 26.7261L92.7131 26.6975C92.529 26.5972 92.3032 26.6741 92.2087 26.8694L90.8424 29.6909C90.7479 29.8862 90.8204 30.1259 91.0044 30.2262L91.0567 30.2548C91.2407 30.3552 91.4665 30.2782 91.5611 30.0829L92.9273 27.2614C93.0219 27.0661 92.9494 26.8265 92.7654 26.7261Z" fill="black"/>
<path d="M115.057 27.0144L109.162 27.0362C108.946 27.037 108.772 27.2231 108.773 27.4519L108.773 27.4685C108.774 27.6973 108.949 27.8821 109.165 27.8813L115.06 27.8595C115.276 27.8587 115.45 27.6726 115.449 27.4438L115.449 27.4272C115.448 27.1984 115.273 27.0136 115.057 27.0144Z" fill="black"/>
<path d="M80.0598 27.1072L80.0023 27.1205C79.8012 27.167 79.6737 27.3777 79.7176 27.5911L80.3752 30.7923C80.419 31.0057 80.6176 31.141 80.8187 31.0944L80.8761 31.0811C81.0772 31.0346 81.2047 30.8239 81.1608 30.6105L80.5032 27.4093C80.4594 27.1959 80.2608 27.0606 80.0598 27.1072Z" fill="black"/>
<path d="M167.316 40.4824C167.232 40.4561 167.206 40.4852 167.238 40.5698C168.288 43.398 168.43 46.2157 167.665 49.023C166.734 52.4472 164.5 55.0824 161.411 56.5395C161.383 56.5525 161.361 56.5757 161.348 56.6049C161.334 56.6342 161.331 56.6677 161.338 56.6998L161.98 59.5453C162.036 59.7978 161.945 59.9449 161.707 59.9866C161.7 59.9879 161.695 59.9893 161.691 59.9907C161.443 60.0323 161.288 59.9179 161.226 59.6473L160.636 57.0432C160.631 57.0219 160.622 57.0019 160.61 56.9845C160.598 56.9671 160.582 56.9527 160.564 56.9422C160.546 56.9318 160.527 56.9255 160.507 56.9239C160.487 56.9223 160.467 56.9254 160.448 56.9329C159.805 57.1869 158.779 57.5824 158.143 57.4471C158.081 57.4332 158.029 57.3999 157.988 57.3471C157.764 57.0419 157.599 56.7039 157.496 56.3334C157.076 54.8153 156.646 53.0543 156.206 51.0505C156.201 51.0266 156.19 51.0046 156.174 50.987C156.158 50.9694 156.137 50.9567 156.115 50.9505C156.093 50.9443 156.069 50.9447 156.047 50.9517C156.025 50.9586 156.005 50.9719 155.99 50.9901C155.616 51.4231 155.148 51.7804 154.586 52.0621C154.481 52.1148 154.365 52.1315 154.262 52.1087C154.159 52.0859 154.076 52.0253 154.031 51.9393C154.028 51.9337 154.025 51.9289 154.023 51.9247C153.852 51.6943 153.879 51.5153 154.105 51.3877C154.652 51.0768 155.164 50.6765 155.643 50.1866C155.856 49.9687 155.932 49.737 155.87 49.4914C155.698 48.8086 155.282 48.5193 154.623 48.6234C154.406 48.6567 154.218 48.6719 154.06 48.6692C154.001 48.6664 153.949 48.6456 153.903 48.6067C153.432 48.2112 152.384 47.371 150.759 46.086C150.431 45.8265 150.126 45.6114 149.843 45.4407C149.813 45.4225 149.776 45.4184 149.741 45.4292C149.706 45.4401 149.675 45.465 149.655 45.499L149.073 46.4835C149.006 46.596 148.907 46.6806 148.797 46.7194C148.687 46.7583 148.574 46.7483 148.482 46.6917C148.482 46.6917 148.476 46.6882 148.465 46.6813C148.206 46.5592 148.151 46.3774 148.3 46.1359L148.975 45.041C149.063 44.8981 149.043 44.778 148.914 44.6809C147.653 43.7414 146.448 42.8249 145.297 41.9312C144.991 41.6939 144.732 41.4372 144.521 41.161C144.475 41.1019 144.448 41.0291 144.444 40.953C144.439 40.8769 144.457 40.8012 144.495 40.7364C144.808 40.2049 145.111 39.7691 145.405 39.4292C147.884 36.5705 150.855 34.781 154.319 34.0608C157.541 33.3906 160.571 33.9686 163.411 35.7948C163.483 35.842 163.514 35.8204 163.503 35.7302C163.454 35.3181 163.466 34.7457 163.521 34.2627C163.866 31.2487 165.325 29.1123 167.899 27.8536C170.529 26.5673 174.324 27.0085 174.802 30.7095C174.813 30.7928 174.857 30.8379 174.935 30.8448C176.202 30.9461 177.146 31.6254 177.767 32.8827C178.238 33.8374 178.336 34.8595 178.062 35.9488C177.83 36.8675 177.379 37.6702 176.708 38.3572C174.796 40.3159 171.839 40.8987 169.187 40.7926C168.511 40.7662 167.887 40.6628 167.316 40.4824Z" fill="black"/>
<path d="M60.4678 158.425C60.4952 158.571 60.5234 158.571 60.5521 158.425C62.7657 146.836 64.8191 136.173 66.7124 126.436C66.7777 126.106 66.8738 125.836 67.0007 125.626C67.0181 125.598 67.0409 125.574 67.0675 125.556C67.0942 125.537 67.1242 125.525 67.1556 125.52C67.2759 125.501 67.3936 125.537 67.5086 125.628C67.5975 125.7 67.6309 125.795 67.6086 125.911C64.4968 142.032 62.5166 152.302 61.6681 156.72C61.1137 159.604 60.4449 162.936 59.6617 166.716C59.6173 166.931 59.6048 167.169 59.6245 167.43C59.682 168.182 59.7722 169.228 59.8951 170.569C59.9147 170.778 59.9801 170.796 60.0912 170.621C60.2364 170.393 60.4469 170.155 60.7227 169.905C60.9855 169.668 61.268 169.708 61.57 170.026C61.5844 170.041 61.6105 170.079 61.6484 170.14C61.7185 170.252 61.7512 170.385 61.7413 170.519C61.7313 170.652 61.6793 170.779 61.5935 170.877C61.1621 171.374 60.898 171.658 60.8012 171.728C60.6861 171.812 60.6966 171.87 60.8326 171.903C62.0616 172.202 63.1664 172.634 64.1471 173.2C66.1462 174.355 67.4831 176.05 68.1578 178.285C68.1761 178.342 68.2127 178.371 68.2676 178.371L93.4773 178.508C93.4869 178.508 93.4964 178.506 93.5052 178.502C93.5139 178.498 93.5217 178.491 93.5279 178.483C93.534 178.475 93.5385 178.466 93.541 178.456C93.5435 178.446 93.5438 178.435 93.5421 178.425L93.2577 176.905C93.242 176.823 93.1962 176.797 93.1204 176.826C91.2317 177.519 88.9077 176.816 87.221 175.839C85.2781 174.715 84.3955 172.938 84.5733 170.506C84.6335 169.679 84.7819 168.896 85.0185 168.156C85.0538 168.045 85.0277 167.955 84.9401 167.884C84.6786 167.673 84.5191 167.547 84.4615 167.507C83.3972 166.76 83.0795 165.71 83.5084 164.356C83.7267 163.664 84.1589 163.299 84.8048 163.259C84.8417 163.256 84.8768 163.24 84.9041 163.213C84.9313 163.186 84.9489 163.15 84.9538 163.111L85.703 157.228C85.705 157.212 85.7037 157.196 85.6993 157.18C85.6948 157.165 85.6873 157.15 85.6772 157.138C85.6671 157.126 85.6548 157.117 85.6409 157.11C85.6271 157.104 85.6121 157.101 85.5971 157.101L82.5121 157.235C82.478 157.236 82.4454 157.25 82.42 157.275C82.3945 157.3 82.3778 157.335 82.3728 157.372C81.8459 161.338 81.4863 164.116 81.2941 165.706C81.2693 165.92 81.3589 166.212 81.5628 166.581C81.81 167.028 81.8498 167.442 81.6825 167.823C81.5975 168.016 81.5739 168.178 81.6119 168.308C82.3048 170.669 82.5003 172.959 82.1983 175.18C82.0871 175.989 81.7596 176.616 81.2157 177.061C80.1351 177.946 78.3739 177.682 77.1167 177.203C74.9986 176.395 73.9905 174.766 74.0925 172.315C74.1552 170.815 74.4749 169.348 75.0515 167.915C75.079 167.846 75.06 167.798 74.9947 167.771C74.5292 167.587 74.1722 167.307 73.9238 166.932C73.3806 166.116 73.6492 164.356 74.4769 163.821C74.6769 163.691 74.977 163.625 75.3771 163.621C75.3878 163.62 75.3979 163.616 75.4058 163.609C75.4137 163.602 75.4188 163.592 75.4202 163.581L76.093 158.028C76.1178 157.822 76.2348 157.728 76.444 157.744L76.6127 157.757C76.8062 157.772 76.8905 157.888 76.8657 158.105C76.7271 159.312 76.4976 161.226 76.1773 163.848C76.1524 164.053 76.0995 164.297 76.0184 164.578C75.9988 164.648 75.9557 164.678 75.889 164.67C75.7517 164.655 75.5373 164.623 75.2457 164.576C75.0287 164.541 74.8881 164.55 74.824 164.603C74.4769 164.89 74.3494 165.733 74.3984 166.077C74.4651 166.543 75.1045 166.887 75.4654 167.028C75.6798 167.111 75.9276 167.137 76.2087 167.105C76.6153 167.058 77.1102 167.005 77.6933 166.945C78.7733 166.835 79.7755 167.009 80.6999 167.465C80.7627 167.496 80.8071 167.478 80.8333 167.411C80.8829 167.285 80.881 167.165 80.8274 167.051C80.5737 166.514 80.139 166.16 79.5232 165.987C78.2758 165.642 77.0154 165.615 75.7419 165.906C75.6242 165.934 75.5641 165.884 75.5615 165.756L75.5536 165.355C75.5518 165.288 75.5716 165.222 75.6095 165.169C75.6474 165.117 75.7012 165.08 75.7615 165.065C77.3684 164.68 78.9243 164.82 80.4292 165.486C80.4776 165.508 80.5057 165.491 80.5136 165.436L81.5805 157.382C81.5831 157.363 81.5817 157.344 81.5765 157.326C81.5714 157.308 81.5625 157.291 81.5505 157.276C81.5386 157.262 81.5239 157.251 81.5073 157.243C81.4908 157.236 81.473 157.232 81.455 157.232L73.814 157.312C73.4623 157.316 73.2969 157.131 73.3178 156.758L75.1319 124.9C75.1338 124.864 75.1229 124.829 75.1015 124.801C75.0801 124.773 75.0497 124.755 75.0162 124.75C72.9582 124.45 71.2833 124.19 69.9915 123.969C67.7283 123.583 65.8207 123.146 64.2687 122.658C62.5388 122.114 61.4419 120.902 60.9777 119.021C60.6691 117.77 60.4632 116.56 60.3599 115.391C59.4283 104.829 59.4872 93.3913 59.6911 82.3549C59.7068 81.5452 60.205 80.7563 60.8816 80.3816C61.7897 79.8799 62.7742 79.6634 63.847 79.6801C63.9124 79.6801 63.9529 79.6468 63.9686 79.5802C64.8766 75.7814 66.0495 72.1282 67.7283 68.6104C68.9965 65.9571 70.51 63.8666 72.2685 62.3387C72.3208 62.2943 72.3143 62.2631 72.2489 62.245C70.54 61.7718 69.2286 61.1897 68.3147 60.4986C65.2395 58.1756 64.4158 54.1853 66.1809 50.6654C67.9087 47.2183 71.4272 45.9652 74.5377 44.402C76.191 43.5694 77.8267 42.3412 78.8132 40.7613C79.1427 40.234 79.3898 39.8628 79.5545 39.6477C79.5731 39.624 79.5846 39.5947 79.5877 39.5633C79.5909 39.532 79.5855 39.4998 79.5722 39.4708C79.5604 39.4458 79.482 39.2793 79.3368 38.9712C78.8086 37.8555 78.7119 36.7696 79.0466 35.7136C79.4525 34.4355 80.6567 33.7507 81.9002 34.0109C82.5108 34.1372 83.1018 34.5091 83.6731 35.1266C83.7293 35.1877 83.7666 35.1759 83.7849 35.0912C84.2007 33.1304 85.7756 31.5026 87.7682 31.9481C88.9587 32.2166 89.6961 33.5613 89.853 34.7915C89.8661 34.8872 89.9053 34.9011 89.9707 34.8331C90.763 34.006 91.6586 33.5134 92.6575 33.3552C93.699 33.1908 94.4972 33.7653 94.4717 34.9018C94.4638 35.2223 94.388 35.5831 94.2442 35.9842C94.2141 36.0688 94.2396 36.0966 94.3207 36.0675C94.8633 35.8718 95.315 35.774 95.6759 35.774C96.5996 35.774 97.0723 36.3734 97.0997 37.3081C97.1292 38.405 96.4682 39.373 95.5857 39.9537C95.4758 40.0259 95.4785 40.0939 95.5935 40.1577C96.3937 40.6115 96.786 41.2692 96.7703 42.131C96.7506 43.2731 96.278 44.1099 95.3523 44.6414C95.3175 44.6609 95.2898 44.6922 95.2735 44.7302C95.2572 44.7682 95.2532 44.8109 95.2621 44.8516C95.4255 45.6162 95.6785 46.335 96.0211 47.0081C96.7245 48.393 97.3456 49.6093 97.8842 50.657C98.1693 51.2121 98.4752 51.9767 98.8021 52.9509C99.8376 56.0483 99.3865 59.2164 96.9115 61.3666C96.8317 61.436 96.8356 61.5005 96.9232 61.5602C99.4245 63.2463 101.156 65.5609 102.119 68.5043C102.532 69.7719 102.793 70.7586 103.066 72.0824C103.104 72.2656 103.176 72.283 103.284 72.1345C103.458 71.8951 103.644 71.7973 103.956 71.8056C105.307 71.8417 106.192 71.859 106.612 71.8576C106.833 71.8576 107.059 71.7348 107.19 71.4913C107.372 71.1527 107.668 71.0333 108.079 71.1333C108.4 71.2124 108.544 71.1166 108.871 70.9501C109.113 70.8252 109.278 70.8925 109.367 71.152C109.391 71.22 109.437 71.2561 109.505 71.2602C109.793 71.2769 110.162 71.204 110.43 71.279C111.201 71.4975 110.828 72.5341 110.703 73.1836C110.581 73.8309 110.923 74.5158 110.817 75.1507C109.79 81.2218 109.105 85.2503 108.761 87.2361C108.758 87.2566 108.759 87.2776 108.766 87.2972C108.772 87.3168 108.784 87.3342 108.799 87.3477C108.814 87.3612 108.832 87.3703 108.851 87.3741C108.87 87.3779 108.89 87.3763 108.908 87.3694C109.609 87.1043 110.246 87.0772 110.819 87.2882C112.193 87.794 112.27 88.8951 112.033 90.2939C111.855 91.3347 111.455 92.4095 110.832 93.5183C109.987 95.0253 109.081 94.8588 107.722 94.251C107.626 94.2079 107.569 94.2405 107.551 94.3488L106.79 99.0656C106.787 99.0836 106.788 99.1021 106.793 99.1198C106.797 99.1374 106.806 99.1538 106.817 99.1677C106.828 99.1816 106.842 99.1927 106.858 99.2002C106.874 99.2078 106.891 99.2115 106.908 99.2113L112.201 99.1967C112.435 99.1967 112.56 99.3258 112.576 99.5839L112.631 100.425C112.636 100.509 112.679 100.552 112.758 100.552L130.88 100.55C131.198 100.55 131.353 100.702 131.345 101.006C131.345 101.019 131.345 101.027 131.345 101.028C131.324 101.28 131.191 101.405 130.945 101.405L106.174 101.399C106.164 101.4 106.155 101.404 106.148 101.412C106.141 101.42 106.137 101.43 106.137 101.441L106.129 175.157C106.13 175.171 106.133 175.185 106.14 175.197C106.147 175.209 106.157 175.219 106.169 175.225C106.181 175.232 106.194 175.235 106.208 175.234C106.221 175.234 106.234 175.229 106.245 175.221C107.473 174.319 108.855 173.72 110.391 173.423C110.56 173.389 110.686 173.328 110.77 173.24C110.847 173.158 110.832 173.126 110.724 173.146C109.789 173.314 108.502 173.631 108.022 172.775C107.902 172.56 107.871 172.276 107.93 171.924C108.106 170.862 109.246 170.765 110.026 170.942C110.473 171.043 110.722 171.097 110.772 171.104C110.805 171.109 110.838 171.107 110.867 171.096C110.896 171.086 110.92 171.069 110.936 171.046C111.015 170.932 111.159 170.785 111.368 170.606C112.042 170.028 112.779 169.924 113.578 170.296C113.601 170.307 113.627 170.308 113.651 170.3C113.675 170.291 113.695 170.274 113.707 170.25C113.898 169.894 114.06 169.565 114.192 169.264C114.294 169.032 114.344 168.671 114.341 168.179C114.334 167.122 114.3 166.128 114.237 165.199C114.236 165.177 114.226 165.158 114.211 165.144C114.196 165.13 114.177 165.122 114.157 165.124L111.727 165.186C111.658 165.188 111.59 165.165 111.536 165.121C111.481 165.077 111.443 165.015 111.427 164.945C111.4 164.835 111.392 164.691 111.401 164.512C111.504 162.405 111.598 160.865 111.682 159.893C112.543 149.937 113.87 140.129 115.663 130.468C115.886 129.261 116.202 127.731 116.608 125.88C116.99 124.141 117.376 122.817 117.765 121.909C119.683 117.425 123.253 113.92 127.207 111.372C132.269 108.112 137.968 105.772 143.585 104.361C143.637 104.348 143.685 104.32 143.722 104.28C143.76 104.24 143.787 104.189 143.799 104.134C144.272 101.994 144.889 99.2418 145.648 95.8767C145.717 95.57 145.64 95.257 145.417 94.9379C145.378 94.8824 145.329 94.8713 145.27 94.9046C143.854 95.7386 142.566 96.1528 141.408 96.1473C138.919 96.1348 137.221 94.874 136.315 92.3651C136.092 91.7531 135.949 91.1703 135.883 90.6166C135.877 90.5684 135.855 90.524 135.821 90.4918C135.787 90.4597 135.743 90.4418 135.697 90.4417L126.212 90.475C125.834 90.4764 125.615 90.2801 125.553 89.8859L123.28 75.1527C123.261 75.0296 123.288 74.9034 123.355 74.8016C123.423 74.6998 123.526 74.6307 123.641 74.6094C123.908 74.5609 124.296 74.5408 124.804 74.5491C126.564 74.5768 127.642 74.5914 128.038 74.5928C128.048 74.5929 128.058 74.59 128.066 74.5845C128.074 74.5789 128.081 74.571 128.085 74.5615C128.089 74.552 128.091 74.5415 128.089 74.5312C128.088 74.5209 128.084 74.5112 128.077 74.5033C127.237 73.4917 126.296 72.5092 125.255 71.5558C125.195 71.5003 125.126 71.4809 125.047 71.4975C124.159 71.689 122.863 72.0179 121.856 71.9929C121.799 71.9907 121.743 71.9713 121.695 71.9369C121.647 71.9025 121.609 71.8546 121.586 71.7986C121.563 71.7426 121.555 71.6809 121.564 71.6206C121.572 71.5604 121.597 71.504 121.635 71.458C122.09 70.9043 123.168 70.7253 123.792 70.6462C124.024 70.617 124.043 70.5324 123.851 70.3922C122.678 69.5388 121.415 68.8269 120.062 68.2565C120.053 68.2527 120.042 68.2511 120.032 68.252C120.022 68.2528 120.013 68.2561 120.004 68.2615C119.995 68.2669 119.988 68.2743 119.982 68.2832C119.977 68.2921 119.973 68.3022 119.972 68.3128C119.63 70.9855 118.229 72.702 115.767 73.4625C115.71 73.4799 115.65 73.4841 115.592 73.4747C115.533 73.4654 115.477 73.4428 115.428 73.4084C115.166 73.2252 115.099 72.9414 115.227 72.557C115.743 71.0195 116.49 69.6651 117.469 68.4938C117.684 68.2385 117.64 68.1414 117.338 68.2024C117.228 68.2246 117.057 68.2149 116.826 68.1733C115.662 67.9637 114.602 67.4052 113.647 66.4976C113.38 66.2437 112.982 65.7753 113.231 65.3903C113.398 65.1294 113.612 65.0003 113.872 65.0031C115.479 65.017 116.853 65.5228 117.995 66.5205C118.258 66.7509 118.414 66.8862 118.465 66.9264C118.846 67.2303 118.9 67.1735 118.628 66.7558C118.304 66.259 118.023 65.6643 117.785 64.9719C117.33 63.6438 117.063 62.1659 116.983 60.5382C116.969 60.2509 116.895 59.9387 117.065 59.6785C117.136 59.5712 117.242 59.4956 117.362 59.4664C117.482 59.4372 117.609 59.4564 117.716 59.5203C118.01 59.6937 118.273 59.9206 118.503 60.201C119.832 61.8121 120.437 63.768 120.317 66.0688C120.279 66.7669 120.259 67.1943 120.256 67.3511C120.256 67.3844 120.265 67.417 120.283 67.4442C120.301 67.4715 120.326 67.4921 120.356 67.503C121.671 68.004 122.876 68.6715 123.969 69.5055C124.037 69.5582 124.054 69.5429 124.022 69.4597C123.56 68.2954 123.493 67.1138 123.822 65.9148C124.045 65.0988 124.314 64.0581 124.892 63.5585C124.966 63.4948 125.061 63.4639 125.156 63.472C125.251 63.4802 125.339 63.5268 125.402 63.6022C125.568 63.7993 125.71 64.083 125.826 64.4536C126.512 66.6378 126.605 68.8359 126.104 71.0479C126.092 71.1027 126.095 71.16 126.112 71.2134C126.129 71.2667 126.16 71.3139 126.201 71.3497C126.881 71.9451 127.481 72.4925 128.097 73.2439C128.526 73.7699 128.885 74.1786 129.174 74.47C129.188 74.4841 129.206 74.4937 129.225 74.4977C129.244 74.5017 129.264 74.4999 129.282 74.4925C129.3 74.4851 129.316 74.4724 129.328 74.456C129.339 74.4395 129.347 74.4198 129.348 74.3992C129.378 73.9538 129.384 73.6207 129.364 73.4001C128.999 69.1579 128.226 65.0746 127.044 61.1501C127.031 61.1085 127.007 61.0723 126.973 61.0471C126.939 61.0219 126.899 61.0091 126.858 61.0107C124.953 61.0835 123.624 60.0136 122.298 58.5461C121.59 57.7635 121.041 57.0037 120.648 56.2668C120.464 55.9227 120.575 55.6646 120.982 55.4925C121.179 55.4092 121.481 55.3981 121.888 55.4592C123.055 55.6361 124.065 55.8526 125.106 56.4791C125.169 56.5166 125.184 56.5013 125.151 56.4333C124.861 55.8186 124.601 55.2413 124.371 54.7015C123.866 53.5122 123.553 52.2494 123.431 50.9131C123.38 50.3552 123.786 50.0326 124.298 50.3198C124.594 50.4864 124.872 50.7493 125.132 51.1087C126.133 52.4923 126.626 54.118 126.609 55.9858C126.603 56.6186 126.416 57.3492 126.716 58.0424C126.905 58.4753 127.047 58.7987 127.142 59.0124C127.147 59.0231 127.154 59.0322 127.163 59.0387C127.173 59.0452 127.184 59.0488 127.195 59.0493C127.206 59.0497 127.217 59.0469 127.227 59.0411C127.236 59.0353 127.244 59.0268 127.25 59.0165C128.146 57.3742 129.56 56.196 131.084 55.2344C131.455 54.9998 131.795 54.8666 132.104 54.8347C132.172 54.8278 132.24 54.847 132.296 54.8888C132.531 55.0637 132.621 55.3065 132.565 55.6174C132.067 58.3421 130.745 60.5298 127.997 61.0065C127.904 61.0232 127.872 61.0794 127.899 61.1751C129.009 65.1065 129.749 69.1003 130.119 73.1565C130.12 73.1703 130.125 73.1835 130.134 73.1937C130.142 73.204 130.154 73.2108 130.167 73.213C130.18 73.2152 130.193 73.2127 130.204 73.2058C130.216 73.1989 130.224 73.1881 130.229 73.1753C130.458 72.641 130.783 72.0658 131.206 71.4497C132.943 68.9199 135.127 66.9237 137.756 65.461C137.812 65.4291 137.835 65.3805 137.823 65.3153C137.81 65.2376 137.774 65.1682 137.715 65.1072C137.664 65.0544 137.625 64.9927 137.599 64.9219C136.868 62.8424 137.531 60.3675 138.666 58.5503C138.925 58.1361 139.378 57.9758 139.688 58.4441C139.776 58.5773 139.859 58.841 139.937 59.2351C140.327 61.1959 140.061 62.9868 139.141 64.6076C139.082 64.7103 139.104 64.7366 139.207 64.6867C140.899 63.8652 142.666 63.5731 144.507 63.8104C144.839 63.852 145.104 64.0171 145.301 64.3058C145.339 64.3613 145.351 64.423 145.338 64.491C145.136 65.511 142.438 65.9731 141.62 66.0106C141.208 66.03 140.357 65.9877 139.066 65.8836C139.052 65.8825 139.038 65.885 139.025 65.8908C139.012 65.8967 139.001 65.9057 138.992 65.9172C138.983 65.9288 138.976 65.9424 138.973 65.9572C138.969 65.9719 138.969 65.9874 138.972 66.0022L139.19 67.0409C139.208 67.1283 139.26 67.1776 139.347 67.1887C140.933 67.3906 142.387 68.0713 143.012 69.7032C143.235 70.2847 143.344 71.2686 143.342 72.6549C143.34 73.1877 143.356 75.1486 143.387 78.5373C143.387 78.5632 143.394 78.5887 143.405 78.6113C143.417 78.6339 143.435 78.6529 143.455 78.6666C143.476 78.6803 143.5 78.6882 143.524 78.6896C143.548 78.6911 143.573 78.6859 143.595 78.6747C143.74 78.5977 143.971 78.3458 144.044 78.2251C144.779 76.9956 145.582 75.671 146.452 74.2514C148.713 70.5615 151.221 67.2754 153.978 64.3932C154.023 64.3446 154.04 64.287 154.027 64.2204C153.666 62.3928 153.354 60.4736 153.091 58.4629C153.083 58.3949 153.049 58.3532 152.987 58.338C149.347 57.3971 147.152 54.9825 146.401 51.0942C146.387 51.022 146.346 50.9922 146.278 51.0047C145.795 51.0942 145.103 51.242 144.832 50.7694C144.777 50.6723 144.785 50.5197 144.856 50.3115C145.376 48.7559 145.835 47.4459 146.233 46.3815C146.333 46.1123 146.497 46.0422 146.723 46.1713C146.735 46.1782 146.744 46.1838 146.75 46.188C146.966 46.2906 147.028 46.4717 146.935 46.7312L145.729 50.0596C145.723 50.0749 145.721 50.0915 145.723 50.1078C145.725 50.1241 145.731 50.1395 145.74 50.1527C145.749 50.1659 145.762 50.1763 145.776 50.183C145.79 50.1896 145.805 50.1923 145.821 50.1908L146.809 50.0929C146.891 50.0853 146.972 50.1117 147.036 50.1666C147.099 50.2215 147.14 50.3004 147.149 50.3864C147.462 53.438 148.874 55.6035 151.385 56.883C151.987 57.1889 152.669 57.3825 153.373 57.5865C153.481 57.6179 153.577 57.6809 153.652 57.7683C153.726 57.8556 153.776 57.9637 153.795 58.0799L154.674 63.4149C154.677 63.4344 154.686 63.4526 154.698 63.4675C154.711 63.4823 154.727 63.4933 154.745 63.4993C154.763 63.5053 154.782 63.506 154.8 63.5014C154.818 63.4968 154.835 63.487 154.848 63.4732C155.625 62.6544 156.443 61.9203 157.302 61.2709C158.741 60.1843 160.693 59.895 162.211 61.0024C163.574 61.9973 164.647 63.546 165.343 65.053C166.15 66.8029 166.746 68.6652 167.132 70.6399C167.696 73.5277 167.933 76.5411 167.842 79.6801C167.841 79.698 167.845 79.7158 167.852 79.7318C167.86 79.7478 167.871 79.7617 167.885 79.7721C167.899 79.7826 167.914 79.7893 167.931 79.7918C167.948 79.7942 167.965 79.7924 167.981 79.7863C169.548 79.184 171.152 79.0196 172.792 79.2929C174.977 79.6572 176.836 80.9644 176.312 83.6392C175.822 86.1537 175.467 88.0965 175.247 89.4675C173.813 98.4016 172.803 107.475 172.219 116.688C172.15 117.777 172.046 118.534 171.909 118.959C171.419 120.47 170.242 121.428 168.883 122.098C167.743 122.658 166.5 123.12 165.331 123.403C162.1 124.184 158.741 124.739 155.254 125.068C152.922 125.289 150.386 125.471 147.647 125.614C147.496 125.622 147.347 125.67 147.213 125.753L144.821 127.246C144.753 127.288 144.698 127.348 144.66 127.42C144.622 127.492 144.603 127.573 144.605 127.656L145.636 178.572C145.637 178.615 145.654 178.656 145.683 178.686C145.712 178.716 145.751 178.733 145.791 178.733C155.885 178.73 165.952 178.839 175.992 179.06C176.109 179.062 176.154 179.003 176.128 178.883L164.107 125.485C164.093 125.42 164.09 125.351 164.098 125.285C164.107 125.219 164.127 125.158 164.157 125.109C164.186 125.059 164.224 125.023 164.267 125.004C164.309 124.985 164.354 124.983 164.398 125C164.403 125.002 164.409 125 164.417 124.993C164.454 124.967 164.496 124.954 164.541 124.955C164.586 124.956 164.632 124.972 164.675 125C164.719 125.029 164.758 125.069 164.79 125.118C164.822 125.167 164.845 125.224 164.858 125.283L176.916 178.883C176.93 178.944 176.962 178.999 177.008 179.038C177.054 179.078 177.112 179.1 177.171 179.101L179.597 179.143C179.652 179.144 179.707 179.155 179.757 179.177C179.808 179.198 179.853 179.229 179.891 179.267C179.928 179.305 179.958 179.351 179.976 179.4C179.995 179.449 180.003 179.501 179.999 179.553L179.995 179.628C179.982 179.817 179.882 179.928 179.695 179.961C179.499 179.997 179.196 180.008 178.787 179.994C169.274 179.693 158.14 179.552 145.385 179.57C145.045 179.57 144.872 179.347 144.866 178.901C144.772 173.058 144.43 156.124 143.84 128.099C143.84 128.089 143.837 128.079 143.832 128.07C143.826 128.062 143.819 128.055 143.81 128.05C143.802 128.046 143.792 128.044 143.782 128.045C143.773 128.046 143.763 128.049 143.756 128.055C140.608 130.546 138.338 133.692 136.944 137.493C136.164 139.623 135.55 142.254 135.105 145.386C134.689 148.312 134.343 151.149 134.067 153.898C133.626 158.283 133.245 162.337 132.924 166.06C132.888 166.481 132.674 166.661 132.28 166.601C129.608 166.196 127.295 165.881 125.342 165.656C123.559 165.452 121.705 165.303 119.779 165.209C119.7 165.205 119.66 165.244 119.66 165.328C119.645 166.389 119.62 168.186 119.583 170.717C119.579 171.033 119.597 171.258 119.858 171.481C120.268 171.83 120.209 172.492 120.509 172.759C121.131 173.314 122.009 173.31 122.843 173.16C124.147 172.926 125.518 172.689 126.958 172.451C127.019 172.44 127.075 172.408 127.117 172.359C127.159 172.31 127.183 172.248 127.187 172.182L127.46 167.326C127.475 167.037 127.613 166.937 127.872 167.026C127.881 167.029 127.892 167.03 127.907 167.03C128.133 167.011 128.237 167.159 128.219 167.476C128.142 168.751 128.059 170.284 127.972 172.074C127.946 172.567 128.14 172.854 128.297 173.225C128.408 173.487 128.479 173.854 128.509 174.326C128.597 175.664 128.613 177.244 128.558 179.068C128.55 179.311 128.432 179.431 128.203 179.43L110.679 179.413C110.646 179.413 110.613 179.402 110.587 179.38C110.561 179.359 110.542 179.329 110.534 179.295L110.483 179.078C110.464 178.996 110.415 178.961 110.336 178.972C110.147 179.001 108.481 179.144 105.339 179.401C105.021 179.427 104.694 179.428 104.356 179.403C103.905 179.371 103.578 179.355 103.376 179.355C91.0199 179.309 78.6641 179.237 66.3083 179.139C60.2795 179.09 38.2705 179.149 0.28138 179.316C0.114021 179.317 0.0211889 179.23 0.00288403 179.053C-0.00365343 178.976 0.00092348 178.896 0.0166134 178.814C0.0331683 178.732 0.0758384 178.658 0.137549 178.605C0.19926 178.552 0.276304 178.523 0.355907 178.523L10.1778 178.452C10.2139 178.451 10.2487 178.438 10.2762 178.413C10.3038 178.388 10.3224 178.354 10.3288 178.316C13.8891 158.531 17.0212 141.163 19.7251 126.213C19.7826 125.897 19.878 125.614 20.0114 125.366C20.048 125.297 20.1036 125.265 20.1781 125.272C20.3507 125.289 20.4932 125.367 20.6057 125.505C20.6384 125.546 20.6338 125.678 20.5919 125.903C17.6906 141.802 14.537 159.265 11.1309 178.291C11.1139 178.387 11.1512 178.435 11.2427 178.435L52.6915 178.316C52.7516 178.316 52.7876 178.285 52.7994 178.221C52.8752 177.803 52.9739 177.326 53.0955 176.789C53.1949 176.347 53.2164 175.857 53.1602 175.317C53.1524 175.249 53.0615 174.145 52.8876 172.005C52.868 171.765 52.9026 171.364 52.9916 170.802C53.002 170.734 52.9961 170.667 52.9739 170.602C52.7856 170.071 52.6817 169.673 52.6621 169.41C52.462 166.867 52.2489 164.414 52.0227 162.051C51.9926 161.731 52.1129 161.586 52.3836 161.618C52.3927 161.62 52.4032 161.62 52.4149 161.618C52.666 161.578 52.8026 161.702 52.8248 161.989C53.072 165.072 53.257 167.315 53.3799 168.718C53.457 169.601 53.914 170.026 54.7508 169.992C54.8227 169.988 55.6549 169.935 57.2474 169.832C57.6083 169.808 57.9757 169.888 58.3497 170.069C58.3593 170.074 58.3698 170.076 58.3803 170.075C58.3907 170.074 58.4008 170.07 58.4097 170.064C58.4186 170.058 58.426 170.05 58.4312 170.041C58.4365 170.031 58.4394 170.02 58.4399 170.009C58.4503 169.655 58.5667 169.339 58.789 169.062C58.8308 169.009 58.8498 168.948 58.8458 168.879C58.6641 165.851 58.566 164.118 58.5517 163.679C58.5216 162.805 58.4471 161.997 58.3281 161.256C58.3152 161.177 58.2757 161.106 58.2168 161.056C58.158 161.005 58.0838 160.98 58.0084 160.983L48.7514 161.387C48.584 161.396 48.4944 161.312 48.4827 161.135L45.9801 126.061C45.9777 126.03 45.9663 126 45.9474 125.975C45.9285 125.95 45.9029 125.933 45.8742 125.924C45.499 125.81 44.689 125.568 43.4443 125.197C42.9814 125.06 42.595 125.018 42.2852 125.072C42.0707 125.11 41.7138 125.141 41.2143 125.166C40.5109 125.204 40.154 125.222 40.1435 125.222C35.3476 125.265 30.5204 125.079 25.6617 124.662C22.5904 124.398 19.7702 124.061 16.8303 123.149C14.0061 122.275 11.3918 120.693 10.2464 117.772C9.77834 116.58 9.56587 115.15 9.60902 113.48C9.711 109.575 9.76199 106.379 9.76199 103.891C9.76069 99.4361 9.44885 94.9982 8.82649 90.577C8.66174 89.4086 8.3839 87.5865 7.99296 85.1109C7.92497 84.6848 7.92432 84.1346 7.991 83.4602C8.21066 81.2121 10.1386 79.9944 12.1135 79.8341C12.1789 79.8286 12.2233 79.7932 12.2469 79.728C14.2258 74.2035 15.579 70.4318 17.6697 66.0564C18.2803 64.7783 18.9739 63.5377 19.7506 62.3345C20.9522 60.4736 22.5054 59.1546 24.4105 58.3775C25.3924 57.9765 26.5783 57.6282 27.9681 57.3326C28.0954 57.306 28.226 57.3265 28.3316 57.3896C28.4373 57.4527 28.5096 57.5533 28.533 57.6698C28.5343 57.6739 28.5369 57.6857 28.5408 57.7052C28.584 57.9397 28.4925 58.0805 28.2663 58.1277C27.3196 58.3289 26.3737 58.5815 25.4283 58.8854C23.2631 59.5834 21.5438 60.9677 20.2703 63.0381C19.4518 64.3675 18.7569 65.6421 18.1855 66.8619C16.3302 70.8266 14.6317 75.1472 13.0902 79.8237C13.0838 79.843 13.0811 79.8634 13.0823 79.8838C13.0835 79.9042 13.0885 79.9241 13.0971 79.9423C13.1057 79.9606 13.1177 79.9768 13.1324 79.9901C13.147 80.0033 13.164 80.0133 13.1824 80.0194C14.6572 80.5217 15.5385 80.8173 15.8261 80.9061C19.1642 81.9344 22.4708 82.8489 25.7461 83.6496C25.8768 83.6829 25.9553 83.6295 25.9814 83.4893C26.8195 78.9904 27.5929 74.7038 28.3016 70.6295C28.7056 68.3086 28.7487 66.0855 26.9954 64.4619C26.8162 64.2954 26.8169 64.1274 26.9973 63.9581L27.0444 63.9144C27.1023 63.86 27.175 63.8269 27.2515 63.8201C27.328 63.8133 27.404 63.8333 27.468 63.877C29.5921 65.3341 29.4763 68.4585 29.0841 70.7378C28.5219 74.0169 27.7119 78.4416 26.6541 84.0118C26.5691 84.4614 26.3096 84.6307 25.8755 84.5197C25.3904 84.3948 24.923 84.306 24.4732 84.2533C24.4026 84.2449 24.3497 84.2734 24.3144 84.3386C23.8672 85.1657 23.2154 85.9768 22.359 86.772C22.3067 86.8205 22.2891 86.8809 22.3061 86.953C22.4146 87.404 22.7022 87.6406 23.169 87.6628C30.389 87.9987 36.5074 88.3636 41.5242 88.7577C41.5609 88.76 41.5971 88.7481 41.626 88.7244C41.6549 88.7006 41.6745 88.6666 41.6811 88.6287C41.7347 88.3276 41.7609 87.9321 41.7596 87.4422C41.7439 81.643 41.7504 74.9807 41.7792 67.4552C41.7805 67.136 41.9112 66.9979 42.1714 67.0409C42.1766 67.0423 42.1845 67.0423 42.1949 67.0409C42.4421 67.0076 42.565 67.1478 42.5637 67.4614L42.5127 81.0498C42.5127 81.208 42.5865 81.2878 42.7343 81.2891L49.5947 81.362C49.6104 81.3621 49.6259 81.3585 49.64 81.3514C49.6541 81.3443 49.6665 81.3339 49.6762 81.321C49.6859 81.3081 49.6926 81.2931 49.6958 81.2771C49.699 81.2611 49.6986 81.2446 49.6947 81.2288C48.8213 77.5847 47.9106 73.9427 46.9627 70.3027C46.36 67.9908 45.7082 65.8225 45.0074 63.7979C44.7223 62.975 44.3785 62.1812 43.9758 61.4166C42.8088 59.1997 40.2082 58.186 37.8998 57.7905C37.6344 57.7447 37.5422 57.5976 37.6233 57.3492C37.6285 57.334 37.6312 57.3256 37.6312 57.3242C37.6874 57.0661 37.8417 56.9523 38.094 56.9829C40.6554 57.2826 43.0775 58.2256 44.5131 60.6152C44.8609 61.1952 45.2087 61.9717 45.5565 62.9444C46.1449 64.5889 46.696 66.3464 47.2098 68.217C48.1735 71.7237 49.1959 75.7647 50.2772 80.34C50.3622 80.7008 50.4184 80.9734 50.4459 81.158C50.4772 81.3717 50.4426 81.6361 50.3419 81.9511C49.9013 83.3138 49.4077 84.4524 48.8612 85.3669C48.8259 85.4266 48.8148 85.4911 48.8279 85.5605C49.3391 88.2609 49.7163 90.6769 49.9595 92.8084C50.2118 95.0315 49.4411 96.5906 47.6472 97.4857C47.0719 97.7729 46.341 98.0255 45.4545 98.2434C43.5286 98.7194 41.4464 99.0996 39.208 99.3841C39.1647 99.3898 39.125 99.4116 39.0966 99.4451C39.0683 99.4786 39.0535 99.5215 39.055 99.5652L39.1021 101.547C39.1033 101.585 39.1136 101.622 39.1318 101.654C39.1501 101.686 39.1757 101.711 39.206 101.728C41.0378 102.752 42.935 103.866 44.8975 105.071C47.4458 106.636 50.0301 108.42 52.6503 110.423C54.0232 111.472 55.0299 112.353 55.6706 113.066C58.2019 115.89 59.5133 119.266 59.6048 123.193C60.0651 142.898 60.3272 154.365 60.3913 157.595C60.3978 157.908 60.4233 158.185 60.4678 158.425ZM82.465 55.9692C82.4794 55.9136 82.4912 55.879 82.5003 55.8651C82.6324 55.6639 82.7991 55.6091 83.0004 55.7006C84.0516 56.1766 84.6479 56.4437 84.7891 56.502C86.362 57.1536 88.0977 57.4325 89.7686 56.9225C93.2949 55.8463 95.0542 52.4055 95.0228 48.6712C95.011 47.3668 94.8143 46.1609 94.4325 45.0535C94.4076 44.98 94.3586 44.9397 94.2854 44.9328C93.6669 44.8773 93.1034 44.6421 92.5948 44.2271C92.5667 44.2046 92.5313 44.1948 92.4964 44.1999C92.4615 44.2049 92.4299 44.2245 92.4085 44.2542C91.6305 45.3713 90.6237 45.7425 89.3882 45.3678C88.856 45.2068 88.401 44.8842 88.0231 44.3999C87.9852 44.3513 87.944 44.3479 87.8996 44.3895C87.7414 44.5394 87.6106 44.6733 87.5073 44.7912C86.6261 45.7987 85.601 46.0082 84.4321 45.4199C83.9536 45.1784 83.7437 44.7996 83.6241 44.2771C83.6204 44.2615 83.6128 44.2473 83.6022 44.2359C83.5915 44.2245 83.5782 44.2163 83.5636 44.2123C83.5489 44.2083 83.5335 44.2085 83.519 44.2129C83.5044 44.2173 83.4913 44.2259 83.4809 44.2375C82.869 44.9425 82.1591 45.2603 81.351 45.1909C81.3257 45.1887 81.3003 45.1935 81.2773 45.2048C81.2543 45.2161 81.2344 45.2335 81.2196 45.2554C80.5803 46.1977 79.8801 47.0719 79.1191 47.8782C79.0859 47.9139 79.0418 47.9359 78.9947 47.9401C78.9475 47.9443 78.9006 47.9304 78.8622 47.9011C78.5733 47.6818 78.2601 47.6083 77.9228 47.6804C77.1697 47.8407 76.9127 48.8815 77.0245 49.585C77.1657 50.4801 77.5593 51.2218 78.2052 51.8102C78.8328 52.382 79.6147 52.5422 80.5508 52.2911C80.7744 52.2314 80.9359 52.3542 81.0353 52.6595C81.0366 52.6637 81.015 52.7247 80.9705 52.8427C80.9353 52.9367 80.8742 53.0186 80.7941 53.079C80.714 53.1393 80.6182 53.1757 80.5175 53.184L80.1194 53.2173C80.0514 53.2229 80.0135 53.2638 80.0056 53.3402C79.9644 53.8231 79.8977 54.8909 80.2625 55.2073C80.9947 55.8457 81.3935 56.2037 81.4589 56.2814C81.6406 56.4951 81.7335 56.6755 81.7374 56.8226C81.7832 58.5239 81.8747 60.1413 82.012 61.6747C82.0176 61.7389 82.0372 61.8009 82.0692 61.8558C82.1012 61.9107 82.1447 61.957 82.1963 61.9911C84.2517 63.3441 86.2979 63.3198 88.335 61.9182C88.3938 61.878 88.4252 61.8197 88.4291 61.7434L88.6017 58.1798C88.6056 58.1021 88.5684 58.0625 88.4899 58.0611C86.4359 58.0334 84.4798 57.4679 82.6219 56.3647C82.4728 56.2772 82.4206 56.1454 82.465 55.9692ZM125.806 55.6411C125.879 55.6137 125.876 55.3713 125.798 54.9672C125.72 54.5632 125.574 54.0306 125.391 53.4866C125.209 52.9426 125.005 52.4318 124.825 52.0665C124.644 51.7012 124.502 51.5114 124.43 51.5388C124.357 51.5662 124.36 51.8086 124.438 52.2127C124.516 52.6167 124.662 53.1493 124.845 53.6933C125.027 54.2373 125.231 54.7481 125.411 55.1134C125.592 55.4787 125.734 55.6685 125.806 55.6411ZM79.2182 54.6073C79.2374 54.6047 79.2546 54.5878 79.2689 54.5575C79.2832 54.5273 79.2943 54.4843 79.3015 54.4311C79.3088 54.3779 79.3121 54.3154 79.3112 54.2473C79.3103 54.1791 79.3053 54.1067 79.2964 54.034C79.2875 53.9614 79.2749 53.89 79.2594 53.8238C79.2438 53.7577 79.2256 53.6982 79.2058 53.6487C79.186 53.5992 79.1649 53.5607 79.1438 53.5353C79.1227 53.51 79.102 53.4983 79.0828 53.5009C79.0637 53.5036 79.0464 53.5205 79.0321 53.5507C79.0178 53.581 79.0068 53.6239 78.9995 53.6772C78.9922 53.7304 78.989 53.7929 78.9898 53.861C78.9907 53.9291 78.9958 54.0016 79.0046 54.0742C79.0135 54.1469 79.0261 54.2183 79.0417 54.2844C79.0572 54.3505 79.0754 54.41 79.0952 54.4595C79.1151 54.5091 79.1361 54.5476 79.1572 54.5729C79.1783 54.5983 79.1991 54.61 79.2182 54.6073ZM131.465 55.9837C129.937 56.985 128.285 58.2609 127.744 60.0802C127.74 60.0925 127.74 60.1056 127.743 60.1183C127.745 60.1309 127.751 60.1425 127.759 60.1522C127.767 60.1618 127.777 60.169 127.789 60.1732C127.8 60.1774 127.813 60.1783 127.824 60.176C129.527 59.8277 130.682 58.8112 131.29 57.1265C131.438 56.7157 131.541 56.3688 131.6 56.0857C131.63 55.94 131.585 55.906 131.465 55.9837ZM123.606 58.671C124.443 59.4717 125.378 59.99 126.412 60.2259C126.438 60.2318 126.466 60.2304 126.491 60.2221C126.516 60.2137 126.539 60.1987 126.558 60.1782C126.576 60.1578 126.59 60.1328 126.596 60.1054C126.603 60.0781 126.603 60.0493 126.597 60.0219C126.32 58.8479 125.797 57.8925 124.761 57.2618C123.839 56.6998 122.857 56.382 121.815 56.3085C121.8 56.307 121.784 56.3103 121.77 56.318C121.756 56.3257 121.745 56.3375 121.737 56.3519C121.729 56.3664 121.725 56.3829 121.726 56.3995C121.727 56.4161 121.732 56.4322 121.741 56.4458C122.253 57.2285 122.875 57.9702 123.606 58.671ZM138.347 61.2959C138.063 62.2214 138.026 63.1137 138.235 63.9727C138.241 63.9978 138.254 64.0205 138.272 64.0379C138.29 64.0552 138.313 64.0666 138.337 64.0706C138.361 64.0746 138.386 64.071 138.408 64.0603C138.43 64.0495 138.449 64.0321 138.462 64.0102C139.306 62.6239 139.545 61.1189 139.18 59.4953C139.147 59.3468 139.098 59.3406 139.033 59.4766C138.795 59.9692 138.566 60.5756 138.347 61.2959ZM79.8644 60.074C79.8503 60.0748 79.8368 60.0802 79.8258 60.0895C79.8147 60.0987 79.8065 60.1114 79.8025 60.1257C79.7984 60.14 79.7986 60.1553 79.803 60.1695C79.8074 60.1837 79.8158 60.1962 79.8271 60.2051L81.0745 61.2188C81.085 61.2272 81.0975 61.2322 81.1105 61.2333C81.1236 61.2343 81.1367 61.2314 81.1482 61.2249C81.1598 61.2183 81.1693 61.2084 81.1757 61.1962C81.1821 61.1841 81.1851 61.1703 81.1843 61.1564L81.1412 60.0469C81.1407 60.0373 81.1384 60.028 81.1345 60.0193C81.1306 60.0107 81.1251 60.003 81.1183 59.9966C81.1116 59.9902 81.1037 59.9853 81.0952 59.9821C81.0867 59.979 81.0776 59.9777 81.0686 59.9782L79.8644 60.074ZM89.2685 61.2147L90.1707 60.3134C90.4191 60.065 90.3747 59.9449 90.0373 59.9532L89.4078 59.9699C89.366 59.9709 89.3262 59.9881 89.2966 60.0179C89.267 60.0478 89.2499 60.088 89.2489 60.1302L89.2175 61.1897C89.2177 61.1959 89.2195 61.2019 89.2227 61.2071C89.226 61.2122 89.2305 61.2163 89.2358 61.2189C89.2411 61.2215 89.2469 61.2225 89.2527 61.2217C89.2585 61.221 89.264 61.2185 89.2685 61.2147ZM94.456 68.3919C94.7123 68.3891 94.8391 68.5299 94.8365 68.8144L94.7894 72.6632C94.7891 72.6775 94.7916 72.6917 94.7966 72.7049C94.8017 72.7182 94.8092 72.7303 94.8187 72.7404C94.8282 72.7505 94.8396 72.7584 94.8521 72.7638C94.8646 72.7691 94.8779 72.7717 94.8914 72.7714L102.297 72.6819C102.308 72.6815 102.318 72.6787 102.328 72.6736C102.337 72.6684 102.346 72.6612 102.353 72.6523C102.359 72.6434 102.364 72.6331 102.367 72.622C102.369 72.611 102.37 72.5995 102.368 72.5883C102.1 71.0438 101.692 69.5339 101.144 68.0588C99.6297 63.9852 96.0485 61.2563 92.1241 60.2322C92.1045 60.2266 92.0404 60.2058 91.9319 60.1697C91.7135 60.0962 91.539 60.1302 91.4082 60.2717C90.204 61.5602 88.6841 62.984 87.1171 63.496C85.8253 63.9179 84.5511 63.9165 83.2946 63.4919C82.5833 63.2504 81.8041 62.8098 80.9568 62.1701C80.2429 61.6303 79.5277 61.0412 78.8112 60.4029C78.6334 60.2447 78.4321 60.1933 78.2072 60.2488C74.575 61.1467 71.7455 63.2837 69.7189 66.66C68.3879 68.8775 67.2419 71.4274 66.2809 74.3097C65.669 76.1484 65.1636 77.917 64.7649 79.6156C64.7593 79.6398 64.7583 79.6649 64.7619 79.6895C64.7655 79.7141 64.7736 79.7377 64.7858 79.759C64.798 79.7802 64.8141 79.7987 64.833 79.8134C64.852 79.8281 64.8734 79.8387 64.8963 79.8445C68.297 80.6813 71.7841 81.3446 75.3575 81.8345C75.4002 81.84 75.4433 81.828 75.4779 81.8009C75.5125 81.7738 75.5361 81.7337 75.5438 81.6888C75.8707 79.7446 76.1224 78.1932 76.2989 77.0345C76.7147 74.3173 76.5597 71.6328 75.8341 68.9809C75.7648 68.7298 75.8511 68.5764 76.093 68.5209C76.1152 68.5167 76.1328 68.5126 76.1459 68.5084C76.3943 68.4515 76.5597 68.5792 76.6421 68.8914C77.254 71.1978 77.4554 73.3938 77.2462 75.4795C77.0683 77.2475 76.8271 78.8822 76.5225 80.3837C76.4479 80.7563 76.4048 81.3391 76.4205 81.6659C76.4832 82.9884 76.5316 84.3074 76.5656 85.6229C76.5721 85.888 76.6362 86.119 76.7578 86.3161C76.7746 86.3434 76.7969 86.3664 76.823 86.3837C76.849 86.4009 76.8783 86.412 76.9088 86.416C77.1167 86.4424 77.3096 86.4042 77.4874 86.3015C79.8683 84.9166 81.9191 83.7606 83.6398 82.8336C83.6829 82.8101 83.7084 82.7726 83.7163 82.7212C84.1399 79.7308 84.4968 77.1066 84.7871 74.8488C84.9322 73.7109 85.5808 73.2544 86.7327 73.4792C86.7626 73.4849 86.7933 73.4842 86.823 73.4771C86.8526 73.4699 86.8806 73.4565 86.9052 73.4375C87.389 73.0684 87.8139 72.8818 88.18 72.8776C90.4289 72.8568 92.3039 72.829 93.8049 72.7943C93.8507 72.7933 93.8943 72.7736 93.9265 72.7394C93.9587 72.7052 93.977 72.6592 93.9775 72.6112L94.0461 68.8123C94.0513 68.5306 94.1834 68.3905 94.4423 68.3919C94.4514 68.3919 94.456 68.3919 94.456 68.3919ZM119.411 66.508C119.416 66.516 119.424 66.522 119.433 66.5253C119.442 66.5286 119.451 66.529 119.46 66.5266C119.469 66.5241 119.477 66.5189 119.484 66.5115C119.49 66.5041 119.494 66.495 119.495 66.4852C119.715 64.2551 119.203 62.3671 117.959 60.8213C117.822 60.6506 117.765 60.6762 117.789 60.8983C117.995 62.8882 118.369 64.8907 119.411 66.508ZM161.987 73.1648C162.081 73.2224 162.148 73.3193 162.174 73.4349C162.201 73.5504 162.184 73.6754 162.128 73.7831C160.682 76.5682 159.616 78.5547 158.93 79.7426C156.201 84.4607 154.391 87.6039 153.499 89.172C153.367 89.4065 153.183 89.5182 152.946 89.5071C152.882 89.5043 152.826 89.4807 152.779 89.4363C152.662 89.3225 152.574 89.2115 152.516 89.1033C152.097 88.3054 151.713 87.5942 151.365 86.9697C151.357 86.9542 151.345 86.9411 151.331 86.9317C151.317 86.9224 151.301 86.917 151.284 86.9162C151.267 86.9153 151.251 86.9191 151.236 86.927C151.221 86.9349 151.208 86.9467 151.198 86.9614C150.156 88.51 148.953 90.1919 147.588 92.007C147.053 92.7175 146.526 93.3399 146.005 93.8742C146 93.8799 145.996 93.8871 145.995 93.8949C145.993 93.9027 145.994 93.9108 145.996 93.9183C145.999 93.9257 146.004 93.9322 146.01 93.937C146.016 93.9417 146.023 93.9445 146.031 93.945L166.137 94.7047C166.199 94.7075 166.231 94.677 166.235 94.6131C166.59 89.8658 166.847 85.7784 167.006 82.3507C167.107 80.1776 167.113 78.0419 167.024 75.9437C166.894 72.9407 166.354 70.0508 165.404 67.2741C164.674 65.1446 163.178 62.2325 161.165 61.3625C159.693 60.7255 158.233 61.4561 157.092 62.4927C155.077 64.3217 153.233 66.302 151.559 68.4335C149.1 71.5641 146.877 74.9002 144.889 78.4416C144.884 78.4512 144.881 78.462 144.88 78.473C144.879 78.4841 144.881 78.4952 144.885 78.5056C144.888 78.5159 144.894 78.5253 144.902 78.5329C144.909 78.5406 144.918 78.5463 144.928 78.5498C145.91 78.8856 146.79 79.4484 147.566 80.238C148.31 80.9929 148.909 81.6888 149.363 82.3258C150.665 84.152 151.852 86.101 152.924 88.1728C152.934 88.1908 152.947 88.2058 152.964 88.2164C152.98 88.227 152.999 88.2328 153.018 88.2332C153.038 88.2337 153.057 88.2287 153.074 88.2188C153.09 88.2089 153.105 88.1945 153.115 88.177C154.188 86.3522 155.714 83.71 157.692 80.2504C159.034 77.9052 160.278 75.5857 161.424 73.2918C161.556 73.0254 161.737 72.9782 161.966 73.1503C161.968 73.1517 161.975 73.1565 161.987 73.1648ZM143.789 64.5914C143.784 64.5602 143.738 64.5364 143.654 64.5215C143.57 64.5066 143.449 64.5008 143.299 64.5045C143.148 64.5083 142.97 64.5214 142.776 64.5432C142.582 64.565 142.375 64.5951 142.167 64.6317C141.747 64.7055 141.348 64.8014 141.057 64.8983C140.767 64.9952 140.61 65.0851 140.62 65.1483C140.624 65.1796 140.67 65.2034 140.754 65.2183C140.839 65.2332 140.959 65.2389 141.11 65.2352C141.261 65.2315 141.438 65.2183 141.632 65.1965C141.826 65.1747 142.033 65.1446 142.241 65.1081C142.662 65.0342 143.061 64.9383 143.351 64.8414C143.641 64.7445 143.799 64.6546 143.789 64.5914ZM125.422 69.9051C125.681 68.0165 125.578 66.3499 125.114 64.9053C125.075 64.7859 125.032 64.7845 124.985 64.9011C124.298 66.61 124.12 68.4272 125.271 69.9489C125.353 70.0571 125.404 70.0425 125.422 69.9051ZM115.781 66.941C116.375 67.2075 116.904 67.3795 117.365 67.4572C117.529 67.485 117.556 67.433 117.448 67.3011C117.03 66.7932 116.596 66.5143 116.047 66.2687C115.498 66.023 115.008 65.8877 114.372 65.9252C114.208 65.9349 114.192 65.9918 114.325 66.0959C114.699 66.3929 115.184 66.6746 115.781 66.941ZM132.679 74.2452C132.886 73.4417 133.294 72.8027 133.9 72.3281C134.022 72.2323 134.161 72.1268 134.318 72.0117C134.373 71.9714 134.406 71.9159 134.418 71.8451C134.448 71.6745 134.507 71.3837 134.595 70.973C135.009 69.0468 136.275 67.7986 138.392 67.2283C138.435 67.2172 138.448 67.1901 138.431 67.1471L138.084 66.3103C138.08 66.3003 138.074 66.2913 138.066 66.2837C138.059 66.2761 138.051 66.2702 138.042 66.2663C138.033 66.2624 138.023 66.2606 138.014 66.261C138.005 66.2614 137.996 66.264 137.988 66.2687C134.716 68.124 132.205 70.8509 130.453 74.4492C130.445 74.4651 130.441 74.483 130.442 74.5009C130.442 74.5189 130.447 74.5364 130.456 74.5517C130.465 74.567 130.477 74.5796 130.492 74.5882C130.507 74.5969 130.524 74.6013 130.541 74.6011L132.496 74.5782C132.56 74.5782 132.601 74.5449 132.618 74.4783C132.631 74.427 132.651 74.3493 132.679 74.2452ZM140.292 86.8968C140.059 86.7081 140.028 86.5083 140.198 86.2974L142.671 83.2375C142.716 83.1821 142.74 83.113 142.738 83.0439C142.633 79.447 142.572 75.5038 142.555 71.2144C142.553 70.5386 142.321 69.8822 141.859 69.2453C141.165 68.2815 139.847 68.0359 138.768 68.0942C137.858 68.1441 137.042 68.5591 136.319 69.339C135.768 69.9329 135.435 70.6559 135.318 71.5079C135.309 71.5718 135.334 71.5981 135.393 71.587C136.507 71.3705 137.572 71.866 138.168 72.9005C138.393 73.2891 138.55 73.7983 138.641 74.4284C138.69 74.7794 138.658 75.3033 138.545 75.9999C138.35 77.2003 137.867 80.3066 137.097 85.319C136.978 86.0906 136.912 86.5895 136.899 86.8157C136.857 87.4734 136.799 87.973 136.725 88.3144C136.572 89.0193 136.54 89.6563 136.628 90.2252C136.864 91.7489 137.499 93.4725 138.678 94.353C140.604 95.7913 143.11 95.2251 144.821 93.691C145.387 93.1845 145.935 92.5906 146.466 91.9092C147.781 90.2176 149.191 88.304 150.696 86.1683C150.77 86.0642 150.774 85.956 150.71 85.8436C149.672 84.0174 148.574 82.4735 147.415 81.2121C147.185 80.961 146.867 80.6654 146.462 80.3254C146.351 80.2338 146.25 80.2442 146.158 80.3566L140.857 86.7907C140.663 87.0252 140.479 87.0648 140.304 86.9093C140.3 86.9038 140.296 86.8996 140.292 86.8968ZM118.53 68.6125C117.623 69.5881 116.842 70.7801 116.188 72.1886C116.119 72.3357 116.156 72.3773 116.3 72.3135C117.905 71.603 118.856 70.3048 119.156 68.4189C119.182 68.2538 119.122 68.2031 118.977 68.267C118.837 68.328 118.688 68.4432 118.53 68.6125ZM133.581 74.5886L137.854 74.5095C137.858 74.5095 137.862 74.5087 137.865 74.5072C137.869 74.5056 137.872 74.5033 137.875 74.5004C137.878 74.4975 137.88 74.494 137.881 74.4903C137.883 74.4865 137.884 74.4824 137.884 74.4783V74.4721C137.879 74.2074 137.819 73.9464 137.707 73.7038C137.595 73.4613 137.433 73.242 137.23 73.0586C137.027 72.8752 136.788 72.7311 136.525 72.6347C136.262 72.5383 135.981 72.4914 135.699 72.4967H135.667C135.385 72.5019 135.106 72.5592 134.847 72.6652C134.587 72.7713 134.353 72.9241 134.156 73.1149C133.959 73.3057 133.804 73.5307 133.7 73.7771C133.596 74.0236 133.545 74.2866 133.549 74.5512L133.551 74.5574C133.551 74.5657 133.554 74.5736 133.56 74.5795C133.565 74.5853 133.573 74.5886 133.581 74.5886ZM92.9086 82.1426C93.8461 84.1055 93.4518 86.9926 91.4494 88.1062C88.8802 89.5356 86.7392 90.7623 85.0264 91.7864C84.9576 91.8274 84.8982 91.8842 84.8524 91.9526C84.8066 92.0209 84.7756 92.0992 84.7616 92.1819L83.6143 99.026C83.5973 99.1232 83.6352 99.1717 83.728 99.1717C90.9519 99.1384 97.6208 99.033 103.735 98.8554C104.357 98.8373 104.86 98.7423 105.243 98.5702C105.872 98.2899 106.246 97.7667 106.365 97.0007C106.754 94.4848 107.958 87.343 109.977 75.5753C110.109 74.8134 110.126 74.0016 109.45 73.6228C109.282 73.5298 108.857 73.4868 108.175 73.4937C98.4393 73.6103 91.9136 73.6866 88.5978 73.7227C88.2252 73.7269 87.98 73.7643 87.8623 73.8351C87.2955 74.1848 87.1779 75.236 87.0857 75.9312C86.8359 77.7672 86.5862 79.5309 86.3365 81.2225C86.3336 81.2385 86.3353 81.2551 86.3412 81.2701C86.3471 81.2851 86.3571 81.2979 86.3698 81.307C86.3826 81.3161 86.3975 81.321 86.4128 81.3212C86.4282 81.3213 86.4432 81.3167 86.4561 81.3079C87.8741 80.3962 89.3058 79.7009 90.967 80.3337C91.8443 80.6668 92.4915 81.2697 92.9086 82.1426ZM86.513 74.5449C86.5535 74.2729 86.4378 74.1737 86.1659 74.2473C86.1593 74.2486 86.1306 74.2549 86.0796 74.266C85.7828 74.3298 85.6134 74.5213 85.5716 74.8405L84.6282 81.9927C84.6034 82.1814 84.674 82.239 84.8401 82.1655L85.1754 82.0135C85.3441 81.9386 85.4435 81.8026 85.4735 81.6055L86.513 74.5449ZM126.285 89.5258C126.287 89.5428 126.295 89.5582 126.308 89.5693C126.32 89.5804 126.335 89.5864 126.352 89.5862L135.587 89.58C135.603 89.5801 135.619 89.5741 135.631 89.563C135.643 89.5519 135.651 89.5365 135.654 89.5196L137.788 75.4899C137.789 75.4798 137.788 75.4695 137.786 75.4596C137.783 75.4498 137.778 75.4407 137.772 75.433C137.766 75.4253 137.758 75.4191 137.749 75.4149C137.74 75.4108 137.731 75.4086 137.721 75.4088L124.198 75.4192C124.188 75.4191 124.179 75.4212 124.17 75.4254C124.161 75.4295 124.154 75.4357 124.147 75.4434C124.141 75.4512 124.136 75.4602 124.133 75.4701C124.131 75.4799 124.13 75.4902 124.131 75.5003L126.285 89.5258ZM143.577 82.1717L145.458 79.9632C145.614 79.78 145.583 79.644 145.366 79.5552C144.605 79.2457 144.035 79.3894 143.656 79.9861C143.291 80.5627 143.422 81.362 143.438 82.1176C143.44 82.2591 143.487 82.2772 143.577 82.1717ZM170.632 118.287C170.634 118.298 170.636 118.307 170.638 118.314C170.651 118.361 170.653 118.41 170.642 118.46C170.63 118.509 170.608 118.557 170.574 118.6C170.541 118.643 170.498 118.68 170.448 118.71C170.398 118.739 170.343 118.759 170.285 118.77C166.979 119.354 163.911 119.789 161.083 120.075C160.803 120.102 160.559 120.191 160.35 120.341C159.423 121.009 158.523 121.49 157.651 121.786C156.74 122.095 155.426 122.489 153.711 122.968C152.278 123.368 150.808 123.933 149.3 124.664C149.185 124.72 149.19 124.744 149.316 124.735C153.345 124.472 157.122 124.079 160.646 123.557C162.921 123.22 165.089 122.681 167.151 121.942C168.816 121.344 170.732 120.31 171.244 118.407C171.315 118.149 171.393 117.35 171.478 116.009C172.041 107.181 173.02 98.4134 174.414 89.7069C174.539 88.9243 174.731 87.8439 174.988 86.466C175.378 84.3844 175.576 83.3103 175.583 83.2437C175.668 82.3792 175.534 81.754 175.182 81.3682C174.656 80.7896 173.931 80.401 173.009 80.2026C171.28 79.8293 169.58 80.0014 167.91 80.7188C167.892 80.7264 167.877 80.7392 167.866 80.7558C167.855 80.7724 167.848 80.7921 167.847 80.8125C167.66 84.8521 167.369 89.548 166.973 94.9004C166.954 95.1544 166.916 95.3042 166.857 95.35C166.734 95.4458 166.592 95.4971 166.429 95.504C166.397 95.5051 166.366 95.5193 166.343 95.5436C166.32 95.568 166.307 95.6007 166.306 95.6352C166.192 100.6 166.11 105.067 166.061 109.036C166.036 111.065 165.689 112.928 165.019 114.625C164.394 116.206 163.383 117.684 161.985 119.059C161.907 119.135 161.921 119.167 162.026 119.155C165.136 118.776 167.846 118.364 170.158 117.92C170.424 117.869 170.583 117.991 170.632 118.287ZM67.7302 95.5644C67.2674 95.4312 66.9889 95.3042 67.0477 94.6818C67.0582 94.5639 67.1321 93.7687 67.2693 92.2964C67.2863 92.1174 67.2752 91.9793 67.236 91.8822C66.3992 89.7923 65.7128 87.5872 65.1767 85.267C64.808 83.6767 64.5792 82.1599 64.4903 80.7167C64.4864 80.6501 64.4537 80.6106 64.3922 80.5981C63.1468 80.3462 60.505 80.6688 60.4619 82.5068C60.2945 89.7742 60.2932 97.0062 60.458 104.203C60.505 106.233 60.6293 108.816 60.8306 111.952C60.9509 113.818 61.1464 115.675 61.417 117.525C61.4189 117.537 61.423 117.548 61.4291 117.558C61.4351 117.569 61.443 117.577 61.4523 117.584C61.4616 117.591 61.4721 117.596 61.4832 117.599C61.4944 117.602 61.5058 117.602 61.517 117.6C63.5548 117.196 65.5239 117.439 67.542 117.87C67.5579 117.873 67.5743 117.87 67.5888 117.863C67.6032 117.855 67.615 117.843 67.6225 117.827C67.6299 117.812 67.6325 117.795 67.63 117.778C67.6276 117.761 67.6201 117.745 67.6086 117.733C67.1013 117.214 66.6908 116.75 66.377 116.342C63.9902 113.233 63.3881 109.521 64.2039 105.66C64.4458 104.516 64.7629 103.379 65.1551 102.248C65.8991 100.104 66.7777 97.9235 67.791 95.706C67.797 95.6926 67.8001 95.678 67.8002 95.6632C67.8003 95.6484 67.7973 95.6337 67.7915 95.6202C67.7857 95.6068 67.7773 95.5948 67.7667 95.5852C67.7561 95.5755 67.7437 95.5684 67.7302 95.5644ZM12.141 118.376C12.1815 118.107 12.3345 117.992 12.5999 118.031C15.428 118.451 18.5529 118.774 21.9746 119.001C22.5068 119.035 22.8644 119.038 23.0474 119.009C23.135 118.995 23.137 118.974 23.0533 118.944C21.3836 118.371 20.0343 117.721 19.0053 116.994C16.287 115.071 14.5703 112.369 13.8551 108.89C13.3844 106.595 13.4393 104.331 14.0198 102.098C14.2473 101.22 14.6174 100.055 15.1299 98.6035C15.1953 98.4175 15.2907 98.2267 15.4162 98.0311C15.5888 97.7591 15.6784 97.5634 15.6849 97.4441C15.7228 96.6253 15.7719 95.9648 15.832 95.4624C15.8412 95.3903 15.8196 95.3306 15.7673 95.2834C14.8233 94.4272 14.2624 93.3066 14.0846 91.9217C13.959 90.9503 13.9002 89.9963 13.908 89.0596C13.9264 86.7491 14.1009 84.2158 14.4317 81.4598C14.4395 81.3891 14.4121 81.3412 14.3493 81.3162C13.6812 81.0567 13.1386 80.8576 12.7215 80.7188C12.4025 80.6133 12.0115 80.6196 11.5487 80.7375C9.28803 81.3093 8.36363 82.8371 8.77549 85.3211C8.79118 85.4182 8.98011 86.5811 9.34229 88.8098C10.0588 93.2254 10.4484 97.9908 10.5112 103.106C10.5373 105.297 10.538 106.806 10.5131 107.633C10.4242 110.633 10.3831 112.85 10.3896 114.284C10.4014 117.305 11.635 119.545 14.0904 121.005C16.7675 122.595 19.882 123.199 22.9219 123.538C28.0865 124.114 33.3622 124.407 38.7491 124.417C39.1465 124.417 39.7009 124.404 40.4122 124.379C40.4245 124.379 40.4363 124.374 40.4455 124.366C40.4548 124.357 40.4608 124.345 40.4624 124.333C40.4641 124.32 40.4613 124.307 40.4546 124.296C40.4479 124.285 40.4377 124.277 40.4259 124.273C35.6823 122.788 31.0113 121.386 26.4129 120.066C25.9056 119.921 25.3976 119.847 24.889 119.846C21.0228 119.83 16.8754 119.503 12.4469 118.863C12.1985 118.827 12.0952 118.672 12.1371 118.399C12.1384 118.396 12.1397 118.389 12.141 118.376ZM77.7365 87.13C76.7872 87.6816 75.8262 87.0384 75.5575 85.9955C75.3183 85.0727 75.2594 84.0375 75.381 82.8899C75.3866 82.8374 75.3723 82.7848 75.3415 82.7435C75.3106 82.7022 75.2656 82.6755 75.2163 82.6692C73.1138 82.3736 70.9055 81.9802 68.5912 81.489C68.5778 81.4862 68.5639 81.4869 68.5508 81.4909C68.5376 81.4949 68.5256 81.5023 68.5156 81.5122C68.5056 81.5222 68.498 81.5345 68.4935 81.5482C68.4889 81.5619 68.4874 81.5766 68.4892 81.591C68.8279 84.5079 69.1064 86.799 69.3247 88.4642C69.5562 90.2336 69.9111 91.7968 70.8898 93.154C72.9157 95.9641 76.3969 95.5707 79.0681 94.3092C80.0305 93.8541 81.0536 93.2775 82.1375 92.5795C84.8361 90.8407 87.593 89.2303 90.408 87.7482C91.0212 87.4249 91.4514 87.1307 91.6985 86.8656C92.5222 85.9789 92.7536 84.6446 92.5046 83.4415C92.0358 81.1642 89.9412 80.3295 88.0075 81.3849C83.8876 83.6316 80.4639 85.5466 77.7365 87.13ZM23.0651 88.4684C22.1668 88.4185 21.5569 87.8148 21.5196 86.8469C21.4935 86.1267 21.5183 85.0262 21.5941 83.5455C21.5954 83.5174 21.5876 83.4896 21.5719 83.4668C21.5562 83.4441 21.5335 83.4278 21.5078 83.4206L15.2456 81.618C15.2382 81.6159 15.2305 81.6154 15.223 81.6168C15.2154 81.6181 15.2082 81.6211 15.2019 81.6257C15.1955 81.6302 15.1902 81.6362 15.1862 81.6431C15.1823 81.6501 15.1798 81.6578 15.1789 81.6659C14.771 84.8784 14.6141 87.88 14.7082 90.6707C14.7749 92.6065 15.4045 94.2655 17.0892 95.2064C18.4718 95.9786 19.9624 96.064 21.5569 96.0869C21.5791 96.0869 22.4512 96.0633 24.1732 96.0161C28.9141 95.8843 33.4472 95.6831 37.7724 95.4125C38.9949 95.3361 39.8173 95.2348 40.2396 95.1086C41.6752 94.6811 42.4251 93.734 42.4891 92.2672C42.544 91.0641 42.1342 90.1815 41.0516 89.7944C40.39 89.5584 39.7408 89.4211 39.104 89.3822C37.4122 89.2809 32.0658 88.9763 23.0651 88.4684ZM43.203 91.1161C43.6208 93.5828 42.4793 95.6144 40.0905 95.9932C38.7661 96.2041 37.218 96.3325 35.4463 96.3783C35.4335 96.3785 35.4209 96.3816 35.4093 96.3872C35.3976 96.3927 35.3872 96.4008 35.3788 96.4108C35.3703 96.4208 35.3639 96.4325 35.36 96.4452C35.3561 96.4579 35.3548 96.4712 35.3561 96.4845L35.6111 98.9553C35.6228 99.0663 35.681 99.1142 35.7856 99.0989C37.7194 98.8283 39.8526 98.4994 42.1851 98.1122C43.4351 97.9041 44.6707 97.6196 45.8919 97.2588C47.6335 96.7467 49.1142 95.9495 49.1966 93.818C49.2149 93.3295 49.1953 92.8522 49.1377 92.3859C48.9285 90.6721 48.4029 87.3048 47.5609 82.2841C47.5478 82.2064 47.504 82.1676 47.4295 82.1676L42.7323 82.1322C42.595 82.1322 42.5257 82.205 42.5244 82.3507C42.5114 84.596 42.546 86.953 42.6284 89.4218C42.6336 89.5966 42.6702 89.7624 42.7382 89.9193C42.8971 90.2856 43.1422 90.754 43.203 91.1161ZM109.965 93.1477L108.24 92.8084C108.202 92.8007 108.163 92.8034 108.126 92.8162C108.089 92.8291 108.056 92.8517 108.028 92.8821C108.001 92.9125 107.981 92.9499 107.969 92.9911C107.957 93.0323 107.955 93.076 107.961 93.1186C108.02 93.5078 108.449 93.7514 108.842 93.8409C109.525 94.0005 110.013 93.7118 110.303 92.975C110.39 92.7529 110.613 92.2117 110.97 91.3514C111.166 90.8809 111.298 90.2204 111.366 89.3697C111.435 88.5163 111.045 88.0764 110.195 88.05C109.522 88.0278 109.144 88.0389 109.061 88.0833C108.963 88.1347 108.91 88.1721 108.901 88.1957C108.833 88.3706 108.834 88.5309 108.904 88.6766C108.918 88.7054 108.938 88.7308 108.962 88.7509C108.986 88.771 109.014 88.7854 109.044 88.7931L110.507 89.1699C110.609 89.1949 110.694 89.2837 110.762 89.4363L110.815 89.5571C110.914 89.7777 110.851 89.8776 110.624 89.8568C109.998 89.8013 109.374 89.7222 108.753 89.6195C108.696 89.6101 108.638 89.6239 108.592 89.6581C108.545 89.6923 108.513 89.7442 108.502 89.8027L108.444 90.1441C108.439 90.17 108.44 90.1966 108.447 90.2222C108.454 90.2478 108.466 90.2717 108.483 90.2924C108.499 90.3131 108.52 90.33 108.544 90.3421C108.568 90.3543 108.594 90.3612 108.62 90.3626C109.048 90.3862 109.573 90.4951 110.197 90.6894C110.445 90.7671 110.547 90.9323 110.503 91.1848C110.488 91.2702 110.435 91.3467 110.355 91.3999C110.275 91.4531 110.173 91.4795 110.067 91.4742C109.714 91.4575 109.274 91.3409 108.746 91.1245C108.471 91.0135 108.291 91.1148 108.204 91.4284L108.181 91.5179C108.102 91.8024 108.21 91.9751 108.504 92.0362C109.265 92.1944 109.754 92.3456 109.971 92.49C110.196 92.6398 110.251 92.8299 110.136 93.0603C110.12 93.0924 110.095 93.1182 110.064 93.1339C110.033 93.1497 109.999 93.1545 109.965 93.1477ZM71.0643 94.8359C71.1807 94.8456 71.2082 94.7991 71.1467 94.6964C71.1407 94.6857 71.1327 94.6765 71.1232 94.6693C70.4067 94.1587 69.8196 93.4572 69.362 92.5649C68.803 91.4762 68.5696 90.1087 68.3853 88.8348C68.3212 88.3851 68.2728 88.3858 68.2402 88.8368L67.8303 94.6818C67.83 94.6878 67.8307 94.6937 67.8323 94.6993C67.834 94.7049 67.8365 94.71 67.8399 94.7143C67.8432 94.7186 67.8471 94.722 67.8516 94.7243C67.856 94.7266 67.8608 94.7277 67.8656 94.7276C68.8815 94.7013 69.9477 94.7374 71.0643 94.8359ZM83.8673 92.7106C83.871 92.6858 83.8678 92.6603 83.858 92.6374C83.8482 92.6145 83.8324 92.5951 83.8124 92.5816C83.7924 92.5681 83.7691 92.5611 83.7454 92.5615C83.7217 92.5618 83.6986 92.5695 83.679 92.5836L82.9612 93.1123C82.9477 93.1222 82.9363 93.1348 82.9275 93.1495C82.9187 93.1642 82.9129 93.1806 82.9102 93.1977L82.0649 99.0448C82.0623 99.0638 82.0636 99.0831 82.0689 99.1015C82.0742 99.1198 82.0833 99.1367 82.0955 99.1509C82.1077 99.165 82.1228 99.1761 82.1395 99.1833C82.1563 99.1905 82.1743 99.1937 82.1924 99.1926L82.7023 99.1676C82.7301 99.1666 82.7568 99.1555 82.7779 99.1362C82.7989 99.1169 82.8131 99.0905 82.818 99.0614L83.8673 92.7106ZM81.8355 95.0461L82.008 93.6827C82.0094 93.6746 82.0085 93.6663 82.0054 93.6588C82.0023 93.6512 81.9972 93.6449 81.9907 93.6404C81.9842 93.636 81.9766 93.6337 81.9689 93.6338C81.9611 93.6339 81.9536 93.6364 81.9472 93.6411C81.202 94.1337 80.4194 94.5792 79.5996 94.9774C79.4388 95.0551 79.4467 95.1016 79.6232 95.1169C80.1632 95.1599 80.8607 95.1738 81.7158 95.1585C81.7457 95.1578 81.7742 95.1461 81.7962 95.1254C81.8182 95.1048 81.8321 95.0766 81.8355 95.0461ZM16.6302 95.9453C16.5766 95.9204 16.5498 95.9391 16.5498 96.0015C16.5564 96.6316 16.5034 97.256 16.391 97.8749C16.3106 98.3141 16.0791 98.5785 15.8046 98.9573C15.764 99.0129 15.7411 99.0753 15.7359 99.1447C15.6653 99.9419 16.1595 101.155 16.5185 101.797C16.5229 101.805 16.5298 101.813 16.5382 101.817C16.5467 101.821 16.5562 101.823 16.5655 101.821C16.5748 101.82 16.5834 101.815 16.5901 101.808C16.5968 101.801 16.6012 101.792 16.6028 101.782C16.7165 101.285 16.9754 100.753 17.3794 100.185C17.8501 99.5235 18.1221 99.1253 18.1953 98.9906C18.5248 98.3856 18.9007 97.6925 19.323 96.9112C19.357 96.8487 19.3407 96.8113 19.274 96.7988C18.377 96.6309 17.4958 96.3464 16.6302 95.9453ZM26.5266 101.122C26.4787 101.108 26.4361 101.08 26.4025 101.04C26.3689 101 26.3454 100.95 26.334 100.894C26.3226 100.838 26.3237 100.778 26.3371 100.718C26.3505 100.659 26.3758 100.603 26.4109 100.554C26.4828 100.453 26.6188 100.39 26.8189 100.367C27.8047 100.247 30.4511 99.8871 34.7579 99.2862C34.7765 99.2836 34.7934 99.2735 34.8051 99.258C34.8168 99.2425 34.8224 99.2228 34.8207 99.203L34.5461 96.6177C34.5396 96.5538 34.5069 96.515 34.4481 96.5011C34.3186 96.472 34.1199 96.4643 33.8519 96.4782C28.7566 96.7488 24.2274 96.8966 20.2644 96.9216C20.1977 96.9216 20.15 96.9528 20.1212 97.0153C19.5041 98.3627 18.7726 99.6512 17.9266 100.881C17.3343 101.745 17.1205 102.269 17.6658 103.168C18.8425 105.104 21.2607 105.387 23.0023 104.128C23.8587 103.509 25.0707 102.63 26.6384 101.491C26.6659 101.471 26.8208 101.373 27.1032 101.197C27.1229 101.186 27.1314 101.168 27.1287 101.143C27.1248 101.099 27.1019 101.081 27.0601 101.089C26.7986 101.139 26.6208 101.15 26.5266 101.122ZM111.856 100.223C111.856 100.165 111.834 100.109 111.796 100.068C111.757 100.027 111.705 100.004 111.65 100.004H76.5793C76.5247 100.004 76.4723 100.027 76.4337 100.068C76.3951 100.109 76.3734 100.165 76.3734 100.223V100.327C76.3734 100.385 76.3951 100.441 76.4337 100.482C76.4723 100.523 76.5247 100.546 76.5793 100.546H111.65C111.705 100.546 111.757 100.523 111.796 100.482C111.834 100.441 111.856 100.385 111.856 100.327V100.223ZM91.2356 157.534C91.2448 157.537 91.254 157.538 91.2631 157.538C91.5024 157.558 91.6044 157.714 91.5691 158.007L90.7042 165.122C90.7013 165.146 90.7038 165.171 90.7117 165.194C90.7195 165.217 90.7324 165.238 90.7493 165.255C91.0814 165.588 91.2788 165.98 91.3416 166.431C91.3847 166.747 91.473 167.009 91.6063 167.218C91.9672 167.784 92.0045 168.689 92.2986 169.343C93.1282 171.187 93.948 172.984 94.0461 174.982C94.0677 175.427 93.8716 175.981 93.948 176.383C94.0252 176.785 94.1651 177.476 94.3677 178.456C94.3717 178.474 94.3813 178.491 94.3952 178.503C94.4091 178.515 94.4263 178.522 94.4442 178.523C98.1353 178.546 100.197 178.554 100.63 178.548C101.375 178.535 102.47 178.448 103.913 178.287C103.98 178.28 104.022 178.243 104.039 178.175C104.245 177.367 104.635 176.721 105.209 176.235C105.257 176.195 105.295 176.144 105.321 176.087C105.347 176.029 105.36 175.966 105.36 175.902V101.491C105.36 101.47 105.353 101.449 105.339 101.435C105.325 101.42 105.306 101.411 105.286 101.411L93.9833 101.399C93.8487 101.398 93.7768 101.468 93.7676 101.609L93.597 104.29C93.5918 104.361 93.6173 104.415 93.6735 104.453C95.4098 105.652 96.7788 107.236 97.7803 109.205C98.7165 111.042 99.2806 113.011 99.4728 115.112C99.6415 116.957 99.6454 118.591 99.4846 120.014C97.8189 134.784 96.4754 146.995 95.4543 156.65C95.4281 156.895 95.2974 157.019 95.062 157.02L86.5993 157.08C86.573 157.081 86.5477 157.091 86.5279 157.109C86.5081 157.128 86.4952 157.153 86.4914 157.18L85.6304 163.802C85.6043 163.997 85.4997 164.102 85.3166 164.114L84.6655 164.158C84.6014 164.162 84.5485 164.189 84.5067 164.239C84.1785 164.632 84.0464 165.116 84.1105 165.692C84.1471 166.019 84.3831 166.349 84.8185 166.681C84.8695 166.719 84.8917 166.706 84.8852 166.639C84.8087 165.823 85.0185 165.382 85.7579 165.072C87.1439 164.489 88.5089 164.393 89.853 164.784C89.917 164.804 89.9537 164.779 89.9628 164.709L90.8042 157.896C90.8434 157.584 90.9872 157.463 91.2356 157.534ZM75.2182 122.847C73.5061 122.169 72.0999 121.394 70.7054 120.308C69.9419 119.714 69.4365 119.372 69.1894 119.282C66.8065 118.416 64.1314 117.914 61.7857 118.403C61.7669 118.407 61.749 118.415 61.7332 118.426C61.7173 118.438 61.7037 118.453 61.6933 118.47C61.6829 118.487 61.6758 118.506 61.6725 118.526C61.6691 118.546 61.6696 118.567 61.6739 118.586C61.9211 119.721 62.5212 120.851 63.5352 121.401C64.1209 121.718 64.6949 121.951 65.2571 122.098C68.0774 122.829 71.3415 123.423 75.0496 123.88C75.1424 123.891 75.1921 123.844 75.1986 123.738L75.2535 122.895C75.2538 122.885 75.2506 122.875 75.2442 122.867C75.2379 122.858 75.2288 122.851 75.2182 122.847ZM59.6205 160.911L59.2224 160.894C59.1531 160.891 59.1243 160.929 59.1361 161.008C59.2878 162.001 59.3584 163.05 59.3479 164.156C59.3466 164.183 59.359 164.197 59.3852 164.195L59.4401 164.193C59.4414 164.193 59.4427 164.192 59.444 164.191C59.6611 162.855 59.8637 161.773 60.052 160.946C60.069 160.865 60.0396 160.834 59.9637 160.852L59.8225 160.883C59.7362 160.903 59.6689 160.912 59.6205 160.911ZM118.813 170.409C118.817 170.41 118.821 170.41 118.825 170.41C118.829 170.409 118.833 170.407 118.836 170.404C118.839 170.402 118.842 170.398 118.844 170.394C118.845 170.39 118.846 170.386 118.846 170.382L118.889 165.288C118.889 165.253 118.876 165.219 118.854 165.195C118.831 165.17 118.8 165.155 118.767 165.155L115.161 165.088C115.095 165.087 115.062 165.121 115.061 165.19C115.053 165.489 115.073 166.407 115.12 167.944C115.154 169.053 114.88 170.015 114.298 170.829C113.975 171.282 114.08 171.504 114.614 171.495C114.688 171.495 114.884 171.49 115.2 171.479C115.735 171.462 116.158 171.222 116.469 170.758C116.874 170.153 117.655 170.037 118.813 170.409ZM86.413 166.635C87.6982 165.813 88.9672 165.713 90.2197 166.335C90.6316 166.539 90.6741 166.474 90.3472 166.139C89.8831 165.668 89.2947 165.417 88.5821 165.388C87.5453 165.344 86.5313 165.563 85.5402 166.046C85.4788 166.076 85.4337 166.125 85.4049 166.191C85.2245 166.616 85.2205 166.944 85.3931 167.174C85.4377 167.233 85.5025 167.272 85.5733 167.281C85.6441 167.291 85.7154 167.27 85.7716 167.224C86.0129 167.026 86.2502 166.739 86.413 166.635ZM110.587 171.951C110.128 171.793 109.534 171.685 109.152 171.735C109.022 171.751 108.925 171.792 108.859 171.855C108.692 172.025 108.672 172.192 108.799 172.357C108.839 172.411 108.897 172.446 108.961 172.457C109.44 172.533 109.893 172.532 110.32 172.453C110.493 172.421 110.613 172.331 110.679 172.182C110.689 172.161 110.695 172.137 110.695 172.114C110.696 172.09 110.691 172.066 110.683 172.044C110.674 172.022 110.661 172.003 110.644 171.987C110.628 171.971 110.608 171.958 110.587 171.951ZM115.928 172.507C115.524 172.664 115.266 172.823 115.155 172.986C115.145 173 115.139 173.017 115.139 173.034C115.138 173.052 115.142 173.069 115.151 173.085C115.159 173.1 115.172 173.113 115.187 173.122C115.202 173.131 115.22 173.136 115.237 173.135L115.892 173.113C115.928 173.111 115.962 173.103 115.995 173.088C116.027 173.073 116.056 173.051 116.08 173.024C116.104 172.997 116.123 172.965 116.136 172.93C116.148 172.895 116.154 172.858 116.153 172.821L116.147 172.665C116.142 172.504 116.069 172.451 115.928 172.507ZM54.2114 178.331C54.2177 178.332 54.2241 178.33 54.2295 178.326C54.235 178.323 54.2391 178.317 54.2412 178.311C54.2433 178.305 54.2432 178.298 54.241 178.293C54.2388 178.287 54.2346 178.282 54.2291 178.279C54.0565 178.165 53.8623 178.138 53.6466 178.198C53.6321 178.202 53.62 178.211 53.6123 178.224C53.6047 178.237 53.602 178.253 53.6049 178.269C53.6077 178.285 53.6158 178.299 53.6278 178.31C53.6397 178.321 53.6548 178.328 53.6701 178.329L54.2114 178.331Z" fill="black"/>
<path d="M36.0863 35.4931C37.4657 34.7617 39.138 34.4578 41.1032 34.5813C43.9941 34.7631 46.3377 35.9829 48.1342 38.2407C49.0776 39.423 50.2014 41.719 49.7993 43.353C49.5417 44.3993 48.9573 44.9884 48.046 45.1202C46.7653 45.3055 45.0923 44.2293 44.0431 43.301C43.9762 43.242 43.8939 43.2063 43.8073 43.1985C43.7207 43.1906 43.6339 43.2112 43.5587 43.2572C43.3024 43.4127 42.9827 43.6978 42.5996 44.1128C41.7269 45.0557 40.1167 44.8538 39.0831 44.3813C38.8177 44.2605 38.4758 44.0697 38.0574 43.8089C37.4298 43.4175 36.6924 43.38 36.2236 43.9483C35.9961 44.2245 35.8941 44.5617 35.9177 44.96C35.9608 45.7385 36.4884 45.9341 37.016 46.3025C37.0651 46.3367 37.1064 46.382 37.137 46.4351C37.1676 46.4883 37.1867 46.548 37.1929 46.61C37.1991 46.6719 37.1922 46.7345 37.1728 46.7933C37.1534 46.8521 37.122 46.9056 37.0807 46.9499C36.7512 47.3017 36.2079 46.8396 35.9 46.6523C35.8613 46.6287 35.8156 46.6214 35.7721 46.6318C35.7285 46.6422 35.6902 46.6695 35.6647 46.7085C35.3051 47.2566 34.8887 47.7152 34.4154 48.0844C33.2739 48.9753 31.907 49.148 31.1342 47.6722C30.9786 47.3725 30.8387 46.9777 30.7145 46.4878C30.6531 46.2408 30.574 45.8307 30.4772 45.2576C30.1909 43.5396 30.1242 42.0125 30.2772 40.6761C30.54 38.3822 31.7017 36.946 33.7623 36.3673C33.8342 36.3479 33.8564 36.3014 33.829 36.2278C33.7466 36.01 33.6845 35.7942 33.6426 35.5805C33.5864 35.2905 33.5747 34.9976 33.6073 34.7021C33.6956 33.9257 34.5311 33.6696 35.1057 33.9694C35.6 34.2275 35.8863 34.7118 35.9648 35.4223C35.9739 35.5083 36.0144 35.5319 36.0863 35.4931Z" fill="black"/>
<path d="M73.9636 37.9578L70.6784 36.0647C70.489 35.9555 70.2521 36.03 70.1492 36.231L70.1305 36.2676C70.0277 36.4687 70.0978 36.7201 70.2873 36.8293L73.5724 38.7224C73.7618 38.8316 73.9988 38.7571 74.1016 38.556L74.1203 38.5194C74.2232 38.3184 74.153 38.0669 73.9636 37.9578Z" fill="black"/>
<path d="M41.6963 46.3464C41.5725 46.9343 41.8843 47.5086 42.3927 47.6293C42.9012 47.7499 43.4137 47.3711 43.5375 46.7832C43.6613 46.1953 43.3495 45.621 42.8411 45.5003C42.3326 45.3797 41.8201 45.7585 41.6963 46.3464Z" fill="black"/>
<path d="M92.6658 47.137C92.7253 47.7476 93.1551 48.2008 93.626 48.1491C94.0968 48.0975 94.4303 47.5606 94.3708 46.95C94.3114 46.3393 93.8815 45.8862 93.4107 45.9378C92.9398 45.9894 92.6063 46.5263 92.6658 47.137Z" fill="black"/>
<path d="M44.751 50.7447C44.7666 50.7566 44.7849 50.7637 44.804 50.7652C44.8231 50.7668 44.8422 50.7627 44.8592 50.7534C44.8762 50.7442 44.8905 50.7301 44.9005 50.7128C44.9105 50.6955 44.9158 50.6755 44.9158 50.6552L44.8687 46.386C44.8648 46.0862 44.9929 45.944 45.2531 45.9592C45.261 45.9592 45.2668 45.9592 45.2708 45.9592C45.5244 45.9495 45.6532 46.0807 45.6571 46.3527C45.6964 49.1572 45.7277 50.7302 45.7513 51.0715C45.767 51.3005 45.7186 51.5003 45.6061 51.671C45.547 51.7604 45.4592 51.8242 45.3583 51.8513C45.2574 51.8783 45.15 51.8668 45.055 51.8188L44.1882 51.3817C44.0692 51.322 43.9881 51.3574 43.945 51.4878C43.1435 53.9316 41.5876 55.4192 39.2772 55.9507C38.781 56.0631 38.1358 56.0839 37.6808 56.138C37.6493 56.1418 37.6201 56.1573 37.5982 56.1816C37.5764 56.206 37.5632 56.2377 37.5611 56.2712C37.5154 57.0636 37.4481 57.7311 37.3591 58.2737C37.2493 58.9585 37.0963 59.7037 36.6256 60.0805C35.8 60.7382 34.5153 60.3136 33.7269 59.8182C32.2142 58.8676 30.7544 58.0107 29.3475 57.2475C29.0245 57.0726 28.9317 56.8062 29.069 56.4482L30.8263 51.8688C30.9269 51.6079 31.093 51.5413 31.3244 51.6689C31.3283 51.6703 31.3336 51.6724 31.3401 51.6752C31.5807 51.7848 31.648 51.977 31.5421 52.2518L29.9143 56.4815C29.8842 56.5606 29.9051 56.6189 29.977 56.6563C31.0322 57.2017 32.4724 58.0329 34.2977 59.15C34.7919 59.4525 35.3162 59.5927 35.8706 59.5705C36.0915 59.5622 36.2465 59.3915 36.3354 59.0584C36.4753 58.5311 36.591 58.0295 36.6825 57.5535C36.7204 57.3592 36.6616 57.2066 36.506 57.0955C35.409 56.3143 34.3996 55.5045 33.4779 54.6664C33.4216 54.6136 33.4046 54.5491 33.4269 54.4728C33.4857 54.2827 33.5968 54.1501 33.7603 54.0752C33.7921 54.0608 33.8266 54.054 33.8612 54.0554C33.8958 54.0569 33.9296 54.0665 33.9603 54.0835C34.5775 54.4305 35.0246 54.6601 35.3018 54.7725C37.3323 55.5982 39.2151 55.456 40.9502 54.3458C42.4348 53.3966 42.8938 52.0478 43.439 50.4783C43.4553 50.4314 43.4803 50.3885 43.5123 50.3519C43.5444 50.3153 43.5829 50.2859 43.6258 50.2652C43.6686 50.2445 43.7149 50.2329 43.7619 50.2313C43.809 50.2297 43.8558 50.2379 43.8999 50.2556C44.1757 50.3652 44.4595 50.5282 44.751 50.7447Z" fill="black"/>
<path d="M89.0442 46.0908L89.0212 46.0961C88.8012 46.1475 88.662 46.3784 88.7104 46.6119L89.3842 49.8647C89.4326 50.0983 89.6502 50.246 89.8703 50.1946L89.8932 50.1893C90.1133 50.1379 90.2524 49.907 90.2041 49.6734L89.5302 46.4206C89.4818 46.1871 89.2643 46.0394 89.0442 46.0908Z" fill="black"/>
<path d="M83.4044 47.3444C83.3942 47.9605 83.7635 48.4669 84.2292 48.4755C84.6949 48.4842 85.0807 47.9917 85.0908 47.3756C85.1009 46.7595 84.7316 46.2531 84.2659 46.2444C83.8002 46.2358 83.4145 46.7283 83.4044 47.3444Z" fill="black"/>
<path d="M81.771 50.5178C81.7763 50.225 81.7638 50.0245 81.7338 49.9162C81.7233 49.8774 81.454 49.1676 80.9257 47.7868C80.829 47.5329 80.8878 47.3365 81.1023 47.1977C81.1088 47.1936 81.1225 47.1846 81.1434 47.1707C81.3592 47.0236 81.5128 47.0805 81.6043 47.3414L82.6654 50.3492C82.7621 50.6226 82.6745 50.7815 82.4026 50.8259L82.1515 50.8654C81.8939 50.9084 81.7671 50.7926 81.771 50.5178Z" fill="black"/>
<path d="M147.691 49.8668C147.451 50.8327 147.681 51.7347 148.204 51.8815C148.728 52.0283 149.347 51.3644 149.588 50.3985C149.828 49.4326 149.598 48.5306 149.075 48.3838C148.551 48.237 147.932 48.9009 147.691 49.8668Z" fill="black"/>
<path d="M89.0161 50.4906C89.1534 50.6863 89.3599 50.8452 89.6358 50.9673C90.4988 51.3503 90.944 50.832 91.2303 50.0618C91.3022 49.8689 91.429 49.8106 91.6108 49.8869C91.7219 49.9341 91.8226 50.0257 91.9128 50.1617C92.0004 50.2935 92.0194 50.4358 91.9697 50.5884C91.6677 51.5085 91.059 51.972 90.1438 51.9789C89.4796 51.9831 88.8742 51.6764 88.3277 51.0589C88.1381 50.8438 88.1564 50.6405 88.3826 50.449L88.4375 50.4032C88.6545 50.2186 88.8474 50.2478 89.0161 50.4906Z" fill="black"/>
<path d="M43.509 63.8943L43.4744 63.8746C43.276 63.7612 43.0286 63.84 42.9218 64.0505L42.4142 65.0512C42.3074 65.2617 42.3816 65.5243 42.5799 65.6377L42.6145 65.6574C42.8129 65.7708 43.0603 65.692 43.1671 65.4815L43.6747 64.4808C43.7815 64.2702 43.7073 64.0077 43.509 63.8943Z" fill="black"/>
<path d="M36.0588 126.709L35.894 126.71C35.7305 126.712 35.5991 126.854 35.6005 127.027L36.0142 177.341C36.0156 177.514 36.1494 177.654 36.3129 177.652L36.4776 177.651C36.6412 177.649 36.7726 177.507 36.7712 177.334L36.3575 127.02C36.3561 126.847 36.2223 126.707 36.0588 126.709Z" fill="black"/>
<path d="M141.885 178.008L141.838 177.987C141.637 177.899 141.406 178 141.323 178.213L141 179.04C140.917 179.254 141.012 179.499 141.213 179.587L141.261 179.608C141.462 179.696 141.692 179.595 141.776 179.381L142.098 178.554C142.182 178.341 142.086 178.096 141.885 178.008Z" fill="black"/>
<path d="M139.539 178.739H132.165C131.985 178.739 131.84 178.894 131.84 179.085V179.239C131.84 179.429 131.985 179.584 132.165 179.584H139.539C139.719 179.584 139.865 179.429 139.865 179.239V179.085C139.865 178.894 139.719 178.739 139.539 178.739Z" fill="black"/>
<path d="M143.301 178.708L142.91 178.74C142.694 178.757 142.532 178.958 142.549 179.187L142.553 179.245C142.57 179.474 142.758 179.646 142.974 179.628L143.365 179.596C143.581 179.578 143.743 179.378 143.726 179.149L143.722 179.091C143.706 178.862 143.517 178.69 143.301 178.708Z" fill="black"/>
</svg>
