<svg width="180" height="180" viewBox="0 0 180 180" fill="none" xmlns="http://www.w3.org/2000/svg">
<g clip-path="url(#clip0_58_1990)">
<path d="M150.618 15.8168C150.68 15.2596 151.346 14.9643 151.849 15.031C152.263 15.0258 152.474 15.4371 152.734 15.692C152.712 16.0189 152.773 16.3687 152.627 16.6746C152.466 16.8838 152.209 16.9857 152.005 17.1422C151.947 17.0877 151.831 16.9805 151.773 16.9277L151.747 17.209C151.196 16.9734 150.307 16.5621 150.618 15.8168Z" fill="black"/>
<path d="M141.166 22.8568C142.374 22.3383 143.773 22.3945 145.023 22.718C145.826 22.9271 146.317 23.6478 146.524 24.4125C147.626 23.6496 149.265 23.9889 150.029 25.0752C151.506 24.4969 153.473 24.7166 154.514 26.0033C154.986 26.506 154.782 27.3094 155.264 27.791C154.568 28.0494 153.819 28.0758 153.091 28.1672C149.595 28.5961 146.069 28.6523 142.553 28.7332C139.982 28.7156 137.398 28.7807 134.84 28.524C134.738 28.06 134.249 27.6328 134.545 27.1441C135.062 25.8961 136.069 24.6656 137.463 24.416C138.275 24.235 138.88 24.917 139.335 25.4812C139.702 24.4811 140.121 23.3262 141.166 22.8568ZM141.539 23.5898C140.337 24.1084 140.012 25.5076 139.579 26.6133C139.159 26.4516 139.008 25.9734 138.714 25.6641C138.372 25.1455 137.677 24.8537 137.094 25.1455C135.926 25.6535 135.222 26.7943 134.661 27.8789C135.413 27.7436 136.181 27.8174 136.944 27.8016C140.103 27.8455 143.264 27.8455 146.422 27.7348C149.092 27.7102 151.763 27.6539 154.426 27.4236C153.969 25.9348 152.17 25.534 150.803 25.6658C150.26 25.606 150.251 26.3725 149.743 26.4199C149.34 26.2072 149.363 25.6236 149.024 25.3389C148.539 24.9469 147.881 24.8607 147.284 24.9539C147.046 25.2545 146.946 25.8662 146.436 25.7467C145.804 25.1561 145.825 24.0187 144.939 23.6531C143.872 23.2137 142.631 23.2629 141.539 23.5898Z" fill="black"/>
<path d="M18.1671 23.7815C19.264 23.1328 20.5946 23.1715 21.8128 23.3455C23.2648 23.5319 24.5884 24.5162 25.1456 25.875C25.4743 25.9875 25.8259 25.6641 26.1775 25.6553C27.9071 25.3617 30.078 26.042 30.7372 27.8121C31.37 27.5731 32.0503 27.3762 32.7183 27.6223C34.4831 28.0776 35.3638 30.0656 35.2038 31.7619C34.9525 31.7778 34.7011 31.7901 34.4497 31.7971C34.4163 31.7461 34.3478 31.6477 34.3126 31.5967C34.5816 31.0465 34.295 30.4453 34.0665 29.9356C33.6429 29.0233 32.6866 28.3096 31.646 28.4485C31.1925 28.3834 30.964 29.2289 30.528 28.8932C30.0534 28.357 29.8179 27.617 29.1886 27.2162C28.2007 26.5465 26.8665 26.3813 25.731 26.7223C25.6448 26.9543 25.6976 27.4904 25.2968 27.3727C24.787 27.0176 24.5849 26.3725 24.1964 25.9014C23.6128 25.0278 22.6653 24.4565 21.637 24.2772C20.4769 24.1014 19.1409 24.0469 18.1777 24.8344C17.6169 25.2352 17.5132 25.9506 17.1968 26.5166C16.7855 26.6344 16.5446 26.2072 16.2493 26.0033C15.9505 25.9313 15.6517 25.8504 15.3546 25.7696C15.3669 25.7133 15.388 25.6008 15.4003 25.5446C15.3054 25.6166 15.2122 25.6904 15.1208 25.766C14.5566 25.7977 13.9642 25.817 13.4562 26.093C13.0237 26.2899 12.7284 26.6731 12.361 26.9596C12.129 26.2582 12.746 25.7379 13.2786 25.418C14.3439 24.7817 15.6903 24.8502 16.8066 25.3143C17.1652 24.7324 17.5273 24.0944 18.1671 23.7815Z" fill="black"/>
<path d="M141.745 26.4797C142.182 26.0297 143.393 26.0209 143.446 26.8049C142.898 26.9332 141.815 27.348 141.745 26.4797Z" fill="black"/>
<path d="M73.9564 27.5608C75.164 27.0369 76.7443 27.4078 77.6003 28.4098C78.1347 27.9071 78.873 27.7787 79.5796 27.7489C79.5515 27.8385 79.4953 28.0178 79.4671 28.1074C79.5357 28.0283 79.6728 27.8684 79.7396 27.7893C80.5781 27.9088 81.3339 28.4168 81.6292 29.2307C81.7312 29.1604 81.9333 29.0215 82.0353 28.9512C82.1935 29.0461 82.4589 29.2237 82.408 28.8844L83.1832 28.8281L82.698 29.1498L82.879 29.0408C83.2324 29.1024 83.547 28.7983 83.932 28.974C83.932 29.069 83.932 29.2606 83.932 29.3572L83.9724 29.0004C84.6861 29.2324 85.3101 29.6596 85.8023 30.2239C86.0396 30.5385 86.4351 30.6018 86.7902 30.709C86.1345 30.9955 85.405 30.9815 84.7177 31.1432C81.5449 31.8305 78.2859 31.9219 75.0533 32.0133C73.524 32.0186 71.9964 32.0203 70.4689 32.008C70.1947 30.4963 71.7275 29.3801 73.0968 29.3151C73.0669 28.633 73.2708 27.8543 73.9564 27.5608ZM73.7876 28.6295C73.6699 29.1375 73.8404 29.6508 73.8914 30.1571C73.5099 30.1342 73.132 30.0727 72.7558 30.0147C72.0333 30.2291 71.3671 30.6545 70.9259 31.275C72.5414 31.101 74.1691 31.1572 75.7916 31.1326C77.5054 31.0535 79.221 30.9815 80.9367 30.9569C82.4009 30.9235 83.8511 30.6809 85.3154 30.6985C85.1607 30.2502 84.6826 30.1043 84.2835 29.9602C83.3396 29.7088 82.1935 29.5278 81.4218 30.2783C81.1599 29.8301 81.0632 29.236 80.5939 28.9459C80.0015 28.5662 79.2474 28.5451 78.5794 28.6822C78.2138 28.7895 78.0556 29.1709 77.8341 29.4416C77.3085 29.069 76.9359 28.466 76.2873 28.2832C75.4681 27.9738 74.3835 27.8385 73.7876 28.6295Z" fill="black"/>
<path d="M13.5388 29.2096C14.1224 28.8123 14.9661 28.8756 15.4829 29.3573C15.003 29.4891 14.5179 29.5998 14.0503 29.7668C13.7937 29.6877 13.4772 29.5313 13.5388 29.2096Z" fill="black"/>
<path d="M11.9936 31.3154C12.7899 31.1607 13.6073 31.2205 14.4159 31.1906C18.1073 31.108 21.8004 31.1959 25.4918 31.1906C28.1075 31.2082 30.7213 31.2908 33.3334 31.4174C33.3018 31.4965 33.242 31.6547 33.2122 31.7338C32.8588 31.7865 32.5038 31.8217 32.1469 31.848C26.8788 32.0836 21.6053 32.1539 16.3319 32.1011C14.8764 32.0836 13.4086 32.2031 11.9602 32.008C11.969 31.776 11.9795 31.5457 11.9936 31.3154Z" fill="black"/>
<path d="M57.3381 40.9693C57.5033 40.6213 58.0518 40.4578 58.2908 40.8076C58.8129 41.6584 59.1135 42.6234 59.4686 43.5515C60.9715 47.4363 61.6324 51.5918 61.9488 55.7279C61.8926 55.8088 61.7801 55.9687 61.7238 56.0496C61.9523 56.366 62.0684 56.7457 62.0877 57.1359C62.1492 58.6476 62.2389 60.1629 62.1686 61.6763C61.7695 62.0789 60.7693 61.9787 60.7605 62.7767C61.207 62.7222 61.65 62.6326 62.0965 62.5693C61.9998 63.8613 61.766 65.1955 61.0611 66.3064C64.0916 66.484 67.1027 66.9551 70.091 67.4842C69.5812 66.331 69.6832 64.9336 70.3934 63.8859C71.6889 61.8662 74.2553 60.9803 76.5721 61.1648C76.8498 60.0644 77.3719 58.9517 78.2982 58.2539C79.2545 57.5209 80.8102 57.5209 81.6205 58.4754C81.6557 58.5826 81.726 58.7988 81.7629 58.9078C82.7174 57.9674 83.9355 57.2871 85.2557 57.034C86.1943 56.9039 87.2367 57.1166 87.9381 57.7881C88.6359 58.3945 88.8258 59.4615 88.4479 60.2947C90.225 59.7392 92.2324 59.639 93.9656 60.4037C95.1768 60.8449 96.1629 61.984 96.235 63.2988C96.4389 64.7525 95.5248 66.0709 94.4156 66.9111C95.5635 66.7863 97.0541 67.0254 97.5691 68.2119C98.0525 69.1576 97.7959 70.2791 97.2721 71.1492C97.8117 71.0701 98.3848 71.0332 98.9016 71.2476C99.2092 71.3742 99.1775 71.7451 99.2566 72.0158C99.798 72.0931 100.364 72.2443 100.703 72.7119C101.846 71.7064 103.097 70.7519 104.59 70.3494C105.282 70.1965 106.068 70.1121 106.704 70.4988C107.281 70.8135 107.515 71.5974 107.197 72.1775C108.554 71.9261 110.213 71.8963 111.24 72.9738C111.63 73.3289 111.684 73.8633 111.669 74.3607C112.254 74.3906 112.838 74.4486 113.416 74.5523C113.752 74.1076 113.945 73.3166 114.622 73.3271C114.891 73.248 114.979 73.5908 115.156 73.7138C115.72 73.1303 116.344 72.5554 117.149 72.3428C118.139 72.0123 119.334 72.1635 120.096 72.914C120.454 73.2533 120.44 73.7683 120.505 74.2219C121.597 73.0318 123.066 72.1951 124.634 71.8224C125.485 71.5904 126.462 71.884 126.921 72.6662C126.715 70.8047 127.146 68.843 128.329 67.3646C129.473 65.9443 131.098 64.8562 132.91 64.5258C134.037 64.2744 135.337 64.4361 136.216 65.2377C136.696 65.6191 136.976 66.1781 137.215 66.7301C138.586 64.6629 140.593 62.8242 143.096 62.3426C144.629 61.9629 146.31 62.2476 147.614 63.1371C148.356 63.6996 148.918 64.6013 148.867 65.5576C148.952 66.6439 148.521 67.7127 147.816 68.5248C149.657 67.7461 151.638 67.2996 153.631 67.159C154.905 67.0676 156.252 67.2926 157.315 68.0431C158.47 68.9203 158.778 70.5217 158.527 71.884C158.27 72.8631 157.913 73.8422 157.252 74.6244C156.368 75.7687 155.102 76.5299 153.795 77.0976C154.916 77.0572 156.236 77.0519 157.064 77.9396C157.653 78.5584 157.461 79.5445 156.985 80.1721C157.398 80.6027 157.744 81.0896 158.019 81.6222C158.261 80.9631 158.089 80.1967 158.509 79.5867C159.224 78.0785 161.144 77.5371 162.654 78.082C163.566 76.7426 165.229 76.0306 166.815 75.9586C167.309 75.9269 167.904 75.6826 168.309 76.101C168.446 76.0271 168.585 75.9533 168.725 75.8795C168.884 75.9006 169.198 75.9445 169.355 75.9674C169.283 79.3529 169.349 82.742 169.321 86.1293C169.311 86.8307 169.339 87.5355 169.232 88.2334C168.404 88.2668 167.616 88.0066 166.823 87.8168C166.331 87.3914 165.633 87.7781 165.171 87.3176C164.442 87.2912 163.786 86.9326 163.113 86.6971C156.911 84.1043 150.293 82.633 143.636 81.8226C136.204 80.9033 128.679 81.2215 121.243 81.9439C112.873 82.8931 104.528 84.2889 96.4178 86.6004C92.6297 87.6234 88.9506 88.998 85.3594 90.5695C85.3014 90.3392 85.2486 90.1055 85.2064 89.8734C88.7854 88.1806 92.5242 86.8377 96.3387 85.783C102.79 83.8986 109.42 82.7086 116.058 81.7101C114.966 81.3586 113.811 81.2549 112.736 80.8523C112.516 81.0246 112.315 81.3428 111.99 81.2636C111.442 81.1951 110.918 81.007 110.392 80.8488C106.265 79.4865 102.178 78.0082 98.0227 76.732C94.8832 75.7863 91.8352 74.5752 88.766 73.4308C79.9225 70.0453 70.6025 67.9412 61.1824 67.0271C60.6375 66.8689 60.3299 67.4191 59.9818 67.7197C59.407 68.3314 58.6072 68.6303 57.8514 68.9467C57.8971 70.3986 57.9041 71.8523 57.934 73.3043C57.9603 73.8316 57.7863 74.3361 57.6738 74.8459C57.4629 75.5138 56.2729 75.2308 56.4117 74.5295C56.4117 72.7488 56.3748 70.9681 56.4223 69.1875C54.8068 69.2121 53.1316 68.4773 52.2615 67.0781C52.1016 66.876 52.0031 66.5262 51.6797 66.5842C50.8799 66.5613 50.0801 66.5806 49.2838 66.6193C48.7494 67.7232 47.7896 68.5459 46.677 69.0275C46.7596 70.3406 46.8105 71.6836 46.4889 72.9685C46.3078 73.6207 45.2039 73.4203 45.1564 72.784C45.109 71.6115 45.1125 70.4303 45.2355 69.2596C44.5359 69.2789 43.8064 69.1787 43.2193 68.7709C42.5725 68.3648 42.2086 67.667 41.85 67.0201C40.3646 67.224 38.8863 67.4736 37.408 67.7232C37.0248 67.79 36.6574 67.9201 36.2971 68.0625C36.2918 69.2842 36.3199 70.5076 36.2602 71.731C36.5361 71.7381 36.8174 71.7662 37.0424 71.9508C37.1408 72.4324 36.4729 72.9422 36.0123 72.6679C35.7486 72.8543 35.3795 73.0951 35.0807 72.8314C34.6025 72.5941 34.7273 71.9824 34.7238 71.55C34.7889 70.4812 34.7379 69.409 34.8188 68.3437C33.2367 68.5582 31.7373 69.2209 30.1447 69.3299C30.382 71.7135 30.709 74.2482 29.7211 76.5176C29.6314 76.5369 29.4504 76.5738 29.3607 76.5931C29.4451 76.5914 29.6174 76.5879 29.7018 76.5879C29.0936 78.1664 27.7945 79.3828 26.2617 80.0578C25.6061 80.3971 24.8766 80.5447 24.1963 80.8207C24.0117 82.626 24.0873 84.4453 24.0082 86.2558C24.2209 86.1592 24.4494 85.8515 24.6744 86.1012C25.0998 86.3068 24.6691 86.7041 24.4512 86.8816C24.2859 86.806 24.1207 86.7305 23.9572 86.6566C23.85 87.0029 23.741 87.3721 23.4281 87.5918C23.2699 87.5672 22.9553 87.5197 22.7971 87.4951C22.3928 87.089 22.4402 86.4808 22.4104 85.9535C22.4156 84.2836 22.4262 82.6101 22.5861 80.9472C20.6279 81.3129 18.6855 80.2617 17.5377 78.7095C17.7363 78.4969 17.7803 78.0627 17.3479 78.3844C16.6904 77.3349 16.2686 76.1308 16.2141 74.8881C16.1877 74.5137 16.1877 74.1217 16.0312 73.7754C14.9502 74.0496 13.9025 74.4381 12.8408 74.7738C12.2115 74.9619 11.6191 75.2976 10.9635 75.3785L10.7139 75.2238C12.426 74.3045 14.3385 73.8404 16.1191 73.1056C16.142 71.6238 16.3002 70.1472 16.476 68.676L16.5586 68.6935C16.548 68.465 16.541 68.2365 16.5691 68.0097C16.9049 65.6613 17.383 63.3357 17.8963 61.0207C17.935 60.7605 18.0404 60.525 18.1723 60.3035C18.2232 59.472 18.5115 58.6775 18.7471 57.8847C19.4326 57.6967 20.1094 57.4717 20.751 57.1658C20.6648 57.0691 20.4908 56.8793 20.4029 56.7844C19.9213 56.9795 19.4238 57.1289 18.9158 57.2449C19.8861 54.007 20.9619 50.7515 22.7074 47.8388C23.0695 47.2887 23.4193 46.6347 24.0715 46.3834C24.7816 46.2937 25.1631 47.032 25.3494 47.6015C25.6219 48.5209 25.9945 49.4033 26.3074 50.3086C25.5691 50.4053 24.8238 50.356 24.0873 50.2769C23.799 50.1978 23.4738 50.0695 23.2893 50.4C24.2877 50.8799 25.4285 50.799 26.5025 50.8869C27.0598 51.8853 27.3885 53.0086 27.7119 54.1019C27.3639 54.2056 27.0229 54.3375 26.7012 54.508C26.5887 54.5115 26.3619 54.5185 26.2494 54.5203C26.2828 54.6012 26.3514 54.7629 26.3848 54.8437C26.8998 54.7681 27.4096 54.6627 27.9211 54.5695C28.3148 55.7279 28.677 56.8986 28.9582 58.0904C28.1514 58.1467 27.341 58.2012 26.5342 58.1484C26.4709 58.1642 26.3443 58.1959 26.2811 58.2117C25.2686 58.0219 24.3 57.6773 23.3631 57.2502C23.0643 57.8988 23.8816 58.0887 24.3105 58.3031C25.8223 59.0115 27.5291 58.841 29.134 58.6652C29.816 61.7906 29.8846 65.0021 29.9637 68.1873C28.5275 67.9096 27.0791 67.5545 25.7906 66.839C25.3846 66.614 25.0365 66.2941 24.6129 66.1008C24.1277 66.4611 24.7764 66.8549 25.0629 67.0693C26.5043 67.9183 28.1373 68.4949 29.8055 68.6549C30.0568 68.6724 30.1781 68.8148 30.1729 69.0873C30.2098 69.0187 30.2818 68.8816 30.3188 68.8131C31.7953 68.3789 33.2912 68.0185 34.7783 67.6301C34.8381 67.1853 34.875 66.7371 34.882 66.2906C33.7412 66.4137 32.6883 65.6824 32.0836 64.7666C31.3576 63.5185 31.2838 62.0279 31.2592 60.6199C31.2996 56.0531 32.3438 51.5408 33.8713 47.2535C34.2615 46.1461 34.6869 45.0457 35.2688 44.0244C35.4287 43.7379 35.8119 43.9207 36.0686 43.889C36.2355 44.2494 36.3814 44.6238 36.4412 45.0193C37.1338 48.7582 38.6631 52.2967 39.1869 56.0724C39.426 57.9199 39.4523 59.8148 39.1043 61.6517C38.8494 62.9982 38.4486 64.401 37.4695 65.4117C37.1777 65.7439 36.7418 65.867 36.3621 66.0603C36.3146 66.4646 36.3357 66.8724 36.3516 67.2785C38.1305 66.8215 39.9568 66.6035 41.7621 66.273C41.3684 64.7332 41.6496 63.1248 41.9168 61.5885C42.7377 57.9867 44.093 54.4922 46.0512 51.3527C46.2656 51.0258 46.4326 50.5142 46.9002 50.509C47.4381 50.5494 47.6227 51.126 47.8283 51.5338C49.0799 54.4271 50.0537 57.4928 50.1908 60.6638C50.2365 62.4023 50.2488 64.2094 49.5686 65.8459C50.2682 65.8494 50.9695 65.8687 51.6691 65.8441C51.3387 64.8527 51.0838 63.8086 51.1559 62.7574C51.0293 61.8258 51.1559 60.8836 51.2367 59.9537C51.2561 59.5969 51.634 59.4351 51.8537 59.2119C51.7254 59.1381 51.467 58.9904 51.3387 58.9166C51.3791 58.5615 51.4459 58.2099 51.4986 57.8566C51.7781 55.7859 52.3828 53.775 52.9629 51.7711C53.1088 51.0609 53.9789 51.1224 54.4799 50.7902C54.5502 50.1556 53.7574 50.4949 53.3988 50.5547C53.6906 49.739 53.9227 48.9058 54.2426 48.1008C55.176 45.6855 55.9459 43.1736 57.3381 40.9693ZM55.6576 53.615C55.7877 53.7504 55.9213 53.8857 56.0549 54.0211C56.9549 53.1474 58.0904 52.5674 59.284 52.2035C59.0396 51.9381 58.7021 51.7816 58.3436 51.9099C57.3047 52.1912 56.3713 52.8152 55.6576 53.615ZM35.9385 53.9332C35.9279 54.4131 36.1688 55.1144 36.7418 55.1021C36.3041 54.2373 36.6082 53.2072 36.2215 52.3388C35.775 52.759 35.9859 53.3953 35.9385 53.9332ZM46.3359 57.1131C46.3271 57.3504 46.5135 57.825 46.807 57.5859C46.8404 57.1219 46.7982 56.6525 46.6699 56.2043C46.4045 56.4381 46.2709 56.758 46.3359 57.1131ZM35.5746 57.6053C35.267 58.0693 35.3162 58.7953 35.9016 59.0027C35.84 58.5334 35.9771 57.948 35.5746 57.6053ZM53.6098 59.8201C54.0615 59.5722 54.3305 59.0976 54.6609 58.718C54.6029 58.6424 54.4869 58.4912 54.4289 58.4156C54.0369 58.7513 53.0314 59.2347 53.6098 59.8201ZM79.4848 58.7355C79.5023 59.3226 80.0103 58.4683 79.4848 58.7355V58.7355ZM78.634 59.2734C78.6902 59.3859 78.6902 59.3859 78.634 59.2734V59.2734ZM80.7328 59.4492C80.8189 59.5459 80.8189 59.5459 80.7328 59.4492V59.4492ZM57.5332 60.9205C57.8654 60.6498 58.1309 60.3105 58.377 59.9642C57.9146 59.8377 56.9391 60.5162 57.5332 60.9205ZM45.9299 60.5566C45.7313 61.0277 45.8982 61.6605 46.3588 61.9172C46.3799 61.4426 46.3605 60.9556 46.1883 60.5074C46.1232 60.5197 45.9949 60.5443 45.9299 60.5566ZM34.4566 61.5955C34.5516 62.0244 34.9189 62.3162 35.3725 62.2107C35.2125 61.8978 34.9928 61.6236 34.7467 61.3775C34.6746 61.432 34.5305 61.541 34.4566 61.5955ZM55.2867 64.125C55.3254 64.2094 55.4045 64.3799 55.4432 64.4642C55.7895 64.2269 56.1146 63.9615 56.4258 63.6803C56.0531 63.2056 55.5803 63.8648 55.2867 64.125ZM76.8375 65.0338C76.8691 65.2342 76.9816 65.359 77.175 65.4117C77.6215 64.9054 78.0434 64.3746 78.5689 63.9439C78.525 63.8543 78.4371 63.675 78.3932 63.5853C77.7656 63.9281 77.2031 64.4168 76.8375 65.0338ZM19.8475 63.8824C19.8193 64.2726 20.1516 64.5556 20.5365 64.4853C21.4436 64.3763 22.3594 64.3306 23.2594 64.1724C23.2277 64.0846 23.1662 63.907 23.1363 63.8191C22.0623 63.5361 20.9303 63.7523 19.8475 63.8824ZM45.1301 65.1375C45.2725 65.3783 45.6451 65.2359 45.7313 65.0162C45.6152 64.8545 45.4869 64.7033 45.348 64.5644C45.2479 64.7103 44.9068 64.9318 45.1301 65.1375ZM83.8107 65.7351C83.7264 65.9162 83.7686 66.0762 83.9795 66.1306C84.2941 65.9426 84.5877 65.7211 84.8848 65.5049C84.8443 65.4293 84.767 65.2781 84.7283 65.2043C84.4189 65.3748 84.0955 65.5242 83.8107 65.7351ZM90.4061 67.4595C90.8613 67.5967 91.1057 67.0728 91.3799 66.8039C90.9527 66.5806 90.3656 66.9902 90.4061 67.4595ZM80.093 67.4525C79.7836 67.609 79.1191 67.9553 79.4988 68.3666C79.8381 68.2084 80.1457 67.9851 80.4287 67.7426C80.5025 67.5474 80.2477 67.4015 80.093 67.4525ZM133.882 67.9728C133.537 68.189 133.353 68.8008 133.817 68.9924C134.404 68.5142 134.882 67.9043 135.538 67.5053C134.986 66.9234 134.341 67.6371 133.882 67.9728ZM156.809 69.9838C156.275 70.2316 155.677 70.6957 155.793 71.3619C156.336 70.9172 156.867 70.4566 157.447 70.0576C157.352 69.7869 157.006 69.9556 156.809 69.9838ZM87.8502 71.0138C87.7623 71.3179 88.0787 71.4674 88.2615 71.2353C88.6025 70.8609 89.0859 70.5762 89.2441 70.0717C88.6658 70.1596 88.1508 70.5164 87.8502 71.0138ZM19.7191 72.0369C20.4609 72.1019 21.1535 71.7363 21.8725 71.6115C21.4699 71.0015 20.6385 71.281 20.0443 71.3496C19.6629 71.3267 19.3043 71.7697 19.7191 72.0369ZM146.663 72.7101C147.136 72.8719 147.468 72.3129 147.792 72.0439C147.336 71.8945 146.7 72.2109 146.663 72.7101ZM23.7357 73.7683C23.7867 73.8738 23.8852 74.0812 23.9361 74.1867C25.4971 74.0971 27.0686 73.9793 28.5979 73.64L28.4537 73.3658C27.0475 73.3166 25.6342 73.401 24.235 73.5433C24.0451 73.5539 23.8975 73.6857 23.7357 73.7683ZM98.3092 73.5222C98.4023 73.6049 98.4023 73.6049 98.3092 73.5222V73.5222ZM116.956 73.5187C117.032 73.6172 117.032 73.6172 116.956 73.5187V73.5187ZM130.407 74.7597C130.699 74.6349 130.964 74.4574 131.221 74.2728C131.49 74.0601 131.894 73.8949 131.841 73.4818C131.28 73.7543 130.444 74.0232 130.407 74.7597ZM138.869 75.0304C139.307 74.6508 140.015 74.4205 140.136 73.7929C139.602 73.9599 138.647 74.3168 138.869 75.0304ZM101.551 75.0603C101.869 74.816 102.496 74.6859 102.475 74.1955C101.96 73.9318 101.531 74.6103 101.551 75.0603ZM106.003 74.8424C106.471 75.1254 106.986 74.5453 107.147 74.1428C106.696 74.1955 106.165 74.3695 106.003 74.8424ZM111.621 76.6705C112.011 76.4701 112.384 76.2398 112.746 75.9937C112.34 75.6 111.53 76.1308 111.621 76.6705ZM107.937 78.5724C108.25 78.2912 108.564 78.0099 108.882 77.7357C108.422 77.2576 107.437 78.0644 107.937 78.5724ZM117.561 78.5672C117.918 78.2508 118.786 78.0978 118.668 77.4967C118.208 77.7111 117.489 77.9238 117.561 78.5672ZM131.952 78.6164C132.374 78.4424 132.878 78.2736 133.135 77.8746C132.657 77.6074 132.022 78.1312 131.952 78.6164ZM123.627 79.0646C124.005 78.757 124.385 78.4459 124.752 78.1224C124.833 77.8746 124.421 77.7568 124.286 77.9431C123.929 78.1928 123.231 78.5566 123.627 79.0646ZM143.028 78.5127C142.613 78.6972 142.017 78.9556 142.165 79.5111C142.592 79.2826 142.984 78.9978 143.365 78.699C143.255 78.6287 143.142 78.5672 143.028 78.5127ZM148.41 79.9506C148.727 79.6886 149.045 79.4267 149.365 79.1666C149.272 79.0594 149.18 78.9539 149.092 78.8467C148.734 79.0892 147.878 79.4584 148.41 79.9506ZM160.262 79.6359C160.095 79.8381 160.495 79.7765 160.585 79.7431C160.752 79.6974 161.068 79.5814 160.998 79.3529C160.734 79.2193 160.453 79.4795 160.262 79.6359ZM166.395 80.4111C166.618 80.6765 166.959 80.2898 167.2 80.1984C167.528 80.0859 167.24 79.7678 167.171 79.5832C166.881 79.8082 166.329 79.9523 166.395 80.4111ZM160.831 82.7929C161.198 82.5767 161.573 82.3693 161.919 82.118C161.826 81.9527 161.703 81.8121 161.554 81.6926C161.162 81.9228 160.552 82.2375 160.831 82.7929ZM163.684 84.2537C163.744 84.3152 163.862 84.4365 163.92 84.498C164.153 84.324 164.384 84.1465 164.61 83.9619C164.282 83.5471 163.879 83.9074 163.684 84.2537ZM159.685 84.5595C159.685 85.1449 160.218 84.3099 159.685 84.5595V84.5595ZM166.954 85.0711C166.83 85.224 166.797 85.5597 167.099 85.4806C167.497 85.2697 167.894 85.057 168.289 84.8373C168.184 84.7512 167.973 84.5789 167.868 84.4928C167.553 84.6615 167.161 84.7617 166.954 85.0711Z" fill="black"/>
<path d="M164.943 44.0877C165.686 43.6816 166.584 43.831 167.381 43.984C167.4 44.0666 167.44 44.2336 167.46 44.3162C166.832 44.6203 166.064 44.4463 165.386 44.6045C165.233 44.434 165.085 44.2617 164.943 44.0877Z" fill="black"/>
<path d="M111.134 46.2515C111.27 45.5994 112.003 45.6416 112.521 45.6205C112.764 45.9492 113.187 46.292 113.026 46.7525C112.925 46.9494 112.787 47.1252 112.665 47.308C111.976 47.6508 110.846 47.1252 111.134 46.2515Z" fill="black"/>
<path d="M147.141 47.8248C147.394 47.3766 147.934 47.4117 148.319 47.6684C148.298 47.7563 148.257 47.9303 148.236 48.0182C147.844 48.1272 147.463 48.0797 147.141 47.8248Z" fill="black"/>
<path d="M153.691 48.8268C153.879 48.8531 154.069 48.883 154.262 48.9129C154.73 48.7406 155.234 48.7898 155.705 48.9199C155.999 49.0096 155.886 49.5826 155.563 49.5158C155.037 49.5229 154.513 49.5668 153.991 49.5861C153.737 49.4104 153.635 49.1256 153.691 48.8268Z" fill="black"/>
<path d="M161.429 55.4467C161.728 55.1179 162.19 55.3271 162.325 55.6945C162.353 56.0285 162 56.2359 161.743 56.366C161.325 56.2869 161.031 55.7384 161.429 55.4467Z" fill="black"/>
<path d="M147.138 55.7649C147.577 55.7139 148.133 55.6823 148.456 56.0479C148.454 56.5084 147.948 56.403 147.639 56.4592C147.266 56.5383 146.906 56.0971 147.138 55.7649Z" fill="black"/>
<path d="M71.97 71.6256C72.2021 71.3057 72.6732 71.7575 72.5448 72.0581C72.3128 72.7752 71.9876 73.4643 71.6378 74.1305C71.3759 74.5506 70.8081 74.0198 70.9909 73.6506C71.1931 72.9282 71.5288 72.2338 71.97 71.6256Z" fill="black"/>
<path d="M47.0742 71.7943C47.3397 71.8769 47.7914 71.8576 47.8055 72.232C47.5998 72.675 47.0865 72.5748 46.691 72.573C46.6014 72.2373 46.8932 72.0193 47.0742 71.7943Z" fill="black"/>
<path d="M69.8854 71.9719C70.0665 71.8453 70.2756 72.0457 70.4655 72.0721C70.4356 72.6152 70.3337 73.183 69.9803 73.6189C69.7307 73.6224 69.4249 73.4097 69.4653 73.1355C69.5303 72.7277 69.6569 72.3199 69.8854 71.9719Z" fill="black"/>
<path d="M72.8525 72.7981C73.074 72.9299 73.4291 73.0108 73.4484 73.3202C73.3588 73.6928 73.1549 74.0303 72.9387 74.3432C72.6293 74.4276 72.4113 74.2114 72.2021 74.0303C72.392 73.6049 72.6012 73.1901 72.8525 72.7981Z" fill="black"/>
<path d="M40.6528 73.5346C40.7214 73.524 40.8585 73.5012 40.9253 73.4889C41.3067 73.9969 41.5686 74.6455 41.5194 75.2889C41.2311 75.4313 41.0009 75.1201 40.927 74.8863C40.753 74.4592 40.6036 74.0004 40.6528 73.5346Z" fill="black"/>
<path d="M41.9414 73.4238C42.2068 73.4185 42.4986 73.4431 42.6146 73.7226C42.8871 74.1761 43.0893 74.6789 43.1771 75.201C43.0488 75.5349 42.5777 75.2924 42.4969 75.0515C42.2314 74.54 42.0961 73.974 41.9414 73.4238Z" fill="black"/>
<path d="M38.4504 73.7877C39.2713 73.8967 39.4014 74.9813 39.4295 75.6528C38.5647 75.5824 38.4821 74.4662 38.4504 73.7877Z" fill="black"/>
<path d="M57.9341 73.9881C58.2804 73.8352 58.8394 73.728 59.0345 74.1692C58.8077 74.5489 58.3507 74.5823 57.964 74.6737C57.9517 74.4434 57.9411 74.2166 57.9341 73.9881Z" fill="black"/>
<path d="M36.4798 74.99C36.8999 74.5716 37.2831 75.3398 37.2392 75.7265C36.7927 75.9269 36.4605 75.3785 36.4798 74.99Z" fill="black"/>
<path d="M61.5814 76.3119C61.9382 76.296 62.2353 76.4789 62.506 76.6916C62.2371 76.9746 61.882 76.9851 61.5427 76.8251C61.5533 76.6968 61.5726 76.4402 61.5814 76.3119Z" fill="black"/>
<path d="M14.1239 76.7074C14.4227 76.6723 14.6724 76.9113 14.7919 77.1627C14.9976 77.5442 14.3032 77.8852 14.1345 77.4686C14.0132 77.2629 13.8268 76.8358 14.1239 76.7074Z" fill="black"/>
<path d="M78.9241 77.734C79.578 77.0678 80.5237 77.6549 81.1038 78.1225C80.4815 78.2789 79.8206 77.9027 79.237 78.2736C79.1016 78.1418 78.6657 77.9608 78.9241 77.734Z" fill="black"/>
<path d="M52.0769 78.4494C52.1999 78.4441 52.4495 78.4371 52.5743 78.4336C52.7079 79.2053 52.6798 80.0086 52.5005 80.7715C52.5216 81.065 51.9837 81.1494 51.9749 80.84C51.8554 80.0455 51.989 79.2387 52.0769 78.4494Z" fill="black"/>
<path d="M40.4263 78.8133C40.9571 78.4072 41.6198 78.5338 42.1964 78.7676C42.0927 79.2879 41.314 79.1508 40.9378 79.4039C40.7198 79.2492 40.5476 79.0488 40.4263 78.8133Z" fill="black"/>
<path d="M70.8644 78.6902C71.0331 78.8062 71.39 78.8343 71.3618 79.1121C71.1632 79.8451 70.8907 80.5693 70.49 81.2162C70.3036 81.0228 70.0224 80.7925 70.1771 80.4884C70.3353 79.8626 70.6341 79.2878 70.8644 78.6902Z" fill="black"/>
<path d="M50.4791 78.9293C50.5898 78.9504 50.8113 78.9944 50.9203 79.0155C51.1523 79.6219 51.1013 80.2969 51.1716 80.9367C51.0398 80.9139 50.7744 80.8682 50.6425 80.8453C50.4422 80.2283 50.4123 79.5709 50.4791 78.9293Z" fill="black"/>
<path d="M53.209 79.0946C53.1123 78.678 53.7152 78.91 53.7662 79.1315C54.0105 79.6641 54.1283 80.2547 54.0844 80.8418C53.2969 80.7276 53.2722 79.7115 53.209 79.0946Z" fill="black"/>
<path d="M69.1066 78.873C69.2261 78.8818 69.467 78.9012 69.5865 78.9117C69.7974 79.5797 69.6709 80.3021 69.5513 80.9771C69.43 80.9912 69.1875 81.0158 69.0662 81.0281C68.8377 80.3268 69.0732 79.5885 69.1066 78.873Z" fill="black"/>
<path d="M67.4966 79.6042C67.7831 79.2843 67.9554 79.7765 67.994 79.9945C68.0995 80.5376 68.2261 81.0966 68.0731 81.6451C67.9835 81.5976 67.8007 81.5044 67.711 81.457C67.5493 80.8593 67.4966 80.223 67.4966 79.6042Z" fill="black"/>
<path d="M71.7505 79.861C72.1548 79.9524 72.3095 80.3479 72.0898 80.703C71.9544 80.9824 71.7698 81.4535 71.3708 81.2074C71.2038 80.7258 71.464 80.2354 71.7505 79.861Z" fill="black"/>
<path d="M47.7422 79.9014C48.5314 79.9049 48.4506 80.8383 48.5402 81.3973C48.6264 81.7488 48.3082 81.9738 48.0111 81.7611C47.8283 81.16 47.7686 80.5254 47.7422 79.9014Z" fill="black"/>
<path d="M90.429 81.1986C90.5538 80.9384 90.8983 81.0668 90.9545 81.3006C91.2604 81.9597 91.5452 82.64 91.7209 83.3484C91.8194 83.5804 91.4819 83.5277 91.3764 83.6191C90.8983 82.8914 90.5362 82.0687 90.429 81.1986Z" fill="black"/>
<path d="M29.7388 81.4395C30.3329 80.9789 31.2294 81.1529 31.6671 81.7436C31.1116 81.8543 30.5245 81.7858 29.9989 82.0336C29.8091 81.8789 29.5419 81.7084 29.7388 81.4395Z" fill="black"/>
<path d="M88.8679 81.3323C88.9962 81.3586 89.2546 81.4131 89.383 81.4413C89.673 82.169 89.8787 82.9301 90.0386 83.6983C89.9068 83.6772 89.6431 83.6368 89.5113 83.6157C89.1755 82.8967 88.9066 82.1286 88.8679 81.3323Z" fill="black"/>
<path d="M86.864 81.5748C87.0521 81.6346 87.2648 81.7172 87.3246 81.9317C87.5795 82.5469 87.7429 83.1973 87.8888 83.8459C87.2736 83.9285 87.0961 83.294 86.9361 82.8405C86.8342 82.4309 86.6812 81.9826 86.864 81.5748Z" fill="black"/>
<path d="M92.3748 82.5099C92.2711 82.183 92.0848 81.7998 92.2588 81.4675C92.8705 81.7488 92.9408 82.5345 93.1447 83.1058C92.693 83.3906 92.519 82.8281 92.3748 82.5099Z" fill="black"/>
<path d="M85.0817 82.2585C85.0641 81.9896 85.4895 82.1654 85.5633 82.2955C85.8076 82.7367 85.9237 83.2359 85.9782 83.7351C85.3084 83.6314 85.0518 82.8316 85.0817 82.2585Z" fill="black"/>
<path d="M35.1018 83.0795C36.1354 82.3184 37.5979 82.2903 38.6842 82.9495C39.5402 83.6438 40.0799 84.6756 40.2082 85.7707C40.7004 85.036 41.4633 84.3961 42.3896 84.3944C43.2264 84.2977 44.1123 84.9129 44.2336 85.762C45.2883 85.043 46.6594 84.5895 47.9162 85.0166C48.7336 85.2434 49.4279 85.8498 49.7689 86.6268C50.1996 87.7254 50.0396 88.9664 49.5615 90.0211C50.3807 90.0176 51.2139 90.2127 51.9064 90.6575C52.4285 91.0934 52.8715 91.7666 52.7027 92.4768C52.6975 93.6088 51.6973 94.4051 50.7481 94.8287C51.249 94.878 51.7465 94.9606 52.2369 95.0748C54.7066 95.3895 57.1359 95.9608 59.5617 96.5127C62.2248 97.2018 64.9705 97.6852 67.5229 98.7364C69.9539 98.028 72.1125 96.6639 74.3766 95.5723C76.551 94.4579 78.648 93.201 80.8102 92.0655C81.2689 91.7825 81.9123 91.6823 82.2129 91.2112C82.248 90.0774 81.1617 89.2934 80.1545 89.0807C79.2492 88.8522 78.3773 89.5448 78.0873 90.3692C77.9203 90.61 77.9115 91.0705 77.5564 91.1075C76.9816 90.8139 76.5 90.0809 75.774 90.3287C74.6473 90.6452 73.7859 91.6172 73.3816 92.6912C73.0758 93.6457 73.6682 94.5475 74.0197 95.4L73.8264 95.3034C72.9809 94.7479 72.5959 93.5948 72.784 92.6192C73.1285 91.2991 74.1516 90.1161 75.4805 89.7258C76.1361 89.5325 76.8182 89.7153 77.3684 90.0932C77.69 89.5395 78.0293 88.9313 78.6357 88.6483C80.3408 87.7729 82.7227 89.1545 82.7104 91.1057C83.5014 90.6592 84.3082 90.2286 85.1678 89.9245C85.1607 90.1811 85.159 90.4377 85.159 90.6961C79.5621 93.2327 74.3994 96.6534 68.6988 98.9719C71.3654 99.6153 73.9652 100.505 76.5668 101.368C77.0361 101.573 77.6232 101.6 77.959 102.032C77.9484 101.976 77.9256 101.862 77.9133 101.806C79.984 102.6 82.118 103.219 84.1746 104.05C87.4529 105.161 90.6943 106.388 93.992 107.446C97.5973 108.707 101.31 109.624 105.038 110.443C105.562 110.545 106.065 110.735 106.543 110.974C109.28 109.87 112.101 108.998 114.903 108.077C117.831 107.172 120.779 106.325 123.757 105.601C124.523 105.448 125.267 105.154 126.056 105.135C126.561 104.917 127.097 104.783 127.64 104.692C131.813 103.765 136.023 103.013 140.251 102.384C143.244 101.92 146.246 101.475 149.27 101.254C149.813 101.15 150.369 101.109 150.924 101.118C150.708 100.865 150.664 100.545 150.942 100.324C151.494 99.8895 152.23 100.099 152.847 100.252C152.545 99.8684 152.162 99.4764 152.154 98.9561C152.104 98.2284 152.576 97.4725 153.309 97.3161C153.81 97.1789 154.311 97.367 154.786 97.5164C155.359 97.0418 156.013 96.6006 156.781 96.5549C157.373 96.4952 158.168 96.5092 158.479 97.1227C158.729 97.5217 158.412 97.9612 158.289 98.3479C158.592 98.3496 158.897 98.362 159.202 98.3848C159.706 98.4358 160.335 98.587 160.474 99.16C160.731 99.6645 160.458 100.18 160.26 100.647C162.206 100.573 164.155 100.652 166.094 100.832C166.6 100.89 167.221 100.916 167.479 101.443C162.163 101.275 156.836 101.366 151.532 101.813C145.45 102.277 139.417 103.236 133.413 104.288C126.011 105.671 118.7 107.555 111.581 110.02C107.694 111.312 103.896 112.845 100.069 114.304C96.5408 115.731 92.9725 117.056 89.4287 118.445C85.6494 120.027 81.7295 121.238 77.7797 122.31C75.9938 122.808 74.2289 123.39 72.4166 123.782C69.7359 124.56 67.0482 125.307 64.357 126.048C62.8576 126.323 61.3723 126.68 59.8781 126.991C64.7508 127.872 69.6059 128.971 74.25 130.711C80.4322 133.035 86.407 135.877 92.2939 138.864C97.4391 141.49 102.438 144.39 107.457 147.247C107.77 147.456 108.19 147.604 108.281 148.017C108.269 147.938 108.244 147.778 108.234 147.697C109.997 148.686 111.734 149.725 113.5 150.713C117.214 152.923 121.018 154.983 124.75 157.163C124.738 157.435 124.794 157.704 124.835 157.975C116.021 152.939 107.365 147.63 98.4902 142.699C92.4416 139.319 86.182 136.327 79.8311 133.559C76.21 132.022 72.5484 130.544 68.7375 129.539C64.8088 128.472 60.8063 127.703 56.8055 126.958C53.2266 126.285 49.6143 125.796 46.0424 125.086C45.6135 124.989 45.1723 124.887 44.8014 124.643C44.4814 124.441 44.4076 123.901 44.7574 123.69C45.2619 123.328 45.9105 123.288 46.5047 123.189C49.6459 122.903 52.7906 123.325 55.9125 123.643C58.7373 124.001 61.5551 124.444 64.3395 125.035C65.2482 125.046 66.085 124.636 66.9604 124.441C68.5055 124.079 70.0049 123.544 71.5588 123.214C70.1367 122.975 68.7199 122.704 67.2996 122.444C59.7516 120.967 52.0137 119.834 44.3162 120.684C43.7959 120.776 43.4021 121.163 42.9451 121.396C43.0102 121.164 43.077 120.932 43.142 120.702C42.5074 121.092 42.191 121.971 41.3912 122.052C41.6619 121.63 42.017 121.277 42.3422 120.897C41.9027 121.013 41.407 121.097 41.0977 121.467C40.8428 121.716 40.6371 122.099 40.2205 122.052C39.9691 121.704 40.5088 121.433 40.6178 121.141C39.9146 121.57 39.317 122.179 38.5523 122.502C38.4908 122.23 38.4979 121.959 38.5734 121.688C37.749 122.027 36.9949 122.52 36.16 122.832C36.1951 122.622 36.232 122.412 36.2725 122.207C35.543 122.444 34.7941 122.607 34.0559 122.813C31.2029 123.504 28.4291 124.472 25.6412 125.378C25.7467 125.847 25.7941 126.329 25.7854 126.812C28.1725 126.97 30.5402 127.354 32.901 127.733C32.9643 127.637 33.0275 127.542 33.0908 127.448C32.6865 126.969 32.11 126.482 32.2084 125.786C32.6285 126.309 33.2121 126.877 33.1471 127.601C33.1699 127.652 33.2139 127.754 33.2367 127.805C35.5482 128.013 37.8211 128.53 40.0693 129.096C41.9801 129.574 43.9084 130.013 45.7453 130.737C45.2654 129.967 44.6309 129.247 44.4586 128.331C44.3197 127.807 44.782 127.176 45.3463 127.283C46.3096 127.443 47.0514 128.401 47.025 129.368C46.9898 129.913 46.7068 130.389 46.4467 130.855C47.4363 131.251 48.4523 131.572 49.4648 131.908C51.8238 132.689 54.1389 133.596 56.4891 134.399C56.3695 133.849 56.2148 133.306 56.1164 132.752C56.3344 132.968 56.5383 133.2 56.7439 133.43C56.6807 132.889 56.6139 132.332 56.7844 131.804C56.8705 131.989 57.0428 132.36 57.1289 132.544C57.2889 132.086 57.4225 131.618 57.6264 131.179L57.8408 131.321C57.8514 132.196 57.2906 132.986 57.1096 133.842C57.6932 133.914 58.3523 133.919 58.7602 134.413C58.7777 134.334 58.8129 134.174 58.8305 134.093C59.3824 134.244 60.2297 134.19 60.3879 134.9C60.8889 134.32 61.6184 134.677 62.1035 135.072C62.6045 135.171 62.9982 135.471 63.3691 135.803C64.1654 135.851 65.3273 135.761 65.6139 136.728C65.4521 137.046 65.0883 137.189 64.8211 137.405C71.7469 139.82 78.3879 142.961 84.9516 146.217C85.8059 146.661 86.7217 147.006 87.4969 147.589C87.3 147.182 87.1189 146.767 87.0223 146.326C87.8309 146.51 87.866 147.48 88.3125 148.047C88.2193 147.507 88.0383 146.985 87.9486 146.447C88.4777 146.86 88.5305 147.567 88.8486 148.117C89.1984 148.43 89.6291 148.634 90.0387 148.86C98.0402 153.097 105.653 158.012 113.265 162.9C113.447 163.014 113.699 163.204 113.541 163.457C113.071 163.705 112.637 163.225 112.254 163.016C105.471 158.662 98.6396 154.366 91.5522 150.522C90.6434 150.021 89.6889 149.602 88.8521 148.982C89.107 149.678 89.4568 150.347 89.5412 151.095C89.4217 151.045 89.1826 150.949 89.0631 150.899C88.5305 150.209 88.2492 149.37 87.8361 148.614C87.3 148.17 86.6408 147.916 86.0291 147.598C81.3393 145.201 76.609 142.877 71.7979 140.729C68.6496 139.31 65.3924 138.15 62.165 136.928C62.0367 136.526 61.6043 136.788 61.3248 136.658C57.7986 135.427 54.2742 134.193 50.7744 132.891C50.1627 132.673 49.5545 132.413 48.8971 132.391C49.1871 132.706 49.5158 132.982 49.834 133.269C49.3945 133.207 48.9604 133.128 48.5262 133.045C48.2801 132.687 48.048 132.319 47.8336 131.943C46.2938 131.295 44.6484 130.954 43.0629 130.444C40.9043 129.883 38.7633 129.238 36.5678 128.837C33.8766 128.405 31.1836 127.979 28.4818 127.624C25.0787 127.29 21.6932 126.807 18.2936 126.45C15.9346 126.146 13.5721 125.849 11.2465 125.343C9.26719 125.049 7.30547 124.645 5.32266 124.379C3.55605 124.189 1.77715 124.061 0 124.121V123.611C3.56484 123.472 7.11035 124.037 10.5891 124.77C10.1338 124.137 9.58359 123.488 9.51855 122.681C9.66445 121.764 10.8229 121.593 11.5418 121.929C12.9322 122.414 13.4895 123.942 13.6828 125.278C14.0168 125.33 14.349 125.387 14.6812 125.453C14.5494 124.824 14.6689 124.188 14.8482 123.583C15.0662 123.722 15.4564 123.754 15.4441 124.088C15.3809 124.604 15.1031 125.063 14.7814 125.464C15.7061 125.587 16.6271 125.735 17.5482 125.888C17.4885 124.956 17.5412 123.972 18.0141 123.145C18.3973 122.472 19.0477 121.876 19.8475 121.811C21.0111 121.771 21.9955 122.966 21.7582 124.1C21.542 124.945 20.9074 125.582 20.2729 126.139C21.5754 126.271 22.8762 126.427 24.1682 126.64C23.7234 126.088 23.1293 125.603 22.9553 124.887C22.8322 124.513 23.0871 124.14 23.3947 123.949C24.1365 123.896 24.8063 124.341 25.3494 124.803C26.1193 124.24 27.0633 124.028 27.958 123.752C30.6141 122.845 33.3141 122.059 36.0545 121.451C36.9299 121.365 37.7719 121.11 38.6402 120.976C39.4014 120.832 40.0359 120.345 40.776 120.136C40.7953 120.254 40.834 120.493 40.8533 120.611C41.1855 120.423 41.5143 120.231 41.8447 120.043C42.0205 120.124 42.198 120.206 42.3756 120.291C42.6129 120.089 42.8484 119.883 43.084 119.681C43.1772 119.876 43.2686 120.067 43.3635 120.268C43.7133 120.046 44.0561 119.814 44.39 119.568C44.6977 119.19 44.8365 119.712 44.8049 119.955C45.2707 119.825 45.7523 119.774 46.234 119.76C47.7914 119.698 49.3611 119.579 50.915 119.756C51.9346 119.675 52.9559 119.767 53.9736 119.834C54.2478 119.846 54.5625 119.871 54.7506 120.103C55.7051 119.811 56.6947 120.111 57.6598 120.187C62.5711 120.698 67.4033 121.743 72.2637 122.571C72.6135 122.632 72.9686 122.836 73.3254 122.699C75.2484 122.133 77.1697 121.542 79.1191 121.082C80.1123 120.772 81.1002 120.414 82.132 120.25C83.635 119.616 85.224 119.206 86.7357 118.589C91.8756 116.557 97.0647 114.65 102.197 112.598C103.187 112.24 104.136 111.758 105.184 111.582C103.788 111.09 102.324 110.862 100.893 110.503C98.884 110.027 96.9064 109.436 94.9377 108.812C87.8889 106.506 80.9754 103.809 73.9143 101.538C66.9041 99.3041 59.7955 97.3108 52.5375 96.0663C48.0709 95.4176 43.599 94.7637 39.1008 94.3805C37.9125 94.2293 36.7119 94.3383 35.5254 94.1819C34.8188 94.1731 34.1139 94.2715 33.4055 94.2416C27.1318 94.3489 20.8652 95.1944 14.5881 94.7268C14.015 94.6108 13.2381 94.7163 12.9305 94.1028C16.1174 94.0149 19.3166 94.2522 22.5 93.9903C24.2139 94.0149 25.9172 93.7231 27.6293 93.7653C26.9385 92.8178 27.0211 91.5364 27.3234 90.4606C27.6451 89.2319 28.64 88.2246 29.8477 87.852C30.6422 87.6305 31.4965 87.8291 32.1873 88.251C32.741 86.3543 33.4107 84.2731 35.1018 83.0795ZM41.1293 88.5991C40.7391 88.7836 40.3576 89.0543 40.2275 89.4885C40.7145 89.4024 41.1029 89.0596 41.4545 88.7344C41.5441 88.4813 41.2611 88.4725 41.1293 88.5991ZM36.4113 90.8772C36.7963 90.7207 37.1461 90.4957 37.4678 90.2338C37.0283 89.9491 36.3973 90.385 36.4113 90.8772ZM30.7424 92.0127C30.8479 92.1692 30.9533 92.3291 31.0781 92.4768C31.4508 92.2219 31.834 91.9811 32.2629 91.8299C31.8814 91.1813 31.1361 91.6207 30.7424 92.0127ZM42.8045 91.5188C42.583 91.6471 42.3756 91.8 42.2068 91.9934C42.0029 92.2184 42.409 92.7405 42.6357 92.4082C42.8801 92.1411 43.2545 91.9758 43.4268 91.6506C43.2738 91.452 43.0154 91.3184 42.8045 91.5188ZM154.397 99.32C154.283 99.501 154.093 99.7049 154.269 99.9176C154.637 100.143 154.897 99.276 154.397 99.32ZM10.0846 122.701C10.3025 123.42 10.5996 124.197 11.2219 124.661C11.7861 124.94 12.4242 125.017 13.0254 125.188C12.941 124.167 12.4699 123.094 11.5418 122.581C11.1006 122.36 10.4168 122.284 10.0846 122.701ZM18.6715 123.282C18.16 124.059 18.0896 125.024 18.1494 125.928C18.5256 125.94 18.9035 125.958 19.2779 126.004C20.0004 125.517 20.7088 124.912 21.0357 124.082C21.3381 123.328 20.6719 122.412 19.8668 122.448C19.3535 122.498 18.958 122.885 18.6715 123.282ZM45.3709 124.197C45.6363 124.388 45.9527 124.46 46.2674 124.522C50.0449 125.241 53.8611 125.747 57.6334 126.501C57.9322 126.545 58.2434 126.663 58.5404 126.538C60.075 126.162 61.6043 125.722 63.174 125.527C59.7481 124.931 56.2992 124.45 52.8346 124.133C50.3543 123.956 47.8301 123.685 45.3709 124.197ZM23.5072 124.571C23.5881 125.506 24.4617 126.086 25.1314 126.635C25.3389 125.622 24.5918 124.513 23.5072 124.571ZM45.0352 128.336C45.2936 128.934 45.5449 129.667 46.1883 129.946C46.5328 129.305 46.3676 128.526 45.7893 128.08C45.559 127.756 44.8576 127.846 45.0352 128.336ZM48.1852 132.014C48.2467 132.597 48.6914 131.711 48.1852 132.014V132.014ZM56.9725 132.942C56.7211 133.471 57.5596 132.942 56.9725 132.942V132.942ZM56.8934 134.583C57.2432 134.74 57.6053 134.87 57.9727 134.988C57.9727 134.87 57.9727 134.636 57.9727 134.518C57.6141 134.446 57.2238 134.374 56.8934 134.583ZM59.5283 134.536C59.2031 134.763 58.8498 134.944 58.5105 135.146C58.7689 135.408 59.1645 135.374 59.5002 135.445C59.5881 135.202 59.8869 134.861 59.4369 134.733C59.4598 134.684 59.5055 134.585 59.5283 134.536ZM59.8588 135.649C60.1805 135.754 60.5057 135.846 60.8344 135.932C60.8871 135.854 60.9926 135.7 61.0453 135.624C61.2334 135.496 61.4197 135.371 61.5973 135.23C60.975 135.037 60.3176 135.186 59.8588 135.649ZM61.2141 136C61.2457 136.048 61.3107 136.146 61.3441 136.194C61.7397 136.301 62.1352 136.42 62.5324 136.529C62.6344 136.371 62.7363 136.216 62.84 136.064C62.3777 135.577 61.7607 135.856 61.2141 136ZM62.9561 136.712C63.4061 136.902 63.8789 137.036 64.35 137.167C64.5187 136.978 64.6875 136.791 64.8545 136.603C64.2621 136.204 63.5396 136.41 62.9561 136.712Z" fill="black"/>
<path d="M127.828 83.3871C131.516 83.0479 135.221 82.923 138.904 82.5293C139.637 83.4873 140.219 84.549 140.834 85.5861C141.047 85.9711 141.324 86.3525 141.317 86.8148C141.04 86.8904 140.757 86.9467 140.477 87.0029C140.528 88.0576 140.442 89.1141 140.483 90.1688C140.479 90.5098 140.516 91.0406 140.083 91.1373C137.336 91.2832 134.58 91.3658 131.832 91.5258C131.611 91.5662 131.461 91.3693 131.286 91.2814C131.28 90.8631 131.284 90.4447 131.294 90.0264C129.422 90.0826 127.549 90.0844 125.678 90.1564C125.418 90.1916 125.096 89.9332 125.209 89.6555C125.358 88.6447 125.385 87.6146 125.625 86.6197C125.569 86.3895 125.515 86.1557 125.469 85.9254C125.71 85.8199 125.995 85.7707 126.169 85.5545C126.675 84.9727 127.23 84.4365 127.744 83.86C127.765 83.7422 127.807 83.5066 127.828 83.3871ZM128.243 83.8564C129.301 85.1115 129.916 86.6689 130.894 87.9855C131.045 88.2211 131.31 88.3143 131.567 88.4039C131.548 87.9627 131.519 87.525 131.507 87.0873C134.567 86.7709 137.638 86.5459 140.708 86.3561C139.996 85.3172 139.451 84.1623 138.684 83.1656C135.204 83.3906 131.727 83.6982 128.243 83.8564ZM126.979 85.7355L127.357 85.8357L127.246 85.9271C127.002 85.9887 126.866 86.3859 127.172 86.458C127.206 86.3877 127.276 86.2488 127.311 86.1803C127.603 86.0783 127.556 86.5846 127.684 86.7498C127.617 86.8641 127.485 87.0943 127.418 87.2104C127.605 87.024 127.782 86.8271 127.958 86.6303C128.116 86.6936 128.278 86.7568 128.44 86.8236C128.503 86.7463 128.628 86.5951 128.691 86.5195C128.742 86.7727 128.797 87.0275 128.858 87.2807C128.649 87.2174 128.45 86.9818 128.227 87.0539C128.118 87.2104 128.016 87.3721 127.923 87.5373C128.174 87.5127 128.426 87.4881 128.681 87.4635L128.637 87.7711C128.821 87.576 129.006 87.3773 129.236 87.2332C129.12 87.4459 129.004 87.6604 128.886 87.873C129.022 87.975 129.157 88.0787 129.296 88.1842C129.373 88.1174 129.528 87.9855 129.605 87.9188C129.67 87.9697 129.799 88.0717 129.862 88.1209C129.814 88.2439 129.767 88.367 129.723 88.49C129.925 88.548 130.124 88.6148 130.324 88.6887C130.06 88.7063 129.799 88.7221 129.538 88.7379C129.512 89.0051 129.489 89.274 129.472 89.543C129.552 89.4955 129.714 89.4006 129.795 89.3514C129.976 89.3566 130.154 89.3619 130.338 89.3813C130.289 89.2793 130.194 89.0754 130.145 88.9734C130.198 88.9752 130.303 88.977 130.356 88.977C130.359 89.0771 130.368 89.2758 130.373 89.3742C130.486 89.3531 130.714 89.3109 130.827 89.2881C130.684 88.8697 130.466 88.4848 130.203 88.1314C129.63 87.3527 129.301 86.4211 128.7 85.66C128.391 85.8516 128.616 86.2734 128.558 86.5635C128.484 86.4949 128.338 86.3596 128.266 86.291C128.173 86.3051 127.984 86.3332 127.89 86.3455C127.99 86.24 128.187 86.0291 128.287 85.9236C128.206 85.8498 128.046 85.7004 127.965 85.6266C128.26 85.623 128.558 85.616 128.856 85.6055C128.512 85.3154 128.013 85.398 127.652 85.1309C127.81 85.1379 128.125 85.1484 128.282 85.1555C128.245 85.0377 128.171 84.8022 128.132 84.6844C127.607 84.8391 127.301 85.3312 126.979 85.7355ZM126.793 87.0469C126.555 87.2754 127.004 87.409 127.135 87.2262C127.376 87.0012 126.916 86.8447 126.793 87.0469ZM137.125 87.1822C137.123 87.7219 137.143 88.265 137.064 88.7994C137.118 89.1141 136.775 89.0455 136.585 89.0859C135.446 89.1457 134.314 89.3039 133.174 89.3391C133.214 88.7221 133.244 88.1051 133.268 87.4898C132.894 87.5936 132.379 87.4951 132.091 87.7395C132.057 88.7994 131.959 89.8576 131.925 90.9193C134.562 90.8561 137.194 90.6416 139.832 90.5994C139.899 89.4059 139.846 88.2088 139.909 87.017C138.976 87.0064 138.053 87.1313 137.125 87.1822ZM133.817 87.4863C133.817 87.9152 133.819 88.3441 133.817 88.7748C134.142 88.7572 134.469 88.7326 134.792 88.6869C134.856 88.2967 134.926 87.9064 134.949 87.5109C134.589 87.3773 134.19 87.5004 133.817 87.4863ZM135.485 87.3545C135.49 87.7781 135.51 88.2018 135.529 88.6271C135.824 88.6184 136.121 88.6148 136.42 88.6113C136.433 88.1736 136.44 87.7359 136.454 87.2982C136.128 87.3176 135.807 87.3352 135.485 87.3545ZM127.301 87.576C127.394 87.6656 127.394 87.6656 127.301 87.576V87.576ZM128.637 87.7711C128.536 87.8537 128.536 87.8537 128.637 87.7711V87.7711ZM127.461 87.9258C127.552 88.0172 127.552 88.0172 127.461 87.9258V87.9258ZM127.879 87.8678C127.911 88.4531 128.399 87.5883 127.879 87.8678V87.8678ZM126.765 88.1033C126.856 88.1947 126.856 88.1947 126.765 88.1033V88.1033ZM129.21 88.984C128.913 89.499 129.786 89.0508 129.21 88.984V88.984ZM128.201 89.4779C128.463 89.4779 128.772 89.3813 129.039 89.3268C129.013 89.2617 128.96 89.1281 128.934 89.0613C128.682 89.1158 128.257 89.1879 128.201 89.4779Z" fill="black"/>
<path d="M76.5034 84.1605C77.2259 83.3959 78.5144 83.243 79.3616 83.8969C78.5495 84.0322 77.7022 84.0516 76.9728 84.4928C76.855 84.4102 76.6212 84.2432 76.5034 84.1605Z" fill="black"/>
<path d="M56.2939 84.1833C56.5471 83.7421 57.2977 83.7316 57.4365 84.2624C57.0814 84.5507 56.6191 84.4681 56.2939 84.1833Z" fill="black"/>
<path d="M13.7778 84.8092C14.4229 84.6615 14.5513 85.4121 14.5161 85.8938C14.4634 86.0854 14.3509 86.1434 14.1751 86.0695C13.9079 85.7039 13.7937 85.2539 13.7778 84.8092Z" fill="black"/>
<path d="M15.1454 84.941C15.6235 84.7845 16.026 85.2574 15.9997 85.7091C15.9065 85.7566 15.7202 85.8533 15.6253 85.9007C15.4196 85.6072 15.0311 85.347 15.1454 84.941Z" fill="black"/>
<path d="M127.485 85.4895C127.575 85.5827 127.575 85.5827 127.485 85.4895V85.4895Z" fill="black"/>
<path d="M65.3906 87.2244C65.9074 86.6655 66.8162 86.6444 67.4279 87.0557C67.4051 87.3844 67.0131 87.293 66.7916 87.3387C66.3803 87.3405 65.9988 87.4881 65.6314 87.6569C65.54 87.5162 65.4592 87.3721 65.3906 87.2244Z" fill="black"/>
<path d="M58.6038 87.2507C58.8604 87.314 59.1188 87.4388 59.1838 87.7201C59.3807 88.3634 59.72 88.9839 59.7182 89.6712C58.8639 89.2494 58.7708 88.0875 58.6038 87.2507Z" fill="black"/>
<path d="M57.3099 88.2088C57.2572 87.7922 57.7757 87.9574 57.8636 88.2176C58.2029 88.7959 58.5931 89.3619 58.7759 90.0158C58.6406 90 58.3699 89.9684 58.2345 89.9525C57.7968 89.4551 57.5226 88.8293 57.3099 88.2088Z" fill="black"/>
<path d="M60.9415 89.9016C60.3017 89.5922 60.0397 88.773 60.0327 88.1016C60.6269 88.4918 60.8149 89.2459 60.9415 89.9016Z" fill="black"/>
<path d="M100.496 88.701C100.573 88.2457 101.357 88.5059 101.174 88.933C101.041 89.6695 100.902 90.4254 100.603 91.1109C100.499 91.3676 100.204 91.0582 100.027 91.0582C100.092 90.2584 100.239 89.4621 100.496 88.701Z" fill="black"/>
<path d="M98.3144 88.7906C98.4111 88.81 98.6062 88.8504 98.7029 88.8698C98.8893 89.6502 98.8682 90.494 98.6625 91.2709C98.3812 91.1813 98.2424 90.9967 98.2459 90.7155C98.2107 90.0756 98.1475 89.4164 98.3144 88.7906Z" fill="black"/>
<path d="M153.661 90.6961C153.817 90.0334 154.151 89.4287 154.494 88.8486C154.705 88.9594 154.904 89.1035 155.087 89.2617C154.74 89.9139 154.468 90.6012 154.092 91.2375C153.895 91.1092 153.545 91.0072 153.661 90.6961Z" fill="black"/>
<path d="M56.5208 89.2142C57.1764 89.3601 57.5262 90.0123 57.7389 90.5906C57.0516 90.4974 56.7018 89.8084 56.5208 89.2142Z" fill="black"/>
<path d="M101.83 89.5183C102.113 89.4111 102.489 89.6818 102.407 90.007C102.349 90.6117 102.21 91.2269 101.921 91.7666C101.67 91.9125 101.297 91.7244 101.373 91.4045C101.457 90.7646 101.561 90.109 101.83 89.5183Z" fill="black"/>
<path d="M151.864 89.4094C152.796 89.6713 152.276 90.828 151.926 91.3922C151.144 91.0336 151.685 90.0106 151.864 89.4094Z" fill="black"/>
<path d="M16.3372 90.3498C16.7502 90.0474 17.2284 89.7293 17.7663 89.8013C18.334 89.8804 18.8983 90.0176 19.4221 90.2496C19.4555 90.3217 19.5223 90.4658 19.5557 90.5379C18.6645 90.7769 17.6256 90.3252 16.8452 90.9228C16.6659 90.74 16.4971 90.5467 16.3372 90.3498Z" fill="black"/>
<path d="M155.876 90.0071C156.069 90.1249 156.259 90.2497 156.449 90.3815C156.245 90.6979 156.038 91.0161 155.804 91.3114C155.66 91.5838 155.364 91.2991 155.178 91.2481C155.403 90.8297 155.639 90.4167 155.876 90.0071Z" fill="black"/>
<path d="M77.8535 91.93C78.3105 91.8457 78.5197 92.2166 78.4055 92.6279C77.9555 92.7668 77.9924 92.2008 77.8535 91.93Z" fill="black"/>
<path d="M75.9321 92.0531C76.3839 92.2219 76.6669 92.6332 76.637 93.1201C76.5192 93.1183 76.2837 93.1131 76.1659 93.1095C76.02 92.7738 75.9444 92.417 75.9321 92.0531Z" fill="black"/>
<path d="M74.8653 93.1342C75.1659 93.3082 75.4032 93.5613 75.5807 93.8601C75.0921 94.1467 74.846 93.5261 74.8653 93.1342Z" fill="black"/>
<path d="M111.778 94.2047C111.878 94.2205 112.078 94.2504 112.178 94.2645C112.273 94.9219 112.029 95.5846 111.821 96.1998C111.72 96.184 111.514 96.1541 111.412 96.1383C111.296 95.4826 111.567 94.8182 111.778 94.2047Z" fill="black"/>
<path d="M109.431 94.4719C109.682 94.3014 110.094 94.6248 109.971 94.9131C109.826 95.5653 109.703 96.2262 109.487 96.8608C109.271 96.743 108.886 96.6832 108.962 96.3457C109.02 95.7041 109.146 95.052 109.431 94.4719Z" fill="black"/>
<path d="M113.973 94.5985C114.094 94.1485 114.827 94.5581 114.562 94.885C114.319 95.437 114.117 96.0364 113.709 96.4934C113.488 96.5391 113.194 96.4301 113.281 96.1594C113.391 95.5969 113.653 95.0696 113.973 94.5985Z" fill="black"/>
<path d="M66.7265 94.8147C66.9269 94.6371 67.3505 94.9905 67.1536 95.2752C66.9076 95.8852 66.6404 96.5092 66.2202 97.0207C65.8529 97.1403 65.8634 96.7448 65.9003 96.4951C66.0234 95.8764 66.3591 95.3192 66.7265 94.8147Z" fill="black"/>
<path d="M64.9986 95.2366C65.1393 94.9694 65.417 95.2207 65.6051 95.2752C65.5102 95.8307 65.3625 96.6885 64.6084 96.5549C64.6207 96.0909 64.7367 95.6233 64.9986 95.2366Z" fill="black"/>
<path d="M62.738 96.3017C62.8488 95.922 62.8365 95.0291 63.4499 95.2752C63.7945 95.7287 63.3568 96.6164 62.738 96.3017Z" fill="black"/>
<path d="M67.8815 95.4036C68.0661 95.5336 68.423 95.6497 68.2929 95.9573C68.1663 96.5567 67.8868 97.1122 67.5915 97.6465C67.3946 97.4268 67.138 97.193 67.2171 96.8661C67.3648 96.3493 67.6231 95.8729 67.8815 95.4036Z" fill="black"/>
<path d="M114.924 95.6338C115.021 95.3051 115.364 95.574 115.559 95.6197C115.399 96.1049 115.244 97.098 114.543 96.8607C114.423 96.4195 114.766 96.0223 114.924 95.6338Z" fill="black"/>
<path d="M40.5562 99.1494C40.5193 98.1878 42.3914 98.0085 42.3703 99.1107C42.1224 99.0246 41.8798 98.9244 41.632 98.8453C41.2822 98.9894 40.9587 99.2583 40.5562 99.1494Z" fill="black"/>
<path d="M36.6257 99.3568C36.958 98.8664 37.5011 98.2652 38.1603 98.4761C38.6121 98.6062 39.1728 98.6501 39.4365 99.0966C39.0076 99.123 38.5804 99.0703 38.1515 99.0703C37.7771 99.1406 37.5169 99.4605 37.183 99.624C36.9597 99.6574 36.8068 99.4376 36.6257 99.3568Z" fill="black"/>
<path d="M29.7563 100.399C30.231 99.9896 30.811 99.6785 31.4456 99.6257C31.9835 99.7769 32.6181 99.8367 33.003 100.29C32.5407 100.283 32.0855 100.208 31.6249 100.194C31.0888 100.204 30.6616 100.575 30.2292 100.847C30.0657 100.702 29.9075 100.552 29.7563 100.399Z" fill="black"/>
<path d="M26.0051 100.898C26.4323 100.31 27.167 99.7172 27.9387 99.9791C28.4168 100.144 28.9829 100.318 29.1938 100.833C28.7051 100.791 28.2446 100.596 27.7559 100.572C27.2795 100.665 26.9104 101.004 26.5219 101.269C26.3918 101.176 26.1334 100.99 26.0051 100.898Z" fill="black"/>
<path d="M18.6679 102.013C19.0581 101.227 20.2305 101.127 20.8018 101.737C20.1971 101.862 19.5626 101.972 19.1003 102.419C18.9456 102.294 18.652 102.263 18.6679 102.013Z" fill="black"/>
<path d="M43.4847 101.47C43.7888 101.192 44.1333 101.505 44.4287 101.633C46.4871 102.809 48.5648 103.946 50.6197 105.129C51.1804 105.462 51.7675 105.766 52.2492 106.216C52.0277 106.367 51.7816 106.471 51.5162 106.502C51.59 108.443 51.5302 110.385 51.5583 112.326C51.5601 112.665 51.5707 113.018 51.4423 113.342C51.0503 113.648 50.5458 113.439 50.0994 113.476C48.4857 113.535 46.8703 113.484 45.2566 113.539C45.246 113.426 45.2232 113.201 45.2126 113.089C45.1898 113.085 45.1423 113.077 45.1177 113.071C45.123 113.2 45.1335 113.456 45.1388 113.585C44.9718 113.576 44.6396 113.555 44.4744 113.544C42.1382 113.671 39.7951 113.595 37.4572 113.688C36.9281 113.544 36.4113 113.352 35.8769 113.221C35.5376 113.177 35.3812 112.82 35.3812 112.518C35.2669 110.809 35.2318 109.097 35.3056 107.388C35.3425 107.102 35.1105 106.88 35.0173 106.634C35.5341 106.218 36.13 105.919 36.7136 105.608C38.9689 104.224 41.2382 102.869 43.4847 101.47ZM37.2972 106.044C37.5257 106.831 37.4132 107.655 37.4185 108.462C37.3992 109.519 37.4765 110.575 37.4748 111.633C37.4941 112.154 37.4326 112.693 37.6031 113.198C38.3642 113.34 39.1359 113.245 39.9023 113.226C40.4367 113.238 40.9816 113.289 41.5089 113.173C41.6478 112.312 41.4492 111.428 41.5125 110.558C41.5898 108.863 41.4105 107.149 41.7164 105.472C42.3615 105.224 43.0646 105.258 43.7431 105.249C44.5218 105.251 45.3041 105.173 46.0792 105.277C46.0511 107.88 45.9667 110.485 46.0195 113.089C47.6156 113.066 49.2169 113.129 50.8078 112.987C50.8271 112.537 50.8376 112.087 50.8236 111.637C50.8587 109.749 50.8007 107.863 50.8499 105.975C49.1396 104.962 47.3748 104.045 45.6486 103.06C45.0386 102.721 44.4621 102.312 43.8064 102.06C41.7111 103.505 39.4699 104.723 37.2972 106.044ZM45.0896 106.188C45.1107 106.773 45.6169 105.92 45.0896 106.188V106.188ZM42.8466 106.662C42.8449 107.107 42.822 107.557 42.6779 107.984C42.8607 107.629 43.033 107.258 42.9802 106.845L43.2035 106.972C43.2052 106.873 43.207 106.676 43.207 106.578C43.1173 106.599 42.9363 106.641 42.8466 106.662ZM35.8857 106.835C35.8892 108.803 35.9033 110.772 36.0228 112.739C36.2513 112.797 36.4816 112.848 36.7136 112.899C36.6714 110.827 36.6187 108.752 36.7066 106.68C36.4324 106.727 36.1582 106.78 35.8857 106.835ZM44.8417 107.288C44.5482 107.794 45.4289 107.337 44.8417 107.288V107.288ZM42.5619 108.119C42.4722 108.369 42.5513 108.452 42.7974 108.364C42.8853 108.112 42.8062 108.032 42.5619 108.119ZM44.4638 109.137C44.1861 109.55 43.7958 109.993 44.0244 110.526C44.1017 110.5 44.2582 110.447 44.3355 110.419C44.4357 110 44.6378 109.564 44.4638 109.137ZM42.5882 111.646C42.4353 111.732 42.3017 112.085 42.5408 112.148C42.8273 112.157 42.9626 111.482 42.5882 111.646ZM44.8699 112.704C44.9173 113.291 45.3779 112.41 44.8699 112.704V112.704Z" fill="black"/>
<path d="M33.3123 103.12C33.6709 102.964 34.0137 103.229 34.3266 103.375C33.7166 103.532 33.126 103.794 32.7569 104.328C32.625 104.618 32.0836 104.695 32.1821 104.258C32.3895 103.755 32.799 103.317 33.3123 103.12Z" fill="black"/>
<path d="M23.7604 103.922C24.2789 103.489 25.2369 103.363 25.5709 104.077C25.251 104.084 24.9311 104.068 24.6129 104.092C24.3229 104.189 24.1418 104.465 23.8957 104.634C23.3297 104.636 22.7443 104.539 22.2029 104.762C22.1186 104.959 22.0324 105.156 21.9463 105.353C21.5613 105.288 21.143 105.122 20.7668 105.323C20.4117 105.537 20.1533 105.871 19.851 106.151C19.633 106.026 19.1127 105.831 19.3693 105.507C19.7719 104.996 20.3994 104.37 21.1078 104.602C21.477 104.787 21.6756 104.368 21.9375 104.196C22.4561 103.67 23.2348 104.428 23.7604 103.922Z" fill="black"/>
<path d="M30.0604 104.959C30.3979 104.175 31.4279 103.922 32.066 104.509C31.5053 104.657 30.9867 104.906 30.5842 105.332C30.3944 105.583 29.7721 105.24 30.0604 104.959Z" fill="black"/>
<path d="M75.4594 104.947C75.4365 104.535 76.043 104.588 76.0887 104.948C76.3717 105.861 76.5633 106.81 76.6687 107.759C76.7461 108.135 76.3541 108.12 76.1045 108.176C75.6615 107.158 75.5613 106.038 75.4594 104.947Z" fill="black"/>
<path d="M77.0608 104.635C77.3192 104.688 77.7358 104.641 77.7885 104.991C78.0381 105.993 78.1981 107.038 78.1787 108.072C77.8694 108.276 77.4545 108.07 77.393 107.715C77.1012 106.722 77.0309 105.667 77.0608 104.635Z" fill="black"/>
<path d="M78.3756 105.029C78.576 105.133 78.8959 105.119 78.9767 105.376C79.265 106.138 79.3775 106.98 79.2931 107.793C78.8449 108 78.6428 107.49 78.5355 107.154C78.3562 106.464 78.2648 105.738 78.3756 105.029Z" fill="black"/>
<path d="M74.0268 105.632L74.1674 105.543C74.2395 105.581 74.3837 105.659 74.4557 105.697C74.7704 106.604 74.904 107.566 74.9637 108.52C74.6948 108.499 74.4153 108.397 74.3573 108.105C74.0901 107.316 73.9512 106.458 74.0268 105.632Z" fill="black"/>
<path d="M57.1429 106.553C57.498 106.13 58.101 106.161 58.4947 106.513C58.1765 106.782 57.8654 107.068 57.498 107.272C57.1096 107.39 56.7738 106.792 57.1429 106.553Z" fill="black"/>
<path d="M53.4885 107.949C53.8208 107.56 54.1899 107.154 54.6873 106.982C55.169 107.005 55.7543 106.998 56.0901 107.408C55.387 107.627 54.675 107.886 54.1547 108.434C53.9262 108.278 53.7047 108.118 53.4885 107.949Z" fill="black"/>
<path d="M85.9377 110.779C86.4369 110.32 87.249 110.412 87.6094 110.995C87.0961 111.023 86.6056 111.169 86.1222 111.328C85.9359 111.222 85.6406 110.934 85.9377 110.779Z" fill="black"/>
<path d="M58.8057 111.792C59.247 110.978 60.2454 110.493 61.1577 110.677C61.7114 110.777 62.244 110.983 62.7468 111.234C63.0192 111.322 63.0772 111.616 63.1669 111.851C62.3231 111.737 61.5075 111.354 60.6444 111.445C60.0977 111.639 59.6811 112.061 59.2329 112.41C59.1098 112.205 58.6792 112.078 58.8057 111.792Z" fill="black"/>
<path d="M88.2457 111.611C88.9558 111.001 90.2285 110.57 90.8964 111.468C91.371 111.261 91.923 110.986 92.4257 111.291C92.9232 111.612 93.3574 112.022 93.8478 112.358C93.7265 112.405 93.4804 112.498 93.3574 112.544C92.8951 112.275 92.4398 111.988 91.93 111.816C91.633 111.957 91.3429 112.111 91.0599 112.278C90.5343 111.888 89.8488 111.494 89.2124 111.909C88.8697 112.178 88.2193 112.18 88.2457 111.611Z" fill="black"/>
<path d="M63.311 112.298C63.6854 112.122 64.0563 111.855 64.4853 111.857C65.1005 112.013 65.6841 112.3 66.2114 112.651L66.1306 112.878C65.496 112.889 64.9423 112.504 64.3165 112.431C64.2269 112.546 64.0476 112.771 63.9579 112.883C63.7206 112.713 63.4938 112.526 63.311 112.298Z" fill="black"/>
<path d="M23.7744 113.21C24.1242 112.913 24.474 112.537 24.9539 112.484C25.6201 112.502 26.2617 112.723 26.8523 113.02C27.4377 112.44 28.5521 112.352 29.0303 113.078C28.3676 113.024 27.7189 113.091 27.1811 113.518C26.3285 113.08 25.2615 113.031 24.4459 113.579C24.1559 113.817 23.9326 113.391 23.7744 113.21Z" fill="black"/>
<path d="M29.4275 113.105C30.0216 112.496 31.1273 112.192 31.7003 112.994C31.2328 113.045 30.7318 113.022 30.3398 113.324C30.0287 113.558 29.7087 113.203 29.4275 113.105Z" fill="black"/>
<path d="M55.1743 114.613C55.6859 113.841 56.4769 113.064 57.4718 113.112C57.9991 113.215 58.5599 113.3 59.0345 113.563C59.0398 113.694 59.0468 113.954 59.0503 114.086C58.2575 113.933 57.3048 113.701 56.628 114.289C56.2466 114.55 56.0234 115.04 55.5804 115.191C55.431 115.021 55.0882 114.891 55.1743 114.613Z" fill="black"/>
<path d="M59.1294 114.427C59.5706 114.11 60.0804 113.704 60.6569 113.948C60.9259 114.064 61.5341 114.135 61.339 114.539C60.8661 114.523 60.3194 114.428 59.9837 114.852C59.6462 115.161 59.3474 114.623 59.1294 114.427Z" fill="black"/>
<path d="M67.4526 116.207C67.9026 115.524 68.5935 114.933 69.4442 114.885C70.2581 114.873 71.079 114.942 71.8665 115.153C71.8647 115.272 71.8595 115.513 71.8577 115.634C71.1071 115.632 70.3548 115.553 69.6095 115.655C68.9644 115.784 68.5003 116.293 67.987 116.663C67.806 116.511 67.6284 116.36 67.4526 116.207Z" fill="black"/>
<path d="M72.3374 116.038C73.0774 115.277 74.4204 115.592 74.9987 116.372C74.5189 116.466 74.0847 116.241 73.6329 116.14C73.2954 116.074 73.0739 116.367 72.8331 116.541C72.6538 116.392 72.3901 116.29 72.3374 116.038Z" fill="black"/>
<path d="M62.7944 116.59C63.3305 116.007 64.2164 116 64.8985 116.314C65.2026 116.464 65.7018 116.594 65.6877 117.016C65.1481 117.072 64.6875 116.648 64.1461 116.65C63.7137 116.59 63.4236 116.97 63.0932 117.177C62.8893 117.03 62.6555 116.87 62.7944 116.59Z" fill="black"/>
<path d="M24.2455 117.16C24.7746 116.854 25.3389 117.304 25.5533 117.784C25.2897 117.779 25.0295 117.784 24.7676 117.795C24.4248 117.895 24.133 118.426 23.7621 118.1C23.2365 117.775 23.9397 117.327 24.2455 117.16Z" fill="black"/>
<path d="M72.9861 118.68C73.4871 118.127 74.09 117.571 74.8634 117.473C75.6421 117.454 76.4226 117.73 77.0255 118.223C77.5476 117.779 78.5707 117.26 79.0084 118.074C78.2384 117.923 77.6408 118.396 77.1591 118.93C76.5896 118.38 75.7652 118.037 74.9742 118.245C74.3695 118.366 73.9599 118.858 73.4625 119.178C73.1777 119.21 73.1285 118.846 72.9861 118.68Z" fill="black"/>
<path d="M14.1188 118.339C14.1838 118.336 14.3156 118.332 14.3807 118.331C14.7059 118.905 15.017 119.503 15.2244 120.132C15.1524 120.192 15.01 120.312 14.9397 120.37C14.4053 119.888 13.9377 119.048 14.1188 118.339Z" fill="black"/>
<path d="M138.648 120.593C138.47 119.828 138.749 119.046 138.98 118.322C139.303 118.403 139.57 118.631 139.44 118.995C139.314 119.538 139.333 120.169 139.05 120.651C138.95 120.637 138.748 120.607 138.648 120.593Z" fill="black"/>
<path d="M141.363 118.693C141.553 118.22 142.193 118.83 141.956 119.16C141.65 119.816 141.353 120.477 141.047 121.134C140.885 121.018 140.688 120.936 140.572 120.772C140.748 120.051 141.008 119.343 141.363 118.693Z" fill="black"/>
<path d="M137.173 118.833C137.943 118.805 137.551 119.807 137.612 120.284C137.494 120.257 137.261 120.201 137.143 120.175C137.085 119.726 137.085 119.275 137.173 118.833Z" fill="black"/>
<path d="M6.83786 119.377C6.68142 119.167 6.83962 119.004 7.00661 118.877C7.3195 119.385 8.12458 119.925 7.73786 120.577C7.34236 120.261 7.02068 119.849 6.83786 119.377Z" fill="black"/>
<path d="M154.303 119.651C154.907 119.345 155.389 120.016 155.709 120.436C156.756 122.019 157.574 123.753 158.247 125.524C156.79 125.585 155.345 125.249 153.997 124.722C153.323 124.451 152.699 124.068 152.007 123.854C152.111 124.163 152.293 124.451 152.582 124.627C154.341 125.757 156.447 126.207 158.516 126.255C159.346 128.331 159.966 130.493 160.457 132.674C160.105 132.701 159.755 132.724 159.409 132.762C159.462 133.392 160.163 133.365 160.631 133.486C161.114 135.283 161.307 137.141 161.68 138.96C159.476 138.857 157.3 138.284 155.294 137.375C154.976 137.259 154.67 136.981 154.317 137.062C154.107 137.345 154.394 137.584 154.631 137.688C156.83 138.837 159.263 139.46 161.722 139.714C162.246 143.703 162.833 147.69 163.148 151.701C163.288 153.705 163.259 155.739 162.795 157.704C162.703 157.725 162.519 157.769 162.427 157.792C162.512 157.79 162.684 157.79 162.768 157.788C162.724 157.957 162.633 158.293 162.587 158.46C162.504 158.467 162.343 158.481 162.262 158.488L162.585 158.511C162.464 158.725 162.411 158.999 162.183 159.135C162.232 159.135 162.327 159.133 162.376 159.133C161.733 160.525 160.917 161.898 159.657 162.817C159.161 163.225 158.556 163.457 158.004 163.772C156.909 164.183 155.781 164.517 154.621 164.684C154.427 166.915 154.389 169.154 154.359 171.392C155.143 171.745 155.964 172.007 156.763 172.324C157.291 172.54 157.927 172.636 158.266 173.153C156.906 173.255 155.665 172.542 154.366 172.25C154.362 172.563 154.361 172.874 154.369 173.19C154.158 173.577 153.782 174.006 153.29 173.795C152.46 173.579 152.499 172.58 152.503 171.9C152.596 171.552 152.248 171.397 151.986 171.306C142.522 167.795 133.592 163.032 124.861 158.003C124.85 157.728 124.843 157.456 124.84 157.185C126.2 157.955 127.603 158.655 128.932 159.481C128.944 159.546 128.969 159.678 128.981 159.743C129.023 159.69 129.104 159.585 129.146 159.53C136.677 163.737 144.452 167.541 152.506 170.643C152.48 169.218 152.492 167.794 152.575 166.372C152.652 166.375 152.805 166.384 152.882 166.389C152.822 166.365 152.703 166.317 152.643 166.294C152.575 165.809 152.655 165.322 152.814 164.867C152.65 164.899 152.323 164.965 152.16 164.999C152.163 164.953 152.172 164.865 152.176 164.821C150.34 165.183 148.359 164.795 146.684 163.972C146.681 163.897 146.674 163.745 146.67 163.668L146.584 163.861C146.466 163.798 146.231 163.67 146.113 163.605C146.132 163.554 146.174 163.448 146.194 163.396C146.13 163.408 146.002 163.431 145.939 163.441C144.346 162.155 143.777 160.066 143.554 158.115C142.995 153.193 143.759 148.226 144.99 143.46C145.387 141.984 145.728 140.488 146.225 139.041C146.672 137.667 147.009 136.248 147.554 134.912C149.18 134.592 150.87 134.661 152.524 134.541C152.576 134.48 152.685 134.355 152.738 134.293C151.733 134.031 150.688 134.054 149.658 134.031C149.497 134.151 149.273 134.311 149.152 134.049C148.709 134.031 148.268 134.061 147.829 134.086C149.152 129.85 150.769 125.708 152.539 121.641C152.935 120.839 153.538 120.117 154.303 119.651ZM149.059 143.763C150.393 143.661 151.717 143.88 153.046 143.944C152.859 143.564 152.406 143.508 152.042 143.425C150.998 143.272 149.943 143.151 148.888 143.2C148.498 143.239 148.7 143.928 149.059 143.763ZM154.225 146.832C153.833 147.162 154.299 147.459 154.614 147.567C156.73 148.521 158.973 149.298 161.3 149.477C161.181 149.305 161.026 149.191 160.836 149.136C159.152 148.73 157.516 148.152 155.904 147.524C155.331 147.326 154.823 146.943 154.225 146.832ZM146.642 152.889C146.691 153.123 146.758 153.353 146.842 153.582C147.081 153.719 147.38 153.643 147.649 153.657C148.605 153.573 149.574 153.54 150.513 153.318L150.548 153.137L150.412 152.988C149.194 152.61 147.89 152.752 146.642 152.889ZM152.302 157.092C151.956 157.154 152.207 157.623 152.193 157.85C154.38 157.755 156.586 157.563 158.699 156.971C158.377 156.493 157.764 156.693 157.287 156.693C155.626 156.855 153.958 156.909 152.302 157.092Z" fill="black"/>
<path d="M143.074 119.881C143.207 119.417 143.946 119.874 143.687 120.222C143.503 120.616 143.279 120.992 143.088 121.382C142.886 121.328 142.71 121.233 142.559 121.101C142.634 120.661 142.877 120.275 143.074 119.881Z" fill="black"/>
<path d="M22.8198 121.586C23.4192 121.328 23.6214 122.047 23.8235 122.458C23.7444 122.553 23.5862 122.746 23.5089 122.841C23.1556 122.498 22.9798 122.036 22.8198 121.586Z" fill="black"/>
<path d="M18.3708 125.276C18.9913 124.891 19.5521 124.362 20.2815 124.193C20.0812 124.98 19.2233 125.237 18.5817 125.569C18.5097 125.554 18.3655 125.525 18.2935 125.51C18.3128 125.452 18.3515 125.334 18.3708 125.276Z" fill="black"/>
<path d="M88.5339 124.355C88.8662 124.462 88.7853 124.91 88.8662 125.177C88.4074 125.329 88.2175 124.594 88.5339 124.355Z" fill="black"/>
<path d="M2.43799 125.33C2.73155 124.817 3.53487 124.581 3.96553 125.053C4.38038 125.481 4.23272 126.118 4.20987 126.65C4.56319 126.619 4.91827 126.592 5.27334 126.571C5.54756 127.25 5.33135 128.101 4.74424 128.542C4.21338 128.835 3.65264 128.301 3.5085 127.814C3.52256 127.03 3.82491 126.218 3.55069 125.452C3.26241 125.251 2.99522 125.612 2.946 125.861C2.69112 126.656 2.82647 127.506 2.79834 128.326C2.68233 128.312 2.44854 128.283 2.33252 128.269C1.97745 127.338 1.87901 126.2 2.43799 125.33ZM4.20635 128.259C4.76006 128.122 4.8128 127.545 4.88487 127.078C4.35049 127.222 4.21514 127.768 4.20635 128.259Z" fill="black"/>
<path d="M7.46191 125.708C7.56387 125.708 7.76602 125.706 7.86797 125.705C7.8293 126.292 8.1668 127.104 7.62187 127.526C7.54277 126.921 7.5041 126.315 7.46191 125.708Z" fill="black"/>
<path d="M81.413 126.756C81.3515 126.359 81.0351 125.738 81.5607 125.534C82.1987 126.093 82.1478 127.078 82.2515 127.86C81.6327 127.891 81.5659 127.204 81.413 126.756Z" fill="black"/>
<path d="M0.680179 126.367C0.609866 126.128 0.790921 125.954 0.942093 125.807C1.20752 126.624 1.46416 127.447 1.59073 128.299C1.47295 128.297 1.23741 128.29 1.11963 128.287C0.945608 127.654 0.729398 127.027 0.680179 126.367Z" fill="black"/>
<path d="M5.78491 126.023C5.87632 125.968 6.06089 125.859 6.15229 125.807C6.30874 126.415 6.45288 127.034 6.47925 127.666C5.89917 127.345 5.90796 126.594 5.78491 126.023Z" fill="black"/>
<path d="M33.9839 125.956C34.0384 125.944 34.1491 125.923 34.2054 125.912C34.5253 126.422 34.8329 126.949 35.0368 127.521C34.3495 127.354 34.0665 126.577 33.9839 125.956Z" fill="black"/>
<path d="M79.8627 126.062C80.0982 125.919 80.2564 125.97 80.3355 126.214C80.5412 126.858 80.5342 127.547 80.5061 128.215C80.2125 128.329 79.94 128.125 79.9682 127.816C79.9066 127.234 79.8574 126.647 79.8627 126.062Z" fill="black"/>
<path d="M78.4829 126.283C78.6376 126.29 78.7923 126.304 78.9487 126.327C78.961 126.666 78.9452 127.002 78.9153 127.341C78.395 127.304 78.1823 126.668 78.4829 126.283Z" fill="black"/>
<path d="M82.4889 126.229C83.1147 126.329 83.2676 127.002 83.2184 127.543C82.5909 127.482 82.4256 126.751 82.4889 126.229Z" fill="black"/>
<path d="M8.47607 126.459C8.59561 126.438 8.83291 126.397 8.95244 126.378C9.06494 126.809 9.1458 127.248 9.18975 127.693C8.6501 127.529 8.63604 126.902 8.47607 126.459Z" fill="black"/>
<path d="M36.3586 126.874C36.7524 127.15 37.118 127.519 37.1497 128.03C36.8051 127.714 36.3586 127.392 36.3586 126.874Z" fill="black"/>
<path d="M41.7761 127.051C42.3791 127.078 42.7376 127.767 42.6937 128.311C42.2121 128.055 41.8798 127.584 41.7761 127.051Z" fill="black"/>
<path d="M10.7122 128.816C10.9336 128.879 11.2483 128.835 11.3643 129.092C11.7211 129.64 12.0393 130.215 12.3364 130.799C11.9127 130.802 11.7018 130.403 11.41 130.171C11.5295 130.472 11.7036 130.744 11.8969 131.006C12.5174 131.838 12.7811 132.877 13.4086 133.705C13.7022 134.207 14.3702 134.01 14.8448 134.144C14.6391 134.747 13.9852 134.427 13.5545 134.299C12.8497 134.084 12.5965 133.304 12.2924 132.713C11.7686 131.411 10.909 130.235 10.7122 128.816Z" fill="black"/>
<path d="M21.6597 128.911C21.8671 128.92 22.129 128.856 22.2837 129.041C22.8761 129.656 23.4122 130.328 23.9606 130.983C23.2241 131.191 22.8462 130.419 22.4015 129.988C22.1554 129.637 21.6755 129.368 21.6597 128.911Z" fill="black"/>
<path d="M27.3586 128.795C28.0266 128.994 28.4801 129.556 28.8686 130.101C28.0952 130.293 27.552 129.438 27.3586 128.795Z" fill="black"/>
<path d="M48.0446 130.751C47.9989 130.047 48.5754 129.454 48.8918 128.855C49.0992 129.013 49.5334 129.194 49.2908 129.521C48.927 129.955 48.6809 130.693 48.0446 130.751Z" fill="black"/>
<path d="M15.4583 129.132C16.1684 129.354 16.1209 130.273 16.4215 130.838C15.6446 130.711 15.5584 129.758 15.4583 129.132Z" fill="black"/>
<path d="M16.6992 129.138C17.2143 129.173 17.4604 129.813 17.4252 130.263C16.9312 130.133 16.8697 129.537 16.6992 129.138Z" fill="black"/>
<path d="M25.4038 129.734C25.4759 129.403 25.8257 129.644 25.9804 129.744C26.2862 129.959 26.5921 130.236 26.5798 130.648C26.1052 130.47 25.6552 130.187 25.4038 129.734Z" fill="black"/>
<path d="M9.8016 129.832C10.5715 129.904 10.6682 130.799 10.9547 131.36C10.1039 131.46 9.71195 130.546 9.8016 129.832Z" fill="black"/>
<path d="M37.4133 130.21C37.8633 129.946 38.373 130.37 38.5014 130.801C38.7562 131.528 38.2641 132.233 37.8826 132.819C37.7314 132.956 37.5943 133.334 37.3518 133.117C37.4484 132.455 37.8914 131.922 38.0672 131.289C38.1814 131.003 37.9512 130.769 37.8088 130.554C36.9826 131.504 36.9422 132.855 37.2639 134.016C36.5959 133.878 36.5309 133.095 36.5186 132.541C36.5537 131.706 36.784 130.797 37.4133 130.21Z" fill="black"/>
<path d="M34.613 130.126C35.2248 130.572 35.4515 131.358 35.7064 132.04C34.9294 131.797 34.6623 130.853 34.613 130.126Z" fill="black"/>
<path d="M33.0574 130.414C33.6603 130.512 33.641 131.233 33.8871 131.667C34.0171 132.105 34.5849 132.384 34.4373 132.885C33.4617 132.495 33.249 131.33 33.0574 130.414Z" fill="black"/>
<path d="M7.59188 130.825C7.88017 130.47 8.59911 130.435 8.73798 130.946C9.20731 131.936 8.57802 132.94 8.41278 133.921C8.28095 133.926 8.01552 133.935 7.88368 133.938C7.63056 133.068 8.19833 132.265 8.19306 131.411C8.14911 131.363 8.06122 131.27 8.01727 131.222C7.66571 132.117 7.33876 133.021 7.00126 133.921C6.887 133.924 6.65849 133.933 6.54423 133.938C6.51434 133.001 6.24716 132.093 5.7954 131.275C5.3577 131.778 4.88485 132.354 4.92704 133.065C4.89013 133.372 5.21708 133.467 5.45087 133.515C5.44384 133.629 5.42977 133.856 5.42274 133.97C5.1661 134.04 4.85849 134.082 4.68622 133.822C4.18876 133.049 4.40145 132.005 4.92528 131.3C5.16259 130.959 5.56337 130.734 5.987 130.785C6.52841 131.077 6.61806 131.748 6.80614 132.274C7.09618 131.804 7.18231 131.215 7.59188 130.825Z" fill="black"/>
<path d="M39.904 130.903C40.245 131.254 40.4472 131.704 40.463 132.198C40.3311 132.182 40.0692 132.147 39.9374 132.13C39.8847 131.722 39.8618 131.31 39.904 130.903Z" fill="black"/>
<path d="M40.9571 130.899C41.3386 131.194 41.5425 131.637 41.713 132.077C41.1206 132.029 40.8974 131.412 40.9571 130.899Z" fill="black"/>
<path d="M9.86656 132.926C10.4888 132.638 11.2904 133.093 11.3589 133.773C11.2728 134.566 10.3711 135.202 9.60113 134.903C9.25485 134.805 8.79957 134.582 8.85582 134.151C8.95778 133.611 9.34449 133.112 9.86656 132.926ZM10.0494 133.457C9.69781 133.71 9.47633 134.098 9.38844 134.52C9.83668 134.476 10.3535 134.422 10.6207 134.003C10.916 133.69 10.3588 133.212 10.0494 133.457Z" fill="black"/>
<path d="M21.4399 133.244C22.2819 133.295 22.6212 134.232 23.2136 134.708C22.6739 135.067 22.2661 134.513 21.9339 134.158C21.6737 133.91 21.5278 133.583 21.4399 133.244Z" fill="black"/>
<path d="M46.5908 133.553C46.7104 133.453 46.9758 133.137 47.0584 133.446C47.2219 133.922 47.6648 134.223 47.8459 134.68C47.1586 134.926 46.9371 133.947 46.5908 133.553Z" fill="black"/>
<path d="M48.6702 133.328C49.1659 133.392 49.6634 133.46 50.1555 133.564C50.3366 133.726 50.5036 133.907 50.6759 134.084C50.5581 134.109 50.3225 134.16 50.2048 134.184C50.5159 134.269 50.827 134.365 51.1364 134.471C51.2823 134.859 51.5389 135.258 51.3561 135.686C51.6339 136.057 51.9257 136.424 52.119 136.851C51.6725 137.132 51.2102 137.385 50.7602 137.658C50.4368 137.591 50.1116 137.405 49.7794 137.473C49.6722 137.637 49.5737 137.806 49.4858 137.981C49.3874 138.002 49.1905 138.041 49.0921 138.062C48.7089 137.897 48.3116 137.698 47.8827 137.788C48.0057 138.224 48.2009 138.637 48.352 139.066C47.7175 138.952 47.1479 138.637 46.5345 138.456C46.5186 138.918 46.6698 139.363 46.7524 139.815C46.2145 139.648 45.921 139.138 45.4868 138.818C45.4886 139.391 46.0036 140.15 45.3514 140.541C45.2354 140.328 45.1194 140.119 45.0052 139.91C44.8382 139.811 44.6712 139.722 44.5095 139.623C44.4022 139.338 44.1245 139.047 44.2616 138.728C44.5657 138.746 44.868 138.793 45.1686 138.837C45.1598 138.53 45.1528 138.222 45.1458 137.918C45.5079 138.048 45.8647 138.192 46.218 138.345C46.1899 138.032 46.1653 137.723 46.1477 137.412C46.9616 137.317 47.3184 138.083 47.8229 138.556C47.6261 138.213 47.4134 137.881 47.2007 137.549C47.8018 137.315 48.4733 136.928 49.1026 137.31C49.3118 137.141 49.5192 136.974 49.7284 136.811C50.3243 137.009 50.9694 137.057 51.4704 136.614C51.0345 136.056 50.4983 135.591 49.9323 135.171C50.1239 135.019 50.3173 134.875 50.5106 134.731C49.6177 134.75 49.1237 133.968 48.6702 133.328Z" fill="black"/>
<path d="M38.169 134.49C38.1514 134.211 37.9159 133.747 38.3044 133.617C38.663 134.211 38.7948 134.916 38.8669 135.599C38.3466 135.476 38.278 134.924 38.169 134.49Z" fill="black"/>
<path d="M39.7144 133.683C40.3507 133.877 40.3718 134.685 40.6056 135.211C39.8743 135.086 39.7319 134.302 39.7144 133.683Z" fill="black"/>
<path d="M18.9298 133.928C19.0282 133.922 19.2234 133.915 19.32 133.91C19.6821 134.299 20.0548 134.675 20.4433 135.037C20.4398 135.563 19.8878 135.188 19.6628 135.016C19.3552 134.715 18.9069 134.406 18.9298 133.928Z" fill="black"/>
<path d="M45.0474 134.348C45.1106 134.3 45.2355 134.205 45.2987 134.16C45.7593 134.673 46.1653 135.244 46.3903 135.904C45.6239 135.784 45.4235 134.905 45.0474 134.348Z" fill="black"/>
<path d="M28.714 134.968C28.5944 134.647 29.2677 134.661 29.178 135.016C29.3749 135.791 29.6544 136.542 29.8794 137.31C28.9021 137.007 28.8335 135.814 28.714 134.968Z" fill="black"/>
<path d="M30.4365 134.812C30.5561 134.815 30.7951 134.821 30.9146 134.822C31.1906 135.529 31.3383 136.278 31.5035 137.016C30.6299 136.691 30.7002 135.561 30.4365 134.812Z" fill="black"/>
<path d="M77.4562 135.461C77.9659 135.241 78.0591 136.021 78.1962 136.362C77.7058 136.535 77.1626 135.87 77.4562 135.461Z" fill="black"/>
<path d="M42.7148 135.48C42.9539 135.517 43.1525 135.647 43.2439 135.877C43.5357 136.403 43.8926 136.912 43.9875 137.521C43.1209 137.266 42.7957 136.288 42.7148 135.48Z" fill="black"/>
<path d="M14.9045 135.81C15.4899 135.921 15.852 136.448 16.0436 136.972C15.46 136.847 15.0663 136.364 14.9045 135.81Z" fill="black"/>
<path d="M44.8682 136.113C45.1301 136.039 45.4202 136.436 45.3235 136.677C45.0633 136.737 44.7663 136.353 44.8682 136.113Z" fill="black"/>
<path d="M4.48584 136.172C5.20654 136.399 5.63896 137.088 6.05557 137.674C5.26104 137.637 4.75479 136.84 4.48584 136.172Z" fill="black"/>
<path d="M6.51609 136.424C6.89578 136.707 7.20516 137.074 7.44422 137.482C7.16121 137.429 6.86238 137.364 6.69539 137.108C6.55652 136.905 6.22078 136.644 6.51609 136.424Z" fill="black"/>
<path d="M23.0098 137.085C23.0977 137.071 23.2752 137.044 23.3631 137.03C23.7744 137.396 24.0381 137.893 24.2807 138.38C23.5898 138.38 23.2523 137.626 23.0098 137.085Z" fill="black"/>
<path d="M0.304199 137.252C0.418457 137.29 0.650488 137.371 0.766504 137.412C1.20947 137.957 1.53994 138.593 1.79307 139.249C1.02666 138.869 0.462402 138.088 0.304199 137.252Z" fill="black"/>
<path d="M12.7722 137.276C12.9023 137.285 13.1607 137.304 13.289 137.315C13.7214 137.904 14.1345 138.507 14.6285 139.05C14.3771 139.008 14.066 139.087 13.8902 138.853C13.4314 138.398 12.9937 137.893 12.7722 137.276Z" fill="black"/>
<path d="M24.7622 137.45C25.3458 137.48 25.6446 138.048 25.7114 138.567C25.1524 138.503 24.8044 137.976 24.7622 137.45Z" fill="black"/>
<path d="M38.1446 137.442C38.5155 137.793 38.8196 138.206 39.0428 138.667C38.3871 138.788 37.9108 138.013 38.1446 137.442Z" fill="black"/>
<path d="M35.7417 138.219C35.8437 138.066 35.986 138.004 36.1688 138.038C36.3341 138.219 36.3253 138.48 36.4026 138.704C36.5028 139.206 36.8368 139.621 36.9458 140.122C36.1565 139.839 35.8454 138.981 35.7417 138.219Z" fill="black"/>
<path d="M0 138.727C0.305859 138.904 0.608203 139.686 0 139.554V138.727Z" fill="black"/>
<path d="M32.7288 139.802C33.0593 139.667 33.1173 140.047 33.2034 140.27C33.3528 140.674 33.3634 141.108 33.3599 141.537C33.0364 141.172 32.7569 140.757 32.6462 140.279C32.6515 140.131 32.4388 139.787 32.7288 139.802Z" fill="black"/>
<path d="M41.1978 140.372C41.0607 140.163 41.233 139.604 41.523 139.86C41.7779 140.064 41.8183 140.412 41.9396 140.697C41.6724 140.635 41.2804 140.723 41.1978 140.372Z" fill="black"/>
<path d="M44.6255 139.753C45.1651 140.152 45.2003 140.903 45.2003 141.515C45.0421 142.059 44.4163 142.154 43.9347 142.204C43.3001 142.246 42.6937 142.562 42.0503 142.451C42.0608 142.3 42.0802 141.994 42.0907 141.843C42.9485 141.703 43.8099 141.588 44.6729 141.481C44.5886 140.908 44.5411 140.328 44.6255 139.753Z" fill="black"/>
<path d="M29.1428 141.337C29.0391 140.984 28.8457 140.565 29.1375 140.256C29.5647 140.936 29.7281 141.741 29.9408 142.508C29.4592 142.305 29.3098 141.778 29.1428 141.337Z" fill="black"/>
<path d="M27.0088 140.323C27.1125 140.356 27.3182 140.419 27.4219 140.451C27.6979 141.274 27.9158 142.123 28.1584 142.959C28.0477 142.919 27.8227 142.84 27.7119 142.801C27.2725 142.052 27.123 141.172 27.0088 140.323Z" fill="black"/>
<path d="M35.1932 140.94C35.6239 141.161 35.9385 141.564 35.87 142.075C35.3672 141.91 35.0297 141.486 35.1932 140.94Z" fill="black"/>
<path d="M113.797 141.124C114.351 141.047 114.209 141.783 114.117 142.116C113.984 142.407 113.994 142.947 113.564 142.922C113.279 142.344 113.673 141.703 113.797 141.124Z" fill="black"/>
<path d="M18.5572 141.572C18.7524 141.245 19.1584 141.263 19.4889 141.27C19.5346 141.773 19.5451 142.279 19.5153 142.785C19.844 142.348 20.1516 141.855 20.6473 141.59C21.0586 141.376 21.5877 141.641 21.7424 142.058C22.0623 142.877 22.2487 143.808 21.9481 144.664C21.9322 144.919 21.6106 144.926 21.4488 145.049C21.3522 144.562 21.3399 144.062 21.5526 143.606C21.4119 143.682 21.2713 143.761 21.1307 143.84C21.1711 143.996 21.2115 144.153 21.2537 144.311C20.9619 144.461 20.649 144.562 20.3168 144.524C20.5172 143.88 20.9514 143.355 21.4278 142.896C21.3205 142.655 21.2203 142.413 21.0797 142.193C20.3344 142.592 19.9336 143.409 19.4449 144.072C19.3149 144.304 19.0072 144.269 18.791 144.353C18.6522 143.578 18.9528 142.826 19.0072 142.059C18.5045 142.682 18.3164 143.471 18.0914 144.223C17.8664 144.093 17.6608 143.896 17.6977 143.613C17.7504 142.861 18.1477 142.186 18.5572 141.572Z" fill="black"/>
<path d="M3.01806 141.472C3.52783 141.882 3.82314 142.504 3.8829 143.149C3.40829 142.729 2.87216 142.165 3.01806 141.472Z" fill="black"/>
<path d="M23.7446 141.645C24.2684 142.172 24.6446 142.821 25.0085 143.464C24.1647 143.409 23.6585 142.406 23.7446 141.645Z" fill="black"/>
<path d="M40.5527 142.189C40.9306 141.783 41.4949 141.59 41.9923 141.915C41.9572 142.047 41.8886 142.311 41.8535 142.443C41.8148 142.61 41.8201 142.775 41.8078 142.949C41.1609 142.843 40.5158 142.727 39.8671 142.641C40.071 142.907 40.2714 143.174 40.4613 143.452C39.8724 143.742 39.3275 143.162 38.7228 143.278C38.6226 143.278 38.4222 143.276 38.322 143.276C38.3291 143.557 38.3378 143.838 38.3449 144.123C37.9054 143.705 37.538 143.218 37.241 142.689C37.8158 142.372 38.431 142.641 38.9812 142.866C38.9917 142.603 38.8582 142.284 39.0498 142.065C39.5542 142.014 40.0552 142.126 40.5527 142.189Z" fill="black"/>
<path d="M60.8325 141.669C61.5708 141.671 61.7132 142.555 61.7712 143.123C60.9942 143.3 60.9503 142.197 60.8325 141.669Z" fill="black"/>
<path d="M4.54565 141.72C5.08354 142.073 5.28745 142.727 5.58979 143.267C5.36831 143.355 5.19429 143.302 5.06948 143.107C4.73022 142.726 4.58081 142.221 4.54565 141.72Z" fill="black"/>
<path d="M13.8533 141.982C13.9658 142.026 14.189 142.116 14.3015 142.16C14.6373 142.68 14.8798 143.258 15.249 143.759C15.1154 143.805 14.9941 143.998 14.8412 143.903C14.2699 143.431 13.9957 142.69 13.8533 141.982Z" fill="black"/>
<path d="M22.4683 142.928C22.4156 142.601 22.7126 142.497 22.9429 142.379C23.1486 142.886 23.4667 143.367 23.5318 143.919C23.3789 144.002 23.2242 144.081 23.0677 144.158C22.8796 143.742 22.6511 143.344 22.4683 142.928Z" fill="black"/>
<path d="M114.898 142.446C115.033 142.476 115.172 142.506 115.311 142.537C115.207 142.829 115.436 143.432 114.982 143.459C114.525 143.302 114.764 142.752 114.898 142.446Z" fill="black"/>
<path d="M12.085 142.545L12.3363 142.434C12.7652 143.107 13.2873 143.78 13.442 144.578C12.7354 144.162 12.1939 143.35 12.085 142.545Z" fill="black"/>
<path d="M86.3999 142.982C86.4649 142.958 86.5968 142.908 86.6618 142.884C86.9466 143.397 87.0257 143.996 87.1962 144.555C87.0345 144.543 86.8763 144.533 86.7163 144.517C86.6021 144.007 86.4245 143.506 86.3999 142.982Z" fill="black"/>
<path d="M0 143.529C0.420117 144.065 0.903516 144.545 1.3377 145.071C0.80332 145.079 0.3375 144.838 0 144.436V143.529Z" fill="black"/>
<path d="M36.5889 143.747C36.8895 143.712 37.2322 143.508 37.5082 143.721C37.858 143.942 38.0479 144.323 38.2518 144.67C37.6523 144.872 37.1619 144.469 36.6768 144.192C36.6557 144.079 36.6117 143.858 36.5889 143.747Z" fill="black"/>
<path d="M51.5355 143.967C51.4582 143.673 51.6621 143.353 51.9504 143.62C52.0963 144.297 52.3406 144.944 52.5041 145.617C51.6902 145.556 51.5813 144.601 51.5355 143.967Z" fill="black"/>
<path d="M85.6792 143.777C86.0097 144.185 86.3366 144.605 86.5528 145.088C86.1784 145.06 85.9798 144.752 85.8181 144.459C85.7425 144.452 85.5896 144.436 85.5122 144.429C85.572 144.214 85.6247 143.989 85.6792 143.777Z" fill="black"/>
<path d="M35.884 144.67C36.0422 144.424 36.2461 144.218 36.5186 144.107C36.7331 144.677 36.9247 145.26 36.9475 145.876C36.5608 145.665 36.2743 145.327 36.0387 144.963C36 144.889 35.9227 144.744 35.884 144.67Z" fill="black"/>
<path d="M53.1123 144.332C53.2441 144.264 53.3812 144.202 53.5184 144.148C53.6889 144.605 53.8119 145.076 53.9033 145.557C53.2758 145.566 53.1738 144.81 53.1123 144.332Z" fill="black"/>
<path d="M35.3337 144.445C35.5025 144.494 35.6695 144.55 35.8365 144.612C35.963 145.369 36.3867 146.104 36.2425 146.888C35.0771 147.247 33.8396 147.271 32.632 147.25C31.95 147.741 31.0728 147.24 30.3064 147.519C30.2554 147.598 30.157 147.756 30.1078 147.836C29.4732 147.892 28.8404 147.964 28.2041 147.981C28.1988 148.212 28.1935 148.444 28.1865 148.676C27.8103 148.75 27.4341 148.829 27.0615 148.92C27.1124 149.068 27.2109 149.361 27.2601 149.507C26.8576 149.544 26.441 149.511 26.0542 149.65C25.8802 149.841 26.0314 150.138 25.9874 150.37C25.4021 150.318 24.8203 150.219 24.2332 150.205C24.3123 150.455 24.3914 150.71 24.4582 150.966C24.3808 150.964 24.2279 150.959 24.1523 150.957C23.9783 150.861 23.8095 150.759 23.6408 150.66C23.4492 150.451 23.2576 150.244 23.0642 150.042C23.2048 150.049 23.4896 150.063 23.6302 150.07C23.9115 149.674 24.307 149.395 24.7394 149.187C24.9486 149.331 25.1595 149.476 25.3705 149.62C25.3212 149.433 25.272 149.249 25.221 149.066C25.4126 149.187 25.6025 149.31 25.7941 149.437C25.7308 149.268 25.6042 148.932 25.541 148.764C25.7572 148.704 25.9716 148.646 26.1878 148.593C26.3425 148.704 26.4972 148.815 26.6519 148.929C26.5974 148.836 26.4902 148.648 26.4374 148.553C26.7855 148.43 27.1335 148.308 27.4833 148.191C27.2056 147.846 26.9578 147.479 26.782 147.074C27.45 146.918 28.1179 147.153 28.7841 147.143C29.2324 146.74 29.8089 146.762 30.3609 146.897C30.2519 146.675 30.1447 146.457 30.0392 146.236C30.7564 146.343 31.3875 146.965 32.1328 146.742C33.3632 146.531 34.6341 146.753 35.8541 146.422C35.5464 145.803 35.2828 145.15 35.3337 144.445Z" fill="black"/>
<path d="M22.9922 144.615C23.5547 144.694 23.8553 145.209 23.9361 145.724C23.6953 145.677 23.3912 145.756 23.2119 145.547C22.9307 145.32 23.0256 144.925 22.9922 144.615Z" fill="black"/>
<path d="M32.291 144.775C32.7322 145.009 33.0504 145.422 33.0644 145.939C32.4967 145.846 32.1943 145.324 32.291 144.775Z" fill="black"/>
<path d="M28.7612 145.183C28.944 145.248 29.1286 145.315 29.3114 145.383C29.329 145.513 29.3659 145.772 29.3835 145.902C29.2605 145.884 29.0161 145.849 28.8931 145.832C28.8491 145.614 28.8052 145.397 28.7612 145.183Z" fill="black"/>
<path d="M6.88721 145.556C7.38818 145.283 7.69053 146.034 7.83467 146.408C7.53408 147.099 6.30889 146.041 6.88721 145.556Z" fill="black"/>
<path d="M4.76543 146.072C4.69336 145.749 5.10644 145.635 5.29101 145.86C5.75156 146.234 6.29297 146.644 6.3668 147.282C6.21914 147.285 5.92383 147.296 5.77617 147.301C5.40703 146.921 4.96055 146.579 4.76543 146.072Z" fill="black"/>
<path d="M0 145.833C0.379688 146.466 0.826172 147.059 1.15313 147.725C0.669727 147.732 0.260156 147.491 0 147.094V145.833Z" fill="black"/>
<path d="M19.6806 146.236C19.9583 145.967 20.2026 146.336 20.2237 146.593C20.3239 146.885 20.3028 147.197 20.2817 147.502C20.0409 147.477 19.8001 147.454 19.561 147.435C19.5769 147.032 19.5417 146.617 19.6806 146.236Z" fill="black"/>
<path d="M21.593 146.392C22.0782 146.616 22.203 147.124 22.2891 147.603C22.1661 147.619 21.92 147.651 21.7987 147.667C21.6704 147.254 21.5965 146.823 21.593 146.392Z" fill="black"/>
<path d="M13.4052 149.122C14.0028 147.99 15.0944 147.131 16.3372 146.823C16.629 146.709 16.8962 146.876 17.1528 146.997C17.1651 147.104 17.1898 147.317 17.2021 147.424C15.6552 147.493 14.3931 148.591 13.6689 149.89C13.4597 150.151 13.3999 150.625 13.0009 150.653C12.7882 150.108 13.1732 149.59 13.4052 149.122Z" fill="black"/>
<path d="M7.6958 147.96C8.43936 147.911 8.81377 148.656 9.2251 149.149C9.47646 149.421 8.96846 149.669 8.7751 149.462C8.26709 149.098 7.79775 148.602 7.6958 147.96Z" fill="black"/>
<path d="M9.7454 148.642C9.56962 148.37 9.93348 148.198 10.0495 148.006C10.2886 148.382 10.6823 148.73 10.6788 149.21C10.2973 149.186 9.9159 148.998 9.7454 148.642Z" fill="black"/>
<path d="M0 148.488C0.244336 148.82 0.509766 149.138 0.762891 149.463C0.52207 149.665 0.254883 149.769 0 149.52V148.488Z" fill="black"/>
<path d="M87.6851 149.766C88.3073 150.277 88.5956 151.07 89.0825 151.701C88.9771 152.023 88.6149 151.773 88.4796 151.631C88.0771 151.084 87.7431 150.451 87.6851 149.766Z" fill="black"/>
<path d="M22.6635 151.066C22.7004 150.697 22.66 150.282 22.943 149.998C23.182 150.418 23.6443 150.796 23.5758 151.327L23.4105 151.566L23.2893 151.144C23.2928 151.242 23.2998 151.437 23.3033 151.536C23.0432 151.541 22.783 151.548 22.5229 151.557C22.8656 152.202 23.0502 152.917 23.2102 153.628C23.2629 153.895 23.3561 154.206 23.1486 154.438C22.4684 154.905 21.6141 154.389 20.8969 154.721C20.4258 154.914 19.916 154.782 19.4273 154.819C18.9088 154.884 18.4658 155.225 17.9367 155.243C16.6377 155.354 15.6639 156.296 14.4756 156.718C14.0537 157.103 13.609 157.465 13.0676 157.671C13.1643 157.776 13.3611 157.987 13.4596 158.092C12.8109 158.451 12.0973 158.68 11.4943 159.122C11.5717 159.137 11.7246 159.166 11.8002 159.182L11.9303 159.395C11.6438 159.604 11.3186 159.747 10.9986 159.894C11.3221 160.263 11.7316 160.601 11.874 161.091C11.9725 161.42 11.6666 161.733 11.3484 161.763C10.7174 161.847 10.0828 161.914 9.47109 162.107C8.76621 162.12 8.09297 162.508 7.38633 162.318C7.04531 162.434 6.70781 162.608 6.33516 162.577C5.66719 162.503 5.08184 162.97 4.40684 162.844C4.17656 162.947 3.95684 163.106 3.69316 163.106C3.0709 163.113 2.46797 163.332 1.84395 163.269C1.54336 163.542 1.18477 163.731 0.785742 163.812C0.548437 164.123 0.288281 164.419 0 164.688V163.673C0.537891 163.178 1.16895 162.71 1.9248 162.654C3.72656 162.633 5.43867 162.009 7.21934 161.815C8.60977 161.668 9.96152 161.288 11.352 161.132C11.0057 160.511 10.4537 160.058 9.94394 159.583C10.3764 159.251 11.0742 159.105 11.2588 158.553C10.9494 158.071 10.3236 157.818 10.2604 157.18C10.4098 157.187 10.7068 157.201 10.8562 157.21C10.9811 157.591 11.0988 157.975 11.2131 158.361C11.6648 158.224 12.1201 158.092 12.5754 157.975C12.3398 157.787 11.6965 157.795 11.8283 157.386C12.3082 157.011 12.9357 156.976 13.5141 156.887C13.5334 156.684 13.5527 156.484 13.5721 156.287C14.4439 156.08 15.2262 155.647 16.0049 155.22C17.3443 154.696 18.7506 154.283 20.1973 154.257C21.034 154.011 21.9023 153.993 22.7654 154.056C22.6529 153.55 22.5527 153.04 22.3857 152.548C22.1836 151.914 21.7195 151.416 21.3873 150.852C21.8145 150.913 22.2381 150.987 22.6635 151.066Z" fill="black"/>
<path d="M18.2673 150.235C18.4641 150.337 18.7278 150.4 18.7841 150.655C19.0266 151.182 19.2218 151.733 19.3993 152.288C18.8175 152.357 18.6223 151.771 18.4378 151.348C18.2743 151 18.2602 150.609 18.2673 150.235Z" fill="black"/>
<path d="M7.47953 151.413C7.94183 150.732 9.01234 150.416 9.68031 150.984C10.2832 151.61 10.0987 152.615 9.70492 153.306C9.57836 153.531 9.11781 153.807 9.01234 153.422C9.19867 152.777 9.73656 152.058 9.24965 151.411C8.70121 151.054 7.96996 151.529 7.7889 152.086C7.55512 152.784 8.04203 153.418 8.28461 154.041C8.00336 154.132 7.71859 154.058 7.585 153.78C7.12797 153.097 6.98558 152.116 7.47953 151.413Z" fill="black"/>
<path d="M20.7826 152.343C20.2324 152.269 19.7595 151.267 20.2201 150.929C20.5593 151.316 20.6244 151.866 20.7826 152.343Z" fill="black"/>
<path d="M1.76318 151.174C2.04795 151.181 2.31162 151.272 2.49268 151.502C2.7001 151.752 3.13428 151.984 2.94092 152.362C2.29053 152.439 2.00928 151.65 1.76318 151.174Z" fill="black"/>
<path d="M16.541 151.298C17.223 151.685 17.5008 152.487 17.8137 153.162C17.5641 153.109 17.3197 153.016 17.1949 152.779C16.8785 152.337 16.5498 151.863 16.541 151.298Z" fill="black"/>
<path d="M15.0943 152.016C15.5812 152.485 16.2246 152.968 16.2474 153.707C15.5812 153.464 15.0082 152.745 15.0943 152.016Z" fill="black"/>
<path d="M0 152.492C0.203906 152.821 0.420117 153.144 0.622266 153.476C0.413086 153.411 0.205664 153.343 0 153.272V152.492Z" fill="black"/>
<path d="M4.50708 153.367C4.66353 153.156 4.84634 152.845 5.15396 153.023C5.92739 153.332 6.73774 153.798 7.12974 154.566C6.16646 154.378 5.4686 153.584 4.50708 153.367Z" fill="black"/>
<path d="M12.3029 153.062C12.7212 153.415 13.1818 153.805 13.231 154.394C12.7019 154.164 12.28 153.661 12.3029 153.062Z" fill="black"/>
<path d="M59.1469 153.874C59.321 153.603 59.7182 153.554 59.9555 153.773C60.3739 154.178 60.5866 154.738 60.8837 155.232C60.9276 154.837 60.8573 154.246 61.3407 154.107C61.9383 154.227 62.1071 154.904 62.3848 155.359C62.5835 155.111 62.9069 154.953 63.204 155.145C63.8825 155.566 64.3008 156.338 64.4362 157.113C64.0881 157.187 63.944 156.872 63.7876 156.651C63.5309 156.252 63.2057 155.881 62.7698 155.677C62.768 156.104 62.8032 156.533 62.7962 156.964C61.9717 156.756 61.9155 155.786 61.5499 155.159C61.3231 155.658 61.3952 156.217 61.3565 156.751C60.3387 156.391 60.2368 155.155 59.6866 154.366C59.0924 155.104 59.7815 156.052 59.7815 156.876C59.2155 156.602 59.0573 155.943 58.9782 155.375C58.9219 154.874 58.8745 154.322 59.1469 153.874Z" fill="black"/>
<path d="M10.8176 153.953C11.4856 153.819 11.7792 154.383 11.8917 154.939C11.3467 154.863 11.0479 154.396 10.8176 153.953Z" fill="black"/>
<path d="M9.29175 154.438C9.91226 154.768 10.415 155.348 10.6136 156.029C9.93335 155.786 9.38667 155.16 9.29175 154.438Z" fill="black"/>
<path d="M2.62451 155.324C3.15185 155.616 3.4665 156.147 3.76005 156.651C3.05869 156.67 2.59638 155.971 2.62451 155.324Z" fill="black"/>
<path d="M1.03003 155.542C1.14077 155.572 1.36577 155.628 1.47651 155.658C1.88784 156.197 2.24644 156.785 2.52065 157.409C1.67163 157.222 1.26558 156.294 1.03003 155.542Z" fill="black"/>
<path d="M8.66069 156.437C9.33569 156.308 8.64136 157.254 8.48315 156.656C8.5271 156.602 8.61675 156.493 8.66069 156.437Z" fill="black"/>
<path d="M8.08765 157.104C8.67476 157.402 9.1898 157.837 9.56948 158.375C8.72573 158.665 8.15444 157.845 8.08765 157.104Z" fill="black"/>
<path d="M4.93408 157.312C5.56689 157.525 5.92549 158.157 6.04326 158.783C5.42627 158.537 5.05186 157.945 4.93408 157.312Z" fill="black"/>
<path d="M35.9878 157.475C36.2532 157.126 36.8122 157.224 37.0829 157.519C37.4749 157.954 37.6594 158.527 37.8739 159.061C37.9126 158.453 38.3204 157.57 39.0639 157.795C40.0114 158.293 40.4895 159.358 40.8253 160.327C41.0555 160.585 40.428 161.031 40.3208 160.648C39.8637 159.88 39.5139 158.978 38.7282 158.479C38.4522 159.249 38.4504 160.07 38.5383 160.877C38.3274 160.784 38.0321 160.812 37.8985 160.592C37.4819 159.963 37.2253 159.249 36.886 158.579C36.7682 158.37 36.6751 158.11 36.4237 158.038C36.1512 158.17 36.218 158.493 36.1917 158.745C36.153 159.63 36.3569 160.499 36.4131 161.38C35.7663 161.701 35.5782 160.894 35.3022 160.499C34.8821 159.826 34.4637 158.927 33.576 158.825C33.0469 158.688 32.7622 159.221 32.5635 159.611C32.5846 160.458 32.9397 161.255 33.2385 162.037C33.3335 162.325 33.5426 162.621 33.3967 162.933C32.9696 162.782 32.8448 162.295 32.6391 161.942C32.2331 161.012 31.7092 159.917 32.1962 158.919C32.5758 158.084 33.7413 157.841 34.4831 158.337C35.0034 158.632 35.3374 159.142 35.6696 159.622C35.6098 158.905 35.5149 158.082 35.9878 157.475Z" fill="black"/>
<path d="M119.594 158.214C120.454 158.126 120.356 159.187 120.44 159.759C120.301 159.759 120.023 159.761 119.885 159.762C119.707 159.263 119.619 158.739 119.594 158.214Z" fill="black"/>
<path d="M3.8689 158.672C4.30659 158.95 4.87261 159.307 4.64585 159.915C4.82163 160.205 4.98511 160.502 5.12925 160.813C4.99038 160.817 4.71265 160.824 4.57378 160.828C4.47534 160.376 4.47358 159.87 4.13608 159.514C3.90933 159.288 3.88296 158.973 3.8689 158.672Z" fill="black"/>
<path d="M5.604 159.416C5.81143 159.365 6.01885 159.314 6.22803 159.268C6.446 159.775 6.66397 160.283 6.79404 160.82C6.18936 160.567 5.96611 159.906 5.604 159.416Z" fill="black"/>
<path d="M7.6167 159.124C8.27764 159.43 8.97549 159.919 9.16533 160.662C8.52197 160.314 7.75381 159.922 7.6167 159.124Z" fill="black"/>
<path d="M138.99 162.039C139.539 162.051 140.156 162.229 140.353 162.805C139.839 162.824 139.003 162.682 138.99 162.039Z" fill="black"/>
<path d="M113.746 164.51C113.502 164.09 113.978 163.529 114.434 163.619C114.717 163.644 114.866 163.914 115.056 164.092C115.379 164.176 115.827 164.18 115.991 164.531C116.109 164.9 115.768 165.194 115.578 165.465C115.277 165.28 115.019 165.039 114.836 164.739C114.702 164.846 114.571 164.955 114.439 165.067C114.182 164.916 113.864 164.809 113.746 164.51Z" fill="black"/>
<path d="M128.463 164.688C128.452 164.37 128.255 163.865 128.66 163.723C129.148 163.721 128.962 164.364 129.006 164.682C128.87 164.684 128.598 164.688 128.463 164.688Z" fill="black"/>
<path d="M90.8948 165.408C90.8456 165.12 91.2727 165.298 91.3413 165.44C91.5803 166.489 91.6612 167.57 91.6911 168.646C91.5927 168.608 91.3958 168.53 91.2973 168.492C90.9475 167.516 90.8895 166.435 90.8948 165.408Z" fill="black"/>
<path d="M116.144 165.582C116.29 165.408 116.504 165.321 116.692 165.203C116.882 165.352 117.072 165.503 117.264 165.655C117.346 165.56 117.51 165.37 117.592 165.275C118.259 166.416 119.547 166.839 120.597 167.528C122.989 168.957 125.343 170.464 127.863 171.661C127.626 172.202 126.992 171.817 126.596 171.686C123.464 170.174 120.579 168.209 117.559 166.495C117.332 166.331 116.998 166.569 116.807 166.365C116.557 166.129 116.322 165.874 116.144 165.582Z" fill="black"/>
<path d="M83.0284 166.157C83.1954 165.669 83.8739 165.63 84.0866 166.106C84.519 167.052 84.5577 168.129 84.9391 169.095C85.0815 168.177 85.1694 167.186 85.7179 166.405C85.9059 166.108 86.3753 166.082 86.5546 166.407C87.1013 167.207 87.154 168.212 87.2823 169.144C87.5425 168.557 87.829 167.82 88.5655 167.741C89.1702 167.855 89.578 168.405 89.8311 168.928C90.1405 169.634 90.3356 170.413 90.253 171.19C90.1106 171.206 89.8241 171.239 89.68 171.257C89.5306 170.381 89.3917 169.393 88.7817 168.717C88.2983 168.416 88.112 169.008 87.9977 169.362C87.7552 169.944 87.764 170.633 87.3808 171.151C87.2964 171.13 87.1259 171.09 87.0415 171.069C86.5704 169.81 86.5071 168.439 86.0589 167.171C85.6599 168.365 85.4454 169.608 85.3663 170.863C85.3681 171.213 84.955 171.093 84.7335 171.134C84.0532 169.759 83.8212 168.23 83.4239 166.764C83.0653 168.087 82.9001 169.492 83.1901 170.847C83.1972 171.091 83.4134 171.515 83.0354 171.562C82.6804 171.193 82.5802 170.662 82.5046 170.176C82.3622 168.824 82.4782 167.411 83.0284 166.157Z" fill="black"/>
<path d="M92.6983 165.697C92.9339 165.776 93.3188 165.753 93.3733 166.078C93.6176 166.924 93.7811 167.792 93.927 168.66C93.7829 168.657 93.4946 168.648 93.3505 168.645C92.918 167.734 92.6298 166.709 92.6983 165.697Z" fill="black"/>
<path d="M94.9254 166.649C94.7004 166.264 95.4334 165.93 95.5688 166.33C95.799 166.997 96.0785 167.713 95.8817 168.428C95.1768 168.131 95.0713 167.303 94.9254 166.649Z" fill="black"/>
</g>
<defs>
<clipPath id="clip0_58_1990">
<rect width="180" height="180" fill="white"/>
</clipPath>
</defs>
</svg>
