<svg width="180" height="180" viewBox="0 0 180 180" fill="none" xmlns="http://www.w3.org/2000/svg">
<g clip-path="url(#clip0_58_2319)">
<path d="M114.123 3.1922C114.251 3.29943 114.251 3.29943 114.123 3.1922V3.1922Z" fill="black"/>
<path d="M29.5225 9.57832C31.0465 9.22676 32.7498 9.32168 34.0805 10.2129C34.9155 10.7016 35.5061 11.4856 36.0457 12.2695C38.0637 11.2096 40.4754 10.6664 42.7043 11.3273C44.594 11.9092 45.8842 13.6266 46.4432 15.4582C47.744 15.4037 49.0694 15.7201 50.1416 16.4742C51.0381 17.1193 51.62 18.0809 52.1948 19.002C52.5164 19.4397 52.0278 20.0988 51.5127 19.9898C44.1879 19.8369 36.8578 19.8422 29.533 19.6488C23.727 19.6348 17.9245 19.299 12.1184 19.3729C11.6948 19.3641 11.1182 19.4414 10.8967 18.9791C10.6418 18.3586 11.3291 18.0422 11.6825 17.6731C13.4262 15.9574 14.8272 13.841 16.9453 12.5402C19.6401 10.807 23.7041 10.9635 25.8188 13.5439C26.2688 11.7141 27.6645 10.0617 29.5225 9.57832ZM29.5383 10.967C28.4028 11.3854 27.5959 12.4049 27.1864 13.5141C26.928 14.1363 26.8489 14.8096 26.6696 15.4529C26.5606 15.9188 25.7748 15.9838 25.5534 15.5777C25.1157 14.9115 24.7465 14.1715 24.0891 13.6881C22.4754 12.4629 20.1744 12.4137 18.385 13.2715C16.2493 14.3367 14.7797 16.2897 13.2205 18.0246C17.4832 18.0264 21.7442 18.1828 26.0069 18.2637C29.8196 18.2936 33.6305 18.4078 37.4414 18.4605C41.7621 18.515 46.0846 18.559 50.4035 18.6486C49.8077 17.6906 48.7547 17.0754 47.6543 16.9031C47.011 16.7941 46.3571 16.9611 45.7155 16.8662C45.1881 16.5533 45.1881 15.8449 44.9754 15.3281C44.4657 13.885 43.1983 12.6281 41.6391 12.4295C39.8866 12.157 38.1006 12.6668 36.6065 13.5773C36.1881 13.8867 35.5483 13.9289 35.2125 13.4754C34.7239 12.8057 34.3934 11.9813 33.6446 11.5418C32.502 10.64 30.8866 10.4766 29.5383 10.967Z" fill="black"/>
<path d="M94.9659 19.8563C95.045 19.4625 95.393 19.1303 95.8026 19.1145C96.3774 19.0916 96.9083 19.633 96.8081 20.2166C96.634 21.9129 96.2403 23.5916 96.2315 25.3037C96.2491 26.3988 96.0786 27.4817 96.0311 28.5715C95.8026 29.8195 96.0135 31.1063 95.7288 32.349C95.5952 34.1596 95.676 35.9789 95.6374 37.7947C95.6215 38.3731 95.6356 38.9567 95.7428 39.5279C95.9151 40.4684 95.7727 41.4246 95.7217 42.3686C96.0065 44.6414 95.6883 46.9336 95.4932 49.2012C95.4879 49.9518 94.2768 50.3297 93.9586 49.5914C93.5913 47.9092 93.6686 46.183 93.5561 44.4744C93.6229 43.2457 93.6633 42.0117 93.5069 40.7883C93.5754 39.2238 93.4436 37.6611 93.4348 36.0949C93.5719 36.0949 93.8462 36.0932 93.9815 36.0914C93.811 36.0369 93.6387 35.986 93.4665 35.9385C93.4682 35.7961 93.4735 35.5096 93.4753 35.3654C93.5684 35.3778 93.7547 35.4041 93.8479 35.4164C93.8549 35.2793 93.8725 35.0051 93.8795 34.8662C93.7706 34.8838 93.5526 34.919 93.4419 34.9365C93.4401 34.7238 93.4383 34.5111 93.4401 34.2985C93.5667 34.3266 93.8198 34.3828 93.9463 34.411C93.992 34.0541 93.8989 33.7781 93.4647 33.8485C93.477 33.5865 93.4893 33.3264 93.5016 33.0662C93.6915 33.0873 93.8813 33.1067 94.0747 33.126C93.9868 32.8623 93.8251 32.6795 93.5245 32.7252C93.6194 30.7178 93.8303 28.7192 93.9147 26.71C94.1643 24.4125 94.4368 22.108 94.9659 19.8563ZM94.7356 24.5356C94.7637 24.6674 94.6002 25.0506 94.8885 24.917C95.3491 24.9522 94.7971 24.2174 94.7356 24.5356ZM94.6161 25.8873C94.7198 25.9049 94.9272 25.9436 95.0309 25.9611C95.0292 25.8328 95.0256 25.5744 95.0256 25.4444C94.7075 25.3758 94.6213 25.6078 94.6161 25.8873ZM94.3823 27.0229C94.5282 27.0264 94.8182 27.0352 94.9624 27.0404C94.8991 26.8137 94.8305 26.5887 94.7567 26.3672C94.6126 26.5746 94.4913 26.7944 94.3823 27.0229ZM94.9799 29.3467C94.8956 29.635 94.9922 29.7334 95.2735 29.6473C95.3579 29.3572 95.2594 29.257 94.9799 29.3467ZM94.5668 35.9262C94.486 36.2197 94.5844 36.3129 94.8639 36.2057C94.9413 35.9121 94.8428 35.819 94.5668 35.9262Z" fill="black"/>
<path d="M67.0097 24.1471C67.4772 23.9309 67.8815 24.3316 68.1452 24.6709C69.0645 25.868 69.7395 27.2285 70.3759 28.5926C70.9524 29.9232 71.3479 31.3242 71.9509 32.6461C72.886 34.9822 74.0075 37.2375 74.9848 39.5561C76.0835 42.474 77.2595 45.3656 78.2667 48.3188C78.8907 49.9852 79.455 51.6938 79.68 53.4656C79.5253 53.8189 79.1614 54.1125 78.7659 54.1055C78.3177 54.0246 78.119 53.557 77.9239 53.2002C76.9536 51.1313 76.0835 49.0148 75.3206 46.8598C74.2958 44.4428 73.4661 41.9484 72.4518 39.5262C71.072 36.4623 69.6499 33.409 68.546 30.2326C67.9448 28.4941 67.022 26.8857 66.4348 25.1438C66.2766 24.7148 66.6247 24.293 67.0097 24.1471Z" fill="black"/>
<path d="M126.448 25.8943C126.728 25.5885 127.181 25.2879 127.598 25.5164C127.895 25.6975 128.229 25.9998 128.196 26.3813C128.029 27.0246 127.579 27.5379 127.22 28.0811C125.946 30.085 124.592 32.0379 123.376 34.077C122.005 36.3551 120.401 38.4908 119.15 40.8393C118.914 40.885 118.679 40.9026 118.445 40.9412C118.589 40.9623 118.877 41.0045 119.022 41.0256C117.652 43.3037 116.278 45.5854 114.664 47.7C113.511 49.2838 112.372 50.8817 111.131 52.4004C110.753 52.8153 110.407 53.318 109.856 53.5166C109.468 53.5377 109.06 53.3145 108.937 52.9365C109.027 52.1016 109.514 51.3897 109.909 50.6707C110.835 48.9639 112.054 47.4434 113.152 45.849C114.87 43.3125 116.545 40.7443 118.076 38.0918C119.647 35.5201 121.28 32.9871 122.926 30.4629C123.991 28.8615 125.121 27.2901 126.448 25.8943ZM119.783 37.6981C119.818 37.8967 119.855 38.0953 119.893 38.294C119.955 38.236 120.076 38.1182 120.136 38.0602C120.131 37.9776 120.118 37.8123 120.111 37.7279C120.031 37.7209 119.865 37.7051 119.783 37.6981Z" fill="black"/>
<path d="M111.148 30.2871C111.514 30.1588 111.883 30.4137 112.047 30.7336C112.006 31.1977 111.716 31.5844 111.563 32.0151C111.373 32.444 111.315 32.9326 111.048 33.3246C110.494 33.5496 109.83 32.9221 110.101 32.3578C110.398 31.66 110.487 30.7477 111.148 30.2871Z" fill="black"/>
<path d="M148.43 34.04C149.934 33.7043 151.585 33.7008 153.002 34.3723C153.853 34.7484 154.598 35.3373 155.206 36.0369C155.486 36.334 155.777 36.7822 156.257 36.6398C158.077 36.4148 160.023 36.8842 161.39 38.1428C162.098 38.6965 162.52 39.5068 163.099 40.166C164.508 39.6351 166.031 39.4066 167.532 39.5982C168.968 39.723 170.385 40.4156 171.25 41.5881C171.503 41.9713 171.911 42.1998 172.218 42.532C172.392 42.8555 172.231 43.3353 171.914 43.5199C171.338 43.6324 170.745 43.5463 170.165 43.5463C165.591 43.476 161.019 43.6078 156.445 43.5832C148.878 43.6342 141.318 43.2017 133.75 43.3758C133.212 43.4584 132.755 42.8642 132.878 42.3633C133.68 40.0465 135.186 37.6892 137.63 36.8894C139.762 36.225 142.335 36.5027 143.991 38.1094C144.86 36.2478 146.387 34.5726 148.43 34.04ZM146.436 36.9105C145.684 37.7033 145.329 38.7545 144.805 39.6896C144.626 40.05 144.174 40.2715 143.798 40.0764C143.228 39.6492 142.91 38.9531 142.276 38.5998C140.725 37.684 138.658 37.7349 137.141 38.6965C135.919 39.4348 135.1 40.6723 134.568 41.9695C139.813 41.8306 145.056 42.1049 150.3 42.1453C155.392 42.2314 160.487 42.1471 165.579 42.1154C167.01 42.089 168.442 42.1805 169.873 42.1049C169.005 41.2101 167.694 40.8392 166.472 40.9096C165.698 40.9447 164.892 40.964 164.189 41.3226C163.649 41.5564 163.028 41.8974 162.434 41.7058C161.912 41.2435 161.668 40.5598 161.235 40.0236C160.114 38.4978 158.092 37.6752 156.231 38.0883C155.756 38.1463 155.125 38.3449 154.798 37.8773C154.296 37.2094 153.812 36.4974 153.088 36.0474C151.061 34.6342 148.054 35.0596 146.436 36.9105Z" fill="black"/>
<path d="M25.7239 35.5149C25.6765 35.0086 26.4323 34.6834 26.7136 35.1528C27.1583 35.9631 26.972 36.9457 27.0511 37.8352C27.3939 37.5241 27.7981 36.8702 28.329 37.2182C28.8862 37.7719 29.1165 38.5594 29.5542 39.1993C30.0675 40.1133 30.8093 40.8885 31.254 41.8377C31.5898 42.3563 30.7935 43.0823 30.354 42.583C29.4558 41.5002 28.7105 40.2926 28.0231 39.0674C27.9897 39.0534 27.9212 39.0252 27.8878 39.0112C27.5485 39.6053 27.4378 40.3541 26.9474 40.8463C26.1124 41.1891 25.3935 40.4578 24.7185 40.0852C24.1735 40.8744 24.0804 41.8905 23.4898 42.6516C23.0767 43.0629 22.3524 42.5198 22.5282 41.9959C22.7726 41.052 23.2788 40.2047 23.6937 39.3276C23.8888 38.9672 24.0646 38.5278 24.4601 38.3467C24.9575 38.236 25.2687 38.7774 25.7239 38.8459C25.8364 37.7368 25.803 36.6241 25.7239 35.5149Z" fill="black"/>
<path d="M107.139 36.6697C107.524 36.4377 108.197 36.791 108.063 37.2762C107.84 38.1234 107.336 38.8582 106.972 39.6475C105.435 42.6059 104.332 45.7629 103.214 48.8971C103.047 49.2873 102.911 49.7654 102.502 49.9711C102.187 49.9817 101.901 49.8041 101.704 49.5721C101.674 49.1467 101.878 48.7494 101.995 48.3504C103.219 44.8506 104.446 41.3209 106.258 38.0725C106.534 37.5979 106.71 37.0336 107.139 36.6697Z" fill="black"/>
<path d="M81.4291 38.0215C81.7367 37.7807 82.1375 38.0268 82.2658 38.3449C82.5224 39.0129 82.6718 39.7195 82.8037 40.4227C82.9478 40.95 82.155 41.2893 81.8509 40.8463C81.5715 40.2188 81.5222 39.5156 81.306 38.8652C81.2463 38.5998 81.1162 38.1656 81.4291 38.0215Z" fill="black"/>
<path d="M61.2334 43.244C61.2106 42.743 61.4514 42.1647 62.0578 42.358C62.9016 42.8871 63.5238 43.7063 64.2358 44.3936C64.7192 44.9069 65.2799 45.3551 65.693 45.9299C66.0463 46.3219 65.4838 46.9231 65.0443 46.7051C64.6787 46.5153 64.4063 46.1953 64.1215 45.9088C63.6451 45.385 63.0633 44.9666 62.6221 44.4112C62.2565 43.9172 61.7326 43.585 61.2334 43.244Z" fill="black"/>
<path d="M60.1682 45.4816C59.6321 45.2408 59.8975 44.3232 60.467 44.376C61.0418 44.5025 61.5516 44.8312 61.9577 45.2531C62.7961 46.0758 63.8069 46.7771 64.3834 47.8248C64.5241 48.208 64.0582 48.4084 63.8297 48.6105C63.0774 48.1676 62.6133 47.4082 61.9436 46.8703C61.4092 46.3359 60.8151 45.8701 60.1682 45.4816Z" fill="black"/>
<path d="M83.5648 46.4871C83.8971 46.3026 84.3242 46.5276 84.4051 46.8879C84.6652 47.7668 84.7672 48.6827 85.0396 49.558C85.2717 50.1873 84.2504 50.5108 83.9252 50.0274C83.549 49.5493 83.774 48.883 83.5402 48.3469C83.3398 47.7739 82.9672 46.9407 83.5648 46.4871Z" fill="black"/>
<path d="M128.589 47.0391C128.992 46.8369 129.342 47.294 129.451 47.635C129.192 48.2467 128.663 48.8918 127.948 48.9199C127.623 48.7881 127.375 48.4119 127.54 48.0674C127.756 47.6192 128.153 47.2711 128.589 47.0391Z" fill="black"/>
<path d="M59.7904 49.9272C60.0224 49.7584 60.3142 49.9131 60.5199 50.0502C62.4939 51.4407 64.0812 53.2811 65.7054 55.0495C66.6828 56.1762 67.7322 57.2608 68.5162 58.5352C68.4793 59.0203 67.755 59.4352 67.407 58.9993C65.4312 56.6455 63.3974 54.3288 61.1843 52.193C60.6482 51.6709 59.9785 51.286 59.5232 50.6848C59.3404 50.4123 59.5232 50.059 59.7904 49.9272Z" fill="black"/>
<path d="M35.7717 50.2242C36.5258 49.8814 37.2377 50.516 37.9566 50.6795C40.6584 51.8273 43.1457 53.4023 45.6787 54.8701C48.6512 56.6596 51.4109 58.7742 54.3605 60.6023C56.3451 61.8891 58.4598 62.9578 60.541 64.0758C61.5307 64.6172 62.6135 65.148 63.2639 66.1078C63.6752 66.6316 63.0142 67.4824 62.4113 67.173C59.982 66.027 57.4508 65.0777 55.1217 63.7242C54.081 63.0457 52.9754 62.4762 51.9611 61.7572C49.9379 60.46 48.0148 59.0168 45.9828 57.7354C43.3197 56.0777 40.6144 54.4887 37.8617 52.9875C37.0355 52.4654 36.0898 52.1139 35.3498 51.467C35.1687 51.024 35.3041 50.4264 35.7717 50.2242ZM35.9176 51.1893C35.7646 51.5461 36.2691 51.365 36.4449 51.4336C36.3254 51.3475 35.9422 50.8623 35.9176 51.1893Z" fill="black"/>
<path d="M132.585 51.402C133.056 51.1365 133.697 51.5022 133.712 52.0418C133.724 52.4162 133.325 52.5744 133.063 52.7432C128.684 55.1479 124.697 58.1748 120.716 61.1684C120.373 61.5164 119.876 61.1613 119.696 60.8151C119.489 60.4213 119.885 60.0838 120.141 59.8412C122.815 57.6123 125.636 55.561 128.568 53.6871C129.895 52.9067 131.175 52.0313 132.585 51.402Z" fill="black"/>
<path d="M69.678 52.4004C69.4899 51.7939 70.3108 51.3738 70.7274 51.8027C71.6625 52.6711 72.4114 53.7416 72.9317 54.9088C72.6627 55.1215 72.3832 55.3201 72.095 55.5082C71.6942 55.0758 71.3549 54.5941 71.0578 54.0861C70.6869 53.4533 70.1262 52.9717 69.678 52.4004Z" fill="black"/>
<path d="M120.783 53.1088C121.201 52.831 121.744 53.1756 121.866 53.615C121.809 53.9807 121.493 54.2092 121.254 54.457C120.746 54.9545 120.201 55.4537 119.514 55.684C119.046 55.7947 118.768 55.3394 118.554 55.0125C118.712 54.7558 118.879 54.4799 119.19 54.399C119.888 54.1986 120.215 53.4955 120.783 53.1088Z" fill="black"/>
<path d="M75.3348 59.1662C80.5854 55.6998 86.9012 54.0685 93.152 53.9367C99.0195 54.3041 104.887 55.9617 109.779 59.2928C112.562 61.193 115.225 63.3586 117.239 66.0867C121.222 71.7328 123.432 78.5566 123.792 85.4349C123.71 89.0613 123.221 92.7105 121.971 96.1312C121.44 98.1668 120.446 100.035 119.489 101.897C118.619 103.342 117.645 104.723 116.645 106.082C112.864 110.82 107.707 114.465 101.941 116.358C98.8912 117.373 95.6797 118.02 92.4541 117.907C89.5063 117.729 86.5197 117.466 83.702 116.522C79.1773 115.07 74.9779 112.616 71.5221 109.354C71.3041 109.144 71.0686 108.954 70.8207 108.787C70.9174 108.575 71.0141 108.36 71.1195 108.151C71.0264 108.165 70.84 108.192 70.7469 108.206C70.7381 108.315 70.7205 108.534 70.7135 108.643C69.3775 107.084 67.8904 105.639 66.8182 103.873C65.9006 102.558 65.2027 101.111 64.5523 99.6504C63.4537 97.4021 62.7646 94.9816 62.1494 92.5646C61.9684 91.1848 61.5553 89.8471 61.3953 88.4654C61.5359 88.4865 61.8189 88.5287 61.9596 88.5498C61.9455 88.4672 61.9191 88.2984 61.9051 88.2141C61.1598 88.7818 61.2828 87.5953 61.3004 87.1699C61.5025 87.3668 61.7223 87.5531 61.9719 87.6955C61.949 87.4652 61.9244 87.2349 61.8734 87.0099C61.7152 87.0486 61.4006 87.1242 61.2424 87.1629C61.2406 86.7428 61.26 86.3209 61.1879 85.906C61.39 85.5246 61.3549 85.1098 61.1387 84.7441C61.2529 84.5613 61.3689 84.3803 61.485 84.1992C61.6098 84.368 61.7363 84.5385 61.8629 84.7072C62.3129 84.3838 61.8699 83.8336 62.0949 83.4082C62.0984 83.257 62.1002 83.1058 62.102 82.9582C61.8857 82.9371 61.4762 83.3273 61.4006 82.9723C61.4445 82.4713 61.5201 81.9703 61.5025 81.4658C61.724 81.5291 61.9473 81.5853 62.1652 81.6662C62.1582 81.5308 62.1494 81.399 62.1354 81.2672C61.9314 81.2601 61.7293 81.2619 61.5271 81.2742C61.7258 80.4639 61.9121 79.6447 61.9578 78.8098C62.0422 78.7588 62.2127 78.6586 62.2988 78.6076C62.1406 78.2877 62.1951 77.9361 62.2584 77.6021C62.4693 77.5828 62.6803 77.618 62.8912 77.6074C62.5854 77.3912 62.3885 76.9974 62.5678 76.6353C63.5557 73.3781 64.9689 70.2404 66.8586 67.4051C67.5635 66.4137 68.2191 65.3748 69.077 64.5047C70.9613 62.506 73.0672 60.7166 75.3348 59.1662ZM89.2162 56.0514C85.0836 56.6279 81.0318 57.9498 77.4318 60.0732C74.5754 61.8557 71.9123 64.0037 69.766 66.6105C66.6441 70.7256 64.5084 75.5982 63.7033 80.7064C63.3623 83.2605 63.2744 85.8551 63.5328 88.4215C63.6541 90.2724 64.1305 92.0707 64.5893 93.8601C65.5648 97.2932 67.0379 100.607 69.0945 103.533C72.7736 108.904 78.4162 112.783 84.5844 114.755C86.7236 115.471 88.9807 115.68 91.2113 115.907C92.825 115.949 94.4598 116.053 96.0576 115.773C100.825 115.167 105.411 113.291 109.331 110.529C118.097 104.244 123.061 93.0059 121.614 82.2955C121.07 77.9326 119.57 73.7244 117.512 69.8519C116.459 68.0941 115.388 66.3099 113.884 64.8949C111.428 62.5904 108.73 60.5039 105.704 59.001C102.219 57.2889 98.4166 56.243 94.5564 55.8685C92.7793 55.6101 90.9846 55.8299 89.2162 56.0514ZM62.733 79.9523C62.726 80.1017 62.7084 80.4006 62.7014 80.55C62.7822 80.4973 62.9457 80.3935 63.0283 80.3426C62.9668 80.1861 62.8402 80.0736 62.733 79.9523ZM61.935 82.0916C61.6309 82.3113 61.7504 82.6383 62.0949 82.7156C62.0563 82.5082 62.2514 82.1443 61.935 82.0916ZM62.7576 84.5226C63.0441 84.4998 63.074 83.9848 62.777 83.9601C62.4975 83.9918 62.4447 84.5033 62.7576 84.5226ZM61.6818 84.8637C61.6062 85.0922 61.543 85.326 61.4832 85.5633C61.6203 85.5773 61.8928 85.6072 62.0299 85.6213C62.0334 85.5 62.0422 85.2574 62.0457 85.1344C61.9561 85.0676 61.7732 84.9305 61.6818 84.8637ZM62.6012 85.0834C62.3199 85.1695 62.3727 85.7461 62.7066 85.6652C62.9932 85.5721 62.9316 85.0166 62.6012 85.0834ZM61.5395 86.0414C61.3988 86.4299 61.666 86.6039 62.0158 86.6725C62.0123 86.4404 62.0053 86.2084 61.9947 85.9799C61.8805 85.9957 61.652 86.0256 61.5395 86.0414ZM62.501 86.2014C62.4957 86.3226 62.4834 86.567 62.4781 86.69C62.6064 86.5951 62.733 86.4967 62.8543 86.393C62.8244 86.2506 62.5941 85.8146 62.501 86.2014ZM62.6047 87.0891C62.2936 87.1717 62.4078 87.7324 62.7436 87.6164C63.0688 87.5338 62.9299 86.9853 62.6047 87.0891ZM62.501 88.6623C62.9193 88.998 63.067 88.0189 62.573 88.1473C62.4025 88.2896 62.3797 88.4619 62.501 88.6623ZM64.7088 99.0756C64.5418 99.283 64.577 99.4078 64.816 99.4482C64.9795 99.2426 64.9443 99.1178 64.7088 99.0756ZM66.2961 102.213C66.101 102.35 66.3066 102.734 66.5229 102.567C66.7074 102.424 66.5123 102.043 66.2961 102.213ZM67.7445 104.444C67.5723 104.708 68.0223 104.964 68.2033 104.739C68.3633 104.483 67.9168 104.201 67.7445 104.444ZM86.0047 115.9C86.0732 116.309 86.3932 116.418 86.7465 116.202C86.6727 115.813 86.293 115.907 86.0047 115.9ZM85.1152 116.012C84.9395 116.251 85.3596 116.569 85.5441 116.334C85.7182 116.079 85.3086 115.768 85.1152 116.012ZM87.2387 116.096C86.9838 116.504 87.7766 116.527 87.8117 116.167C87.7801 115.896 87.3705 115.921 87.2387 116.096Z" fill="black"/>
<path d="M144.833 56.7545C146.234 56.0022 147.67 55.2182 149.259 54.958C149.79 54.8473 150.342 55.2024 150.502 55.7121C150.604 56.1534 150.268 56.5524 149.887 56.7247C147.342 57.9586 144.781 59.1786 142.358 60.6428C139.062 62.3514 135.731 63.9897 132.381 65.5858C130.943 66.3328 129.528 67.1327 128.015 67.7215C127.166 68.1082 126.297 68.451 125.459 68.8588C124.901 69.1243 124.376 69.4987 123.754 69.583C123.237 69.6235 122.669 68.8641 123.144 68.4686C124.369 67.1028 126.011 66.2168 127.616 65.3748C130.458 63.9739 133.216 62.4024 136.109 61.1051C136.03 61.5428 135.914 61.9752 135.744 62.3883C135.911 62.3637 136.079 62.3391 136.25 62.3163C136.173 61.8944 135.956 61.3776 136.317 61.019C136.563 61.3002 136.909 61.2967 137.25 61.2264C137.02 61.0893 136.79 60.9627 136.557 60.8344C136.997 60.5848 137.473 60.3967 137.985 60.3704C137.839 60.6235 137.686 60.8696 137.531 61.1157C137.739 61.1631 137.946 61.2053 138.157 61.2493C138.15 60.8432 137.786 59.9168 138.524 60.0399C138.614 60.0821 138.795 60.1647 138.885 60.2051C139.328 60.0311 139.924 59.7674 140.135 60.3985C140.187 60.4073 140.295 60.4266 140.347 60.4354C140.333 60.0856 140.321 59.7375 140.279 59.3912C139.938 59.6127 139.602 60.1155 139.166 59.7639C139.228 59.2313 139.862 59.3315 140.245 59.3438C140.397 59.1135 140.557 58.8885 140.724 58.6688C140.746 58.8235 140.794 59.1329 140.818 59.2875C141.323 59.3631 141.566 58.9623 141.423 58.5053C141.613 58.4526 141.803 58.4016 141.996 58.3524C141.991 58.5053 141.98 58.8112 141.975 58.9641C142.144 58.9711 142.314 58.9782 142.485 58.987C142.501 58.8745 142.529 58.6477 142.545 58.5334C142.462 58.428 142.297 58.217 142.214 58.1116C142.534 57.8971 142.9 57.8075 143.283 57.8866C143.109 58.1221 142.945 58.3612 142.78 58.602C142.972 58.6231 143.167 58.6371 143.364 58.6442C143.373 58.3963 143.371 58.1502 143.362 57.9041C143.545 57.8215 143.731 57.7424 143.923 57.6686C143.784 57.5965 143.647 57.5245 143.513 57.4524C143.891 57.1131 144.396 56.9936 144.833 56.7545ZM140.848 59.7024C140.968 59.8342 141.091 59.9661 141.216 60.0979C141.258 59.9625 141.342 59.6918 141.384 59.5565C141.251 59.5934 140.982 59.6655 140.848 59.7024ZM138.786 60.5075C138.764 60.7413 138.748 60.975 138.741 61.2106C138.927 61.1104 139.189 61.0682 139.243 60.8186C139.242 60.5426 138.967 60.5655 138.786 60.5075ZM134.768 62.3461C134.881 62.536 135.039 62.5817 135.239 62.4832C135.237 62.3936 135.232 62.2161 135.229 62.1264C135.074 61.8944 134.663 62.0754 134.768 62.3461Z" fill="black"/>
<path d="M93.21 57.0059C93.3189 57.085 93.3189 57.085 93.21 57.0059V57.0059Z" fill="black"/>
<path d="M83.8828 58.5773C83.9742 58.674 83.9742 58.674 83.8828 58.5773V58.5773Z" fill="black"/>
<path d="M84.9395 59.2787C85.0291 59.3789 85.0291 59.3789 84.9395 59.2787V59.2787Z" fill="black"/>
<path d="M80.7295 59.451C80.8297 59.5442 80.8297 59.5442 80.7295 59.451V59.451Z" fill="black"/>
<path d="M82.7789 60.017C83.0655 59.9115 83.1621 60.003 83.0672 60.2895C82.7789 60.3932 82.684 60.3035 82.7789 60.017Z" fill="black"/>
<path d="M86.5283 61.3776C86.6109 61.4901 86.6109 61.4901 86.5283 61.3776V61.3776Z" fill="black"/>
<path d="M77.219 62.6203C77.3069 62.724 77.3069 62.724 77.219 62.6203V62.6203Z" fill="black"/>
<path d="M78.2615 62.6151C78.3599 62.7152 78.3599 62.7152 78.2615 62.6151V62.6151Z" fill="black"/>
<path d="M79.3267 62.608C79.3653 63.1969 79.8312 62.318 79.3267 62.608V62.608Z" fill="black"/>
<path d="M80.5852 62.6309C80.7012 62.7047 80.7012 62.7047 80.5852 62.6309V62.6309Z" fill="black"/>
<path d="M81.4167 62.6274C81.5328 62.7012 81.5328 62.7012 81.4167 62.6274V62.6274Z" fill="black"/>
<path d="M83.7124 62.6274C83.8249 62.7082 83.8249 62.7082 83.7124 62.6274V62.6274Z" fill="black"/>
<path d="M84.5967 64.7297C84.6934 64.8281 84.6934 64.8281 84.5967 64.7297V64.7297Z" fill="black"/>
<path d="M41.1962 68.7832C41.6515 68.5336 42.228 68.7568 42.729 68.7498C44.0104 68.9608 45.3323 69.0434 46.5681 69.4617C47.178 69.6199 46.8528 70.6359 46.2517 70.4057C44.6731 70.1402 43.0841 69.9311 41.5003 69.6973C41.0327 69.6639 40.7708 69.0733 41.1962 68.7832Z" fill="black"/>
<path d="M53.2934 72.1142C53.7241 71.8717 54.2215 72.1652 54.6645 72.2461C55.1655 72.4271 55.8124 72.4447 56.1323 72.9264C56.2254 73.3254 55.8159 73.7824 55.401 73.6066C54.6856 73.4115 53.942 73.2568 53.2758 72.9246C52.9559 72.7506 53.0192 72.2918 53.2934 72.1142Z" fill="black"/>
<path d="M138.772 73.9494C139.257 73.8774 139.89 73.7613 140.226 74.2254C140.507 74.5928 140.182 75.143 139.744 75.1693C135.786 75.7881 131.781 76.2979 127.953 77.5283C127.447 77.7973 126.826 77.1293 127.092 76.6319C127.355 76.3242 127.763 76.2065 128.127 76.0606C131.592 74.9901 135.188 74.4451 138.772 73.9494Z" fill="black"/>
<path d="M43.6149 75.085C44.2547 75.0428 44.8805 75.2467 45.5116 75.3398C48.1641 75.8777 50.8254 76.4543 53.3655 77.4088C53.7944 77.6021 54.2901 77.7094 54.6381 78.0469C54.7805 78.6252 54.1073 79.0699 53.6151 78.7588C50.3825 77.5107 46.9741 76.7848 43.585 76.1203C42.9979 75.992 43.0489 75.201 43.6149 75.085Z" fill="black"/>
<path d="M61.5024 84.0129C61.2791 83.9074 61.3072 83.5084 61.5217 83.4082C61.7432 83.4416 61.8416 83.577 61.8153 83.8178C61.7379 83.867 61.5815 83.9637 61.5024 84.0129Z" fill="black"/>
<path d="M77.0188 83.707C77.3914 83.4627 77.7729 83.8353 77.8625 84.1904C78.1104 84.992 78.3213 85.8726 78.9857 86.4457C79.6801 87.1119 80.9545 87.365 81.6752 86.6091C82.424 85.9693 82.7404 85.013 83.0252 84.1043C83.1447 83.4169 84.3049 83.7 84.1766 84.3679C84.1256 85.3699 83.6809 86.3314 83.0867 87.1277C82.1902 88.3529 80.4008 88.7976 79.0297 88.1613C77.7342 87.5373 76.8816 86.2171 76.6356 84.8232C76.5389 84.4277 76.5775 83.8722 77.0188 83.707Z" fill="black"/>
<path d="M101.495 83.7404C101.755 83.6103 102.083 83.7263 102.171 84.0146C102.484 84.8039 102.727 85.7127 103.505 86.182C104.527 86.9607 105.979 86.567 106.854 85.7584C107.162 85.3892 107.287 84.9005 107.606 84.5402C108.056 84.1781 108.738 84.7177 108.545 85.2451C108.044 87.4318 105.251 88.5498 103.284 87.6322C102.004 87.0714 101.173 85.7302 101.041 84.3627C101.074 84.0955 101.254 83.8564 101.495 83.7404Z" fill="black"/>
<path d="M125.23 85.2592C125.144 84.7495 125.596 84.3364 126.04 84.1975C126.552 84.0815 127.085 84.1395 127.607 84.129C130.516 84.1149 133.427 84.0956 136.336 84.1307C136.385 84.2239 136.487 84.412 136.536 84.5051C136.296 84.651 136.037 84.76 135.775 84.8532L135.851 84.5561C135.793 84.5333 135.675 84.4893 135.617 84.4665C135.591 84.6335 135.568 84.8022 135.547 84.9727C135.895 84.869 136.259 84.8462 136.615 84.934C136.587 84.6669 136.561 84.3997 136.533 84.136C136.728 84.1518 137.118 84.1817 137.313 84.1975C137.22 84.4296 137.127 84.6616 137.036 84.8936C137.208 84.9077 137.378 84.92 137.554 84.9305C137.524 84.709 137.496 84.4876 137.47 84.2661C138.159 84.3118 138.862 84.2538 139.542 84.4137C139.34 84.6053 139.15 84.8057 138.962 85.0096C139.199 85.029 139.439 85.0483 139.678 85.0641C139.662 84.9094 139.628 84.6018 139.613 84.4471C139.751 84.4489 140.027 84.4524 140.165 84.4524C140.152 84.5878 140.124 84.8585 140.11 84.9938C140.303 84.9991 140.497 85.0044 140.694 85.0132C140.694 84.8919 140.695 84.6475 140.695 84.5262C140.827 84.5333 141.093 84.5473 141.226 84.5544C141.203 84.6756 141.159 84.9182 141.137 85.0395C141.281 85.0413 141.569 85.0448 141.711 85.0448C141.731 84.9358 141.771 84.7161 141.79 84.6071L141.993 84.6458C142.033 84.7319 142.114 84.9024 142.154 84.9885C145.44 84.9253 148.729 84.9007 152.014 84.9516C152.858 85.0729 153.955 84.7706 154.572 85.5194C154.981 86.2471 154.151 86.9344 153.473 86.9819C149.824 87.388 146.127 87.6464 142.465 87.2333C141.138 87.1559 139.845 86.8114 138.51 86.8219C135.055 86.5776 131.588 86.6637 128.136 86.3878C127.475 86.3579 126.839 86.1575 126.185 86.0854C125.736 86.0503 125.244 85.7514 125.23 85.2592ZM134.242 84.6423C134.235 84.7389 134.223 84.9341 134.216 85.0307C134.3 85.0307 134.467 85.029 134.552 85.029C134.552 84.9217 134.555 84.7073 134.557 84.6001C134.478 84.6106 134.322 84.6317 134.242 84.6423ZM135.037 84.6018C134.759 84.7794 135.083 85.1977 135.334 84.9921C135.621 84.8128 135.281 84.4067 135.037 84.6018ZM137.96 84.9762C138.212 84.9938 138.466 85.0061 138.721 85.0167C138.6 84.7864 138.472 84.5561 138.343 84.3364C138.208 84.5438 138.083 84.76 137.96 84.9762ZM136.419 85.82C136.7 85.7215 136.482 85.2926 136.231 85.3735C135.948 85.4667 136.167 85.8973 136.419 85.82ZM137.073 85.4596C137.064 85.5633 137.048 85.7743 137.039 85.8798C137.167 85.8868 137.424 85.9026 137.552 85.9096C137.544 85.6266 137.326 85.5106 137.073 85.4596ZM138.609 86.0573C138.632 85.885 138.655 85.7128 138.679 85.5423C138.528 85.5247 138.226 85.4878 138.073 85.4702C137.994 85.8569 138.257 86.0151 138.609 86.0573ZM139.099 85.5827C139.112 85.6952 139.136 85.9237 139.148 86.038C139.298 86.0239 139.449 86.0133 139.604 86.0028C139.613 85.8991 139.632 85.6934 139.642 85.5897C139.461 85.5862 139.279 85.5827 139.099 85.5827ZM140.073 85.5581C140.105 85.6688 140.165 85.8868 140.196 85.9975C140.375 85.9975 140.555 85.9975 140.738 86.001C140.753 85.9044 140.785 85.711 140.801 85.6143C140.556 85.5915 140.316 85.5757 140.073 85.5581ZM141.177 85.6108C141.193 85.7198 141.226 85.9413 141.242 86.0503C141.337 86.0485 141.523 86.045 141.618 86.0415C141.646 85.929 141.704 85.7022 141.732 85.5897C141.594 85.595 141.316 85.6055 141.177 85.6108ZM142.228 85.6495C142.235 85.7444 142.249 85.936 142.256 86.0327C142.369 86.0256 142.597 86.0133 142.71 86.0081C142.738 85.878 142.768 85.7497 142.799 85.6214C142.655 85.6284 142.371 85.6424 142.228 85.6495ZM143.311 85.6653C143.311 85.762 143.313 85.9571 143.313 86.0555C143.42 86.0503 143.634 86.0397 143.742 86.0344C143.738 85.9413 143.728 85.7567 143.722 85.6635C143.62 85.6635 143.415 85.6635 143.311 85.6653Z" fill="black"/>
<path d="M41.4968 84.4524C41.6128 84.4559 41.8449 84.4594 41.9609 84.4629C41.9521 84.5543 41.9328 84.7372 41.924 84.8303C41.8326 84.8303 41.6515 84.8321 41.5601 84.8321C41.5443 84.7372 41.5126 84.5473 41.4968 84.4524Z" fill="black"/>
<path d="M42.6025 84.426C42.7045 84.4366 42.9066 84.4559 43.0086 84.4665C42.9629 84.7073 42.9137 84.9446 42.8644 85.1854C44.2303 85.3383 45.6277 85.0026 46.976 85.3067C46.9549 85.1327 46.9355 84.9587 46.9162 84.7864L46.7123 84.8391C46.7387 84.4893 46.9584 84.368 47.2748 84.4014C47.208 84.6053 47.1342 84.8093 47.0551 85.0132C47.0832 85.0835 47.1359 85.2276 47.1623 85.2997C47.3187 85.2751 47.6334 85.2276 47.7898 85.2048C47.7213 84.9464 47.6598 84.6862 47.6 84.4296C48.1994 84.5667 48.8217 84.4419 49.4158 84.5843C49.2945 84.8128 49.1012 84.9938 48.95 85.2012C49.1996 85.2188 49.4492 85.2346 49.7006 85.2522C49.6549 85.0835 49.6215 84.9147 49.5986 84.746C49.6443 84.7091 49.7357 84.6335 49.7814 84.5966C51.585 84.6229 53.3902 84.6897 55.1955 84.7354C55.7562 84.7969 56.5473 84.8075 56.7934 85.4298C57.0307 85.9184 56.6176 86.5038 56.1078 86.5583C54.698 86.7727 53.2812 87.0329 51.8486 86.9678C49.4896 86.8887 47.1271 86.8659 44.7664 86.9169C43.2512 86.9415 41.7518 87.1805 40.24 87.2737C38.6598 87.3229 37.1006 87.6481 35.515 87.6094C33.1543 87.5479 30.7637 87.3651 28.4908 86.6901C28.032 86.6198 27.5152 86.727 27.1215 86.4212C26.6715 86.1716 26.5871 85.486 26.9475 85.1274C27.241 84.8022 27.7016 84.7337 28.1164 84.7442C29.3521 84.7653 30.5914 84.7337 31.8148 84.9376C32.9152 85.0923 34.0877 84.7635 35.1389 85.1643C35.2777 85.1028 35.5537 84.9762 35.6926 84.913C35.7664 84.9938 35.9158 85.1555 35.9914 85.2346C36.1707 85.1538 36.3518 85.0729 36.5328 84.9938C36.8967 85.1415 37.2711 85.1362 37.6437 85.0272C37.9601 85.0659 38.266 85.1872 38.5824 85.2399C38.4998 84.8567 38.5279 84.5456 38.985 84.5983C38.8812 84.7882 38.7793 84.978 38.6773 85.1696C38.9937 85.2557 39.275 85.2171 39.5228 85.0536C39.5018 84.8919 39.4666 84.7319 39.4174 84.5772C39.5545 84.5719 39.8287 84.5632 39.9658 84.5579C39.8727 84.7196 39.7883 84.8866 39.7109 85.0571C39.9166 85.2803 40.342 85.1977 40.6215 85.319C40.6285 85.1344 40.6355 84.9516 40.6461 84.7688L40.3701 84.9112C40.2857 84.3171 40.9695 84.4085 41.0363 84.8303L40.799 84.7934C40.7762 84.8901 40.7322 85.0852 40.7094 85.1819C41.3721 85.2118 42.0383 85.2223 42.6992 85.203C42.7572 85.1169 42.8697 84.9428 42.9277 84.855L42.5551 84.8409C42.5674 84.7372 42.592 84.5298 42.6025 84.426ZM48.0096 85.1942C48.224 85.2768 48.435 85.2716 48.6441 85.1801C48.6283 84.9798 48.6195 84.6827 48.3418 84.7073C48.0553 84.6827 48.0394 84.9903 48.0096 85.1942ZM45.0617 85.66C45.0617 85.7567 45.06 85.9466 45.06 86.0432C45.1619 86.038 45.3641 86.0292 45.466 86.0239C45.4238 85.8481 45.3834 85.6741 45.3412 85.5018C45.2709 85.5423 45.132 85.6214 45.0617 85.66ZM39.9201 85.9993C40.0344 86.0274 40.2664 86.0819 40.3807 86.1083C40.3701 85.9694 40.349 85.6917 40.3367 85.551C40.1943 85.6969 40.0555 85.8481 39.9201 85.9993ZM41.017 85.6583C41.0135 85.762 41.0064 85.9694 41.0029 86.0731C41.1137 86.0731 41.3369 86.0714 41.4476 86.0714C41.4406 85.9694 41.4301 85.762 41.423 85.66C41.3211 85.66 41.1189 85.6583 41.017 85.6583ZM41.9662 85.6917C41.9592 85.7866 41.9469 85.9782 41.9398 86.0749C42.1156 86.0678 42.2914 86.0626 42.4689 86.0573C42.4584 85.9571 42.4355 85.755 42.4232 85.653C42.2703 85.6635 42.1191 85.6776 41.9662 85.6917ZM42.8715 85.9887C43.0033 86.0098 43.2687 86.0538 43.4006 86.0766C43.39 85.9413 43.3689 85.6688 43.3584 85.5317C43.1932 85.6811 43.0297 85.8305 42.8715 85.9887ZM43.9771 85.6548C43.9771 85.755 43.9771 85.9553 43.9771 86.0555C44.0861 86.0555 44.3076 86.052 44.4184 86.0503C44.4236 85.9448 44.4377 85.7356 44.4447 85.6319C44.3269 85.6372 44.0932 85.6495 43.9771 85.6548ZM46.7316 86.0028C46.9232 85.8587 46.9338 85.711 46.7633 85.5598C46.2588 85.4104 46.1551 86.2911 46.7316 86.0028Z" fill="black"/>
<path d="M43.5271 84.4031C43.7292 84.44 43.9332 84.4822 44.1371 84.5261C43.9824 84.723 43.7785 84.8566 43.5359 84.9128C43.5341 84.7863 43.5289 84.5296 43.5271 84.4031Z" fill="black"/>
<path d="M44.5273 84.447C44.6381 84.4453 44.8596 84.44 44.9703 84.4382C44.9615 84.5437 44.9457 84.7511 44.9369 84.8566C44.8402 84.8566 44.6469 84.8566 44.5502 84.8584C44.5449 84.7546 44.5326 84.549 44.5273 84.447Z" fill="black"/>
<path d="M45.5186 84.4225C45.7418 84.4401 45.965 84.4594 46.1883 84.484C46.2727 84.6229 46.357 84.7635 46.4414 84.9059C46.3605 84.8285 46.1953 84.6739 46.1145 84.5965C45.9668 84.6879 45.8156 84.7758 45.6645 84.8602C45.6275 84.7512 45.5555 84.5315 45.5186 84.4225Z" fill="black"/>
<path d="M131.539 93.9428C131.854 93.709 132.226 93.9446 132.555 94.0272C132.963 94.1889 133.43 94.2838 133.749 94.609C133.988 95.0362 133.555 95.6075 133.072 95.5249C132.439 95.4317 131.734 95.2471 131.291 94.7567C131.036 94.4842 131.288 94.1098 131.539 93.9428Z" fill="black"/>
<path d="M80.7258 94.4701C81.1195 94.0552 81.6732 94.3716 81.8385 94.8304C82.5873 96.4933 83.018 98.3056 84.0305 99.8455C85.1924 101.603 86.4439 103.456 88.3582 104.463C90.4518 105.615 92.9812 105.585 95.2488 105.031C97.5762 104.31 99.6697 102.941 101.385 101.222C103.159 99.4078 103.864 96.8607 105.442 94.9043C105.81 94.3875 106.608 94.7144 106.771 95.247C106.708 95.7656 106.371 96.1839 106.112 96.6199C105.038 98.3179 104.321 100.241 103.025 101.797C101.194 103.876 98.8084 105.478 96.1945 106.397C92.9531 107.33 89.1141 107.227 86.3719 105.056C85.0113 104.062 84.0656 102.644 83.1059 101.289C81.8965 99.5449 81.2531 97.5058 80.5746 95.5177C80.4322 95.1609 80.3637 94.7179 80.7258 94.4701Z" fill="black"/>
<path d="M52.4638 94.8551C52.9542 94.6864 53.6275 94.711 53.8366 95.2823C54.0107 95.7604 53.4411 95.9626 53.0861 96.0645C51.5374 96.4829 50.0503 97.0946 48.6247 97.8223C48.3224 97.9577 47.9919 98.1458 47.6491 98.0508C47.1288 97.9366 46.9355 97.0911 47.4575 96.8467C49.0501 96.0206 50.6989 95.2331 52.4638 94.8551Z" fill="black"/>
<path d="M139.424 96.7325C139.998 96.4916 141.186 96.5444 141.126 97.3969C141.024 98.1545 140.103 98.0121 139.569 97.8733C139.036 97.7871 138.888 96.9276 139.424 96.7325Z" fill="black"/>
<path d="M57.6897 100.058C58.2346 99.7348 58.8903 100.327 58.8041 100.897C58.4192 101.674 57.6862 102.187 57.0657 102.764C54.7735 104.829 51.9698 106.175 49.2698 107.615C47.4223 108.631 45.6557 109.79 43.7836 110.762C42.8907 111.264 42.0416 111.855 41.103 112.27C40.9992 112.164 40.7936 111.955 40.6899 111.85C40.7742 112.017 40.8551 112.173 40.943 112.345C39.535 113.258 38.011 114.022 36.3903 114.465C35.7012 114.72 34.7994 114.137 34.9559 113.363C35.093 112.651 35.9033 112.504 36.436 112.185C36.9018 111.904 37.4203 111.725 37.96 111.906C37.8369 111.451 38.1657 111.226 38.5436 111.073C38.5524 111.428 38.4469 111.916 38.8811 112.075C39.0375 111.843 39.0358 111.604 38.8776 111.356L38.6139 111.598C38.6297 111.373 38.6455 111.152 38.6614 110.93L38.6983 111.12C38.9989 110.911 39.31 110.716 39.6246 110.53C39.6229 110.721 39.6194 111.104 39.6176 111.298C39.8496 111.208 40.0623 111.081 40.2539 110.925C40.0992 110.784 39.9446 110.647 39.7881 110.512C40.0746 110.217 40.4121 109.986 40.8287 109.928C40.8955 110.206 40.6951 110.602 40.9588 110.807C41.3912 110.695 41.0907 110.282 41.059 110.006C41.2629 109.689 41.4563 109.325 41.8729 109.266C41.8852 109.61 41.8905 109.955 41.9274 110.301C42.2983 109.913 41.8412 109.222 42.3686 108.956C45.0967 107.258 47.8231 105.532 50.7463 104.184C53.1369 102.938 55.3008 101.303 57.6897 100.058ZM53.5377 103.421C53.5272 103.637 53.5289 103.853 53.5412 104.071C53.6555 103.947 53.7662 103.82 53.8735 103.69C53.7979 103.546 53.6854 103.456 53.5377 103.421ZM52.6131 103.98C52.4198 104.105 52.309 104.658 52.7028 104.537C52.7907 104.395 52.8996 103.729 52.6131 103.98ZM51.1119 104.868C51.1647 105.114 51.3264 105.265 51.5725 105.314C51.583 105.2 51.6006 104.97 51.6094 104.855C51.4846 104.859 51.2367 104.864 51.1119 104.868ZM48.2397 106.393C47.9971 106.654 48.4541 106.937 48.6229 106.654C48.8637 106.39 48.4067 106.109 48.2397 106.393ZM42.9241 110.09C43.0717 110.347 43.2071 110.336 43.3283 110.058C43.1754 109.804 43.0401 109.814 42.9241 110.09ZM37.7983 112.975C38.1094 112.954 38.0532 112.433 37.7614 112.431C37.4502 112.454 37.5065 112.971 37.7983 112.975Z" fill="black"/>
<path d="M125.592 100.13C125.904 99.9528 126.276 100.062 126.601 100.144C128.204 100.679 129.852 101.064 131.442 101.635C133.081 102.161 134.513 103.136 136.06 103.864C138.681 105.219 141.492 106.174 144.041 107.671C145.294 108.434 146.535 109.238 147.92 109.749C148.549 110.055 149.282 110.241 149.773 110.767C150.047 111.336 149.699 112.099 149.063 112.212C148.393 112.312 147.744 112.031 147.119 111.836C144.538 110.846 142.307 109.153 139.769 108.072C137.505 107.218 135.348 106.107 133.23 104.943C131.532 104.105 129.635 103.746 127.972 102.832C127.044 102.387 125.969 102.103 125.299 101.269C125.023 100.9 125.23 100.355 125.592 100.13ZM127.855 102.034C127.985 102.249 128.104 102.236 128.212 101.997C128.076 101.783 127.957 101.795 127.855 102.034ZM129.792 102.519C129.412 102.567 129.613 103.09 129.936 102.994C130.323 102.962 130.124 102.389 129.792 102.519ZM130.781 102.855C130.585 103.112 131.035 103.393 131.219 103.161C131.397 102.906 130.963 102.623 130.781 102.855Z" fill="black"/>
<path d="M10.2587 106.274C11.6983 106.105 13.196 106.276 14.4739 106.996C15.8802 107.749 16.977 108.955 17.8946 110.238C18.2058 110.654 18.3886 111.168 18.7718 111.528C21.2608 111.129 23.9151 111.489 26.0913 112.811C28.6155 114.365 30.4876 116.833 31.6302 119.542C34.1931 125.643 33.6218 132.699 31.1538 138.734C30.0059 141.455 28.3466 144.074 25.9155 145.814C25.2704 146.35 24.2333 145.227 25.0208 144.733C26.9561 143.276 28.3729 141.237 29.3872 139.057C30.6897 136.241 31.544 133.197 31.7392 130.094C32.1188 125.844 31.3226 121.4 29.0268 117.759C27.8825 116.014 26.3268 114.478 24.4161 113.597C22.5616 112.764 20.396 112.569 18.4589 113.21C17.7487 113.381 17.5343 112.562 17.2776 112.09C16.302 110.248 14.7938 108.517 12.7653 107.844C10.4274 107.23 7.93134 108.169 6.15243 109.707C5.67431 110.09 5.3456 110.674 4.76025 110.913C4.13974 111.125 3.60185 110.331 3.9956 109.821C5.53896 107.917 7.80478 106.55 10.2587 106.274Z" fill="black"/>
<path d="M63.1812 108.921C63.6646 108.661 64.2095 109.195 64.0443 109.691C63.5908 110.139 63.0353 110.475 62.6169 110.962C61.3847 112.375 60.3072 113.917 59.0521 115.313C58.5722 115.824 58.0501 116.322 57.4244 116.647C57.0253 116.777 56.781 116.325 56.6667 116.019C56.7652 115.661 57.0376 115.39 57.2978 115.142C58.6302 113.926 59.5953 112.384 60.766 111.027C61.455 110.215 62.1441 109.299 63.1812 108.921Z" fill="black"/>
<path d="M122.741 109.573C122.968 109.422 123.269 109.447 123.472 109.631C125.851 111.59 128.331 113.423 130.692 115.404C131.428 116.024 132.233 116.578 132.887 117.292C133.348 117.812 132.567 118.529 132.01 118.35C129.321 116.035 126.473 113.906 123.727 111.656C123.286 111.294 122.815 110.948 122.478 110.482C122.253 110.173 122.418 109.733 122.741 109.573Z" fill="black"/>
<path d="M165.282 110.951C167.365 109.719 169.917 109.513 172.26 109.946C174.006 110.253 175.583 111.134 177.021 112.138C177.771 112.658 178.536 113.201 179.081 113.95C178.427 114.04 178.594 114.789 178.32 115.218C178.102 115.898 177.265 115.564 176.739 115.606C177.167 115.499 177.595 115.397 178.019 115.274C176.769 113.817 175.282 112.502 173.466 111.807C170.94 110.812 167.891 110.962 165.621 112.521C163.948 113.681 162.645 115.353 161.881 117.236C161.687 117.749 161.288 118.317 160.669 118.264C159.493 118.223 158.288 118.111 157.15 118.487C155.192 118.997 153.559 120.405 152.573 122.147C149.959 126.645 149.836 132.434 152.056 137.111C153.995 141.182 157.217 144.508 160.777 147.208C161.163 147.486 160.944 148.126 160.504 148.212C160.091 148.391 159.659 148.184 159.333 147.929C156.568 145.8 154.044 143.302 152.174 140.338C150.402 137.665 149.251 134.541 149.08 131.324C148.876 128.157 149.444 124.905 150.907 122.073C151.942 120.034 153.571 118.201 155.756 117.388C157.245 116.731 158.892 116.736 160.488 116.694C161.418 114.339 163.102 112.257 165.282 110.951Z" fill="black"/>
<path d="M69.3441 114.685C69.6745 114.253 69.9804 113.76 70.4814 113.509C70.912 113.384 71.3374 113.706 71.4904 114.094C71.5202 114.511 71.2285 114.859 71.0773 115.228C70.4814 116.562 69.5568 117.707 68.88 118.997C67.8851 120.663 66.6968 122.205 65.6931 123.866C64.6208 125.541 63.5855 127.241 62.4148 128.851C61.6923 130.045 60.94 131.219 60.1419 132.362C58.8429 133.958 57.6564 135.638 56.4593 137.308C56.0972 137.804 55.7931 138.43 55.1849 138.66C54.5626 138.853 53.9087 138.113 54.241 137.535C54.6277 136.775 55.0636 136.039 55.38 135.248C55.6314 135.2 55.8863 135.165 56.1429 135.139C56.041 134.884 55.9302 134.633 55.8212 134.385C56.2378 134.23 56.6843 134.293 57.1202 134.288C57.122 134.109 57.129 133.752 57.1308 133.573C56.948 133.687 56.7652 133.803 56.5841 133.921C56.512 133.854 56.3679 133.722 56.2958 133.655C56.3872 133.494 56.4786 133.33 56.5736 133.174C56.672 133.26 56.8689 133.432 56.9673 133.52C57.1818 133.404 57.4015 133.298 57.6247 133.202C57.5773 133.562 57.5193 133.924 57.4964 134.29C57.6564 134.211 58.1011 134.286 57.9886 133.972C57.9306 133.581 57.9622 133.193 58.1029 132.824C57.8234 132.852 57.5456 132.891 57.2697 132.943C57.3575 132.657 57.2327 132.093 57.7302 132.254L57.5509 132.594C57.7495 132.58 57.9482 132.565 58.1486 132.555L58.0308 132.34C58.1732 132.337 58.4579 132.33 58.6003 132.326C58.6074 132.66 58.574 132.994 58.5704 133.332C59.1663 133.128 58.53 132.337 59.1628 132.124C59.0925 132.012 58.9536 131.787 58.8833 131.674C58.7849 131.766 58.5915 131.952 58.4931 132.043C58.2699 131.973 57.9482 131.98 57.9816 131.657C58.1978 131.407 58.6495 131.203 58.857 131.581C59.0152 131.439 59.1927 131.337 59.3931 131.277C59.6374 131.333 59.8853 131.388 60.1366 131.4C60.1331 131.11 60.1279 130.822 60.1068 130.533C60.265 130.375 60.7519 130.242 60.2755 129.952L60.4267 129.871C60.2193 129.874 60.0154 129.881 59.8115 129.892L59.8396 130.161C59.6761 130.054 59.5144 129.945 59.3544 129.834C59.5021 129.753 59.7956 129.589 59.9433 129.509L59.8343 129.751C60.0224 129.751 60.2105 129.751 60.4003 129.753L60.2245 129.523C60.5286 129.495 60.8204 129.544 61.0982 129.669C61.6009 129.342 60.8978 128.624 61.5868 128.454C61.5956 128.044 61.4814 127.415 62.0492 127.345C62.1177 127.503 62.2566 127.816 62.3251 127.974C62.522 127.628 62.6152 127.243 62.6661 126.853C62.4464 126.967 62.2284 127.083 62.0122 127.204C61.8523 127.097 61.6976 126.995 61.5394 126.893C61.4163 126.921 61.1702 126.981 61.0472 127.011C61.0349 126.691 61.3021 126.487 61.5253 126.309L61.5288 126.622C62.065 126.554 62.6011 126.656 63.139 126.65C63.0687 126.366 63.0001 126.088 62.9404 125.803C63.074 125.743 63.3394 125.624 63.473 125.564C63.3728 125.281 63.19 125.13 62.9263 125.105C62.8437 125.169 62.6802 125.293 62.5976 125.357C62.587 125.638 62.6802 125.91 62.7189 126.19C62.4288 126.207 62.1406 126.23 61.8505 126.223C61.68 125.747 62.6011 125.831 62.4376 125.355C62.355 125.2 62.2706 125.049 62.1863 124.901C62.6943 124.931 63.2146 124.882 63.6857 124.675C63.7243 124.94 63.698 125.2 63.6066 125.459C63.6716 125.455 63.8017 125.448 63.8667 125.445C63.9933 125.03 64.1568 124.624 64.2077 124.189C63.9423 124.255 63.6822 124.328 63.4202 124.402C63.4132 124.207 63.3886 124.005 63.4695 123.82C63.7771 123.854 64.0847 123.984 64.3976 123.896C64.3572 123.398 64.2359 122.451 65.0304 122.641C65.2765 123.036 65.0462 123.49 65.0691 123.915C65.4611 123.353 65.3433 122.595 65.3204 121.95C65.0779 122.193 64.8458 122.47 64.4714 122.476C64.5136 122.156 64.5663 121.839 64.6296 121.526C64.8863 121.635 65.1359 121.757 65.3837 121.896C65.4101 121.663 65.4259 121.43 65.44 121.198C65.1851 121.263 64.9302 121.331 64.6771 121.405C64.7193 121.233 64.8036 120.89 64.8476 120.718C64.9935 120.753 65.2853 120.823 65.4329 120.858C65.4294 120.614 65.4365 120.372 65.454 120.129C65.5665 119.872 65.8759 119.823 66.0956 119.689C66.1167 119.405 66.0974 119.094 66.2995 118.865C67.2945 117.457 68.2964 116.054 69.3441 114.685ZM66.8357 118.737C66.5544 118.909 66.8603 119.331 67.1187 119.134C67.3982 118.965 67.0888 118.529 66.8357 118.737ZM66.7214 119.663C66.8128 119.853 66.9077 120.057 67.0027 120.25C67.0396 120.103 67.1117 119.807 67.1486 119.66C67.0062 119.66 66.8638 119.66 66.7214 119.663ZM65.8355 120.317C65.8408 120.408 65.8495 120.588 65.8548 120.679C66.0201 120.85 66.4226 120.714 66.3136 120.445C66.1923 120.243 66.0324 120.199 65.8355 120.317ZM59.4564 131.873C59.4687 131.992 59.4915 132.231 59.5038 132.351C59.6708 132.203 59.8361 132.056 59.9978 131.903C59.8624 131.896 59.5917 131.88 59.4564 131.873ZM56.607 134.694C56.6122 134.88 56.6193 135.069 56.6281 135.26C56.7511 135.265 56.9937 135.28 57.1167 135.287C57.1255 135.088 57.1326 134.891 57.1413 134.698C57.0077 134.696 56.7406 134.694 56.607 134.694ZM55.7808 135.587C55.6806 135.902 55.7808 135.997 56.0849 135.868C56.1183 135.577 56.0163 135.483 55.7808 135.587ZM56.2132 135.703C56.1429 136.027 56.4663 136.201 56.6281 136.433C56.6843 136.141 56.7318 135.851 56.7669 135.559C56.5384 135.508 56.3538 135.557 56.2132 135.703Z" fill="black"/>
<path d="M119.225 114.847C119.626 114.685 119.96 115.079 120.234 115.316C121.59 116.715 123.043 118.013 124.455 119.354C124.838 119.737 125.281 120.087 125.533 120.577C125.582 120.922 125.271 121.206 124.982 121.331C124.569 121.449 124.269 121.09 123.994 120.851C122.792 119.653 121.481 118.57 120.307 117.345C119.76 116.761 119.051 116.269 118.772 115.49C118.823 115.226 118.969 114.959 119.225 114.847Z" fill="black"/>
<path d="M110.241 119.572C110.624 119.348 110.995 119.681 111.233 119.958C112.952 122.18 113.991 124.838 115.666 127.09C116.647 128.563 117.408 130.166 118.269 131.708C118.833 133.153 119.839 134.353 120.586 135.701C120.727 135.949 120.894 136.187 121.064 136.422C121.064 136.549 121.068 136.802 121.068 136.93C121.419 137.129 121.695 137.421 121.92 137.756C121.906 137.862 121.88 138.074 121.866 138.182C122.186 138.273 122.344 138.549 122.479 138.83C122.36 138.871 122.124 138.952 122.004 138.992C122.133 139.069 122.261 139.143 122.391 139.224L122.505 138.829C122.894 139.136 123.179 139.551 123.253 140.05C123.834 140.532 124.246 141.318 123.994 142.079C123.861 142.65 123.128 142.88 122.641 142.622C122.272 142.458 122.14 142.047 121.938 141.736C121.319 140.771 120.681 139.82 120.041 138.871C118.041 136.359 116.603 133.467 115.117 130.635C114.091 128.661 112.672 126.921 111.679 124.928C110.957 123.523 110.273 122.089 109.768 120.591C109.582 120.175 109.818 119.702 110.241 119.572ZM118.826 134.951C119.141 134.949 119.118 134.431 118.823 134.415C118.512 134.411 118.531 134.937 118.826 134.951ZM119.834 135.991C120.076 136.234 120.496 135.831 120.18 135.614C119.932 135.341 119.587 135.77 119.834 135.991ZM119.798 136.689C119.791 136.872 120.087 137.222 120.173 136.939C120.379 136.626 119.997 136.382 119.798 136.689ZM120.781 137.595C120.929 137.849 121.164 137.997 121.461 138.043C121.414 137.849 121.365 137.658 121.315 137.468C121.182 137.5 120.915 137.563 120.781 137.595ZM120.125 137.804C119.955 138.009 120.24 138.421 120.482 138.238C120.665 138.032 120.363 137.591 120.125 137.804ZM121.027 138.772C121.068 138.99 121.171 139.196 121.426 139.217C121.509 139.048 121.519 138.86 121.447 138.688C121.342 138.709 121.131 138.751 121.027 138.772ZM122.228 139.511C122.273 139.772 122.252 140.259 122.665 140.047C122.644 139.78 122.449 139.62 122.228 139.511ZM121.493 139.748C121.398 140.022 121.498 140.124 121.792 140.057C121.883 139.78 121.785 139.678 121.493 139.748ZM122.145 141.599C122.259 141.59 122.491 141.573 122.607 141.564C122.521 141.398 122.435 141.237 122.353 141.079C122.28 141.249 122.21 141.421 122.145 141.599Z" fill="black"/>
<path d="M78.6306 119.962C79.0191 119.862 79.6132 120.227 79.3601 120.67C78.9031 121.82 78.3494 122.929 77.8343 124.054C77.1804 125.569 76.6214 127.127 76.1539 128.711C76.0361 129.025 75.9781 129.414 75.6828 129.623C75.3031 129.906 74.7177 129.465 74.8214 129.031C75.5369 126.517 76.3666 124.019 77.5777 121.695C77.9099 121.115 78.0629 120.365 78.6306 119.962Z" fill="black"/>
<path d="M83.8793 121.672C84.0182 121.08 84.7512 121.351 84.9709 121.741C84.2643 125.077 83.0567 128.276 81.9246 131.484C81.1916 133.557 80.8067 135.724 80.2231 137.835C80.0596 138.466 79.0366 138.308 79.1016 137.674C79.687 135.13 80.1897 132.555 81.1038 130.101C82.1567 127.336 83.0373 124.508 83.8793 121.672Z" fill="black"/>
<path d="M132.588 121.808C132.792 121.467 133.126 121.02 133.585 121.226C134.302 121.623 134.886 122.212 135.538 122.702C136.076 123.154 136.688 123.537 137.127 124.096C137.458 124.527 136.86 125.211 136.394 125.033C135.875 124.743 135.469 124.297 134.99 123.954C134.183 123.247 133.191 122.718 132.588 121.808Z" fill="black"/>
<path d="M63.6611 122.224C63.9107 122.08 64.0619 122.196 64.0971 122.455C63.974 122.555 63.8369 122.629 63.6875 122.681C63.6805 122.567 63.6664 122.339 63.6611 122.224Z" fill="black"/>
<path d="M63.4465 123.321C63.5907 123.124 63.7454 122.936 63.9247 122.774C63.9528 122.936 64.009 123.261 64.0372 123.423C63.8895 123.398 63.5942 123.346 63.4465 123.321Z" fill="black"/>
<path d="M103.769 123.122C104.128 122.829 104.641 123.144 104.813 123.506C105.539 125.204 106.385 126.851 107.193 128.512C108.185 130.521 109.373 132.42 110.47 134.371C110.895 135.012 109.635 135.742 109.278 135.076C107.747 132.571 106.239 130.041 105.019 127.366C104.478 126.185 103.804 125.045 103.514 123.768C103.411 123.516 103.607 123.286 103.769 123.122Z" fill="black"/>
<path d="M91.6595 123.936C91.7034 123.075 93.02 123.08 93.2819 123.806C95.2366 127.651 94.8991 132.086 95.5425 136.236C95.8976 137.728 95.8976 139.273 95.8255 140.799C95.7253 140.806 95.5231 140.818 95.4212 140.824C96.0575 140.847 95.8747 141.456 95.7271 141.855C95.8501 142.038 95.9696 142.226 96.0839 142.42C95.9679 142.434 95.7358 142.464 95.6198 142.478C95.6145 142.588 95.604 142.808 95.5987 142.917C95.7306 142.931 95.9907 142.958 96.1226 142.97C96.0839 143.116 96.0487 143.263 96.0118 143.413C95.9011 143.376 95.6761 143.302 95.5653 143.265C95.5601 143.511 95.5601 143.759 95.5636 144.011C95.7587 143.891 95.9538 143.771 96.1489 143.654C96.228 145.218 96.548 146.765 96.4425 148.34C102.669 148.315 108.897 148.147 115.123 148.337C118.524 148.53 121.933 148.458 125.337 148.489C135.123 148.351 144.912 148.377 154.698 148.5C159.209 148.514 163.723 148.685 168.23 148.449C172.151 148.243 176.077 148.417 180 148.38V149.803C177.892 149.862 175.787 149.774 173.679 149.785C170.04 149.753 166.409 150.012 162.77 149.982C158.196 150.01 153.624 149.875 149.05 149.868C143.606 149.799 138.162 149.839 132.718 149.85C127.623 149.913 122.525 149.961 117.431 149.871C114.268 149.704 111.103 149.716 107.937 149.72C104.077 149.72 100.216 149.732 96.3581 149.81C96.0979 150.179 95.7921 150.625 95.277 150.576C94.7673 150.622 94.4685 150.159 94.2382 149.785C87.0241 149.971 79.8065 149.948 72.5942 150.159C64.3958 150.413 56.1921 150.1 47.9919 150.121C37.9688 150.061 27.9458 150.161 17.9228 150.2C13.2101 150.175 8.49736 150.323 3.78467 150.242C3.84092 149.783 3.89717 149.326 3.92705 148.867C10.3325 148.838 16.738 148.764 23.1435 148.776C22.7989 146.674 22.704 144.533 22.8341 142.407C21.9183 141.63 21.3821 140.52 20.904 139.442C20.0901 137.399 19.503 135.251 19.3483 133.054C19.3466 132.39 20.3468 132.226 20.6228 132.801C20.853 133.564 20.839 134.376 21.0429 135.146C21.4841 136.971 22.022 138.806 22.9677 140.44C23.2384 139.279 23.3614 138.088 23.5987 136.921C23.9433 135.258 24.2632 133.59 24.5743 131.92C24.6306 131.621 24.8204 131.347 25.1228 131.265C25.4778 131.316 25.9419 131.569 25.8716 131.992C25.1755 136.317 23.9327 140.6 24.0259 145.016C24.0048 146.264 24.2456 147.493 24.3194 148.736C29.4364 148.774 34.5552 148.671 39.6739 148.704C39.7319 147.589 39.5491 146.378 40.0501 145.346C40.3876 144.788 41.0731 145.194 41.3755 145.577C41.9679 144.622 42.6341 143.699 43.4128 142.891C43.7397 142.511 44.406 142.789 44.4411 143.267C44.5712 144.169 44.5448 145.092 44.7769 145.981C45.7401 143.958 46.714 141.929 47.9233 140.04C48.1606 139.584 48.746 139.444 49.1222 139.829C49.2786 140.432 49.1731 141.068 49.1837 141.687C49.1503 144.032 48.971 146.373 49.0185 148.718C56.4681 148.704 63.9177 148.904 71.3673 148.776C78.9944 148.463 86.6304 148.605 94.2593 148.337C94.0905 146.055 93.5755 143.805 93.6388 141.507C93.579 140.288 93.7636 139.05 93.4999 137.849C93.1782 135.561 92.9181 133.262 92.8003 130.952C92.6649 129.705 92.4645 128.468 92.2062 127.243C92.1481 126.12 91.7017 125.058 91.6595 123.936ZM94.8481 142.534C94.5405 142.502 94.6354 142.905 94.8868 142.87C95.1962 143.058 95.1171 142.281 94.8481 142.534ZM94.6108 143.501C94.3261 143.782 94.7989 143.96 95.0204 143.88C95.0151 143.592 94.9712 143.258 94.6108 143.501ZM46.4591 145.805C46.0196 146.739 45.5925 147.683 45.3464 148.69C46.1146 148.709 46.8827 148.699 47.6526 148.699C47.5067 146.936 47.7054 145.171 47.6685 143.408C47.1675 144.155 46.8458 144.997 46.4591 145.805ZM94.9308 144.918C94.8833 144.731 95.1294 144.308 94.7673 144.346C94.2944 144.346 94.6513 144.891 94.9308 144.918ZM95.4686 144.889C95.6901 144.821 95.9099 144.751 96.1313 144.679C96.0417 144.591 95.8659 144.413 95.7763 144.325C95.43 144.264 95.5548 144.693 95.4686 144.889ZM41.3579 148.716C42.1296 148.692 42.903 148.686 43.6747 148.692C43.4778 147.484 43.3513 146.268 43.2247 145.051C42.381 146.141 41.8079 147.422 41.3579 148.716ZM95.5565 145.248C95.5214 145.39 95.4493 145.677 95.4142 145.819C95.539 145.76 95.785 145.64 95.9099 145.58C95.8378 145.424 95.7095 145.313 95.5565 145.248ZM94.6759 145.394C94.4632 145.624 94.8393 146.004 95.031 145.71C95.2436 145.475 94.8657 145.093 94.6759 145.394ZM95.2366 146.675C95.2419 146.911 95.5899 146.763 95.7464 146.816C95.7218 146.684 95.6708 146.422 95.6462 146.29C95.4933 146.384 95.1311 146.419 95.2366 146.675Z" fill="black"/>
<path d="M62.8383 123.63C62.8963 123.822 62.942 124.017 62.9859 124.212C62.7926 124.276 62.5975 124.339 62.4023 124.402C62.5412 124.14 62.6836 123.88 62.8383 123.63Z" fill="black"/>
<path d="M130.672 125.592C131.033 125.165 131.546 125.571 131.84 125.865C132.356 126.399 133.038 126.759 133.499 127.35C133.959 127.951 132.986 128.682 132.481 128.192C131.94 127.679 131.4 127.165 130.834 126.679C130.507 126.429 130.303 125.896 130.672 125.592Z" fill="black"/>
<path d="M161.828 127.971C161.798 127.71 161.838 127.426 162.063 127.26C162.39 127.079 162.839 127.28 162.956 127.628C163.283 130.024 163.398 132.446 163.802 134.831C163.883 135.325 163.944 135.833 164.15 136.299C164.34 136.412 164.542 136.176 164.741 136.146C164.994 135.972 165.289 136.185 165.349 136.448C165.704 137.742 165.076 139.062 165.373 140.36C165.467 140.876 165.577 141.39 165.75 141.889C166.664 140.388 166.79 138.595 167.068 136.904C167.446 134.415 167.381 131.892 167.432 129.386C167.495 128.737 168.49 128.73 168.594 129.364C168.747 131.534 168.675 133.722 168.49 135.888C168.23 138.138 167.975 140.453 166.934 142.499C166.639 143.121 166.113 143.606 165.899 144.271C166.5 144.049 166.922 143.548 167.318 143.07C168.175 142.005 168.812 140.729 168.973 139.359C168.993 139.066 169.172 138.783 169.459 138.688C170.068 138.688 170.32 139.396 170.211 139.91C169.845 142.311 168.284 144.396 166.309 145.744C166.293 146.507 166.657 147.271 166.505 148.022C166.164 148.136 165.479 148.33 165.417 147.818C165.256 147.25 165.317 146.649 165.229 146.072C164.291 145.434 163.654 144.482 162.974 143.596C162.322 142.632 161.696 141.599 161.464 140.447C161.29 139.883 162.037 139.189 162.526 139.66C163.391 140.497 163.689 141.745 164.516 142.618C164.456 141.5 164.064 140.444 163.633 139.426C162.313 135.754 162.186 131.815 161.828 127.971Z" fill="black"/>
<path d="M60.599 127.614C60.8152 127.575 61.0349 127.54 61.2529 127.506C61.223 127.673 61.1615 128.004 61.1316 128.171C61.005 128.16 60.7501 128.141 60.6236 128.13C60.5673 127.963 60.599 127.781 60.599 127.614Z" fill="black"/>
<path d="M59.7533 129.273C59.5547 128.962 59.6953 128.621 60.0469 128.535C60.2385 128.846 59.9942 129.096 59.7533 129.273Z" fill="black"/>
<path d="M60.49 128.598C60.7502 128.528 60.9664 128.589 61.1404 128.784C61.0666 128.902 60.9172 129.134 60.8416 129.252C60.4812 129.431 60.2246 128.844 60.49 128.598Z" fill="black"/>
<path d="M58.7215 130.187C58.4437 130.152 58.5703 129.691 58.8041 129.679C59.1117 129.704 58.9693 130.177 58.7215 130.187Z" fill="black"/>
<path d="M58.625 130.57C59.1172 130.57 59.5865 130.229 60.0752 130.442C59.866 130.658 59.7764 131.082 59.402 131.024C59.3193 130.927 59.1506 130.734 59.0662 130.637C58.966 130.734 58.7691 130.925 58.6707 131.02C58.6496 130.869 58.6338 130.72 58.625 130.57Z" fill="black"/>
<path d="M71.8508 138.639C72.1496 138.35 72.7596 138.597 72.7367 139.02C72.6822 140.221 72.35 141.384 72.1988 142.574C72.1707 142.996 71.8719 143.313 71.5555 143.561C71.3674 143.362 71.0053 143.246 71 142.93C71.1529 141.859 71.3885 140.803 71.5643 139.737C71.6346 139.366 71.5924 138.945 71.8508 138.639Z" fill="black"/>
<path d="M127.695 155.635C128.015 155.482 128.552 155.48 128.617 155.925C128.682 156.683 128.635 157.447 128.712 158.207C128.818 158.629 128.429 159.161 127.971 159.013C127.716 158.922 127.61 158.644 127.638 158.395C127.642 157.475 127.601 156.551 127.695 155.635Z" fill="black"/>
<path d="M53.9667 156.085C54.3006 155.9 54.6979 156.096 54.7805 156.459C55.1831 157.704 55.5997 158.947 56.0022 160.193C56.2254 160.59 55.8 161.132 55.3641 160.984C55.0582 160.924 54.9616 160.587 54.8754 160.334C54.5116 159.161 54.1249 157.994 53.8049 156.811C53.6836 156.542 53.7592 156.277 53.9667 156.085Z" fill="black"/>
<path d="M123.112 156.18C123.471 155.967 123.766 156.354 123.871 156.658C124.126 157.354 124.446 158.026 124.675 158.732C124.812 159.059 124.464 159.504 124.105 159.416C123.766 159.397 123.678 159.01 123.551 158.764C123.286 158.043 122.963 157.338 122.781 156.591C122.859 156.426 122.97 156.289 123.112 156.18Z" fill="black"/>
<path d="M134.722 156.363C135.07 156.178 135.67 156.553 135.471 156.978C135.162 157.88 134.928 158.817 134.527 159.683C134.328 160.153 133.523 159.936 133.56 159.439C133.69 158.732 134.009 158.08 134.214 157.395C134.357 157.045 134.427 156.621 134.722 156.363Z" fill="black"/>
<path d="M64.5733 156.517C64.8476 156.162 65.5683 156.558 65.4452 156.971C65.2448 157.693 65.1323 158.474 64.7351 159.122C64.4011 159.681 63.5239 159.082 63.8544 158.558C64.1093 157.883 64.1989 157.138 64.5733 156.517Z" fill="black"/>
<path d="M114.116 178.128C113.862 178.661 114.697 178.135 114.116 178.128V178.128Z" fill="black"/>
<path d="M114.124 178.654C113.868 179.177 114.708 178.657 114.124 178.654V178.654Z" fill="black"/>
<path d="M89.2161 56.0514C90.9844 55.8299 92.7792 55.6102 94.5563 55.8686C98.4165 56.243 102.219 57.2889 105.704 59.001C108.73 60.5039 111.428 62.5904 113.883 64.8949C115.388 66.31 116.459 68.0942 117.512 69.852C119.57 73.7244 121.069 77.9326 121.614 82.2955C123.061 93.0059 118.097 104.244 109.331 110.529C105.411 113.291 100.825 115.167 96.0575 115.773C94.4596 116.053 92.8249 115.949 91.2112 115.907C88.9805 115.68 86.7235 115.471 84.5842 114.755C78.4161 112.783 72.7735 108.904 69.0944 103.533C67.0377 100.607 65.5647 97.2932 64.5891 93.8602C64.1303 92.0707 63.654 90.2725 63.5327 88.4215C63.2743 85.8551 63.3622 83.2606 63.7032 80.7065C64.5083 75.5983 66.644 70.7256 69.7659 66.6106C71.9122 64.0037 74.5752 61.8557 77.4317 60.0733C81.0317 57.9498 85.0835 56.6279 89.2161 56.0514ZM93.2098 57.0059C93.3188 57.085 93.3188 57.085 93.2098 57.0059V57.0059ZM83.8829 58.5774C83.9743 58.674 83.9743 58.674 83.8829 58.5774V58.5774ZM84.9393 59.2787C85.029 59.3789 85.029 59.3789 84.9393 59.2787V59.2787ZM80.7294 59.451C80.8295 59.5442 80.8295 59.5442 80.7294 59.451V59.451ZM82.779 60.017C82.684 60.3035 82.779 60.3932 83.0672 60.2895C83.1622 60.0029 83.0655 59.9115 82.779 60.017ZM86.5284 61.3776C86.611 61.4901 86.611 61.4901 86.5284 61.3776V61.3776ZM77.219 62.6203C77.3069 62.724 77.3069 62.724 77.219 62.6203V62.6203ZM78.2614 62.615C78.3598 62.7152 78.3598 62.7152 78.2614 62.615V62.615ZM79.3266 62.608C79.3653 63.1969 79.8311 62.318 79.3266 62.608V62.608ZM80.5852 62.6309C80.7012 62.7047 80.7012 62.7047 80.5852 62.6309V62.6309ZM81.4167 62.6274C81.5327 62.7012 81.5327 62.7012 81.4167 62.6274V62.6274ZM83.7124 62.6274C83.8249 62.7082 83.8249 62.7082 83.7124 62.6274V62.6274ZM84.5965 64.7297C84.6932 64.8281 84.6932 64.8281 84.5965 64.7297V64.7297ZM77.0186 83.707C76.5774 83.8723 76.5387 84.4277 76.6354 84.8233C76.8815 86.2172 77.734 87.5373 79.0295 88.1613C80.4006 88.7977 82.1901 88.3529 83.0866 87.1277C83.6807 86.3315 84.1254 85.3699 84.1764 84.368C84.3047 83.7 83.1446 83.417 83.0251 84.1043C82.7403 85.0131 82.4239 85.9693 81.6751 86.6092C80.9544 87.365 79.6799 87.1119 78.9856 86.4457C78.3211 85.8727 78.1102 84.992 77.8624 84.1904C77.7727 83.8354 77.3913 83.4627 77.0186 83.707ZM101.494 83.7404C101.254 83.8565 101.074 84.0955 101.041 84.3627C101.173 85.7303 102.004 87.0715 103.284 87.6322C105.251 88.5498 108.044 87.4319 108.545 85.2451C108.738 84.7178 108.056 84.1781 107.606 84.5402C107.286 84.9006 107.162 85.3893 106.854 85.7584C105.979 86.567 104.527 86.9608 103.505 86.182C102.727 85.7127 102.484 84.8039 102.171 84.0147C102.083 83.7264 101.755 83.6104 101.494 83.7404ZM80.7258 94.4701C80.3637 94.718 80.4323 95.161 80.5747 95.5178C81.2532 97.5059 81.8965 99.5449 83.1059 101.289C84.0657 102.644 85.0114 104.063 86.3719 105.056C89.1141 107.227 92.9532 107.33 96.1946 106.397C98.8084 105.478 101.194 103.876 103.025 101.797C104.321 100.241 105.038 98.318 106.112 96.6199C106.371 96.184 106.708 95.7656 106.771 95.2471C106.608 94.7145 105.81 94.3875 105.442 94.9043C103.864 96.8608 103.159 99.4078 101.385 101.222C99.6698 102.941 97.5762 104.31 95.2489 105.031C92.9813 105.585 90.4518 105.615 88.3583 104.463C86.444 103.456 85.1924 101.603 84.0305 99.8455C83.018 98.3057 82.5874 96.4934 81.8385 94.8305C81.6733 94.3717 81.1196 94.0553 80.7258 94.4701Z" fill="black"/>
<path d="M136.419 85.82C136.167 85.8973 135.948 85.4667 136.231 85.3735C136.482 85.2926 136.7 85.7215 136.419 85.82Z" fill="black"/>
</g>
<defs>
<clipPath id="clip0_58_2319">
<rect width="180" height="180" fill="white"/>
</clipPath>
</defs>
</svg>
