<svg width="180" height="180" viewBox="0 0 180 180" fill="none" xmlns="http://www.w3.org/2000/svg">
<g clip-path="url(#clip0_58_1922)">
<path d="M35.0454 41.2189C35.7116 40.834 36.6749 41.2259 36.7839 42.0134C37.0195 42.9011 35.9788 43.6658 35.1755 43.3265C34.2527 43.0664 34.1788 41.6056 35.0454 41.2189Z" fill="black"/>
<path d="M42.7466 50.3033C43.5517 49.8586 44.594 50.6215 44.4604 51.5127C44.4007 52.2756 43.4813 52.7537 42.8028 52.439C41.8852 52.1472 41.8501 50.6514 42.7466 50.3033Z" fill="black"/>
<path d="M155.958 52.7766C156.85 52.4039 157.841 53.4111 157.465 54.2936C157.201 55.0811 156.062 55.3149 155.487 54.74C154.909 54.1635 155.13 52.9893 155.958 52.7766Z" fill="black"/>
<path d="M35.2319 56.3308C36.037 56.0021 36.9475 56.8142 36.7963 57.6474C36.7032 58.5474 35.4428 58.92 34.8082 58.3312C34.135 57.7862 34.4004 56.5663 35.2319 56.3308Z" fill="black"/>
<path d="M144.541 60.1822C145.294 59.8623 146.232 60.5215 146.141 61.3459C146.139 62.3391 144.749 62.7697 144.09 62.1088C143.502 61.5445 143.735 60.4072 144.541 60.1822Z" fill="black"/>
<path d="M155.781 60.6989C156.5 60.321 157.495 60.8536 157.493 61.6886C157.63 62.7011 156.211 63.3181 155.51 62.636C154.891 62.128 155.041 61.0153 155.781 60.6989Z" fill="black"/>
<path d="M29.7686 64.7243C30.034 64.6874 30.3012 64.719 30.5666 64.7454C34.1525 65.0917 37.7596 65.046 41.3525 64.8439C46.6418 64.5028 51.9504 64.9792 57.1623 65.8898C61.5727 66.6228 66.0129 67.4454 70.5041 67.3065C72.7348 67.2608 74.9461 66.8671 77.1803 66.8706C77.9941 66.8372 78.8063 66.9392 79.6184 66.9251C80.0279 66.7757 80.1633 66.1394 80.6713 66.1692C90.7576 66.338 100.847 66.4769 110.936 66.6667C111.125 66.672 111.313 66.6983 111.5 66.7458C111.647 67.1062 111.684 67.4981 111.79 67.8708C113.63 67.8128 115.444 67.4226 117.281 67.2784C120.313 66.9743 123.356 67.2978 126.383 67.4911C128.475 67.623 130.533 68.0554 132.618 68.2558C134.701 68.4896 136.8 68.4896 138.888 68.6636C140.875 68.8042 142.84 69.1435 144.817 69.3667C149.026 69.8835 153.274 69.6567 157.502 69.7903C158.991 69.8607 160.513 69.9362 161.938 70.4144C162.42 70.555 162.823 70.8591 163.171 71.2124C162.854 71.5341 162.504 71.8171 162.132 72.0685C162.775 72.1511 163.503 72.1247 164.041 72.5536C164.463 72.8753 164.7 73.5116 164.363 73.9792C163.775 74.9601 162.97 75.8003 162.123 76.5632C162.538 76.637 163.109 76.5737 163.338 77.0132C163.517 77.247 163.31 77.537 163.218 77.7638C162.823 78.4107 162.35 79.0083 161.872 79.5937C162.248 79.845 162.946 80.0946 162.765 80.673C162.492 81.3638 161.988 81.9263 161.585 82.5398C162.274 82.3358 163.032 82.1372 163.738 82.3833C164.097 82.5362 164.538 82.8773 164.401 83.3202C163.971 83.9108 163.35 84.3239 162.768 84.7511C163.146 84.9163 163.772 85.02 163.524 85.586C163.009 87.3333 162.197 88.9997 161.184 90.5132C159.887 92.4749 157.973 93.8847 156.333 95.5353C164.222 95.5827 172.111 95.5001 180 95.5247V96.4564C172.09 96.4669 164.18 96.4898 156.271 96.4687C155.988 96.5161 155.598 96.3931 155.421 96.6796C154.454 97.9804 153.585 99.355 152.826 100.788C152.394 101.584 152.042 102.422 151.571 103.199C155.728 103.612 159.906 104.029 163.99 104.945C164.849 105.219 166.071 105.347 166.384 106.353C166.152 106.782 165.788 107.116 165.447 107.453C163.241 109.577 161.07 111.735 158.885 113.88C157.695 115.1 155.92 115.307 154.339 115.673C148.598 116.731 142.755 117.044 136.937 117.369C129.85 117.707 122.755 117.849 115.662 117.916C96.4441 118.058 77.2225 118.012 58.0131 117.45C49.9201 117.153 41.8184 116.868 33.757 116.075C31.5053 115.826 29.2377 115.602 27.0422 115.026C26.1422 114.767 25.1244 114.354 24.7395 113.428C24.4529 112.593 25.1139 111.827 25.6939 111.31C27.2812 109.995 28.9723 108.812 30.5666 107.506C26.8611 107.16 23.0871 106.991 19.5205 105.831C18.9387 105.646 18.1775 105.149 18.4535 104.433C18.7629 103.987 19.3693 103.98 19.8439 103.853C19.3025 103.69 18.6697 103.315 18.7875 102.651C18.9387 102.032 19.6682 101.993 20.1744 101.879C19.6488 101.652 19.0055 101.535 18.6645 101.034C18.4113 100.536 18.6574 99.9509 19.1602 99.7435C18.791 99.4675 18.3059 99.1546 18.3832 98.6185C18.3656 98.1052 18.907 97.9452 19.2639 97.7396C18.6943 97.5497 18.1494 97.2527 18.0334 96.6075C12.0234 96.5355 6.01172 96.6321 0 96.6128V95.6706C5.80078 95.6478 11.5998 95.6583 17.4006 95.6495C18.3375 95.6618 19.2902 95.588 20.1779 95.2681C19.6137 95.1064 18.9984 95.0237 18.5256 94.6476C18.174 94.3874 18.1617 93.8161 18.4553 93.5103C18.8191 93.0392 19.4555 92.9952 19.9863 92.8528C19.4748 92.6718 18.9176 92.5874 18.4623 92.278C18.1037 91.9968 17.8629 91.3921 18.2549 91.037C18.9387 90.4007 19.8879 90.1757 20.6367 89.6308C19.9775 89.3495 19.0406 89.2124 18.8385 88.395C18.6838 87.931 19.2445 87.7411 19.5223 87.5091C19.0758 87.2419 18.3445 87.1294 18.2971 86.4931C18.3586 85.7495 19.2357 85.6511 19.7771 85.3821C19.2059 85.2415 18.5836 85.2485 18.065 84.9462C17.71 84.7458 17.5078 84.3081 17.6186 83.9091C18.116 83.4151 18.8596 83.3062 19.4467 82.9493C18.6961 82.6927 17.8699 82.6962 17.1475 82.3569C16.6992 82.1495 16.4127 81.3954 16.9805 81.1546C18.2092 80.5042 19.3201 79.6482 20.2764 78.6392C22.1432 76.6985 23.523 74.3677 25.0295 72.1528C26.4516 70.0329 27.9492 67.9534 29.1375 65.6894C29.3238 65.3536 29.4926 64.9968 29.7686 64.7243ZM25.8961 72.297C24.2279 74.7122 22.7566 77.298 20.6648 79.3862C19.7279 80.3337 18.6258 81.1071 17.427 81.689C18.2197 81.9175 19.0354 82.1073 19.8668 82.0634C22.6635 81.986 25.4672 81.9843 28.2551 82.2374C32.349 82.5345 36.3656 83.4345 40.442 83.8599C43.5428 84.2044 46.6559 83.8546 49.7566 83.7069C53.2652 83.4591 56.7879 83.5892 60.2877 83.888C63.6434 84.1974 67.0148 84.048 70.3758 83.9407C70.3951 83.3853 70.4285 82.8298 70.4672 82.2743C67.623 81.914 64.749 81.9614 61.8908 81.8085C56.3853 81.587 50.8711 81.4675 45.3639 81.6837C43.0787 81.7417 40.7812 82.0124 38.5049 81.6819C36.2549 81.3515 34.0559 80.7239 31.7936 80.4603C30.0604 80.2493 28.3166 80.1474 26.5729 80.0753C27.3639 79.1525 28.2375 78.3017 28.9934 77.3454C30.3873 75.5929 31.5668 73.6839 32.7779 71.803C33.5285 70.5691 34.3248 69.3597 34.9734 68.0677C40.8182 67.9253 46.7139 67.3171 52.527 68.2312C54.225 68.5159 55.9125 68.9167 57.6404 68.9888C61.6852 69.2278 65.7404 69.1751 69.7904 69.2296C72.6486 69.2243 75.5068 69.3737 78.365 69.3263C78.6779 68.7901 78.9873 68.2505 79.3617 67.753C77.2857 67.5632 75.201 67.7565 73.132 67.9482C68.9678 68.3999 64.7631 68.0079 60.6463 67.3259C56.5506 66.7335 52.4848 65.8423 48.3363 65.6876C45.174 65.4644 42.0064 65.6595 38.8424 65.7421C35.9139 65.8458 32.9854 65.6894 30.0674 65.4362C28.9213 67.8638 27.4043 70.0857 25.8961 72.297ZM71.4955 82.4044C77.6391 82.995 83.8195 83.4292 89.993 83.1321C94.0342 82.9757 98.0824 82.5767 102.127 82.8263C105.021 77.7163 107.887 72.5905 110.795 67.4876C100.811 67.2608 90.8244 67.1501 80.8383 66.9954C77.7287 72.1353 74.591 77.2558 71.4955 82.4044ZM111.118 68.588C110.844 69.1417 110.547 69.6849 110.206 70.2017C114.258 70.4513 118.311 70.7167 122.344 71.186C126.077 71.6079 129.851 71.738 133.601 71.4251C135.587 71.2546 137.596 71.2933 139.565 71.636C143.225 72.2952 146.925 72.8296 150.652 72.8718C151.084 72.8876 151.529 72.8612 151.956 72.9685C150.551 74.5769 148.976 76.071 147.909 77.9413C147.085 79.3792 146.73 81.021 146.503 82.6452C143.023 82.6769 139.539 82.7401 136.067 82.9915C134.186 83.0935 132.309 83.3378 130.423 83.2534C128.413 83.1726 126.436 82.7577 124.472 82.3675C122.945 82.3587 121.416 82.3235 119.895 82.1671C116.263 81.8542 112.625 82.2339 108.99 82.1144C107.221 82.0616 105.446 81.9843 103.679 82.0915C103.279 82.4519 103.104 83.0108 102.843 83.4749C103.72 83.6278 104.613 83.6261 105.495 83.7228C108.12 84.0181 110.718 84.6087 113.37 84.5823C117.888 84.6685 122.421 83.9319 126.925 84.5525C128.595 84.7493 130.173 85.3839 131.841 85.5948C134.594 85.9235 137.361 85.5685 140.112 85.4103C143.759 85.1097 147.44 85.0499 151.082 85.4595C152.682 82.1478 155.057 79.3107 157.273 76.4067C158.695 74.5189 160.247 72.6925 162.156 71.2774C160.945 70.8327 159.65 70.7237 158.375 70.6499C154.397 70.49 150.411 70.7044 146.44 70.3898C144.601 70.2351 142.778 69.9503 140.947 69.7446C137.406 69.2735 133.81 69.3966 130.286 68.7954C127.719 68.3384 125.111 68.2593 122.52 68.0448C120.48 67.9235 118.426 67.9148 116.395 68.1661C114.641 68.3489 112.89 68.6741 111.118 68.588ZM41.5055 68.7954C38.8617 69.7974 36.3604 71.1351 33.9574 72.6169C33.3949 72.9773 32.7305 73.2515 32.3561 73.8368C31.9746 74.4204 31.5738 74.9917 31.1713 75.5612C32.4844 76.9323 33.7957 78.3069 35.0824 79.7026C35.3566 79.9839 35.6045 80.3495 36.0229 80.411C37.4713 80.745 38.9461 80.9665 40.4297 81.0456C42.6006 81.1142 44.7662 80.8716 46.9371 80.8821C50.6795 80.8733 54.4254 80.7398 58.1643 80.9753C62.0982 81.2056 66.0393 81.2935 69.968 81.5765C70.309 81.5677 70.8064 81.7804 70.9857 81.362C73.2955 77.5634 75.5719 73.7419 77.9643 69.9942C75.2396 70.0312 72.5168 69.9257 69.7939 69.9222C65.6859 69.8378 61.5727 69.9995 57.4699 69.7552C55.8123 69.6726 54.1934 69.2841 52.5639 68.9976C49.5563 68.3982 46.4748 68.3718 43.4215 68.3999C42.7605 68.3894 42.1189 68.5669 41.5055 68.7954ZM103.985 81.29C105.952 81.2917 107.909 81.5325 109.874 81.5905C112.352 81.6872 114.813 81.2689 117.292 81.3567C116.77 81.0667 116.213 80.8171 115.789 80.3847C115.219 79.8503 114.852 78.9978 115.144 78.2314C115.446 77.4157 116.163 76.8497 116.868 76.3909C118.533 75.4048 120.437 74.9003 122.333 74.6015C124.615 74.2763 126.954 74.2271 129.222 74.6806C130.489 74.939 131.796 75.3362 132.778 76.2204C133.404 76.7689 133.712 77.704 133.37 78.4915C132.938 79.4935 131.985 80.1105 131.066 80.6167C129.654 81.355 128.09 81.7593 126.527 82.0212C128.751 82.3745 130.999 82.6997 133.26 82.5679C137.791 82.3271 142.068 80.5939 146.069 78.5618C146.943 78.314 147.208 77.3753 147.728 76.7372C146.043 75.4452 144.397 74.0917 142.645 72.8964C139.95 72.4323 137.215 71.9665 134.469 72.1511C132.659 72.2741 130.848 72.413 129.034 72.3814C124.91 72.3778 120.836 71.6747 116.731 71.3864C114.434 71.2353 112.138 70.9786 109.837 70.954C107.88 74.394 105.943 77.8499 103.985 81.29ZM161.817 72.7733C161.988 73.3464 162.744 73.1812 163.192 73.4114C161.968 74.9706 160.429 76.2573 159.263 77.8675C157.475 80.1316 155.862 82.5292 154.02 84.7511C152.387 86.6776 151.028 88.8609 150.151 91.2339C150.184 91.4167 150.249 91.7841 150.282 91.9669C150.564 91.6786 150.706 91.3007 150.866 90.9386C151.717 89.114 152.661 87.3105 153.969 85.7671C155.89 83.5013 157.59 81.0632 159.379 78.6954C160.773 76.7794 162.555 75.2026 164.092 73.4062C163.61 72.6187 162.612 72.7083 161.817 72.7733ZM160.149 79.8028C158.309 81.9983 156.811 84.447 155.252 86.8411C153.487 89.6308 151.731 92.4292 150.154 95.3314C149.904 95.82 149.502 96.2173 149.303 96.7341C149.651 96.7077 150.093 96.7042 150.277 96.3403C150.998 95.0132 151.762 93.7089 152.508 92.3941C154.953 88.4812 157.319 84.505 160.086 80.8066C160.949 79.6112 162.114 78.6304 162.728 77.2628C162.608 77.2804 162.366 77.312 162.244 77.3296C161.569 78.1733 160.836 78.9696 160.149 79.8028ZM160.973 81.3304C159.012 83.6401 157.352 86.1837 155.635 88.6763C154.795 89.8523 153.946 91.0247 153.257 92.2991C153.413 92.4187 153.582 92.5136 153.768 92.5874C154.301 91.9265 154.647 91.139 155.148 90.4552C157.191 87.5671 159.163 84.628 161.235 81.761C161.559 81.3339 161.919 80.9243 162.132 80.4251C161.583 80.4796 161.304 80.9612 160.973 81.3304ZM161.365 83.4239C161.668 83.5399 161.982 83.6278 162.294 83.7298C161.833 84.0163 161.394 84.3345 161.037 84.7476C159.388 86.3331 157.832 88.0435 156.635 90.0017C155.972 91.1337 155.554 92.4767 154.477 93.3064C152.684 94.7302 151.063 96.3685 149.688 98.1966C148.6 98.8224 147.315 99.0403 146.071 99.0386C143.381 99.1106 140.688 99.144 137.999 99.0702C131.845 98.7257 125.706 98.0261 119.537 98.0489C116.829 98.0419 114.119 98.0858 111.421 98.3056C108.763 98.5587 106.093 98.4163 103.43 98.3952C103.447 98.5306 103.482 98.803 103.5 98.9384C106.726 99.253 109.972 99.0948 113.196 98.8575C117.065 98.6993 120.939 98.6993 124.81 98.8399C128.714 99.0896 132.618 99.3691 136.517 99.6837C139.992 99.9193 143.478 99.8067 146.955 99.6784C148.017 99.6433 149.008 99.2249 149.97 98.8136C150.209 98.7099 150.326 98.4567 150.479 98.2616C151.355 96.8941 152.561 95.7849 153.751 94.695C154.571 93.9339 155.602 93.331 156.097 92.2815C156.654 91.1636 157.24 90.0544 157.976 89.0419C159.356 87.1733 161.028 85.5474 162.71 83.9565C163.051 83.6155 163.519 83.4151 163.782 82.9985C163.083 82.9282 162.376 82.9493 161.678 83.0038C161.453 83.0144 161.29 83.1972 161.365 83.4239ZM71.2547 83.2903C71.1387 89.5411 70.7871 95.8622 71.9525 102.043C72.3445 104.013 72.6592 106 73.1602 107.947C77.9555 108.032 82.749 108.167 87.5443 108.221C93.1148 108.237 98.6871 108.195 104.258 108.251C103.616 106.019 103.115 103.739 102.85 101.429C102.357 95.5388 102.229 89.6237 102.043 83.721C101.698 83.561 101.282 83.6261 100.909 83.5944C97.2105 83.5347 93.5227 83.8511 89.8295 83.9794C85.0148 84.2114 80.1897 83.997 75.3908 83.5892C74.0127 83.4907 72.6381 83.3079 71.2547 83.2903ZM18.4922 84.2642C19.2199 84.8302 20.2412 84.6386 21.1061 84.7546C24.6146 85.078 28.1268 85.3786 31.6301 85.7724C35.4322 86.1644 39.2344 86.6267 43.0594 86.7146C46.9986 86.6653 50.908 86.0202 54.849 86.0132C58.3734 85.9692 61.8785 86.3788 65.3889 86.6056C67.0764 86.581 68.8025 86.7796 70.4654 86.4122C70.4426 86.319 70.3986 86.1345 70.3758 86.0413C67.2451 86.2857 64.1145 85.978 60.9961 85.7126C55.4344 85.2099 49.848 85.5896 44.2934 85.9816C41.5846 86.1081 38.8811 85.8146 36.1881 85.5526C31.3365 85.0323 26.4867 84.5103 21.6193 84.1745C20.577 84.1288 19.5223 84.0726 18.4922 84.2642ZM161.633 86.7603C160.182 88.7536 158.681 90.7101 157.185 92.6665C156.264 93.904 155.087 94.9077 154.048 96.0362C153.169 96.9767 152.36 97.9786 151.55 98.9788C150.664 100.035 149.919 101.218 148.876 102.134C148.062 102.83 147.445 103.748 147.132 104.773C146.971 105.337 146.561 105.896 146.812 106.499C146.879 106.499 147.015 106.495 147.081 106.495C147.412 106.107 147.437 105.557 147.626 105.098C147.934 104.062 148.635 103.21 149.43 102.503C150.685 101.38 151.525 99.8999 152.599 98.6202C153.84 97.0065 155.243 95.53 156.686 94.0991C157.769 93.0708 158.975 92.1603 159.889 90.9667C160.845 89.8259 161.534 88.497 162.192 87.1698C162.454 86.5933 162.772 86.0273 162.86 85.3892C162.288 85.6792 162.037 86.2997 161.633 86.7603ZM19.401 86.7269C20.1885 86.8622 20.9936 86.7901 21.7898 86.82C23.8465 86.8165 25.8996 87.0187 27.9334 87.3157C29.7563 87.5917 31.5633 87.9855 33.4037 88.1296C35.3373 88.3054 37.2621 87.9556 39.1904 87.873C40.7145 87.8044 42.242 87.764 43.7695 87.7868C48.5156 87.8431 53.2617 87.8993 58.0096 87.8659C61.1736 87.9362 64.3395 87.9503 67.5053 87.9661C68.4457 87.9626 69.3914 88.047 70.3301 87.9485C70.3512 87.8237 70.3934 87.5759 70.4145 87.4511C69.4441 87.3737 68.4703 87.3931 67.5 87.4089C67.0904 87.3878 66.6826 87.3315 66.273 87.328C61.585 87.3298 56.8969 87.1927 52.2088 87.161C47.7492 87.1558 43.2844 86.7585 38.8301 87.1364C36.9193 87.3087 34.9963 87.6374 33.0732 87.4071C31.0043 87.1716 28.9582 86.7585 26.8928 86.4931C24.5602 86.2294 22.2047 86.1521 19.8615 86.2769C19.6084 86.2628 19.0107 86.4122 19.401 86.7269ZM102.927 87.1505C102.932 87.2982 102.943 87.5935 102.948 87.7394C115.617 88.112 128.292 88.1876 140.964 88.4284C144.253 88.4232 147.546 88.6183 150.831 88.4144C150.815 88.286 150.782 88.0312 150.766 87.9028C150.391 87.7517 149.978 87.7851 149.586 87.7833C147.477 87.8273 145.369 87.8026 143.26 87.7622C133.829 87.6321 124.399 87.4405 114.966 87.3351C110.953 87.3034 106.94 87.1153 102.927 87.1505ZM19.7209 88.3898C20.0426 88.9452 20.7369 88.8995 21.2871 89.005C23.0168 89.3267 24.7623 89.5622 26.5148 89.7011C30.8443 90.1247 35.1984 89.9208 39.5402 89.9665C42.423 89.9964 45.276 90.4271 48.1307 90.7909C50.5354 91.0194 52.94 91.2778 55.3412 91.545C60.3246 92.0249 65.3397 91.9423 70.3354 91.7823C70.3336 91.6417 70.3283 91.3569 70.3266 91.2146C67.6248 91.1091 64.923 91.3323 62.223 91.2198C57.5666 91.211 52.9488 90.5431 48.3205 90.1124C46.4994 89.9577 44.7029 89.5956 42.8801 89.455C39.8443 89.1667 36.791 89.3091 33.7465 89.2845C29.8617 89.3442 25.9734 89.0946 22.1273 88.5532C21.3328 88.4407 20.526 88.2579 19.7209 88.3898ZM46.7033 88.671C46.7104 88.8239 46.7279 89.128 46.735 89.281C53.7152 89.5956 60.7025 89.687 67.6863 89.9243C68.5705 89.963 69.4565 90.0298 70.3424 89.9859C70.3477 89.8241 70.36 89.4972 70.367 89.3355C66.4857 89.1245 62.5975 89.0929 58.7127 88.9646C54.7084 88.8925 50.7076 88.7044 46.7033 88.671ZM102.952 89.6167C103.052 89.7661 102.916 90.1915 103.189 90.1827C108.047 90.3989 112.91 90.5448 117.773 90.6433C121.997 90.7101 126.22 90.6327 130.444 90.5712C135.357 90.5554 140.27 90.464 145.181 90.3778C146.786 90.3497 148.393 90.4112 149.996 90.3216C149.992 90.0509 150.013 89.6132 149.616 89.6712C139.881 89.731 130.148 90.0087 120.414 90.0192C115.367 89.9823 110.327 89.7327 105.282 89.6044C104.505 89.5763 103.727 89.5148 102.952 89.6167ZM20.0461 91.3323C19.6471 91.3359 19.2445 91.3446 18.8596 91.4589C18.7225 91.8403 19.248 91.8105 19.4889 91.8878C21.0691 92.039 22.66 91.8878 24.2455 91.8913C28.9354 91.756 33.6322 91.5749 38.3238 91.8298C43.0664 92.1058 47.8107 92.3993 52.5463 92.7896C57.0603 93.062 61.5674 93.6175 66.0973 93.5191C67.5246 93.4347 68.9572 93.5577 70.3811 93.4241C70.3723 93.2642 70.3547 92.9425 70.3459 92.7825C68.1697 92.7245 65.9936 92.881 63.8174 92.8212C58.9447 92.6595 54.0896 92.1901 49.2275 91.8562C43.8346 91.5644 38.4486 91.0124 33.0434 91.0036C28.7086 91.0212 24.3791 91.2497 20.0461 91.3323ZM112.152 91.7876C109.155 91.8157 106.158 91.763 103.161 91.7595C103.15 91.9124 103.131 92.2183 103.12 92.373C105.486 92.4767 107.854 92.4415 110.222 92.4679C115.611 92.5189 120.996 92.2552 126.383 92.1515C134.339 91.9669 142.295 92.1497 150.251 92.1128C150.214 91.9722 150.137 91.6909 150.1 91.5503C149.586 91.4273 149.052 91.5081 148.533 91.4923C141.852 91.4905 135.172 91.306 128.493 91.4448C123.043 91.487 117.599 91.7542 112.152 91.7876ZM25.65 93.5665C23.6566 93.6685 21.6668 93.8407 19.6699 93.8689C19.3975 93.8302 19.1918 94.0288 18.9809 94.1642C19.3852 94.4806 19.9195 94.4032 20.3994 94.4472C22.8023 94.463 25.1982 94.2292 27.5994 94.1888C31.6406 93.9884 35.6906 94.0253 39.7301 94.2204C43.9242 94.296 48.1008 94.6862 52.2756 95.08C57.4031 95.4773 62.55 95.414 67.6828 95.6706C68.6021 95.711 69.5232 95.7919 70.4426 95.7128C70.425 95.5616 70.3934 95.261 70.3758 95.1116C63.9686 94.681 57.5297 94.9358 51.133 94.3276C46.7561 93.8618 42.3633 93.5911 37.9652 93.4681C33.8607 93.2782 29.751 93.3942 25.65 93.5665ZM130.604 93.904C121.762 94.289 112.911 94.0851 104.064 94.1132C103.683 94.136 103.092 94.0552 103.136 94.6177C103.493 94.7337 103.873 94.6985 104.244 94.7003C107.879 94.63 111.512 94.7566 115.147 94.7566C119.711 94.753 124.276 94.804 128.837 94.6423C132.646 94.5632 136.448 94.3259 140.259 94.354C143.418 94.3874 146.616 94.3048 149.723 94.9534C149.743 94.8181 149.781 94.5456 149.801 94.4103C149.075 94.064 148.273 93.9954 147.488 93.9216C141.871 93.4347 136.227 93.73 130.604 93.904ZM29.5365 95.8903C26.0314 95.9624 22.4947 95.929 19.0318 96.546C18.9984 96.6357 18.9299 96.8167 18.8965 96.9081C19.7543 96.9679 20.6104 96.8765 21.4682 96.8466C25.5533 96.5495 29.6543 96.6146 33.7465 96.539C37.793 96.5056 41.8395 96.481 45.8824 96.6462C53.2143 96.822 60.5268 97.4372 67.8586 97.6148C68.7797 97.6446 69.7061 97.7097 70.6236 97.5831C70.5797 97.3968 70.534 97.2105 70.4883 97.0276C65.7352 96.931 60.9873 96.662 56.2395 96.4124C47.3502 95.8728 38.4398 95.7181 29.5365 95.8903ZM103.351 96.0222C103.351 96.1839 103.352 96.5091 103.354 96.6726C105.177 96.6989 106.996 96.8255 108.819 96.9064C112.319 97.2333 115.84 96.9591 119.347 97.1683C121.69 97.2931 124.04 97.2386 126.387 97.2122C133.9 96.9943 141.414 96.662 148.932 96.8747C148.929 96.7429 148.92 96.4792 148.915 96.3491C148.147 96.2489 147.379 96.1382 146.602 96.1399C142.265 96.089 137.927 96.154 133.592 96.3034C128.902 96.4107 124.212 96.6814 119.522 96.5302C116.947 96.4247 114.37 96.5144 111.797 96.4212C108.981 96.2894 106.17 96.0626 103.351 96.0222ZM23.5389 97.8556C25.4672 97.9821 27.4043 97.9435 29.3326 98.0612C33.2191 98.1614 37.0828 98.6062 40.957 98.8698C45.3498 99.2056 49.7373 99.6644 54.1441 99.703C57.0691 99.8577 59.9994 99.8454 62.9279 99.8999C65.5453 99.921 68.168 100.06 70.7818 99.9228C70.7537 99.7646 70.6975 99.4464 70.6676 99.2882C64.1021 99.2056 57.5314 99.2021 50.973 98.8733C41.8711 98.397 32.8096 97.1999 23.6848 97.2263C23.6373 97.4355 23.5898 97.6446 23.5389 97.8556ZM19.2094 98.6114C19.2586 98.8505 19.3729 99.1247 19.6699 99.0913C21.6053 99.2161 23.5459 99.253 25.483 99.3304C33.2314 99.6872 40.95 100.556 48.7055 100.793C52.9189 100.993 57.1377 101.035 61.3512 101.197C64.5768 101.327 67.8023 101.524 71.0297 101.47C71.0174 101.318 70.9945 101.02 70.984 100.868C67.6582 100.666 64.3219 100.61 60.9943 100.429C56.2465 100.269 51.4969 100.227 46.7508 100.034C37.5662 99.6679 28.415 98.4251 19.2094 98.6114ZM103.642 99.8524C103.651 100.004 103.671 100.308 103.679 100.459C108.188 100.875 112.721 100.934 117.244 101.116C123.511 101.526 129.788 101.972 136.072 101.761C137.888 101.675 139.693 101.42 141.513 101.413C143.079 101.362 144.645 101.529 146.211 101.445C146.141 101.206 146.037 100.9 145.735 100.916C142.877 100.54 139.987 100.781 137.13 101.028C132.553 101.347 127.962 101.078 123.39 100.812C116.817 100.295 110.22 100.295 103.642 99.8524ZM150.903 101.848C149.745 104.033 148.769 106.316 148.05 108.682C148.217 108.692 148.558 109.034 148.628 108.749C149.402 106.543 150.238 104.349 151.325 102.276C151.643 101.628 152.046 101.009 152.202 100.295C151.588 100.628 151.256 101.276 150.903 101.848ZM19.3852 100.503C19.4941 100.782 19.7367 100.907 20.0268 100.9C21.927 101.148 23.8447 101.257 25.7502 101.47C28.1777 101.76 30.6264 101.793 33.0645 101.921C35.4059 101.995 37.7437 102.171 40.0887 102.182C44.3057 102.317 48.5244 102.206 52.7414 102.16C56.4328 102.257 60.133 102.254 63.8086 102.646C66.3311 102.918 68.8693 103.129 71.4076 103.038C71.3602 102.902 71.2635 102.633 71.2143 102.498C69.3352 102.349 67.4455 102.37 65.5717 102.153C62.2477 101.746 58.8973 101.566 55.5504 101.521C49.9869 101.396 44.4234 101.714 38.8617 101.501C35.1 101.336 31.3348 101.213 27.5766 100.976C25.1297 100.737 22.6811 100.473 20.2219 100.424C19.9406 100.425 19.6611 100.452 19.3852 100.503ZM103.679 101.174C103.692 101.333 103.716 101.649 103.73 101.807C106.181 102.023 108.642 102.083 111.099 102.196C113.258 102.327 115.414 102.473 117.57 102.665C121.725 103.11 125.893 103.505 130.076 103.502C133.887 103.605 137.693 103.136 141.504 103.379C142.863 103.41 144.221 103.632 145.582 103.526C145.856 103.54 145.842 103.238 145.934 103.064C144.533 102.769 143.088 102.842 141.667 102.712C137.923 102.445 134.183 102.934 130.437 102.871C125.898 102.908 121.391 102.324 116.88 101.92C112.486 101.57 108.083 101.369 103.679 101.174ZM146.781 103.008C146.457 103.793 146.032 104.75 146.626 105.523C147.129 104.588 147.154 103.467 147.72 102.552C147.827 102.173 148.333 101.753 148.027 101.378C147.342 101.647 147.066 102.391 146.781 103.008ZM19.7754 102.698C19.7314 102.772 19.6436 102.92 19.5996 102.995C20.7861 103.257 21.999 103.354 23.2014 103.507C24.7904 103.667 26.3689 103.92 27.9615 104.057C31.173 104.342 34.4004 104.41 37.6225 104.388C41.2014 104.374 44.7592 103.88 48.3381 103.908C52.81 103.86 57.266 104.289 61.7238 104.593C65.0725 104.781 68.4211 105.059 71.7768 105.07C71.7381 104.924 71.659 104.634 71.6186 104.488C70.7889 104.303 69.9205 104.405 69.075 104.333C60.4863 104.075 51.9152 102.721 43.3125 103.384C36.6258 103.964 29.8828 103.737 23.2295 102.881C22.0799 102.807 20.9285 102.6 19.7754 102.698ZM103.985 103.031C104.01 103.166 104.061 103.437 104.087 103.574C104.936 103.818 105.843 103.801 106.72 103.892C110.807 104.259 114.913 104.28 119.013 104.377C122.124 104.451 125.209 104.917 128.319 105.024C131.832 105.194 135.35 105.068 138.864 104.931C141.205 104.825 143.548 104.982 145.891 104.955C145.884 104.815 145.87 104.532 145.865 104.391C143.889 104.259 141.906 104.178 139.927 104.215C136.528 104.358 133.124 104.514 129.723 104.405C125.902 104.37 122.113 103.735 118.292 103.706C113.514 103.713 108.747 103.375 103.985 103.031ZM19.1865 104.846C20.4891 105.254 21.876 105.216 23.2172 105.419C25.1156 105.606 26.9789 106.024 28.8404 106.427C30.6246 106.819 32.4615 106.808 34.2791 106.826C37.0881 106.831 39.8971 106.838 42.7061 106.838C44.5887 106.831 46.4766 106.843 48.3521 106.636C51.0293 106.355 53.7258 106.332 56.4152 106.434C59.233 106.516 62.0525 106.606 64.8668 106.755C67.2697 106.956 69.6691 107.216 72.0826 107.207C72.0668 106.975 72.051 106.743 72.0334 106.515C69.9381 106.52 67.848 106.379 65.7633 106.161C61.7748 105.892 57.7775 105.782 53.7803 105.718C51.3738 105.669 48.9762 105.898 46.5803 106.098C43.1279 106.198 39.6738 106.119 36.2197 106.144C33.583 106.123 30.9041 106.277 28.3148 105.666C26.1703 105.182 24.0029 104.785 21.8039 104.686C20.9426 104.679 19.9793 104.396 19.1865 104.846ZM104.305 104.581C104.402 104.829 104.337 105.305 104.734 105.245C108.545 105.595 112.366 105.815 116.184 106.087C123.028 106.609 129.901 106.994 136.765 106.687C139.976 106.453 143.198 106.49 146.415 106.585C146.375 106.428 146.294 106.114 146.254 105.957C144.731 105.871 143.207 105.825 141.685 105.831C138.219 105.82 134.763 106.195 131.298 106.11C126.439 106.086 121.584 105.857 116.743 105.448C112.598 105.152 108.454 104.845 104.305 104.581ZM104.79 106.553C104.806 106.766 104.825 106.98 104.848 107.195C108.926 107.295 113.008 107.353 117.086 107.522C120.802 107.603 124.467 108.283 128.123 108.902C129.978 109.183 131.862 109.134 133.733 109.107C138.078 108.9 142.462 108.91 146.763 109.633C147.226 109.691 147.695 109.819 148.163 109.723C148.282 109.244 147.744 109.141 147.403 109.083C143.552 108.33 139.607 108.23 135.694 108.316C133.764 108.417 131.831 108.483 129.899 108.395C128.125 108.295 126.396 107.872 124.643 107.618C118.086 106.488 111.408 106.82 104.79 106.553Z" fill="black"/>
<path d="M52.0383 70.6886C55.2164 70.3933 58.5263 70.6517 61.4777 71.9384C62.5939 72.4377 63.7207 73.1144 64.3394 74.2095C64.7947 75.0181 64.7033 76.0623 64.1584 76.8058C63.2091 78.1734 61.6306 78.8923 60.1189 79.4548C56.5734 80.6396 52.7343 80.8171 49.057 80.2195C47.2517 79.8627 45.3709 79.2914 44.0437 77.9466C43.2474 77.1521 42.8748 75.883 43.3687 74.8318C43.8925 73.7121 44.942 72.9439 46.009 72.3832C47.8845 71.4375 49.9552 70.9154 52.0383 70.6886ZM50.7357 71.5201C48.7881 71.8752 46.8158 72.4693 45.2373 73.7033C44.5517 74.308 43.7765 75.1166 43.9435 76.1132C44.1211 77.2664 45.1248 78.0451 46.1092 78.532C48.7617 79.7888 51.7746 79.9576 54.6627 79.8205C56.9338 79.6025 59.2506 79.2404 61.3002 78.1822C62.2318 77.7093 63.1634 77.1029 63.6855 76.166C63.9756 75.6597 63.9527 75.0181 63.6486 74.5242C63.0984 73.5978 62.1158 73.0423 61.1666 72.6029C57.8865 71.2476 54.2232 70.9857 50.7357 71.5201Z" fill="black"/>
<path d="M51.4284 72.3744C53.7311 71.9982 56.1832 72.1441 58.3119 73.1584C59.0994 73.5539 59.9151 74.0127 60.3914 74.7843C60.7746 75.3556 60.8116 76.1748 60.3862 76.7355C59.8869 77.3929 59.1328 77.7867 58.3787 78.082C56.4768 78.8027 54.4166 79.1103 52.3846 78.9662C50.8905 78.859 49.3576 78.699 47.9778 78.075C47.1657 77.7006 46.3325 77.0466 46.2006 76.1062C46.067 75.2906 46.5856 74.5506 47.1955 74.0707C48.4084 73.1127 49.936 72.6679 51.4284 72.3744ZM47.2641 75.0304C46.7912 75.5033 46.8651 76.3084 47.3696 76.7285C48.8391 78.1646 51.0469 78.1119 52.9576 78.2472C53.0719 77.8008 53.1563 77.349 53.2196 76.8937C52.3969 76.681 51.5549 76.5 50.7832 76.1396C50.1803 75.8109 50.3315 74.9109 50.7903 74.5189C51.5672 73.8633 52.6325 73.7525 53.6116 73.8C54.4518 73.7965 55.3852 73.9986 55.9477 74.6701C56.2922 75.0674 56.192 75.6685 55.8545 76.0377C55.5662 76.4349 55.0178 76.391 54.5836 76.4121C54.7963 76.0957 55.0582 75.8162 55.2991 75.5226C55.4977 75.3486 55.4432 74.9953 55.1901 74.9091C54.3217 74.3256 53.1932 74.373 52.2071 74.5576C51.7711 74.6806 51.2033 74.8494 51.1506 75.382C51.3633 75.723 51.7782 75.7898 52.1262 75.9234C52.1315 75.7881 52.1403 75.5191 52.1438 75.3838C52.6975 74.7984 53.6186 74.9654 54.2567 75.3134C54.2971 75.5068 54.3129 75.7037 54.3059 75.9058C53.6467 75.8232 52.9366 75.433 52.3407 75.9252C52.7959 76.2345 53.3444 76.3101 53.8647 76.4472C53.7944 77.0466 53.6889 77.6425 53.6291 78.2455C55.3272 78.2349 57.0323 77.8957 58.5879 77.2101C59.1926 76.9078 59.8869 76.4824 60.0135 75.7599C59.9326 75.0849 59.3192 74.6261 58.8059 74.25C56.6526 72.9088 53.9772 72.7207 51.5198 73.0898C49.9834 73.3746 48.3627 73.8562 47.2641 75.0304Z" fill="black"/>
<path d="M89.8349 72.2724C91.6771 72.0773 93.5913 72.2918 95.2911 73.0529C96.1999 73.4765 97.1333 74.1832 97.2739 75.2467C97.4374 76.3435 96.6534 77.3051 95.8132 77.9045C94.1257 79.0787 92.0233 79.483 90.0001 79.5427C88.1105 79.5709 86.0995 79.3705 84.4964 78.2771C83.7792 77.8043 83.2378 76.9763 83.3398 76.0904C83.4523 75.1359 84.1747 74.3906 84.9253 73.8562C86.3685 72.8736 88.1192 72.457 89.8349 72.2724ZM91.2939 72.9193C91.1761 73.1302 91.0689 73.35 90.937 73.5539C90.1319 73.6769 89.2653 73.5363 88.5183 73.93C88.1175 74.1498 87.7097 74.4609 87.5515 74.9056C87.5989 75.8496 88.6273 76.1168 89.355 76.384C89.1124 76.7179 88.861 77.0467 88.6079 77.3736C88.2704 77.1873 87.9892 76.9254 87.7853 76.5967C87.2386 76.623 86.8237 77.0027 86.3948 77.2945C86.8097 77.8183 87.3107 78.2859 87.9628 78.4898C87.8644 78.6375 87.7677 78.7869 87.671 78.9381C88.1983 78.8572 89.1458 79.3951 89.2091 78.5408C89.8718 78.5267 90.5433 78.5109 91.1901 78.351C91.83 78.1558 92.3749 77.6338 92.5823 76.9974C92.389 76.2539 91.6472 75.8935 90.995 75.6246C91.1603 75.2431 91.3765 74.8845 91.6472 74.5681C91.8827 74.7826 92.0972 75.0199 92.2853 75.2783C92.6614 75.2607 93.0394 75.2449 93.4173 75.2256C93.2925 74.6508 93.0956 73.9916 92.4786 73.7789C92.0831 73.691 92.4276 73.3095 92.4505 73.067C92.0673 72.9984 91.6806 72.9545 91.2939 72.9193Z" fill="black"/>
<path d="M89.2952 75.0709C89.3971 74.8916 89.5008 74.7141 89.6045 74.5365C89.8717 74.533 90.1407 74.5312 90.4096 74.5312C90.3868 74.642 90.3639 74.7545 90.3428 74.8688C90.0897 74.9127 89.8383 74.9514 89.587 74.9988C89.7557 75.0023 90.0932 75.0059 90.262 75.0094C90.0229 75.4418 89.6292 75.2643 89.2952 75.0709Z" fill="black"/>
<path d="M90.3059 76.7618C90.6258 76.7478 90.8631 76.9798 91.0917 77.1732C90.7805 77.6425 90.2127 77.5054 89.7346 77.4861C89.9086 77.2329 90.0844 76.9763 90.3059 76.7618Z" fill="black"/>
<path d="M170.545 102.519C171.499 102.285 172.515 102.484 173.494 102.415C173.992 102.442 174.716 102.271 174.973 102.843C175.045 103.28 174.626 103.646 174.203 103.59C173.032 103.593 171.854 103.642 170.689 103.554C170.153 103.482 170.03 102.725 170.545 102.519Z" fill="black"/>
<path d="M5.84812 103.414C6.8782 103.252 7.93465 103.396 8.97527 103.337C9.44285 103.356 10.1214 103.206 10.3411 103.758C10.4483 104.173 10.044 104.511 9.65379 104.506C8.6659 104.556 7.67449 104.488 6.68308 104.521C6.28055 104.52 5.73387 104.571 5.5159 104.145C5.36472 103.859 5.59148 103.537 5.84812 103.414Z" fill="black"/>
<path d="M168.581 113.924C168.664 113.542 169.089 113.405 169.437 113.43C170.446 113.44 171.457 113.412 172.466 113.428C172.862 113.395 173.004 113.806 173.19 114.071C172.976 114.268 172.788 114.558 172.47 114.571C171.459 114.604 170.448 114.576 169.439 114.581C169.058 114.608 168.504 114.391 168.581 113.924Z" fill="black"/>
<path d="M15.8836 119.605C15.9574 119.572 16.105 119.505 16.1789 119.473C17.9332 119.403 19.6945 119.486 21.4523 119.457C21.7511 119.491 22.1712 119.389 22.3277 119.728C22.6845 120.162 22.0904 120.69 21.6316 120.6C19.865 120.6 18.0966 120.621 16.3318 120.588C15.7904 120.656 15.3773 119.941 15.8836 119.605Z" fill="black"/>
<path d="M74.7615 122.066C82.2357 122.026 89.7205 122.029 97.1964 122.059C97.9013 122.068 97.8925 123.154 97.1947 123.172C89.8716 123.189 82.5451 123.149 75.2203 123.184C74.9091 123.172 74.4925 123.18 74.3308 122.855C74.0953 122.544 74.4275 122.113 74.7615 122.066Z" fill="black"/>
<path d="M141.391 122.041C141.655 121.964 141.935 121.969 142.212 121.966C144.911 121.973 147.609 121.968 150.307 121.975C150.706 121.941 151.195 122.245 151.049 122.701C150.808 123.188 150.214 123.089 149.767 123.108C147.073 123.071 144.378 123.11 141.685 123.08C141.093 123.138 140.836 122.291 141.391 122.041Z" fill="black"/>
<path d="M0 129.894C59.9994 129.945 120.001 129.89 180 129.918V130.801C175.194 130.834 170.392 130.744 165.586 130.762C154.628 130.762 143.67 130.757 132.711 130.762C130.727 130.746 128.742 130.823 126.758 130.748C127.13 134.406 126.613 138.155 125.23 141.562C143.487 141.657 161.743 141.687 180 141.732V142.624C159.961 142.543 139.922 142.509 119.883 142.425C103.888 142.363 87.8924 142.339 71.898 142.258C53.3812 142.161 34.8645 142.144 16.3477 142.015C10.8984 141.991 5.44922 141.994 0 141.975V141.089C18.4008 141.131 36.7998 141.244 55.2006 141.305C78.2807 141.365 101.361 141.509 124.441 141.55C125.232 139.317 125.887 137.02 126.032 134.645C126.112 133.367 126.072 132.084 125.986 130.809C124.625 130.815 123.265 130.774 121.906 130.751C121.994 133.13 121.885 135.54 121.31 137.856C121.289 138.222 120.89 138.34 120.605 138.169C120.553 137.399 120.795 136.654 120.897 135.898C121.175 134.216 121.159 132.506 121.148 130.806C118.914 130.779 116.68 130.727 114.446 130.781C112.685 130.848 110.925 130.743 109.164 130.764C106.232 130.813 103.296 130.825 100.364 130.767C82.1408 130.739 63.9229 130.82 45.6996 130.816C30.4664 130.813 15.2332 130.829 0 130.809V129.894Z" fill="black"/>
<path d="M110.405 132.713C110.691 132.608 111.039 132.752 111.099 133.07C111.199 133.704 111.171 134.358 111.09 134.996C111.131 135.497 110.208 135.517 110.232 135.003C110.248 134.256 109.978 133.374 110.405 132.713Z" fill="black"/>
</g>
<defs>
<clipPath id="clip0_58_1922">
<rect width="180" height="180" fill="white"/>
</clipPath>
</defs>
</svg>
