<svg width="180" height="180" viewBox="0 0 180 180" fill="none" xmlns="http://www.w3.org/2000/svg">
<g clip-path="url(#clip0_58_2489)">
<path d="M67.732 0H68.4035C68.3947 14.182 68.3983 28.3658 68.4 42.5479C68.4721 42.9311 68.0608 43.0383 67.7953 43.1525C67.7145 42.4811 67.7162 41.8061 67.7373 41.1311C67.711 27.4219 67.732 13.7109 67.732 0Z" fill="black"/>
<path d="M68.2365 44.4234C68.0379 44.0648 68.4686 43.94 68.7322 43.8838C69.7588 46.3289 71.3654 48.4699 72.6311 50.7902C72.682 49.7918 72.6451 48.7916 72.6469 47.7932C72.9 47.7404 73.1531 47.6965 73.4098 47.6578C73.3957 48.6738 73.3869 49.6898 73.3975 50.7076C73.5187 50.6971 73.7613 50.6742 73.8826 50.6637C74.0197 49.5967 73.8809 48.5016 73.8668 47.4258C73.6313 47.3643 73.3939 47.3045 73.1602 47.243C73.1619 47.1199 73.1654 46.8738 73.1689 46.7508C73.7104 46.5873 74.4029 46.8316 74.5172 47.4381C74.6947 48.5104 74.5541 49.6037 74.6227 50.6848C86.4826 50.683 98.3426 50.6795 110.201 50.6936C110.173 49.7145 110.153 48.7318 110.239 47.7562C110.45 47.7703 110.661 47.7879 110.874 47.8055C110.906 48.7811 110.872 49.7584 110.86 50.734C111.002 50.727 111.285 50.7129 111.428 50.7041C111.375 49.7479 111.449 48.7863 111.379 47.8301C111.343 47.4434 110.842 47.4486 110.605 47.2236C110.658 46.473 111.781 46.7473 111.939 47.3098C112.271 48.4049 112.062 49.5756 112.104 50.7023C128.051 50.683 143.998 50.6602 159.945 50.6988C160.026 49.6775 159.754 48.5912 160.163 47.6209C160.376 47.751 160.71 47.8301 160.668 48.1553C160.704 49.0025 160.615 49.8498 160.624 50.6988C160.771 50.6988 161.067 50.6988 161.214 50.6971C161.177 49.7127 161.286 48.7143 161.116 47.7387C161.065 47.3309 160.576 47.4346 160.291 47.3291C160.395 47.1463 160.427 46.865 160.671 46.8123C161.198 46.7016 161.763 47.1129 161.805 47.6578C161.914 48.6598 161.829 49.6723 161.852 50.6795C167.901 50.6953 173.951 50.6689 180 50.6813V53.3109C173.96 53.3426 167.919 53.3268 161.879 53.3092C161.866 62.6643 161.847 72.0193 161.877 81.3762C166.514 81.0229 171.155 80.7047 175.785 80.2881C176.289 80.2723 176.912 80.3654 177.188 80.8506C177.388 81.1916 177.42 81.7137 177.063 81.9668C176.679 82.19 176.219 82.183 175.795 82.248C171.156 82.7912 166.521 83.3783 161.875 83.8582C161.866 85.5404 161.856 87.2227 161.886 88.9049C167.924 88.8732 173.962 88.8943 180 88.8645V89.4885C173.953 89.5025 167.908 89.5061 161.863 89.4955C161.863 90.9299 161.84 92.366 161.886 93.8022C163.879 93.7951 165.879 93.7406 167.869 93.825C168.2 93.7617 168.223 94.4367 167.875 94.3928C165.876 94.4701 163.869 94.4156 161.868 94.435C161.875 98.3232 161.814 102.213 161.902 106.1C167.934 106.014 173.967 106.095 180 106.047V106.636C173.962 106.61 167.924 106.671 161.888 106.615C161.889 106.654 161.895 106.729 161.896 106.768C162.359 106.849 162.907 106.912 163.172 107.36C163.686 108.211 163.579 109.26 163.598 110.213C163.637 112.53 163.561 114.848 163.668 117.163C165.002 117.097 166.387 117.519 167.328 118.499C168.369 119.637 168.929 121.177 168.975 122.709C169.001 123.43 168.986 124.153 168.952 124.873C170.968 124.879 172.983 124.857 174.999 124.861C174.584 123.928 173.827 123.144 173.631 122.122C174.519 122.068 175.409 122.113 176.298 122.108C176.275 119.958 176.277 117.809 176.288 115.659C176.24 115.311 176.481 114.97 176.838 114.935C177.887 114.834 178.945 114.922 180 114.877V117.049C179.559 117.051 179.118 117.053 178.678 117.054C178.685 117.364 178.696 117.673 178.71 117.984C179.139 117.977 179.569 117.976 180 117.976V119.872C179.569 119.886 179.14 119.895 178.713 119.897C178.703 120.213 178.694 120.531 178.689 120.85C179.125 120.869 179.561 120.865 180 120.857V122.745C178.135 122.745 176.266 122.778 174.407 122.644C174.95 123.5 175.37 124.437 175.955 125.265C177.302 125.234 178.652 125.237 180 125.213V129.535C178.887 129.595 177.775 129.484 176.665 129.579C176.043 129.542 175.271 129.623 174.827 129.101C174.35 128.413 174.625 127.397 175.419 127.092C173.264 127.088 171.111 127.132 168.954 127.116C168.977 129.741 168.963 132.365 168.971 134.989C169.008 135.8 168.608 136.545 168.038 137.094C168.159 137.735 168.119 138.394 168.089 139.045C168.115 139.611 167.502 140.015 166.982 139.939C163.788 139.361 160.506 139.38 157.326 138.7C157.264 139.025 157.296 139.396 157.094 139.679C156.589 140.099 155.638 140.105 155.354 139.424C155.201 138.72 155.261 137.988 155.324 137.276C155.021 136.974 154.686 136.693 154.464 136.324C154.176 135.756 154.123 135.104 154.123 134.478C154.144 132.024 154.121 129.57 154.146 127.116C151.223 127.111 148.3 127.109 145.376 127.12C145.615 127.375 145.911 127.617 145.976 127.985C146.178 128.705 145.608 129.51 144.854 129.54C133.131 129.498 121.407 129.537 109.682 129.524C105.757 129.521 101.83 129.542 97.9066 129.572C97.2738 129.595 96.4846 129.352 96.3404 128.649C96.1471 127.971 96.6551 127.375 97.2193 127.083C87.0732 127.181 76.9236 127.071 66.7758 127.157C66.7336 126.972 66.6932 126.787 66.6545 126.605C68.5986 126.399 70.5604 126.559 72.5115 126.492C72.5484 119.893 72.5186 113.295 72.5133 106.696C69.6762 106.569 66.8303 106.682 63.9879 106.631C60.0697 106.634 56.1516 106.617 52.2334 106.631C52.933 108.642 53.5711 110.707 53.673 112.85C53.7979 114.854 52.8434 116.845 51.3352 118.141C50.8096 118.601 50.1504 118.865 49.4684 118.995C50.0379 121.511 50.6162 124.026 51.3053 126.512C55.1777 126.497 59.052 126.48 62.9244 126.515C62.9156 126.671 62.8963 126.988 62.8875 127.144C59.0783 127.157 55.2674 127.137 51.4582 127.139C51.6762 128.15 52.0313 129.208 51.7148 130.238C51.5795 130.86 51.1348 131.34 50.8799 131.91C50.8781 132.42 51.1031 132.949 50.8834 133.444C50.6443 134.112 49.9658 134.443 49.3559 134.699C49.7355 142.397 50.2014 150.089 50.8395 157.769C50.8887 158.5 50.9994 159.231 50.9941 159.966C50.8359 160.276 50.5072 160.443 50.226 160.624C47.7141 161.995 44.8752 162.555 42.082 163.009C41.8834 164.055 41.7111 165.326 42.6006 166.115C42.7482 165.987 42.8977 165.857 43.0471 165.732C44.7891 165.978 46.6488 165.869 48.2432 166.729C48.9938 167.119 49.4508 168.151 49.0131 168.924C48.6439 169.518 47.918 169.75 47.2641 169.863C46.1039 170.012 44.9297 169.889 43.766 170.002C41.3016 170.002 38.8389 170.144 36.3744 170.075L36.341 170.174C36.3639 170.225 36.4061 170.325 36.4271 170.376C37.0846 170.464 37.749 170.48 38.41 170.466C38.41 170.504 38.4064 170.583 38.4064 170.622C36.4289 170.362 34.4303 170.404 32.4492 170.223C33.5531 170.107 34.657 170.304 35.7609 170.285C35.8277 170.251 35.9596 170.183 36.0264 170.149C36.2918 169.798 35.7521 169.729 35.5078 169.764C33.9803 169.854 32.451 169.887 30.9234 169.965C30.9041 169.877 30.8654 169.701 30.8461 169.613C30.8531 169.727 30.8654 169.956 30.8707 170.068C28.8914 170.091 26.9139 170.091 24.9381 169.952C24.8186 170.149 24.6762 170.332 24.3949 170.255C24.5232 170.156 24.6498 170.061 24.7781 169.966C24.4477 169.887 24.1822 169.982 23.9801 170.249C23.8975 170.081 23.8236 169.912 23.7902 169.731C24.4916 169.766 25.1947 169.856 25.8979 169.798C25.7484 169.3 25.2545 169.437 24.8537 169.444C24.6463 169.223 25.36 169.263 25.4988 169.207C25.4268 169.045 25.3564 168.887 25.2861 168.729C24.3141 168.905 23.2365 168.817 22.333 169.114C22.3488 169.165 22.3805 169.265 22.3963 169.316C23.1732 169.406 23.9344 169.146 24.7131 169.211C24.6551 169.276 24.5426 169.404 24.4846 169.469C23.676 169.485 22.841 169.603 22.0465 169.439C22.0518 169.367 22.0623 169.223 22.0658 169.149C21.9902 169.11 21.8373 169.033 21.7617 168.994C22.2697 168.836 22.8023 168.826 23.3262 168.769C23.342 168.72 23.3719 168.623 23.3859 168.576C23.1996 168.587 22.827 168.606 22.6406 168.616C22.6635 168.469 22.6863 168.323 22.7092 168.179C23.5477 168.184 24.3439 167.899 25.1631 167.776C25.3582 167.11 25.6324 166.474 25.9453 165.858C26.6203 164.551 26.8383 163.078 27.1916 161.666C25.7133 161.067 24.184 160.385 23.1082 159.165C22.7496 158.799 23.001 158.275 23.0467 157.846C24.5602 150.077 25.5674 142.211 26.0947 134.314C25.9242 133.835 25.5129 133.439 25.5129 132.905C25.49 132.405 25.7432 131.848 25.3459 131.437C24.7447 130.635 24.6357 129.598 24.859 128.646C24.133 128.38 23.3525 128.224 22.7162 127.763C22.3102 127.524 21.9586 127.081 21.4436 127.132C14.2963 127.157 7.14727 127.137 0 127.137V126.492C7.06816 126.469 14.1363 126.443 21.2045 126.487C19.5504 124.481 18.4904 122.043 17.8523 119.54C17.274 117.304 17.3496 114.804 18.5449 112.776C19.6699 110.742 21.5402 109.225 23.5828 108.174C24.249 107.91 24.3861 107.128 24.7676 106.601C16.5129 106.661 8.25645 106.604 0 106.627V106.063C8.33555 106.045 16.6729 106.095 25.0084 106.022C25.2176 105.703 25.418 105.379 25.6096 105.05C24.3018 105.045 22.9254 104.825 21.8742 103.989C20.2395 102.758 19.3676 100.654 19.4678 98.6326C19.5205 97.1437 20.3326 95.6848 21.6193 94.9201C22.7672 94.2064 24.177 94.1766 25.36 93.5402C27.0246 92.7422 28.067 91.132 28.8457 89.5236C19.2305 89.4727 9.61523 89.5061 0 89.5078V88.8943C9.7084 88.8732 19.4186 88.9031 29.1287 88.882C30.5244 85.9465 30.9428 82.5838 32.8131 79.8715C32.1398 80.0895 31.4332 80.1562 30.7547 80.3514C29.1199 80.7961 27.5994 81.5555 26.0332 82.1795C24.7869 82.6928 23.3631 82.677 22.0939 82.2639C19.6717 81.5449 17.3619 80.1967 14.7533 80.3619C11.3748 80.6326 8.18262 81.8824 5.01328 82.9934C5.11875 82.5873 5.5582 82.5328 5.8834 82.3887C9.1459 81.2022 12.498 79.9857 16.0172 80.0191C14.0906 79.759 12.0867 79.7221 10.1918 80.2072C6.72363 81.1002 3.39258 82.4361 0 83.5647V82.7227C1.03184 82.2375 2.15156 81.9896 3.21328 81.5818C6.16289 80.5061 9.14766 79.3441 12.3064 79.0963C13.9395 78.8977 15.5672 79.2879 17.1615 79.6008C17.1773 79.6957 17.2072 79.8838 17.223 79.9787C17.2406 79.8961 17.274 79.7309 17.2898 79.6482C18.1441 79.9682 19.0178 80.2336 19.865 80.5711C20.9707 80.9807 22.0465 81.501 23.2172 81.7119C24.4934 82.0441 25.7203 81.4166 26.8611 80.9279C28.4889 80.1492 30.2063 79.5445 31.9869 79.2352C32.5213 79.1438 33.0855 79.1701 33.5936 78.9574C34.077 78.6902 34.4672 78.2895 34.9506 78.0223C36.9369 76.9518 39.2555 76.718 41.4756 76.8234C44.3479 76.95 47.1832 78.3088 48.9164 80.6309C49.3049 81.1934 49.8234 81.7383 49.9236 82.4379C49.6934 82.6875 49.4262 82.8984 49.1783 83.1287C49.8832 83.7809 50.5195 84.5156 51.3246 85.0518C52.3846 85.8094 53.6766 86.3859 55.0072 86.2102C56.6033 85.9693 57.8619 84.832 59.3947 84.4031C60.4125 84.0621 61.5059 84.0252 62.5658 84.1219C64.3342 84.3223 65.9057 85.217 67.5299 85.8762C67.6494 85.602 67.8779 85.0078 68.2453 85.3805C68.727 85.848 69.2895 86.4563 69.1488 87.1875C68.9273 87.2473 68.7076 87.3105 68.4896 87.3791C69.1594 87.8924 70.0734 87.3984 70.8029 87.7465C71.2107 87.9521 71.2107 88.4602 71.325 88.8451C71.7328 88.8275 72.1406 88.8135 72.5484 88.7924C72.508 87.4002 72.501 86.0062 72.5186 84.6141C71.332 84.3873 70.149 84.1377 68.9924 83.7967C68.7041 83.6824 68.3367 83.6016 68.1961 83.2957C67.8428 82.7104 68.3877 81.849 69.0715 81.9369C70.2123 81.9721 71.3549 82.0002 72.4975 82.0072C72.5555 71.7012 72.5186 61.3916 72.5326 51.0838C71.9016 50.9203 71.6309 50.298 71.3197 49.7918C70.2703 48.0164 69.1295 46.2832 68.2365 44.4234ZM74.4873 53.3443C74.5225 62.9648 74.4609 72.5854 74.5102 82.2041C75.3891 82.2779 76.2732 82.3008 77.1557 82.3219C78.0311 81.0949 79.1947 80.0613 80.5061 79.3178C81.7734 78.6762 83.1639 78.2824 84.5701 78.0908C86.8447 77.8377 89.1316 78.0996 91.4115 78.0768C96.9188 78.2385 102.426 78.416 107.935 78.5268C108.733 78.518 109.533 78.6744 110.329 78.5496C110.319 70.1385 110.326 61.7238 110.341 53.3109C98.39 53.3654 86.4404 53.2986 74.4873 53.3443ZM111.981 53.3443C112.046 57.2555 111.981 61.1666 112.003 65.0777C113.173 65.0355 114.448 65.257 115.337 66.0762C114.312 65.5295 113.173 65.1252 111.994 65.2816C112.008 69.7412 111.987 74.2025 112.006 78.6639C115.392 78.7465 118.781 78.8221 122.164 78.9363C123.576 79.0154 125.002 78.924 126.401 79.1666C127.591 75.1904 128.587 71.1598 129.7 67.1643C129.802 66.6123 130.215 66.1588 130.781 66.0727C132.112 65.8195 133.488 65.8143 134.821 66.0709C135.471 66.085 136.383 66.3469 136.39 67.1414C136.027 71.2424 135.519 75.3328 135.158 79.4355C137.943 79.0207 140.725 78.5953 143.508 78.1717C144.835 78.0047 146.155 77.7006 147.495 77.6813C148.301 77.7498 148.625 78.968 147.934 79.4004C147.306 79.7484 146.593 79.9031 145.916 80.1246C142.276 81.1547 138.595 82.0494 134.889 82.8C134.865 82.916 134.819 83.1463 134.796 83.2623C135.563 83.1973 136.327 83.1111 137.097 83.0672C137.948 82.4379 139.075 82.466 140.084 82.4344C141.258 82.5205 142.46 82.3465 143.613 82.6312C144.81 83.0566 145.475 84.3838 145.499 85.5984C145.543 85.8937 145.397 86.2225 145.542 86.4967C146.294 86.6795 147.08 86.6391 147.85 86.6039C148.331 86.5811 148.867 86.4281 149.135 85.9904C149.4 85.4086 149.138 84.7371 149.353 84.143C149.808 83.9268 150.342 84.0059 150.833 83.9391C153.93 83.6104 157.029 83.2781 160.126 82.9424C160.119 82.7244 160.112 82.5064 160.105 82.2885C155.886 82.4115 151.676 82.7736 147.463 83.0197C146.665 83.0461 145.867 83.1727 145.071 83.1006C145.044 82.9758 144.993 82.7227 144.969 82.5979C150.01 82.2656 155.051 81.9141 160.098 81.7031C160.153 80.7152 160.182 79.7256 160.124 78.7395C160.091 70.265 160.149 61.7924 160.098 53.3197C144.06 53.3408 128.018 53.3109 111.981 53.3443ZM130.5 66.8496C130.382 67.1818 130.27 67.5158 130.173 67.8551C129.176 71.5588 128.178 75.2607 127.141 78.9521C127.027 79.2281 126.972 79.6904 126.575 79.6729C121.716 79.4813 116.849 79.3547 111.987 79.2457C112.027 81.2215 111.962 83.199 112.011 85.1766C112.279 85.0289 112.549 84.8777 112.853 84.8197C114.587 84.4664 116.358 84.4471 118.116 84.3398C120.593 84.2854 123.052 83.9725 125.527 83.867C128.426 83.6332 131.349 83.6561 134.235 83.2939C134.232 83.1973 134.221 83.0057 134.216 82.909C133.594 83.018 132.973 83.148 132.344 83.2201C131.994 83.3168 132.038 82.8826 132.012 82.6717C133.947 82.3008 135.904 82.0406 137.814 81.5502C140.938 80.8102 144.077 80.1123 147.131 79.1121C147.31 79.0172 147.621 79.0049 147.663 78.7553C147.862 78.4301 147.398 78.1998 147.136 78.2736C142.084 78.9451 137.067 79.8539 132.015 80.5289C131.567 80.6045 131.117 80.6924 130.663 80.6484C130.655 80.5307 130.639 80.2951 130.63 80.1773C131.896 79.9189 133.182 79.773 134.457 79.5586C134.861 75.4119 135.367 71.2758 135.744 67.1273C135.795 66.832 135.445 66.825 135.255 66.7775C133.697 66.4893 132.021 66.3047 130.5 66.8496ZM83.7105 78.8326C81.5748 79.2141 79.5867 80.3602 78.2104 82.0424C79.5727 81.9527 80.993 82.4748 81.8191 83.5945C82.6031 84.5701 82.7227 86.0344 81.9738 87.0662C84.2941 87.2385 86.6232 87.2455 88.9453 87.3967C92.8775 87.518 96.801 87.8133 100.733 87.9873C101.459 88.0277 102.196 87.9715 102.915 88.1156C102.92 88.5041 102.934 88.8943 102.969 89.2846C104.119 89.5148 105.344 89.6062 106.353 90.2707C107.223 90.7699 107.439 92.032 106.863 92.8336C108.014 92.8266 109.162 92.8811 110.312 92.9074C110.333 91.7771 110.248 90.6451 110.333 89.5148C108.946 89.4076 107.55 89.7381 106.17 89.4867C105.37 89.325 104.546 89.3074 103.753 89.1105C103.753 88.991 103.753 88.752 103.755 88.6324C104.52 88.6025 105.263 88.8223 106.021 88.8979C107.452 89.1105 108.895 88.9418 110.327 88.8451C110.303 87.7834 110.32 86.7217 110.334 85.6617C108.942 85.6072 107.552 85.8076 106.16 85.8375C105.203 85.8445 104.238 86.0309 103.287 85.8691L103.201 85.6389L103.294 85.4402C105.627 85.2398 107.968 85.152 110.306 85.0289C110.347 83.0848 110.34 81.1389 110.313 79.1947C103.776 78.9574 97.2352 78.8326 90.6943 78.6516C88.367 78.627 86.0133 78.3756 83.7105 78.8326ZM161.891 81.9738C161.873 82.2357 161.863 82.4994 161.854 82.7631C166.625 82.3219 171.378 81.7049 176.15 81.2812C176.342 81.2848 176.523 81.2197 176.662 81.0844C176.439 80.9912 176.208 80.884 175.964 80.8945C171.276 81.2936 166.579 81.5941 161.891 81.9738ZM68.9273 83.1059C70.1033 83.4504 71.2969 83.7615 72.5063 83.9725C72.5467 83.5488 72.5484 83.1217 72.5361 82.698C71.3812 82.5838 70.2193 82.5504 69.0592 82.5768C68.7533 82.5152 68.5512 83.0531 68.9273 83.1059ZM74.5084 82.7684C74.5014 83.3133 74.5014 83.86 74.5049 84.4066C74.9918 84.484 75.4787 84.5754 75.9639 84.6844C75.9885 84.0252 76.3594 83.482 76.6178 82.9143C75.9164 82.8439 75.2115 82.8035 74.5084 82.7684ZM139.085 83.0391C139.699 83.4504 139.894 84.1887 140.029 84.8725C140.173 86.1768 140.14 87.6445 139.199 88.6693C140.491 88.8135 141.792 88.6887 143.084 88.7924C143.856 88.8732 144.661 88.2475 144.738 87.4635C144.889 86.2576 145.086 84.8883 144.283 83.8547C143.835 83.1727 142.958 83.0619 142.209 83.0584C141.168 83.0654 140.126 82.9863 139.085 83.0391ZM44.2811 86.4633C43.8557 86.8693 43.3652 86.1416 42.8854 86.3842C42.0838 86.5863 42.0047 87.5549 42.1189 88.2334C42.191 88.8381 42.6428 89.2617 43.033 89.6818C43.3775 89.9947 42.808 90.116 42.5777 90.1494C42.6252 91.1566 42.9697 92.1182 43.2457 93.0832C45.1934 92.802 47.1463 91.6664 47.9689 89.8154C48.8566 87.8414 48.8162 85.609 48.6123 83.4979C47.0654 84.3293 45.6574 85.3787 44.2811 86.4633ZM133.566 83.9707C130.706 84.2098 127.837 84.317 124.973 84.477C122.574 84.665 120.171 84.8197 117.768 84.9305C115.831 84.992 113.904 85.2346 111.994 85.5369C111.888 87.9926 111.916 90.457 111.971 92.9162C112.263 92.9865 112.95 92.9461 112.794 93.4242C112.54 93.5543 112.254 93.5473 111.98 93.5736C112.022 97.7309 111.988 101.89 111.988 106.047C121.709 106.087 131.43 106.042 141.151 106.059C147.475 106.056 153.802 106.098 160.126 106.037C160.08 103.857 160.131 101.677 160.151 99.4975C160.072 97.8188 160.121 96.1383 160.098 94.4578C147.922 94.3945 135.745 94.4631 123.567 94.4297C121.34 94.4121 119.109 94.4859 116.886 94.3963C116.52 93.992 117.315 93.8988 117.571 93.8074C124.376 93.7775 131.179 93.8355 137.983 93.8092C145.375 93.7494 152.77 93.8619 160.16 93.7459C160.052 90.5221 160.147 87.2965 160.119 84.0727C157.479 84.2836 154.851 84.6492 152.216 84.9199C151.453 84.9797 150.694 85.1678 149.927 85.0623C149.903 85.8129 149.695 86.7498 148.881 87.01C147.781 87.3773 146.584 87.2314 145.45 87.1383C145.378 87.7869 145.206 88.4707 144.694 88.9172C149.658 88.8363 154.626 88.8838 159.594 88.875C159.592 89.0279 159.587 89.3338 159.585 89.4867C157.192 89.4674 154.798 89.5289 152.404 89.4586C149.528 89.5061 146.654 89.4885 143.779 89.4357C142.088 89.2635 140.368 89.5148 138.691 89.1967C137.663 88.8311 136.64 88.1156 136.331 87.0135C135.925 85.8867 136.178 84.6475 136.687 83.598C135.684 83.9514 134.608 83.8723 133.566 83.9707ZM49.224 84.0199C49.4139 85.6301 49.5158 87.3281 48.9357 88.875C54.4201 88.9031 59.9045 88.8627 65.3906 88.8891C65.765 88.8152 65.8371 89.2371 65.8688 89.5025C62.4832 89.4938 59.0959 89.492 55.7104 89.5025C53.3953 89.5307 51.075 89.448 48.7652 89.5729C48.3152 90.624 47.7299 91.6576 46.7736 92.3326C45.7963 93.1324 44.5377 93.3803 43.4021 93.8531C44.0227 94.2082 44.7504 94.3418 45.334 94.7672C46.4396 95.465 46.7561 96.8889 46.7965 98.1088C47.4574 98.7223 48.1096 99.3516 48.6228 100.099C49.9623 101.964 51.0328 104.008 52.0119 106.08C58.8393 106.038 65.6684 106.079 72.4957 106.066C72.559 102.389 72.5238 98.7082 72.5098 95.0309C67.674 95.1785 62.8383 95.3578 58.0061 95.5459C57.6826 95.5371 57.6633 95.2559 57.7072 94.9992C62.6432 94.6846 67.5967 94.6582 72.5326 94.3506C72.5203 92.7809 72.5221 91.2129 72.515 89.6449C72.4008 89.4814 72.2602 89.3426 72.1529 89.1791C72.1459 89.2406 72.1336 89.3654 72.1266 89.427C70.8996 89.4146 69.6586 89.5992 68.4422 89.4287C68.4316 89.3109 68.4105 89.0754 68.4 88.9576C69.1137 88.8715 69.8396 88.9436 70.5516 88.868C70.5709 88.6342 70.6113 88.316 70.3248 88.2334C69.6094 88.2369 68.8922 88.3002 68.1768 88.2316C68.175 87.8924 68.1908 87.5514 68.1943 87.2139C68.0748 87.2104 67.8357 87.2051 67.718 87.2016C67.7109 87.4266 67.9307 87.9785 67.4982 87.9064C67.4068 87.91 67.2258 87.917 67.1361 87.9223C67.0746 87.4178 67.3014 86.9695 67.5 86.5266C66.6334 86.1504 65.7527 85.8076 64.8914 85.4227C63.1846 84.6826 61.1982 84.4805 59.4281 85.1133C57.927 85.6389 56.649 86.785 55.0125 86.901C52.7326 87.1084 50.5969 85.7461 49.224 84.0199ZM74.4979 85.0641C74.5049 86.3367 74.4803 87.6111 74.5277 88.8838C80.6713 88.8768 86.8184 88.7924 92.9619 88.9137C92.9566 89.0543 92.9461 89.3355 92.9391 89.4762C91.8457 89.5605 90.7488 89.4885 89.6537 89.5025C84.5982 89.499 79.548 89.4199 74.4926 89.4938C74.5154 91.1074 74.4803 92.7193 74.5049 94.3313C78.3826 94.152 82.2621 94.0342 86.1398 93.8865C90.232 93.6738 94.3313 93.6141 98.427 93.4734C99.5537 93.4471 100.703 93.2906 101.813 93.5648L101.851 93.709C101.784 93.7775 101.653 93.9146 101.587 93.9832C92.5611 94.268 83.533 94.5615 74.5119 94.9658C74.4662 98.6607 74.5189 102.359 74.4891 106.054C86.1645 106.077 97.8416 106.044 109.519 106.072C109.77 106.022 110.15 106.188 110.315 105.938C110.348 101.804 110.268 97.6641 110.336 93.5297C109.002 93.3803 107.645 93.5402 106.318 93.2977C106.04 93.3926 105.768 93.535 105.469 93.5315C104.242 93.5613 102.978 93.6932 101.784 93.3328C101.173 93.1289 100.684 92.5805 100.622 91.9283C100.549 91.4695 100.835 91.0775 101.081 90.726C98.9437 90.5678 96.7975 90.5959 94.66 90.4131C93.702 90.2285 93.6404 88.9875 93.8461 88.2211C89.1105 87.9574 84.3627 87.8924 79.6412 87.4301C78.2262 87.3527 76.8568 86.6074 76.115 85.384C75.5859 85.2275 75.041 85.1414 74.4979 85.0641ZM43.7467 94.6758C44.0191 95.3279 44.1703 96.0328 44.5078 96.6551C45.0562 96.9627 45.624 97.2404 46.1707 97.5516C46.0951 97.1385 46.0055 96.7271 45.849 96.3387C45.5326 95.4404 44.6256 94.9008 43.7467 94.6758ZM44.7012 97.4021C44.9473 98.7029 44.7486 100.079 44.1492 101.261C43.1209 103.298 41.4193 104.929 39.5033 106.135C37.1672 107.531 34.2738 108.251 31.609 107.443C32.3033 107.97 33.0469 108.475 33.4793 109.259C33.7465 109.763 34.2123 110.373 33.866 110.946C34.8223 113.059 35.6977 115.225 36.2725 117.475C36.4623 117.257 36.6451 117.033 36.798 116.789C38.5348 114.105 40.4016 111.505 42.14 108.821C41.915 107.91 41.4457 107.019 41.5389 106.065C41.6443 106.056 41.8553 106.038 41.9607 106.029C42.5197 107.912 43.0277 109.816 43.7449 111.649C44.3672 113.27 44.8277 114.982 45.7646 116.462C46.5064 117.67 47.8986 118.733 49.3875 118.39C50.5143 118.236 51.3422 117.341 51.9697 116.464C52.8187 115.339 53.1773 113.889 53.0332 112.495C52.6764 108.466 50.9203 104.713 48.7652 101.345C47.7668 99.7154 46.4168 98.2828 44.7012 97.4021ZM26.39 105.077C25.7783 105.778 25.4637 106.662 24.9785 107.443C26.3355 106.977 27.7717 106.62 29.2184 106.784C29.1621 106.501 29.2113 106.179 29.0707 105.926C28.234 105.5 27.3199 105.203 26.39 105.077ZM74.482 106.675C74.5207 112.741 74.4979 118.805 74.4926 124.871C81.9492 124.842 89.4076 124.87 96.8643 124.852C96.6023 124.393 96.3545 123.926 96.1031 123.463C95.8764 123.035 95.5459 122.62 95.6092 122.105C96.481 122.041 97.3564 122.099 98.2318 122.087C98.2266 119.944 98.2266 117.802 98.2266 115.661C98.202 115.253 98.5869 114.922 98.9684 114.894C102.758 114.885 106.55 114.906 110.34 114.873C110.319 112.175 110.32 109.475 110.304 106.777C110.115 106.569 109.751 106.682 109.496 106.624C102.707 106.62 95.9168 106.631 89.1281 106.622C84.2467 106.659 79.3635 106.576 74.482 106.675ZM111.996 106.669C112.011 109.42 111.985 112.173 112.001 114.926C122.242 114.873 132.485 114.901 142.726 114.884C143.154 114.829 143.603 115.212 143.566 115.657C143.539 117.803 143.655 119.962 143.524 122.101C144.473 122.18 145.468 121.939 146.389 122.17C146.412 122.259 146.456 122.44 146.479 122.532C146.16 123.325 145.661 124.029 145.322 124.812C148.257 124.908 151.198 124.849 154.136 124.84C154.123 123.369 153.972 121.834 154.564 120.442C155.09 118.949 156.277 117.719 157.795 117.239C157.79 114.956 157.778 112.672 157.801 110.389C157.727 109.415 157.458 108.36 157.874 107.43C158.353 106.641 159.412 106.882 160.188 106.831L160.082 106.661C159.284 106.573 158.479 106.643 157.678 106.641C150.585 106.604 143.492 106.661 136.399 106.625C128.266 106.655 120.131 106.594 111.996 106.669ZM158.759 108.663C158.672 110.41 158.72 112.157 158.715 113.904C158.722 115.001 158.662 116.1 158.753 117.193C159.24 117.169 159.727 117.162 160.216 117.153C160.181 114.316 160.226 111.479 160.163 108.642C159.694 108.647 159.226 108.65 158.759 108.663ZM161.937 108.652C161.879 109.169 161.861 109.689 161.88 110.21C161.946 112.509 161.852 114.812 161.93 117.109C162.056 117.127 162.308 117.162 162.432 117.178C162.489 114.369 162.381 111.558 162.497 108.751C162.313 108.693 162.127 108.659 161.937 108.652ZM42.6586 110.389C41.9977 111.509 41.2523 112.574 40.5158 113.644C39.2959 115.539 38.0303 117.404 36.8121 119.299C36.5871 119.558 36.7523 119.904 36.7418 120.208C36.7277 121.393 36.5027 122.597 35.949 123.652C35.1352 125.195 33.6639 126.258 32.1627 127.072C30.1359 128.157 27.8402 128.983 25.5111 128.749C25.3459 129.287 25.3406 129.872 25.4848 130.416C25.6623 130.869 25.9928 131.238 26.2441 131.65C26.1861 132.21 25.9471 132.833 26.2547 133.363C26.5939 133.884 27.225 134.065 27.784 134.253C31.8076 135.508 36.0773 135.601 40.2574 135.452C43.2176 135.309 46.2199 135.065 49.0605 134.165C49.5773 134.028 50.0994 133.734 50.3121 133.219C50.574 132.68 50.0291 132.07 50.3596 131.553C50.7867 130.89 51.2262 130.189 51.249 129.375C51.198 128.283 50.843 127.241 50.5828 126.188C49.9852 123.838 49.3348 121.498 48.8865 119.115C48.2889 119.078 47.7246 118.876 47.1727 118.665C46.6822 120.357 46.2744 122.077 45.6803 123.736C45.6539 124.063 45.1125 124.098 45.065 123.768C45.6275 121.957 46.1373 120.127 46.6242 118.294C45.7102 117.633 45.109 116.641 44.6396 115.636C43.8785 113.927 43.2826 112.15 42.6586 110.389ZM100.689 117.016C100.696 117.336 100.714 117.657 100.742 117.979C101.962 117.925 103.187 117.965 104.405 117.911C105.634 118.037 106.871 117.882 108.105 117.983C108.851 117.824 109.6 118.076 110.352 117.937C110.338 117.615 110.327 117.295 110.306 116.975C107.102 117.021 103.896 116.965 100.689 117.016ZM111.959 117C111.966 117.32 111.978 117.643 111.996 117.967C113.801 117.9 115.608 118.014 117.415 117.969C118.194 117.877 118.974 118.062 119.754 117.932C119.749 117.626 119.74 117.323 119.733 117.021C117.141 116.984 114.55 117.016 111.959 117ZM121.737 117.039C121.741 117.343 121.757 117.645 121.779 117.951C128.227 117.935 134.678 117.969 141.135 117.974C141.135 117.647 141.131 117.322 141.133 117C134.668 117.005 128.201 116.956 121.737 117.039ZM100.696 119.862C100.682 120.201 100.693 120.544 100.737 120.885C103.931 120.844 107.125 120.853 110.32 120.883C110.334 120.535 110.333 120.187 110.303 119.842C107.1 119.827 103.897 119.834 100.696 119.862ZM111.983 119.839C111.983 120.189 111.99 120.542 112.011 120.895C114.592 120.827 117.174 120.895 119.754 120.855C119.751 120.521 119.744 120.19 119.733 119.86C117.151 119.825 114.567 119.86 111.983 119.839ZM121.748 119.863C121.746 120.189 121.758 120.516 121.779 120.844C128.234 120.867 134.687 120.86 141.144 120.865C141.14 120.519 141.129 120.176 141.115 119.835C134.661 119.827 128.201 119.837 121.748 119.863ZM160.833 122.338C161.388 122.275 161.972 122.388 162.515 122.24C162.963 122.08 162.802 121.57 162.65 121.249C162.046 121.24 161.436 121.173 160.835 121.256C160.332 121.409 160.42 122.126 160.833 122.338ZM96.3264 122.651C96.8291 123.507 97.2193 124.444 97.8047 125.244C105.748 125.205 113.702 125.248 121.649 125.241C128.443 125.237 135.237 125.234 142.031 125.244C142.75 125.269 143.494 125.139 144.188 125.383C144.911 124.611 145.197 123.532 145.8 122.669C142.49 122.78 139.178 122.736 135.867 122.753C127.137 122.743 118.408 122.757 109.68 122.755C105.23 122.701 100.774 122.864 96.3264 122.651ZM36.3059 137.83C36.3604 144.793 35.0367 151.657 34.4443 158.574C34.2914 160.07 34.3459 161.578 34.2123 163.076C33.4564 163.076 32.7059 162.997 31.9641 162.858C31.7338 163.586 31.6002 164.338 31.4613 165.088C31.5967 165.431 31.7549 165.774 32.066 165.992C32.1416 165.916 32.2945 165.762 32.3719 165.684C33.641 165.665 34.9172 165.908 36.1775 166.082C36.4816 165.146 36.5449 164.157 36.6574 163.187C36 163.194 35.3426 163.192 34.6887 163.146C34.6781 162.2 34.7396 161.256 34.7625 160.314C35.2301 153.499 36.552 146.76 36.7295 139.922C36.7629 139.103 36.8684 138.262 36.6715 137.457C36.5572 137.577 36.2637 137.612 36.3059 137.83ZM157.34 137.507C157.349 137.812 157.363 138.12 157.386 138.429C157.952 138.596 158.532 138.716 159.117 138.795C161.473 139.082 163.842 139.257 166.194 139.577C165.967 138.908 166.027 138.197 165.966 137.507C163.09 137.503 160.214 137.565 157.34 137.507ZM27.7576 161.868C27.5643 162.809 27.2584 163.721 27.0756 164.665C28.3693 164.714 29.6631 164.633 30.9568 164.67C31.0482 164.025 31.2293 163.397 31.333 162.754C30.1096 162.599 28.9143 162.288 27.7576 161.868ZM37.3184 163.167C37.2129 163.705 37.1285 164.248 37.023 164.788C38.4346 164.82 39.8531 164.904 41.2629 164.779C41.3314 164.188 41.3895 163.598 41.4967 163.014C40.1045 163.076 38.7123 163.239 37.3184 163.167ZM26.9156 165.205C26.6062 165.814 26.2916 166.423 26.0209 167.054C28.1865 166.994 30.3574 167.096 32.5213 166.932C31.6881 166.709 31.1396 165.981 30.8742 165.197C29.5559 165.157 28.2357 165.212 26.9156 165.205ZM36.9967 165.342C36.8367 165.943 36.6609 166.547 36.2795 167.054C38.373 167.07 40.4684 167.063 42.5602 167.008C42.0504 166.551 41.5441 166.031 41.4316 165.324C39.9533 165.354 38.4732 165.271 36.9967 165.342ZM32.5441 166.177C32.618 166.794 33.7113 167.121 33.7693 166.335C33.3615 166.277 32.9537 166.215 32.5441 166.177ZM43.0014 166.44C42.9363 166.867 43.5604 166.876 43.8645 166.929C43.9418 166.774 44.0191 166.621 44.0965 166.47C43.766 166.333 43.302 166.233 43.0014 166.44ZM33.4934 167.407C31.1256 167.593 28.742 167.511 26.3654 167.565C26.151 167.585 25.7818 167.537 25.7414 167.838C25.7256 168.298 25.868 168.778 26.1457 169.151C26.5623 169.627 27.2654 169.43 27.8244 169.483C27.8332 169.56 27.8525 169.713 27.8631 169.789C27.8578 169.699 27.8508 169.518 27.8473 169.427C28.285 169.534 28.7332 169.443 29.1762 169.436C31.3137 169.392 33.4547 169.355 35.5869 169.204C35.4604 168.594 35.3936 167.959 35.5271 167.346C35.6625 167.059 35.8348 166.792 35.9279 166.489C35.3654 166.437 34.7994 166.421 34.2334 166.416C34.1508 166.839 34.0453 167.411 33.4934 167.407ZM44.5447 166.484C44.4762 166.776 44.441 167.085 44.2916 167.354C43.9822 167.56 43.5902 167.463 43.2422 167.502C41.6004 167.602 39.9533 167.56 38.3098 167.572C37.5451 167.578 36.7717 167.502 36.0211 167.674C35.9912 168.202 35.9631 168.761 36.1863 169.258C36.4641 169.537 36.8965 169.546 37.2674 169.562C40.4842 169.487 43.7027 169.467 46.9195 169.355C47.4961 169.26 48.2203 169.156 48.5104 168.572C48.774 168.012 48.3434 167.351 47.8125 167.138C46.7859 166.695 45.6574 166.521 44.5447 166.484ZM23.7023 168.448L23.6936 168.579C24.0838 168.819 24.7184 168.541 25.2088 168.622C25.193 168.509 25.1648 168.284 25.149 168.173C24.6762 168.279 24.1277 168.233 23.7023 168.448Z" fill="black"/>
<path d="M69.4582 43.9822C70.2088 43.9137 70.9611 43.9242 71.7135 43.9277C92.2816 43.8961 112.852 43.9365 133.416 43.9383C144.313 43.933 155.211 43.9102 166.11 43.9189C170.742 43.9225 175.37 43.9664 180 43.9102V44.492C164.589 44.4797 149.173 44.5271 133.766 44.4656C127.03 44.4938 120.287 44.5008 113.549 44.4674C98.8681 44.5096 84.1799 44.5219 69.4969 44.4867C69.4881 44.3602 69.4687 44.1088 69.4582 43.9822Z" fill="black"/>
<path d="M27.5273 47.9075C28.5293 47.9356 29.4609 48.4383 30.4189 48.7125C30.7845 48.7969 31.1449 48.9147 31.4754 49.0993C32.5406 48.8198 33.5496 48.368 34.6095 48.0709C35.0226 47.8881 35.8453 47.6227 35.7785 48.3785C35.042 48.6598 34.3142 48.9674 33.5513 49.1731C33.0644 49.3383 32.5758 49.4948 32.0888 49.66C32.0994 50.2243 32.2541 50.9291 31.6459 51.235C31.4508 51.1119 31.2205 51.0293 31.0851 50.8342C31.0025 50.4475 31.064 50.0485 31.0535 49.6565C29.8564 49.2469 28.6242 48.9323 27.4711 48.4067C27.4886 48.2397 27.508 48.0727 27.5273 47.9075Z" fill="black"/>
<path d="M41.0397 54.1336C41.2102 53.7328 41.7129 53.267 42.1418 53.6221C42.9574 54.2391 43.8293 54.7717 44.7153 55.2797C45.102 54.835 45.1705 54.1195 45.7524 53.8524C46.2287 53.6467 46.8229 54.1442 46.6717 54.6486C46.3817 56.2729 44.7891 57.3188 43.2352 57.4998C42.7764 57.6158 42.1295 57.3276 42.1963 56.7809C42.1735 56.3133 42.7096 56.2184 43.0172 56.0092C42.2174 55.5733 41.3983 55.0055 41.0397 54.1336Z" fill="black"/>
<path d="M104.409 64.19C104.539 63.0879 105.623 62.2318 106.736 62.4621C106.458 62.775 105.945 62.4357 105.653 62.7416C105.258 63.0035 104.97 63.3955 104.723 63.7945C104.599 64.2059 104.924 64.5469 105.126 64.8686C105.629 65.6068 106.427 66.0533 107.227 66.4014C106.033 66.3803 105.26 65.3643 104.544 64.5504C103.124 64.6576 101.742 64.9863 100.413 65.4873C100.568 65.0813 101.083 65.0795 101.429 64.916C102.389 64.5346 103.442 64.5328 104.409 64.19Z" fill="black"/>
<path d="M107.722 63.3164C108.48 63.225 109.232 63.835 109.528 64.4942C109.025 63.9615 108.464 63.4606 107.722 63.3164Z" fill="black"/>
<path d="M175.883 65.9812C176.977 64.9177 178.485 64.3676 180 64.35V64.4713C178.495 64.6717 176.975 65.134 175.862 66.2203C175.867 66.1605 175.878 66.041 175.883 65.9812Z" fill="black"/>
<path d="M94.9975 79.9084C95.5336 79.4548 96.6041 79.7291 96.6516 80.4972C96.7465 81.4974 96.6322 82.5046 96.6709 83.5084C96.7166 83.8142 96.5936 84.2765 96.1875 84.1552C95.9449 83.8054 96.0328 83.3625 96.0205 82.9652C96.017 82.1513 96.0539 81.3357 96.0311 80.5218C95.9555 80.1386 95.2225 80.2494 95.3191 80.6572C95.3244 81.7119 95.4281 82.7718 95.3297 83.8265C95.3965 84.2044 94.7391 84.15 94.7338 83.8388C94.6758 83.0232 94.7356 82.2041 94.6934 81.3884C94.7039 80.8892 94.5773 80.2828 94.9975 79.9084Z" fill="black"/>
<path d="M14.2084 81.3164C15.6797 81.0053 17.2125 81.2162 18.6328 81.6645C18.9088 81.7717 19.2199 81.8613 19.3922 82.1285C18.6522 82.016 17.9666 81.6873 17.2266 81.5713C16.1772 81.3973 15.0961 81.4078 14.0537 81.6293C12.143 81.9791 10.241 82.4326 8.42521 83.134C8.20197 83.1867 7.93654 83.3994 7.72736 83.1727C7.95236 83.0268 8.18263 82.8861 8.43751 82.8035C10.3184 82.1566 12.2555 81.6855 14.2084 81.3164Z" fill="black"/>
<path d="M87.518 81.7471C87.6199 81.3464 88.1103 81.4465 88.3898 81.5766C88.3582 81.7963 88.3916 82.0583 88.1947 82.2165C87.8994 82.4696 87.3492 82.1092 87.518 81.7471Z" fill="black"/>
<path d="M89.0367 81.494C89.274 81.4624 89.5658 81.4588 89.7293 81.6715C89.7574 81.9422 89.6344 82.3079 89.2951 82.2622C88.8715 82.3993 88.6201 81.617 89.0367 81.494Z" fill="black"/>
<path d="M90.1617 81.5326C90.4465 81.4693 90.7348 81.501 91.0195 81.5607C91.0846 81.8543 90.9984 82.1303 90.7682 82.3254C90.276 82.3869 89.9912 81.9914 90.1617 81.5326Z" fill="black"/>
<path d="M91.3113 81.9264C91.3272 81.3428 91.9195 81.4412 92.2957 81.5801C92.3361 81.8297 92.3766 82.1303 92.1252 82.292C91.7807 82.4397 91.5258 82.1373 91.3113 81.9264Z" fill="black"/>
<path d="M92.642 81.9247C92.5013 81.3112 93.2027 81.3832 93.5578 81.5538C93.5455 81.784 93.5279 82.0161 93.5086 82.2481C93.1922 82.3149 92.6578 82.3887 92.642 81.9247Z" fill="black"/>
<path d="M97.9101 82.2709C97.8556 81.8701 98.3531 81.7031 98.6185 81.9457C98.717 82.1602 98.622 82.4045 98.622 82.6313C98.325 82.7877 97.8398 82.7051 97.9101 82.2709Z" fill="black"/>
<path d="M99.16 81.9017C99.334 81.8402 99.5238 81.8771 99.7066 81.8719C99.777 82.1109 100.042 82.074 100.232 82.1092C100.222 81.7646 100.617 81.8631 100.828 81.8402C101.115 82.0142 101.051 82.4783 100.798 82.6629C100.594 82.6347 100.178 82.7472 100.262 82.3676C99.7875 82.292 99.6258 82.8826 99.1336 82.6576C99.0721 82.4097 99.007 82.1338 99.16 81.9017Z" fill="black"/>
<path d="M101.385 81.9949C101.572 81.6697 101.987 81.9246 102.266 81.9475C102.243 82.2024 102.233 82.5293 101.936 82.6242C101.58 82.8106 101.085 82.3272 101.385 81.9949Z" fill="black"/>
<path d="M102.762 81.8684C103.039 81.9088 103.598 81.7893 103.532 82.2463C103.426 82.6313 102.841 82.9178 102.604 82.4696C102.368 82.2674 102.67 82.0547 102.762 81.8684Z" fill="black"/>
<path d="M104.061 82.0564C104.365 81.9633 104.695 81.8508 104.994 82.0353C105.253 82.3799 104.748 82.7824 104.414 82.7683C104.094 82.6752 104.052 82.3377 104.061 82.0564Z" fill="black"/>
<path d="M105.326 82.3306C105.497 82.1373 105.674 81.8753 105.979 81.9492C106.233 82.1144 106.529 82.1742 106.831 82.1425L106.819 81.9246C106.965 81.9263 107.256 81.9316 107.402 81.9351C107.452 82.0283 107.548 82.2146 107.597 82.3078C107.926 82.0845 108.25 81.863 108.673 81.9949L108.568 82.3148C108.715 82.3042 108.867 82.2955 109.018 82.2884C109.007 81.7382 109.916 81.9246 109.805 82.4273C109.796 82.9265 108.926 82.9599 109.023 82.3974C108.879 82.4044 108.737 82.4132 108.596 82.4238C108.476 82.9898 107.914 82.7138 107.582 82.5503C107.255 82.7314 106.569 83.025 106.617 82.3464C106.53 82.3746 106.355 82.4308 106.267 82.4589C106.017 82.8931 105.478 82.7666 105.326 82.3306Z" fill="black"/>
<path d="M113.455 82.0002C113.957 81.7435 114.298 82.6822 113.836 82.8791C113.627 82.9072 113.398 82.909 113.217 82.7929C113.115 82.5293 113.133 82.0986 113.455 82.0002Z" fill="black"/>
<path d="M114.875 82.053C115.325 81.8473 115.603 82.5083 115.337 82.8194C115.112 82.9108 114.826 82.9635 114.643 82.7649C114.571 82.5223 114.523 82.0829 114.875 82.053Z" fill="black"/>
<path d="M116.04 82.9354C115.72 82.5979 115.905 81.8878 116.445 82.0583C116.933 82.0547 116.837 82.6102 116.703 82.9108C116.481 82.9178 116.26 82.9266 116.04 82.9354Z" fill="black"/>
<path d="M118.559 82.1654C118.983 82.0054 119.29 82.2462 119.461 82.6312C119.595 82.4097 119.742 82.0335 120.078 82.1038C120.56 82.1566 120.233 82.6997 120.238 83.0021C120.059 83.0056 119.869 83.0689 119.702 82.9933C119.621 82.9195 119.459 82.7736 119.378 82.6997C119.238 82.9792 118.923 83.1937 118.622 83.0038C118.496 82.7402 118.552 82.4431 118.559 82.1654Z" fill="black"/>
<path d="M120.948 82.2691C121.215 82.139 121.539 82.1953 121.83 82.1531C121.725 82.2462 121.62 82.3412 121.518 82.4361C121.757 83.0232 121.143 83.1339 120.741 82.988C120.635 82.7367 120.814 82.4712 120.948 82.2691Z" fill="black"/>
<path d="M123.281 82.4414C123.571 82.1303 124.033 82.2692 124.409 82.1725C124.244 82.3518 124.298 82.5926 124.397 82.7912C124.45 82.4502 124.81 82.1338 125.163 82.2498C125.43 82.336 125.378 82.6594 125.429 82.8774C125.16 83.0162 124.864 83.0496 124.571 82.9793C124.508 82.7526 124.249 82.7824 124.079 82.7174C124.209 83.4065 122.954 82.9196 123.281 82.4414Z" fill="black"/>
<path d="M13.7865 82.6558C15.532 82.1988 17.441 82.1795 19.1338 82.8562C19.125 82.9072 19.1074 83.0091 19.0986 83.0601C17.9912 82.6892 16.8135 82.5117 15.648 82.6312C15.0873 82.647 14.5459 82.8316 13.9869 82.8492C13.9377 82.8 13.8357 82.705 13.7865 82.6558Z" fill="black"/>
<path d="M121.924 82.8615C121.741 82.364 122.451 82.1935 122.81 82.2181C122.815 82.4835 122.813 82.749 122.803 83.0162C122.528 82.9546 122.099 83.1498 121.924 82.8615Z" fill="black"/>
<path d="M47.5893 85.0922C47.5559 84.6861 48.0691 84.15 48.4506 84.4646C48.6176 84.9885 47.9426 85.0693 47.5893 85.0922Z" fill="black"/>
<path d="M118.668 86.3806C124.107 85.9781 129.549 85.5527 134.986 85.1396C135.387 85.0992 135.923 85.2978 135.858 85.7883C135.951 86.298 135.336 86.2646 135.007 86.3086C132.193 86.523 129.379 86.741 126.566 86.966C124.741 87.0732 122.926 87.3492 121.097 87.3826C120.776 87.4054 120.575 87.1488 120.377 86.9466C119.79 86.8799 118.651 87.3316 118.668 86.3806Z" fill="black"/>
<path d="M47.6842 85.7935C47.7281 85.3769 48.1764 85.4543 48.4805 85.4578C48.4489 85.79 48.6141 86.226 48.3487 86.4896C47.9356 86.5846 47.7563 86.11 47.6842 85.7935Z" fill="black"/>
<path d="M112.461 86.2295C113.518 86.0503 114.592 85.936 115.664 85.9571C116.888 85.994 117.861 86.8501 118.628 87.7219C119.22 87.7044 119.805 88.0102 120.159 88.4796C120.484 89.0473 120.407 89.7557 120.231 90.3586C120.078 90.9616 119.403 91.1251 118.891 91.3061C118.784 91.851 118.865 92.4434 118.628 92.9567C118.227 93.4049 117.712 93.876 117.065 93.8145C116.184 93.8163 115.305 93.9376 114.427 93.8831C113.606 93.8813 112.948 93.0903 112.982 92.2922C113.11 92.192 113.24 92.0919 113.37 91.9934C112.853 91.7878 112.328 91.4555 112.24 90.8579C112.027 89.8454 111.981 88.6835 112.569 87.7799C113.122 86.8483 114.71 86.734 115.29 87.7008C116.067 88.8803 115.877 90.4905 115.218 91.6805C116.058 91.6032 117.113 91.9354 117.742 91.1989C118.304 90.7243 118.325 89.9508 118.259 89.2776C118.188 87.7378 116.685 86.3087 115.114 86.5337C114.228 86.5794 113.328 86.5969 112.481 86.8835C112.475 86.72 112.467 86.393 112.461 86.2295ZM118.758 88.3389C118.893 89.0667 118.911 89.8067 118.86 90.545C119.545 90.4465 119.948 89.7944 119.737 89.1317C119.728 88.5973 119.192 88.418 118.758 88.3389Z" fill="black"/>
<path d="M107.576 86.6795C108.222 86.625 108.874 86.553 109.521 86.6356C109.932 86.6549 110.058 87.2227 109.823 87.4969C109.64 87.7553 109.294 87.7799 109.009 87.8256C107.177 87.9188 105.347 88.07 103.512 88.0541C103.062 88.0489 102.746 87.5848 102.762 87.1647C102.894 86.9678 103.17 87.0276 103.375 86.9836C104.78 86.9415 106.174 86.7569 107.576 86.6795Z" fill="black"/>
<path d="M124.926 88.207C124.958 87.9644 125.154 87.8713 125.332 88.0471C125.803 88.6764 125.868 89.5078 125.77 90.2654C126.928 90.2355 128.087 90.1353 129.229 89.9402C129.855 89.8154 130.523 89.615 130.952 89.1123C131.175 88.6975 131.029 88.2158 131.008 87.7764C131.704 87.6516 131.797 88.4021 131.732 88.9066C133.576 88.882 135.425 88.8346 137.269 88.9312C137.268 89.0701 137.268 89.3478 137.266 89.4867C135.439 89.5271 133.613 89.4744 131.788 89.5131C131.729 89.4182 131.613 89.2301 131.553 89.1351C131.548 89.2178 131.535 89.383 131.53 89.4674C131.031 90.0474 130.293 90.3269 129.565 90.4939C128.234 90.7717 126.87 90.849 125.515 90.8473C125.031 91.3113 124.439 91.6787 123.762 91.7596C122.251 92.0127 120.688 92.0865 119.166 91.9266C119.145 91.8123 119.104 91.5873 119.083 91.4748C120.672 91.3676 122.291 91.5064 123.855 91.1461C124.453 91.016 124.998 90.5994 125.188 90.0035C125.362 89.3848 124.938 88.8152 124.926 88.207Z" fill="black"/>
<path d="M65.8828 88.9453C66.2028 88.7835 66.5016 89.0876 66.8057 89.165C67.0817 89.1861 66.8584 89.5007 66.7178 89.5429C66.4313 89.5165 66.1553 89.4357 65.8776 89.3847C65.8776 89.2757 65.8811 89.0542 65.8828 88.9453Z" fill="black"/>
<path d="M77.3771 91.9389C77.6601 91.9038 77.9467 91.8756 78.2349 91.8844C85.4332 92.1569 92.6367 92.2501 99.835 92.5507C100.197 92.4997 100.448 92.7247 100.468 93.0903C98.8506 93.1589 97.2351 92.9637 95.618 92.962C89.5412 92.7739 83.4627 92.6262 77.3859 92.4469C77.3842 92.3204 77.3789 92.0655 77.3771 91.9389Z" fill="black"/>
<path d="M119.338 92.4504C127.273 92.4275 135.204 92.468 143.139 92.4258C143.139 92.5752 143.14 92.874 143.14 93.0234C135.447 93.0604 127.751 93.0604 120.055 93.0568C119.809 93.0463 119.566 93.0305 119.324 93.0076C119.327 92.8687 119.334 92.5893 119.338 92.4504Z" fill="black"/>
<path d="M123.759 100.93C125.93 101 128.115 100.839 130.279 101.011C128.108 101.053 125.935 101.007 123.762 101.039L123.759 100.93Z" fill="black"/>
<path d="M63.8385 126.601C64.51 126.446 65.2043 126.538 65.8864 126.524C65.8793 126.679 65.8635 126.99 65.8547 127.144C65.2149 127.155 64.5768 127.144 63.9387 127.162C63.9018 126.974 63.8701 126.786 63.8385 126.601Z" fill="black"/>
<path d="M98.1492 129.795C98.3426 129.799 98.5377 129.804 98.7346 129.811C98.7926 132.532 98.7381 135.257 98.7539 137.98C98.7732 138.437 98.7785 138.945 99.0861 139.315C99.2127 139.577 99.6434 139.611 99.7822 139.342C100.027 138.934 100.039 138.442 100.051 137.983C100.076 135.403 100.034 132.82 100.074 130.24C100.039 129.89 100.259 129.725 100.6 129.839C100.724 130.134 100.698 130.46 100.705 130.774C100.682 133.418 100.731 136.062 100.686 138.704C100.644 139.333 100.195 140.05 99.5098 140.084C99.1143 140.131 98.7891 139.881 98.4621 139.709C95.9203 139.489 93.3768 139.328 90.8279 139.224C90.8631 139.157 90.9334 139.022 90.9686 138.955C92.3397 139.09 93.7231 139.099 95.0941 139.252C96.2209 139.31 97.3635 139.301 98.4709 139.556C98.1703 139.087 98.0596 138.546 98.1018 137.997C98.1404 135.262 98.0561 132.527 98.1492 129.795Z" fill="black"/>
<path d="M141.669 129.813C141.812 129.82 142.093 129.832 142.233 129.839C142.379 132.374 142.209 134.919 142.277 137.457C142.318 138.164 142.114 139.17 142.912 139.53C143.357 139.577 143.517 139.066 143.568 138.716C143.677 135.761 143.615 132.803 143.627 129.846C143.771 129.848 144.056 129.853 144.199 129.855C144.348 132.268 144.23 134.692 144.278 137.111C144.207 137.881 144.411 138.718 144.005 139.423C143.763 139.985 143.033 140.302 142.479 139.999C141.864 139.614 141.608 138.855 141.645 138.157C141.655 135.376 141.597 132.594 141.669 129.813Z" fill="black"/>
<path d="M176.625 129.86C176.919 129.669 177.172 129.985 177.142 130.257C177.173 133.07 177.079 135.886 177.179 138.698C177.161 139.122 177.521 139.751 178.017 139.503C178.443 139.22 178.388 138.621 178.436 138.171C178.487 135.475 178.451 132.778 178.474 130.082C178.453 129.709 178.859 129.741 179.042 129.964C179.142 130.219 179.125 130.503 179.14 130.778C179.095 133.421 179.151 136.067 179.079 138.712C179.038 139.467 178.344 140.3 177.529 140.096C176.901 139.862 176.493 139.171 176.502 138.512C176.44 135.881 176.493 133.247 176.458 130.616C176.463 130.352 176.395 130.05 176.625 129.86Z" fill="black"/>
<path d="M27.392 131.85C27.6082 131.862 27.8209 131.896 28.0301 131.948C31.732 133.153 35.666 133.458 39.5402 133.369C42.2015 133.286 44.8681 133.028 47.4592 132.39C47.9935 132.272 48.5051 131.98 49.0693 132.054C48.9146 132.506 48.3398 132.492 47.9654 132.659C43.9717 133.738 39.7881 133.919 35.673 133.731C33.1769 133.571 30.6914 133.158 28.292 132.446C27.9633 132.307 27.4763 132.27 27.392 131.85Z" fill="black"/>
<path d="M83.9935 137.596C88.4232 137.521 92.8652 137.551 97.2984 137.558C97.3072 137.653 97.3248 137.844 97.3318 137.939C94.8902 137.939 92.4469 137.936 90.0053 137.923C88.5603 137.886 87.1137 138.018 85.6705 137.904C85.6969 137.994 85.7496 138.171 85.776 138.261C85.1713 138.071 84.3926 138.22 83.8986 137.813L83.9935 137.596Z" fill="black"/>
<path d="M101.171 137.575C105.455 137.531 109.747 137.544 114.033 137.556C114.054 137.658 114.1 137.862 114.121 137.964C110.89 137.927 107.659 137.934 104.428 137.928C103.358 137.967 102.278 137.828 101.22 138.016C101.208 137.906 101.183 137.686 101.171 137.575Z" fill="black"/>
<path d="M139.263 137.514C139.764 137.526 140.268 137.544 140.773 137.531C140.787 137.64 140.818 137.86 140.832 137.969C140.302 137.965 139.772 137.958 139.243 137.953C139.249 137.844 139.257 137.624 139.263 137.514Z" fill="black"/>
<path d="M144.761 137.561C147.115 137.551 149.469 137.544 151.822 137.556C151.824 137.656 151.828 137.856 151.829 137.955C149.59 137.93 147.349 137.892 145.111 137.944C145.229 138.115 145.325 138.291 145.245 138.516C146.51 138.56 147.778 138.537 149.045 138.553C150.623 138.445 152.107 139.09 153.626 139.407C154.137 139.574 154.754 139.54 155.159 139.945C153.51 139.672 151.898 139.198 150.288 138.762C148.518 138.737 146.746 138.751 144.977 138.707C145.225 138.507 145.155 137.878 144.775 137.883C144.772 137.802 144.765 137.642 144.761 137.561Z" fill="black"/>
<path d="M169.005 137.489C170.851 137.399 172.707 137.566 174.558 137.501C174.96 137.551 175.479 137.392 175.794 137.721C175.154 137.904 174.48 137.732 173.828 137.756C172.262 137.756 170.696 137.679 169.131 137.726C169.1 137.668 169.037 137.549 169.005 137.489Z" fill="black"/>
<path d="M115.133 137.943C114.855 137.999 115.063 137.38 115.316 137.549C119.769 137.584 124.221 137.536 128.672 137.568C129.35 137.761 129.996 138.071 130.7 138.176C130.718 138.208 130.753 138.273 130.771 138.305C129.844 138.489 128.946 137.776 127.995 137.92C123.71 137.92 119.421 137.907 115.133 137.943Z" fill="black"/>
<path d="M152.756 137.688C153.053 137.73 153.703 137.466 153.745 137.92C153.538 138.213 152.754 138.141 152.756 137.688Z" fill="black"/>
<path d="M179.336 137.589C179.65 137.494 179.872 137.579 180 137.844V138.364C179.779 138.104 179.548 137.853 179.336 137.589Z" fill="black"/>
<path d="M85.7285 138.045C86.9643 138.314 88.2299 138.414 89.4674 138.686C89.7258 138.753 90.0738 138.73 90.1951 139.029C88.7502 138.778 87.307 138.516 85.8604 138.275L85.7285 138.045Z" fill="black"/>
<path d="M130.989 138.352C131.063 138.34 131.21 138.319 131.284 138.308C133.552 138.837 135.884 138.985 138.173 139.398C138.918 139.504 139.665 139.598 140.418 139.642C140.428 139.699 140.449 139.815 140.46 139.871C137.631 139.565 134.835 138.999 131.998 138.786C125.938 138.711 119.876 138.793 113.815 138.763C113.774 138.707 113.694 138.593 113.651 138.537C118.832 138.626 124.015 138.546 129.197 138.577C129.792 138.542 130.446 138.651 130.989 138.352Z" fill="black"/>
<path d="M101.155 138.512C104.244 138.618 107.336 138.558 110.428 138.549L110.456 138.77C107.42 138.712 104.382 138.792 101.35 138.753C101.301 138.693 101.204 138.574 101.155 138.512Z" fill="black"/>
<path d="M111.438 138.793C111.665 138.292 112.388 138.709 112.822 138.565C112.825 138.63 112.836 138.76 112.839 138.825C112.372 138.837 111.904 138.828 111.438 138.793Z" fill="black"/>
<path d="M169.163 138.82C169.966 138.814 170.761 138.966 171.552 139.103C171.55 139.161 171.545 139.279 171.541 139.338C170.68 139.168 169.801 139.122 168.938 138.983C168.994 138.943 169.107 138.86 169.163 138.82Z" fill="black"/>
<path d="M172.248 139.481C172.464 139.101 173.062 139.268 173.301 139.56C172.948 139.663 172.586 139.59 172.248 139.481Z" fill="black"/>
<path d="M174.245 139.461C174.655 139.486 175.062 139.542 175.472 139.609C175.451 139.667 175.412 139.786 175.393 139.845C175.027 139.725 174.257 140.011 174.245 139.461Z" fill="black"/>
<path d="M146.095 167.887C149.077 167.917 152.058 167.892 155.039 167.915C155.871 167.948 156.713 167.847 157.539 167.971C153.722 168.054 149.903 167.978 146.087 168.005L146.095 167.887Z" fill="black"/>
<path d="M18.9703 169.154C20.2008 168.903 21.3908 168.456 22.6388 168.298C22.5017 168.534 22.2943 168.836 21.9937 168.641C21.9674 168.681 21.9164 168.762 21.89 168.803C21.0937 168.722 20.3256 169.082 19.5416 169.198L19.5715 169.402C20.2658 169.147 21.1148 169.068 21.8127 169.279C21.767 169.335 21.6756 169.446 21.6281 169.502C21.0006 169.327 20.3695 169.46 19.7385 169.523C19.7894 169.615 19.8896 169.796 19.9406 169.887C20.2236 169.618 20.4521 169.627 20.6279 169.917C19.4484 169.954 18.276 170.06 17.0982 170.179C17.1211 170.074 17.165 169.861 17.1879 169.754C17.1474 169.836 17.0683 170.002 17.0279 170.082C16.9013 170.128 16.6482 170.216 16.5217 170.26C17.2951 170.17 18.0545 170.385 18.8279 170.39C21.5437 170.467 24.2578 170.525 26.9719 170.671C28.9863 170.882 31.0236 170.798 33.0328 171.077C33.9539 171.13 34.8767 171.063 35.7978 171.142C35.7416 171.181 35.6326 171.26 35.5781 171.299L35.5886 171.148C33.9135 171.207 32.2453 171.081 30.5771 170.954C28.5943 170.944 26.6203 170.747 24.6375 170.708C22.3312 170.573 20.0179 170.777 17.7135 170.58C17.5359 170.578 17.397 170.65 17.2986 170.798C17.2599 170.242 16.4109 170.634 16.047 170.488C16.0576 170.576 16.0804 170.754 16.0927 170.842C16.1209 170.464 15.7254 170.562 15.5056 170.555C14.6531 170.617 13.8058 170.757 12.9515 170.81C12.9779 170.724 13.0306 170.553 13.057 170.467C15.0697 170.283 16.9963 169.566 18.9703 169.154ZM19.2129 169.597C19.3148 169.653 19.5205 169.764 19.6224 169.82C19.8281 169.634 19.3359 169.434 19.2129 169.597Z" fill="black"/>
<path d="M20.5576 169.747C21.5561 169.785 22.5545 169.798 23.5547 169.748C23.5494 169.812 23.5389 169.935 23.5336 169.998C22.5984 169.907 21.6545 169.959 20.7158 169.98L20.5576 169.747Z" fill="black"/>
<path d="M12.927 170.432C12.89 170.596 12.8549 170.761 12.8215 170.928C12.3363 170.91 11.8477 170.949 11.3959 171.137C13.6934 171.102 15.9961 170.958 18.2936 171.13C18.6135 171.109 19.0635 171.302 19.1988 170.893C19.2041 170.988 19.2129 171.178 19.2182 171.272C19.4133 171.171 19.6049 171.072 19.8018 170.979L19.8615 171.035C20.1867 171.276 20.6086 171.162 20.983 171.2C23.3701 171.236 25.752 171.448 28.1373 171.548C29.4926 171.591 30.8356 171.81 32.1908 171.833C31.4947 171.911 30.8004 171.81 30.1096 171.745C27.2268 171.55 24.3387 171.473 21.4559 171.322C18.7646 171.38 16.0734 171.25 13.384 171.338C12.1342 171.364 10.9178 171.715 9.66445 171.696C9.12305 171.823 8.56934 171.907 8.04024 172.088C8.69063 172.069 9.3375 172.002 9.98613 171.984L9.95801 172.201C9.225 172.199 8.46914 172.427 7.76777 172.118C7.77832 172.172 7.79766 172.283 7.8082 172.338C8.93496 172.622 10.0969 172.417 11.2395 172.478C10.5451 172.863 9.72246 172.642 8.96309 172.7C7.02774 172.621 5.09063 172.761 3.17637 173.057C4.28379 173.18 5.39824 173.076 6.50742 173.104C12.027 173.255 17.5271 173.786 23.0432 173.999C23.073 174.016 23.1346 174.053 23.1662 174.071C20.7756 173.941 18.385 173.835 15.9943 173.707C10.6734 173.415 5.30859 173.064 0 173.665V173.415C1.97402 173.25 3.87246 172.652 5.80957 172.281C7.91016 171.904 9.97383 171.35 12.0322 170.789C12.3363 170.691 12.6809 170.657 12.927 170.432Z" fill="black"/>
</g>
<defs>
<clipPath id="clip0_58_2489">
<rect width="180" height="180" fill="white"/>
</clipPath>
</defs>
</svg>
