<svg width="12" height="8" viewBox="0 0 12 8" fill="none" xmlns="http://www.w3.org/2000/svg">
<path d="M6 6.4C6.68182 6.4 7.26136 6.16667 7.73864 5.7C8.21591 5.23333 8.45455 4.66667 8.45455 4C8.45455 3.33333 8.21591 2.76667 7.73864 2.3C7.26136 1.83333 6.68182 1.6 6 1.6C5.31818 1.6 4.73864 1.83333 4.26136 2.3C3.78409 2.76667 3.54545 3.33333 3.54545 4C3.54545 4.66667 3.78409 5.23333 4.26136 5.7C4.73864 6.16667 5.31818 6.4 6 6.4ZM6 5.44C5.59091 5.44 5.24318 5.3 4.95682 5.02C4.67046 4.74 4.52727 4.4 4.52727 4C4.52727 3.6 4.67046 3.26 4.95682 2.98C5.24318 2.7 5.59091 2.56 6 2.56C6.40909 2.56 6.75682 2.7 7.04318 2.98C7.32955 3.26 7.47273 3.6 7.47273 4C7.47273 4.4 7.32955 4.74 7.04318 5.02C6.75682 5.3 6.40909 5.44 6 5.44ZM6 8C4.67273 8 3.46364 7.63778 2.37273 6.91333C1.28182 6.18889 0.490909 5.21778 0 4C0.490909 2.78222 1.28182 1.81111 2.37273 1.08667C3.46364 0.362222 4.67273 0 6 0C7.32727 0 8.53636 0.362222 9.62727 1.08667C10.7182 1.81111 11.5091 2.78222 12 4C11.5091 5.21778 10.7182 6.18889 9.62727 6.91333C8.53636 7.63778 7.32727 8 6 8ZM6 6.93333C7.02727 6.93333 7.97045 6.66889 8.82955 6.14C9.68864 5.61111 10.3455 4.89778 10.8 4C10.3455 3.10222 9.68864 2.38889 8.82955 1.86C7.97045 1.33111 7.02727 1.06667 6 1.06667C4.97273 1.06667 4.02955 1.33111 3.17045 1.86C2.31136 2.38889 1.65455 3.10222 1.2 4C1.65455 4.89778 2.31136 5.61111 3.17045 6.14C4.02955 6.66889 4.97273 6.93333 6 6.93333Z" fill="#3F3C3C"/>
</svg>
