<svg width="12" height="9" viewBox="0 0 12 9" fill="none" xmlns="http://www.w3.org/2000/svg">
<mask id="mask0_475_1223" style="mask-type:alpha" maskUnits="userSpaceOnUse" x="0" y="0" width="12" height="9">
<rect y="0.5" width="12" height="8" fill="#D9D9D9"/>
</mask>
<g mask="url(#mask0_475_1223)">
<path d="M7.61024 4.74242L7.02438 4.15657C7.08499 3.84007 6.99408 3.54377 6.75166 3.26768C6.50923 2.99158 6.1961 2.88384 5.81226 2.94444L5.2264 2.35859C5.34088 2.30471 5.45704 2.26431 5.57489 2.23737C5.69273 2.21044 5.819 2.19697 5.95368 2.19697C6.45873 2.19697 6.88802 2.37374 7.24155 2.72727C7.59509 3.08081 7.77186 3.5101 7.77186 4.01515C7.77186 4.14983 7.75839 4.27609 7.73145 4.39394C7.70452 4.51178 7.66411 4.62795 7.61024 4.74242ZM8.90317 6.01515L8.31731 5.44949C8.5732 5.25421 8.80048 5.0404 8.99913 4.80808C9.19778 4.57576 9.36782 4.31145 9.50923 4.01515C9.17253 3.33502 8.68937 2.79461 8.05974 2.39394C7.43011 1.99327 6.72809 1.79293 5.95368 1.79293C5.75839 1.79293 5.56647 1.8064 5.37792 1.83333C5.18937 1.86027 5.00418 1.90067 4.82236 1.95455L4.1961 1.32828C4.47219 1.2138 4.75502 1.12795 5.04458 1.07071C5.33415 1.01347 5.63718 0.984848 5.95368 0.984848C6.97051 0.984848 7.87623 1.26599 8.67085 1.82828C9.46546 2.39057 10.0412 3.11953 10.3981 4.01515C10.2432 4.41246 10.0395 4.78114 9.78701 5.12121C9.53448 5.46128 9.23987 5.75926 8.90317 6.01515ZM9.10519 8.5L7.40822 6.82323C7.17253 6.89731 6.93516 6.95286 6.6961 6.9899C6.45704 7.02694 6.20957 7.04545 5.95368 7.04545C4.93684 7.04545 4.03112 6.76431 3.2365 6.20202C2.44189 5.63973 1.86613 4.91077 1.50923 4.01515C1.65065 3.65825 1.8291 3.3266 2.04459 3.0202C2.26007 2.7138 2.50586 2.43939 2.78196 2.19697L1.67085 1.06566L2.2365 0.5L9.67085 7.93434L9.10519 8.5ZM3.34762 2.76263C3.15233 2.93771 2.97388 3.12963 2.81226 3.33838C2.65065 3.54714 2.5126 3.77273 2.39812 4.01515C2.73482 4.69529 3.21799 5.23569 3.84762 5.63636C4.47724 6.03704 5.17926 6.23737 5.95368 6.23737C6.08836 6.23737 6.21967 6.22896 6.34762 6.21212C6.47556 6.19529 6.60687 6.17677 6.74155 6.15657L6.37792 5.77273C6.30384 5.79293 6.23314 5.80808 6.1658 5.81818C6.09846 5.82828 6.02775 5.83333 5.95368 5.83333C5.44863 5.83333 5.01933 5.65657 4.6658 5.30303C4.31226 4.94949 4.13549 4.5202 4.13549 4.01515C4.13549 3.94108 4.14054 3.87037 4.15065 3.80303C4.16075 3.73569 4.1759 3.66498 4.1961 3.59091L3.34762 2.76263Z" fill="#3F3C3C"/>
</g>
</svg>
