<svg width="70" height="70" viewBox="0 0 70 70" fill="none" xmlns="http://www.w3.org/2000/svg">
<mask id="mask0_1_2161" style="mask-type:alpha" maskUnits="userSpaceOnUse" x="0" y="0" width="70" height="70">
<rect width="70" height="70" fill="#D9D9D9"/>
</mask>
<g mask="url(#mask0_1_2161)">
<path d="M15.7501 27.708C17.646 27.708 19.4446 28.0483 21.146 28.7289C22.8474 29.4094 24.4029 30.4059 25.8126 31.7184L53.6668 58.333H55.4168C56.2432 58.333 56.9359 58.0535 57.4949 57.4945C58.054 56.9355 58.3335 56.2427 58.3335 55.4164C58.3335 55.0275 58.297 54.6143 58.2241 54.1768C58.1512 53.7393 57.896 53.3018 57.4585 52.8643L44.1147 39.5205L38.9376 23.9164L33.5418 25.2289C31.6946 25.715 30.0175 25.3747 28.5106 24.208C27.0036 23.0414 26.2501 21.5101 26.2501 19.6143V13.4893L24.2085 12.4684L12.9793 27.4893C12.9307 27.5379 12.9064 27.5743 12.9064 27.5986C12.9064 27.623 12.8821 27.6594 12.8335 27.708H15.7501ZM15.7501 33.5414H12.396C12.5418 33.8816 12.7241 34.1976 12.9429 34.4893C13.1616 34.7809 13.4168 35.0483 13.7085 35.2914L37.3335 56.8018C37.8682 57.3365 38.4758 57.7254 39.1564 57.9684C39.8369 58.2115 40.5418 58.333 41.271 58.333H45.2085L21.8022 35.9476C20.9758 35.1212 20.0401 34.5136 18.9949 34.1247C17.9498 33.7358 16.8682 33.5414 15.7501 33.5414ZM41.271 64.1664C39.8126 64.1664 38.4272 63.899 37.1147 63.3643C35.8022 62.8296 34.5869 62.0761 33.4689 61.1039L9.77098 39.5934C7.53486 37.5518 6.28313 35.0483 6.01577 32.083C5.74841 29.1177 6.51403 26.4198 8.31264 23.9893L19.5418 8.96844C20.3682 7.85038 21.4741 7.10906 22.8595 6.74448C24.2449 6.3799 25.5696 6.53788 26.8335 7.21844L28.8751 8.23927C29.896 8.774 30.6859 9.50316 31.2449 10.4268C31.804 11.3504 32.0835 12.3712 32.0835 13.4893V19.6143L37.4793 18.2289C38.9376 17.84 40.3474 18.0223 41.7085 18.7757C43.0696 19.5292 43.9932 20.6108 44.4793 22.0205L49.2189 36.3122L61.6147 48.708C62.587 49.6802 63.2554 50.7254 63.6199 51.8434C63.9845 52.9615 64.1668 54.1525 64.1668 55.4164C64.1668 57.8469 63.3161 59.9129 61.6147 61.6143C59.9133 63.3157 57.8474 64.1664 55.4168 64.1664H41.271Z" fill="#3F3C3C"/>
</g>
</svg>
